G04 #@! TF.GenerationSoftware,KiCad,Pcbnew,(6.0.1-0)*
G04 #@! TF.CreationDate,2022-03-29T21:42:35-04:00*
G04 #@! TF.ProjectId,G76 Mini,47373620-4d69-46e6-992e-6b696361645f,rev?*
G04 #@! TF.SameCoordinates,Original*
G04 #@! TF.FileFunction,Copper,L2,Inr*
G04 #@! TF.FilePolarity,Positive*
%FSLAX46Y46*%
G04 Gerber Fmt 4.6, Leading zero omitted, Abs format (unit mm)*
G04 Created by KiCad (PCBNEW (6.0.1-0)) date 2022-03-29 21:42:35*
%MOMM*%
%LPD*%
G01*
G04 APERTURE LIST*
G04 #@! TA.AperFunction,ComponentPad*
%ADD10R,1.600000X1.600000*%
G04 #@! TD*
G04 #@! TA.AperFunction,ComponentPad*
%ADD11C,1.600000*%
G04 #@! TD*
G04 #@! TA.AperFunction,ComponentPad*
%ADD12R,1.700000X1.700000*%
G04 #@! TD*
G04 #@! TA.AperFunction,ComponentPad*
%ADD13O,1.700000X1.700000*%
G04 #@! TD*
G04 #@! TA.AperFunction,ViaPad*
%ADD14C,0.800000*%
G04 #@! TD*
G04 APERTURE END LIST*
D10*
X126746000Y-102743000D03*
D11*
X126746000Y-87503000D03*
X119126000Y-87503000D03*
X119126000Y-102743000D03*
D10*
X99459000Y-58479331D03*
D11*
X101749000Y-58479331D03*
X104039000Y-58479331D03*
X106329000Y-58479331D03*
X108619000Y-58479331D03*
X98314000Y-56499331D03*
X100604000Y-56499331D03*
X102894000Y-56499331D03*
X105184000Y-56499331D03*
X107474000Y-56499331D03*
X99459000Y-54519331D03*
X101749000Y-54519331D03*
X104039000Y-54519331D03*
X106329000Y-54519331D03*
X108619000Y-54519331D03*
D12*
X124460000Y-67945000D03*
D13*
X127000000Y-67945000D03*
X124460000Y-70485000D03*
X127000000Y-70485000D03*
X124460000Y-73025000D03*
X127000000Y-73025000D03*
X124460000Y-75565000D03*
X127000000Y-75565000D03*
X124460000Y-78105000D03*
X127000000Y-78105000D03*
D12*
X84323000Y-53213000D03*
D13*
X86863000Y-53213000D03*
X84323000Y-55753000D03*
X86863000Y-55753000D03*
X84323000Y-58293000D03*
X86863000Y-58293000D03*
X84323000Y-60833000D03*
X86863000Y-60833000D03*
X84323000Y-63373000D03*
X86863000Y-63373000D03*
X84323000Y-65913000D03*
X86863000Y-65913000D03*
X84323000Y-68453000D03*
X86863000Y-68453000D03*
X84323000Y-70993000D03*
X86863000Y-70993000D03*
X84323000Y-73533000D03*
X86863000Y-73533000D03*
X84323000Y-76073000D03*
X86863000Y-76073000D03*
X84323000Y-78613000D03*
X86863000Y-78613000D03*
X84323000Y-81153000D03*
X86863000Y-81153000D03*
X84323000Y-83693000D03*
X86863000Y-83693000D03*
X84323000Y-86233000D03*
X86863000Y-86233000D03*
X84323000Y-88773000D03*
X86863000Y-88773000D03*
X84323000Y-91313000D03*
X86863000Y-91313000D03*
D14*
X116078000Y-67945000D03*
X100076000Y-71755000D03*
X97409000Y-77978000D03*
X106553000Y-84074000D03*
X109855000Y-77944497D03*
X109728000Y-105918000D03*
X109855000Y-80043503D03*
X101262103Y-104208269D03*
X119126000Y-75438000D03*
X97409000Y-75946000D03*
X119126000Y-72898000D03*
X107271135Y-71737918D03*
X99568000Y-84328000D03*
X97917000Y-83820000D03*
X98171000Y-71755000D03*
X109855000Y-78994000D03*
X101219000Y-84201000D03*
X105537000Y-73152000D03*
X97663000Y-81407000D03*
X105410000Y-84074000D03*
X99060000Y-91313000D03*
X115316000Y-70866000D03*
X94234000Y-78232000D03*
X124079000Y-65278000D03*
X113538000Y-77597000D03*
X94234000Y-76200000D03*
X116713000Y-65024000D03*
X113030000Y-81407000D03*
X109220000Y-75311000D03*
X94361000Y-67183000D03*
X96266000Y-67183000D03*
X94234000Y-68326000D03*
X108076635Y-69202744D03*
X122174000Y-67945000D03*
X122301000Y-72898000D03*
X101219000Y-60198000D03*
X107061000Y-60198000D03*
X88873500Y-102108000D03*
X98552000Y-102108000D03*
X89381500Y-103380716D03*
X98552000Y-103378000D03*
X97918509Y-108006020D03*
X89916000Y-107061000D03*
X97059500Y-108236927D03*
X90678000Y-108458000D03*
X106172000Y-108331000D03*
X91694000Y-108458000D03*
X106172000Y-107061000D03*
X92329000Y-106680000D03*
X106172000Y-103378000D03*
X92964000Y-102743000D03*
X106172000Y-102108000D03*
X93726000Y-101473000D03*
X106172000Y-100838000D03*
X98042135Y-87503000D03*
G04 #@! TA.AperFunction,Conductor*
G36*
X130752121Y-46375002D02*
G01*
X130798614Y-46428658D01*
X130810000Y-46481000D01*
X130810000Y-117476000D01*
X130789998Y-117544121D01*
X130736342Y-117590614D01*
X130684000Y-117602000D01*
X82676000Y-117602000D01*
X82607879Y-117581998D01*
X82561386Y-117528342D01*
X82550000Y-117476000D01*
X82550000Y-107061000D01*
X89002496Y-107061000D01*
X89003186Y-107067565D01*
X89019402Y-107221847D01*
X89022458Y-107250928D01*
X89081473Y-107432556D01*
X89084776Y-107438278D01*
X89084777Y-107438279D01*
X89091365Y-107449690D01*
X89176960Y-107597944D01*
X89181375Y-107602847D01*
X89181379Y-107602852D01*
X89273985Y-107705701D01*
X89304747Y-107739866D01*
X89459248Y-107852118D01*
X89465276Y-107854802D01*
X89465278Y-107854803D01*
X89614086Y-107921056D01*
X89633712Y-107929794D01*
X89740653Y-107952525D01*
X89803126Y-107986253D01*
X89837448Y-108048403D01*
X89834289Y-108114708D01*
X89810025Y-108189385D01*
X89784458Y-108268072D01*
X89764496Y-108458000D01*
X89765186Y-108464565D01*
X89779652Y-108602198D01*
X89784458Y-108647928D01*
X89843473Y-108829556D01*
X89938960Y-108994944D01*
X90066747Y-109136866D01*
X90149664Y-109197109D01*
X90206122Y-109238128D01*
X90221248Y-109249118D01*
X90227276Y-109251802D01*
X90227278Y-109251803D01*
X90389681Y-109324109D01*
X90395712Y-109326794D01*
X90489113Y-109346647D01*
X90576056Y-109365128D01*
X90576061Y-109365128D01*
X90582513Y-109366500D01*
X90773487Y-109366500D01*
X90779939Y-109365128D01*
X90779944Y-109365128D01*
X90866887Y-109346647D01*
X90960288Y-109326794D01*
X91134752Y-109249118D01*
X91205118Y-109239684D01*
X91237247Y-109249118D01*
X91237248Y-109249118D01*
X91411712Y-109326794D01*
X91505113Y-109346647D01*
X91592056Y-109365128D01*
X91592061Y-109365128D01*
X91598513Y-109366500D01*
X91789487Y-109366500D01*
X91795939Y-109365128D01*
X91795944Y-109365128D01*
X91882887Y-109346647D01*
X91976288Y-109326794D01*
X91982319Y-109324109D01*
X92144722Y-109251803D01*
X92144724Y-109251802D01*
X92150752Y-109249118D01*
X92165879Y-109238128D01*
X92222336Y-109197109D01*
X92305253Y-109136866D01*
X92433040Y-108994944D01*
X92528527Y-108829556D01*
X92587542Y-108647928D01*
X92592349Y-108602198D01*
X92606814Y-108464565D01*
X92607504Y-108458000D01*
X92587542Y-108268072D01*
X92577422Y-108236927D01*
X96145996Y-108236927D01*
X96146686Y-108243492D01*
X96160779Y-108377576D01*
X96165958Y-108426855D01*
X96224973Y-108608483D01*
X96320460Y-108773871D01*
X96324878Y-108778778D01*
X96324879Y-108778779D01*
X96408932Y-108872129D01*
X96448247Y-108915793D01*
X96602748Y-109028045D01*
X96608776Y-109030729D01*
X96608778Y-109030730D01*
X96771181Y-109103036D01*
X96777212Y-109105721D01*
X96866985Y-109124803D01*
X96957556Y-109144055D01*
X96957561Y-109144055D01*
X96964013Y-109145427D01*
X97154987Y-109145427D01*
X97161439Y-109144055D01*
X97161444Y-109144055D01*
X97252015Y-109124803D01*
X97341788Y-109105721D01*
X97347819Y-109103036D01*
X97510222Y-109030730D01*
X97510224Y-109030729D01*
X97516252Y-109028045D01*
X97535929Y-109013749D01*
X97661188Y-108922743D01*
X97728056Y-108898884D01*
X97761445Y-108901432D01*
X97809265Y-108911596D01*
X97823022Y-108914520D01*
X98013996Y-108914520D01*
X98020448Y-108913148D01*
X98020453Y-108913148D01*
X98107397Y-108894667D01*
X98200797Y-108874814D01*
X98206828Y-108872129D01*
X98369231Y-108799823D01*
X98369233Y-108799822D01*
X98375261Y-108797138D01*
X98529762Y-108684886D01*
X98563039Y-108647928D01*
X98653130Y-108547872D01*
X98653131Y-108547871D01*
X98657549Y-108542964D01*
X98753036Y-108377576D01*
X98768170Y-108331000D01*
X105258496Y-108331000D01*
X105278458Y-108520928D01*
X105337473Y-108702556D01*
X105432960Y-108867944D01*
X105437378Y-108872851D01*
X105437379Y-108872852D01*
X105482301Y-108922743D01*
X105560747Y-109009866D01*
X105589464Y-109030730D01*
X105692680Y-109105721D01*
X105715248Y-109122118D01*
X105721276Y-109124802D01*
X105721278Y-109124803D01*
X105767601Y-109145427D01*
X105889712Y-109199794D01*
X105983113Y-109219647D01*
X106070056Y-109238128D01*
X106070061Y-109238128D01*
X106076513Y-109239500D01*
X106267487Y-109239500D01*
X106273939Y-109238128D01*
X106273944Y-109238128D01*
X106360887Y-109219647D01*
X106454288Y-109199794D01*
X106576399Y-109145427D01*
X106622722Y-109124803D01*
X106622724Y-109124802D01*
X106628752Y-109122118D01*
X106651321Y-109105721D01*
X106754536Y-109030730D01*
X106783253Y-109009866D01*
X106861699Y-108922743D01*
X106906621Y-108872852D01*
X106906622Y-108872851D01*
X106911040Y-108867944D01*
X107006527Y-108702556D01*
X107065542Y-108520928D01*
X107085504Y-108331000D01*
X107074927Y-108230362D01*
X107066232Y-108147635D01*
X107066232Y-108147633D01*
X107065542Y-108141072D01*
X107006527Y-107959444D01*
X106911040Y-107794056D01*
X106898662Y-107780309D01*
X106867946Y-107716303D01*
X106876710Y-107645850D01*
X106898661Y-107611693D01*
X106911040Y-107597944D01*
X106996635Y-107449690D01*
X107003223Y-107438279D01*
X107003224Y-107438278D01*
X107006527Y-107432556D01*
X107065542Y-107250928D01*
X107068599Y-107221847D01*
X107084814Y-107067565D01*
X107085504Y-107061000D01*
X107065542Y-106871072D01*
X107006527Y-106689444D01*
X107001075Y-106680000D01*
X106914341Y-106529774D01*
X106911040Y-106524056D01*
X106783253Y-106382134D01*
X106628752Y-106269882D01*
X106622724Y-106267198D01*
X106622722Y-106267197D01*
X106460319Y-106194891D01*
X106460318Y-106194891D01*
X106454288Y-106192206D01*
X106360887Y-106172353D01*
X106273944Y-106153872D01*
X106273939Y-106153872D01*
X106267487Y-106152500D01*
X106076513Y-106152500D01*
X106070061Y-106153872D01*
X106070056Y-106153872D01*
X105983112Y-106172353D01*
X105889712Y-106192206D01*
X105883682Y-106194891D01*
X105883681Y-106194891D01*
X105721278Y-106267197D01*
X105721276Y-106267198D01*
X105715248Y-106269882D01*
X105560747Y-106382134D01*
X105432960Y-106524056D01*
X105429659Y-106529774D01*
X105342926Y-106680000D01*
X105337473Y-106689444D01*
X105278458Y-106871072D01*
X105258496Y-107061000D01*
X105259186Y-107067565D01*
X105275402Y-107221847D01*
X105278458Y-107250928D01*
X105337473Y-107432556D01*
X105340776Y-107438278D01*
X105340777Y-107438279D01*
X105347365Y-107449690D01*
X105432960Y-107597944D01*
X105445338Y-107611691D01*
X105476054Y-107675697D01*
X105467290Y-107746150D01*
X105445339Y-107780307D01*
X105432960Y-107794056D01*
X105337473Y-107959444D01*
X105278458Y-108141072D01*
X105277768Y-108147633D01*
X105277768Y-108147635D01*
X105269073Y-108230362D01*
X105258496Y-108331000D01*
X98768170Y-108331000D01*
X98812051Y-108195948D01*
X98818479Y-108134794D01*
X98831323Y-108012585D01*
X98832013Y-108006020D01*
X98824146Y-107931166D01*
X98812741Y-107822655D01*
X98812741Y-107822653D01*
X98812051Y-107816092D01*
X98753036Y-107634464D01*
X98725707Y-107587128D01*
X98703982Y-107549500D01*
X98657549Y-107469076D01*
X98529762Y-107327154D01*
X98375261Y-107214902D01*
X98369233Y-107212218D01*
X98369231Y-107212217D01*
X98206828Y-107139911D01*
X98206827Y-107139911D01*
X98200797Y-107137226D01*
X98107397Y-107117373D01*
X98020453Y-107098892D01*
X98020448Y-107098892D01*
X98013996Y-107097520D01*
X97823022Y-107097520D01*
X97816570Y-107098892D01*
X97816565Y-107098892D01*
X97729621Y-107117373D01*
X97636221Y-107137226D01*
X97630191Y-107139911D01*
X97630190Y-107139911D01*
X97467787Y-107212217D01*
X97467785Y-107212218D01*
X97461757Y-107214902D01*
X97456416Y-107218782D01*
X97456415Y-107218783D01*
X97316821Y-107320204D01*
X97249953Y-107344063D01*
X97216564Y-107341515D01*
X97161446Y-107329800D01*
X97161447Y-107329800D01*
X97154987Y-107328427D01*
X96964013Y-107328427D01*
X96957561Y-107329799D01*
X96957556Y-107329799D01*
X96870613Y-107348280D01*
X96777212Y-107368133D01*
X96771182Y-107370818D01*
X96771181Y-107370818D01*
X96608778Y-107443124D01*
X96608776Y-107443125D01*
X96602748Y-107445809D01*
X96448247Y-107558061D01*
X96443826Y-107562971D01*
X96443825Y-107562972D01*
X96369202Y-107645850D01*
X96320460Y-107699983D01*
X96274762Y-107779134D01*
X96232625Y-107852118D01*
X96224973Y-107865371D01*
X96165958Y-108046999D01*
X96165268Y-108053560D01*
X96165268Y-108053562D01*
X96156730Y-108134794D01*
X96145996Y-108236927D01*
X92577422Y-108236927D01*
X92528527Y-108086444D01*
X92433040Y-107921056D01*
X92322968Y-107798808D01*
X92292252Y-107734803D01*
X92301016Y-107664349D01*
X92346478Y-107609818D01*
X92411411Y-107590079D01*
X92411318Y-107589190D01*
X92415929Y-107588705D01*
X92416605Y-107588500D01*
X92424487Y-107588500D01*
X92430939Y-107587128D01*
X92430944Y-107587128D01*
X92528106Y-107566475D01*
X92611288Y-107548794D01*
X92617319Y-107546109D01*
X92779722Y-107473803D01*
X92779724Y-107473802D01*
X92785752Y-107471118D01*
X92940253Y-107358866D01*
X92972303Y-107323271D01*
X93063621Y-107221852D01*
X93063625Y-107221847D01*
X93068040Y-107216944D01*
X93126314Y-107116010D01*
X93160223Y-107057279D01*
X93160224Y-107057278D01*
X93163527Y-107051556D01*
X93222542Y-106869928D01*
X93242504Y-106680000D01*
X93222542Y-106490072D01*
X93163527Y-106308444D01*
X93068040Y-106143056D01*
X92940253Y-106001134D01*
X92785752Y-105888882D01*
X92779724Y-105886198D01*
X92779722Y-105886197D01*
X92617319Y-105813891D01*
X92617318Y-105813891D01*
X92611288Y-105811206D01*
X92517888Y-105791353D01*
X92430944Y-105772872D01*
X92430939Y-105772872D01*
X92424487Y-105771500D01*
X92233513Y-105771500D01*
X92227061Y-105772872D01*
X92227056Y-105772872D01*
X92140113Y-105791353D01*
X92046712Y-105811206D01*
X92040682Y-105813891D01*
X92040681Y-105813891D01*
X91878278Y-105886197D01*
X91878276Y-105886198D01*
X91872248Y-105888882D01*
X91717747Y-106001134D01*
X91589960Y-106143056D01*
X91494473Y-106308444D01*
X91435458Y-106490072D01*
X91415496Y-106680000D01*
X91435458Y-106869928D01*
X91494473Y-107051556D01*
X91497776Y-107057278D01*
X91497777Y-107057279D01*
X91531686Y-107116010D01*
X91589960Y-107216944D01*
X91700032Y-107339192D01*
X91730748Y-107403197D01*
X91721984Y-107473651D01*
X91676522Y-107528182D01*
X91611589Y-107547921D01*
X91611682Y-107548810D01*
X91607071Y-107549295D01*
X91606395Y-107549500D01*
X91598513Y-107549500D01*
X91592061Y-107550872D01*
X91592056Y-107550872D01*
X91518652Y-107566475D01*
X91411712Y-107589206D01*
X91237248Y-107666882D01*
X91166882Y-107676316D01*
X91134753Y-107666882D01*
X91134752Y-107666882D01*
X90960288Y-107589206D01*
X90853347Y-107566475D01*
X90790874Y-107532747D01*
X90756552Y-107470597D01*
X90759711Y-107404292D01*
X90807502Y-107257206D01*
X90809542Y-107250928D01*
X90812599Y-107221847D01*
X90828814Y-107067565D01*
X90829504Y-107061000D01*
X90809542Y-106871072D01*
X90750527Y-106689444D01*
X90745075Y-106680000D01*
X90658341Y-106529774D01*
X90655040Y-106524056D01*
X90527253Y-106382134D01*
X90372752Y-106269882D01*
X90366724Y-106267198D01*
X90366722Y-106267197D01*
X90204319Y-106194891D01*
X90204318Y-106194891D01*
X90198288Y-106192206D01*
X90104887Y-106172353D01*
X90017944Y-106153872D01*
X90017939Y-106153872D01*
X90011487Y-106152500D01*
X89820513Y-106152500D01*
X89814061Y-106153872D01*
X89814056Y-106153872D01*
X89727112Y-106172353D01*
X89633712Y-106192206D01*
X89627682Y-106194891D01*
X89627681Y-106194891D01*
X89465278Y-106267197D01*
X89465276Y-106267198D01*
X89459248Y-106269882D01*
X89304747Y-106382134D01*
X89176960Y-106524056D01*
X89173659Y-106529774D01*
X89086926Y-106680000D01*
X89081473Y-106689444D01*
X89022458Y-106871072D01*
X89002496Y-107061000D01*
X82550000Y-107061000D01*
X82550000Y-102108000D01*
X87959996Y-102108000D01*
X87960686Y-102114565D01*
X87976687Y-102266803D01*
X87979958Y-102297928D01*
X88038973Y-102479556D01*
X88134460Y-102644944D01*
X88138875Y-102649847D01*
X88138879Y-102649852D01*
X88228661Y-102749565D01*
X88262247Y-102786866D01*
X88416748Y-102899118D01*
X88422776Y-102901802D01*
X88422778Y-102901803D01*
X88458109Y-102917533D01*
X88512204Y-102963513D01*
X88532854Y-103031440D01*
X88526694Y-103071573D01*
X88487958Y-103190788D01*
X88487268Y-103197349D01*
X88487268Y-103197351D01*
X88468971Y-103371435D01*
X88467996Y-103380716D01*
X88487958Y-103570644D01*
X88546973Y-103752272D01*
X88642460Y-103917660D01*
X88646878Y-103922567D01*
X88646879Y-103922568D01*
X88710850Y-103993615D01*
X88770247Y-104059582D01*
X88924748Y-104171834D01*
X88930776Y-104174518D01*
X88930778Y-104174519D01*
X89093181Y-104246825D01*
X89099212Y-104249510D01*
X89192612Y-104269363D01*
X89279556Y-104287844D01*
X89279561Y-104287844D01*
X89286013Y-104289216D01*
X89476987Y-104289216D01*
X89483439Y-104287844D01*
X89483444Y-104287844D01*
X89570387Y-104269363D01*
X89663788Y-104249510D01*
X89669819Y-104246825D01*
X89832222Y-104174519D01*
X89832224Y-104174518D01*
X89838252Y-104171834D01*
X89992753Y-104059582D01*
X90052150Y-103993615D01*
X90116121Y-103922568D01*
X90116122Y-103922567D01*
X90120540Y-103917660D01*
X90216027Y-103752272D01*
X90275042Y-103570644D01*
X90295004Y-103380716D01*
X90294029Y-103371435D01*
X90275732Y-103197351D01*
X90275732Y-103197349D01*
X90275042Y-103190788D01*
X90216027Y-103009160D01*
X90120540Y-102843772D01*
X90105719Y-102827311D01*
X90029805Y-102743000D01*
X92050496Y-102743000D01*
X92051186Y-102749565D01*
X92067187Y-102901803D01*
X92070458Y-102932928D01*
X92129473Y-103114556D01*
X92224960Y-103279944D01*
X92229378Y-103284851D01*
X92229379Y-103284852D01*
X92328116Y-103394511D01*
X92352747Y-103421866D01*
X92507248Y-103534118D01*
X92513276Y-103536802D01*
X92513278Y-103536803D01*
X92642938Y-103594531D01*
X92681712Y-103611794D01*
X92775113Y-103631647D01*
X92862056Y-103650128D01*
X92862061Y-103650128D01*
X92868513Y-103651500D01*
X93059487Y-103651500D01*
X93065939Y-103650128D01*
X93065944Y-103650128D01*
X93152887Y-103631647D01*
X93246288Y-103611794D01*
X93285062Y-103594531D01*
X93414722Y-103536803D01*
X93414724Y-103536802D01*
X93420752Y-103534118D01*
X93575253Y-103421866D01*
X93599884Y-103394511D01*
X93614751Y-103378000D01*
X97638496Y-103378000D01*
X97639186Y-103384565D01*
X97655187Y-103536803D01*
X97658458Y-103567928D01*
X97717473Y-103749556D01*
X97812960Y-103914944D01*
X97817378Y-103919851D01*
X97817379Y-103919852D01*
X97927335Y-104041971D01*
X97940747Y-104056866D01*
X98095248Y-104169118D01*
X98101276Y-104171802D01*
X98101278Y-104171803D01*
X98263681Y-104244109D01*
X98269712Y-104246794D01*
X98363112Y-104266647D01*
X98450056Y-104285128D01*
X98450061Y-104285128D01*
X98456513Y-104286500D01*
X98647487Y-104286500D01*
X98653939Y-104285128D01*
X98653944Y-104285128D01*
X98740887Y-104266647D01*
X98834288Y-104246794D01*
X98840319Y-104244109D01*
X99002722Y-104171803D01*
X99002724Y-104171802D01*
X99008752Y-104169118D01*
X99163253Y-104056866D01*
X99176665Y-104041971D01*
X99286621Y-103919852D01*
X99286622Y-103919851D01*
X99291040Y-103914944D01*
X99386527Y-103749556D01*
X99445542Y-103567928D01*
X99448814Y-103536803D01*
X99464814Y-103384565D01*
X99465504Y-103378000D01*
X105258496Y-103378000D01*
X105259186Y-103384565D01*
X105275187Y-103536803D01*
X105278458Y-103567928D01*
X105337473Y-103749556D01*
X105432960Y-103914944D01*
X105437378Y-103919851D01*
X105437379Y-103919852D01*
X105547335Y-104041971D01*
X105560747Y-104056866D01*
X105715248Y-104169118D01*
X105721276Y-104171802D01*
X105721278Y-104171803D01*
X105883681Y-104244109D01*
X105889712Y-104246794D01*
X105983112Y-104266647D01*
X106070056Y-104285128D01*
X106070061Y-104285128D01*
X106076513Y-104286500D01*
X106267487Y-104286500D01*
X106273939Y-104285128D01*
X106273944Y-104285128D01*
X106360887Y-104266647D01*
X106454288Y-104246794D01*
X106460319Y-104244109D01*
X106622722Y-104171803D01*
X106622724Y-104171802D01*
X106628752Y-104169118D01*
X106783253Y-104056866D01*
X106796665Y-104041971D01*
X106906621Y-103919852D01*
X106906622Y-103919851D01*
X106911040Y-103914944D01*
X106960624Y-103829062D01*
X118404493Y-103829062D01*
X118413789Y-103841077D01*
X118464994Y-103876931D01*
X118474489Y-103882414D01*
X118671947Y-103974490D01*
X118682239Y-103978236D01*
X118892688Y-104034625D01*
X118903481Y-104036528D01*
X119120525Y-104055517D01*
X119131475Y-104055517D01*
X119348519Y-104036528D01*
X119359312Y-104034625D01*
X119569761Y-103978236D01*
X119580053Y-103974490D01*
X119777511Y-103882414D01*
X119787006Y-103876931D01*
X119839048Y-103840491D01*
X119847424Y-103830012D01*
X119840356Y-103816566D01*
X119614924Y-103591134D01*
X125437500Y-103591134D01*
X125444255Y-103653316D01*
X125495385Y-103789705D01*
X125582739Y-103906261D01*
X125699295Y-103993615D01*
X125835684Y-104044745D01*
X125897866Y-104051500D01*
X127594134Y-104051500D01*
X127656316Y-104044745D01*
X127792705Y-103993615D01*
X127909261Y-103906261D01*
X127996615Y-103789705D01*
X128047745Y-103653316D01*
X128054500Y-103591134D01*
X128054500Y-101894866D01*
X128047745Y-101832684D01*
X127996615Y-101696295D01*
X127909261Y-101579739D01*
X127792705Y-101492385D01*
X127656316Y-101441255D01*
X127594134Y-101434500D01*
X125897866Y-101434500D01*
X125835684Y-101441255D01*
X125699295Y-101492385D01*
X125582739Y-101579739D01*
X125495385Y-101696295D01*
X125444255Y-101832684D01*
X125437500Y-101894866D01*
X125437500Y-103591134D01*
X119614924Y-103591134D01*
X119138812Y-103115022D01*
X119124868Y-103107408D01*
X119123035Y-103107539D01*
X119116420Y-103111790D01*
X118410923Y-103817287D01*
X118404493Y-103829062D01*
X106960624Y-103829062D01*
X107006527Y-103749556D01*
X107065542Y-103567928D01*
X107068814Y-103536803D01*
X107084814Y-103384565D01*
X107085504Y-103378000D01*
X107065542Y-103188072D01*
X107006527Y-103006444D01*
X106984184Y-102967744D01*
X106914341Y-102846774D01*
X106911040Y-102841056D01*
X106898662Y-102827309D01*
X106867946Y-102763303D01*
X106869791Y-102748475D01*
X117813483Y-102748475D01*
X117832472Y-102965519D01*
X117834375Y-102976312D01*
X117890764Y-103186761D01*
X117894510Y-103197053D01*
X117986586Y-103394511D01*
X117992069Y-103404006D01*
X118028509Y-103456048D01*
X118038988Y-103464424D01*
X118052434Y-103457356D01*
X118753978Y-102755812D01*
X118760356Y-102744132D01*
X119490408Y-102744132D01*
X119490539Y-102745965D01*
X119494790Y-102752580D01*
X120200287Y-103458077D01*
X120212062Y-103464507D01*
X120224077Y-103455211D01*
X120259931Y-103404006D01*
X120265414Y-103394511D01*
X120357490Y-103197053D01*
X120361236Y-103186761D01*
X120417625Y-102976312D01*
X120419528Y-102965519D01*
X120438517Y-102748475D01*
X120438517Y-102737525D01*
X120419528Y-102520481D01*
X120417625Y-102509688D01*
X120361236Y-102299239D01*
X120357490Y-102288947D01*
X120265414Y-102091489D01*
X120259931Y-102081994D01*
X120223491Y-102029952D01*
X120213012Y-102021576D01*
X120199566Y-102028644D01*
X119498022Y-102730188D01*
X119490408Y-102744132D01*
X118760356Y-102744132D01*
X118761592Y-102741868D01*
X118761461Y-102740035D01*
X118757210Y-102733420D01*
X118051713Y-102027923D01*
X118039938Y-102021493D01*
X118027923Y-102030789D01*
X117992069Y-102081994D01*
X117986586Y-102091489D01*
X117894510Y-102288947D01*
X117890764Y-102299239D01*
X117834375Y-102509688D01*
X117832472Y-102520481D01*
X117813483Y-102737525D01*
X117813483Y-102748475D01*
X106869791Y-102748475D01*
X106876710Y-102692850D01*
X106898661Y-102658693D01*
X106911040Y-102644944D01*
X107006527Y-102479556D01*
X107065542Y-102297928D01*
X107068814Y-102266803D01*
X107084814Y-102114565D01*
X107085504Y-102108000D01*
X107077301Y-102029952D01*
X107066232Y-101924635D01*
X107066232Y-101924633D01*
X107065542Y-101918072D01*
X107006527Y-101736444D01*
X106960076Y-101655988D01*
X118404576Y-101655988D01*
X118411644Y-101669434D01*
X119113188Y-102370978D01*
X119127132Y-102378592D01*
X119128965Y-102378461D01*
X119135580Y-102374210D01*
X119841077Y-101668713D01*
X119847507Y-101656938D01*
X119838211Y-101644923D01*
X119787006Y-101609069D01*
X119777511Y-101603586D01*
X119580053Y-101511510D01*
X119569761Y-101507764D01*
X119359312Y-101451375D01*
X119348519Y-101449472D01*
X119131475Y-101430483D01*
X119120525Y-101430483D01*
X118903481Y-101449472D01*
X118892688Y-101451375D01*
X118682239Y-101507764D01*
X118671947Y-101511510D01*
X118474489Y-101603586D01*
X118464994Y-101609069D01*
X118412952Y-101645509D01*
X118404576Y-101655988D01*
X106960076Y-101655988D01*
X106911040Y-101571056D01*
X106898662Y-101557309D01*
X106867946Y-101493303D01*
X106876710Y-101422850D01*
X106898661Y-101388693D01*
X106911040Y-101374944D01*
X107006527Y-101209556D01*
X107065542Y-101027928D01*
X107085504Y-100838000D01*
X107080485Y-100790251D01*
X107066232Y-100654635D01*
X107066232Y-100654633D01*
X107065542Y-100648072D01*
X107006527Y-100466444D01*
X106911040Y-100301056D01*
X106783253Y-100159134D01*
X106628752Y-100046882D01*
X106622724Y-100044198D01*
X106622722Y-100044197D01*
X106460319Y-99971891D01*
X106460318Y-99971891D01*
X106454288Y-99969206D01*
X106360888Y-99949353D01*
X106273944Y-99930872D01*
X106273939Y-99930872D01*
X106267487Y-99929500D01*
X106076513Y-99929500D01*
X106070061Y-99930872D01*
X106070056Y-99930872D01*
X105983112Y-99949353D01*
X105889712Y-99969206D01*
X105883682Y-99971891D01*
X105883681Y-99971891D01*
X105721278Y-100044197D01*
X105721276Y-100044198D01*
X105715248Y-100046882D01*
X105560747Y-100159134D01*
X105432960Y-100301056D01*
X105337473Y-100466444D01*
X105278458Y-100648072D01*
X105277768Y-100654633D01*
X105277768Y-100654635D01*
X105263515Y-100790251D01*
X105258496Y-100838000D01*
X105278458Y-101027928D01*
X105337473Y-101209556D01*
X105432960Y-101374944D01*
X105445338Y-101388691D01*
X105476054Y-101452697D01*
X105467290Y-101523150D01*
X105445339Y-101557307D01*
X105432960Y-101571056D01*
X105337473Y-101736444D01*
X105278458Y-101918072D01*
X105277768Y-101924633D01*
X105277768Y-101924635D01*
X105266699Y-102029952D01*
X105258496Y-102108000D01*
X105259186Y-102114565D01*
X105275187Y-102266803D01*
X105278458Y-102297928D01*
X105337473Y-102479556D01*
X105432960Y-102644944D01*
X105445338Y-102658691D01*
X105476054Y-102722697D01*
X105467290Y-102793150D01*
X105445339Y-102827307D01*
X105432960Y-102841056D01*
X105429659Y-102846774D01*
X105359817Y-102967744D01*
X105337473Y-103006444D01*
X105278458Y-103188072D01*
X105258496Y-103378000D01*
X99465504Y-103378000D01*
X99445542Y-103188072D01*
X99386527Y-103006444D01*
X99364184Y-102967744D01*
X99294341Y-102846774D01*
X99291040Y-102841056D01*
X99278662Y-102827309D01*
X99247946Y-102763303D01*
X99256710Y-102692850D01*
X99278661Y-102658693D01*
X99291040Y-102644944D01*
X99386527Y-102479556D01*
X99445542Y-102297928D01*
X99448814Y-102266803D01*
X99464814Y-102114565D01*
X99465504Y-102108000D01*
X99457301Y-102029952D01*
X99446232Y-101924635D01*
X99446232Y-101924633D01*
X99445542Y-101918072D01*
X99386527Y-101736444D01*
X99291040Y-101571056D01*
X99220205Y-101492385D01*
X99167675Y-101434045D01*
X99167674Y-101434044D01*
X99163253Y-101429134D01*
X99008752Y-101316882D01*
X99002724Y-101314198D01*
X99002722Y-101314197D01*
X98840319Y-101241891D01*
X98840318Y-101241891D01*
X98834288Y-101239206D01*
X98721721Y-101215279D01*
X98653944Y-101200872D01*
X98653939Y-101200872D01*
X98647487Y-101199500D01*
X98456513Y-101199500D01*
X98450061Y-101200872D01*
X98450056Y-101200872D01*
X98382279Y-101215279D01*
X98269712Y-101239206D01*
X98263682Y-101241891D01*
X98263681Y-101241891D01*
X98101278Y-101314197D01*
X98101276Y-101314198D01*
X98095248Y-101316882D01*
X97940747Y-101429134D01*
X97936326Y-101434044D01*
X97936325Y-101434045D01*
X97883796Y-101492385D01*
X97812960Y-101571056D01*
X97717473Y-101736444D01*
X97658458Y-101918072D01*
X97657768Y-101924633D01*
X97657768Y-101924635D01*
X97646699Y-102029952D01*
X97638496Y-102108000D01*
X97639186Y-102114565D01*
X97655187Y-102266803D01*
X97658458Y-102297928D01*
X97717473Y-102479556D01*
X97812960Y-102644944D01*
X97825338Y-102658691D01*
X97856054Y-102722697D01*
X97847290Y-102793150D01*
X97825339Y-102827307D01*
X97812960Y-102841056D01*
X97809659Y-102846774D01*
X97739817Y-102967744D01*
X97717473Y-103006444D01*
X97658458Y-103188072D01*
X97638496Y-103378000D01*
X93614751Y-103378000D01*
X93698621Y-103284852D01*
X93698622Y-103284851D01*
X93703040Y-103279944D01*
X93798527Y-103114556D01*
X93857542Y-102932928D01*
X93860814Y-102901803D01*
X93876814Y-102749565D01*
X93877504Y-102743000D01*
X93867714Y-102649852D01*
X93858233Y-102559642D01*
X93858232Y-102559635D01*
X93857542Y-102553072D01*
X93846310Y-102518504D01*
X93844282Y-102447538D01*
X93880944Y-102386740D01*
X93939945Y-102356322D01*
X94001824Y-102343169D01*
X94001833Y-102343166D01*
X94008288Y-102341794D01*
X94014319Y-102339109D01*
X94176722Y-102266803D01*
X94176724Y-102266802D01*
X94182752Y-102264118D01*
X94337253Y-102151866D01*
X94416247Y-102064134D01*
X94460621Y-102014852D01*
X94460622Y-102014851D01*
X94465040Y-102009944D01*
X94543409Y-101874206D01*
X94557223Y-101850279D01*
X94557224Y-101850278D01*
X94560527Y-101844556D01*
X94619542Y-101662928D01*
X94620272Y-101655988D01*
X94638814Y-101479565D01*
X94639504Y-101473000D01*
X94628597Y-101369226D01*
X94620232Y-101289635D01*
X94620232Y-101289633D01*
X94619542Y-101283072D01*
X94560527Y-101101444D01*
X94465040Y-100936056D01*
X94337253Y-100794134D01*
X94182752Y-100681882D01*
X94176724Y-100679198D01*
X94176722Y-100679197D01*
X94014319Y-100606891D01*
X94014318Y-100606891D01*
X94008288Y-100604206D01*
X93914888Y-100584353D01*
X93827944Y-100565872D01*
X93827939Y-100565872D01*
X93821487Y-100564500D01*
X93630513Y-100564500D01*
X93624061Y-100565872D01*
X93624056Y-100565872D01*
X93537112Y-100584353D01*
X93443712Y-100604206D01*
X93437682Y-100606891D01*
X93437681Y-100606891D01*
X93275278Y-100679197D01*
X93275276Y-100679198D01*
X93269248Y-100681882D01*
X93114747Y-100794134D01*
X92986960Y-100936056D01*
X92891473Y-101101444D01*
X92832458Y-101283072D01*
X92831768Y-101289633D01*
X92831768Y-101289635D01*
X92823403Y-101369226D01*
X92812496Y-101473000D01*
X92813186Y-101479565D01*
X92831729Y-101655988D01*
X92832458Y-101662928D01*
X92843690Y-101697496D01*
X92845718Y-101768462D01*
X92809056Y-101829260D01*
X92750055Y-101859678D01*
X92688176Y-101872831D01*
X92688167Y-101872834D01*
X92681712Y-101874206D01*
X92675682Y-101876891D01*
X92675681Y-101876891D01*
X92513278Y-101949197D01*
X92513276Y-101949198D01*
X92507248Y-101951882D01*
X92352747Y-102064134D01*
X92348326Y-102069044D01*
X92348325Y-102069045D01*
X92270257Y-102155749D01*
X92224960Y-102206056D01*
X92221659Y-102211774D01*
X92145798Y-102343169D01*
X92129473Y-102371444D01*
X92070458Y-102553072D01*
X92050496Y-102743000D01*
X90029805Y-102743000D01*
X89997175Y-102706761D01*
X89997174Y-102706760D01*
X89992753Y-102701850D01*
X89838252Y-102589598D01*
X89832224Y-102586914D01*
X89832222Y-102586913D01*
X89796891Y-102571183D01*
X89742796Y-102525203D01*
X89722146Y-102457276D01*
X89728306Y-102417143D01*
X89767042Y-102297928D01*
X89770314Y-102266803D01*
X89786314Y-102114565D01*
X89787004Y-102108000D01*
X89778801Y-102029952D01*
X89767732Y-101924635D01*
X89767732Y-101924633D01*
X89767042Y-101918072D01*
X89708027Y-101736444D01*
X89612540Y-101571056D01*
X89541705Y-101492385D01*
X89489175Y-101434045D01*
X89489174Y-101434044D01*
X89484753Y-101429134D01*
X89330252Y-101316882D01*
X89324224Y-101314198D01*
X89324222Y-101314197D01*
X89161819Y-101241891D01*
X89161818Y-101241891D01*
X89155788Y-101239206D01*
X89043221Y-101215279D01*
X88975444Y-101200872D01*
X88975439Y-101200872D01*
X88968987Y-101199500D01*
X88778013Y-101199500D01*
X88771561Y-101200872D01*
X88771556Y-101200872D01*
X88703779Y-101215279D01*
X88591212Y-101239206D01*
X88585182Y-101241891D01*
X88585181Y-101241891D01*
X88422778Y-101314197D01*
X88422776Y-101314198D01*
X88416748Y-101316882D01*
X88262247Y-101429134D01*
X88257826Y-101434044D01*
X88257825Y-101434045D01*
X88205296Y-101492385D01*
X88134460Y-101571056D01*
X88038973Y-101736444D01*
X87979958Y-101918072D01*
X87979268Y-101924633D01*
X87979268Y-101924635D01*
X87968199Y-102029952D01*
X87959996Y-102108000D01*
X82550000Y-102108000D01*
X82550000Y-91580966D01*
X82991257Y-91580966D01*
X83021565Y-91715446D01*
X83024645Y-91725275D01*
X83104770Y-91922603D01*
X83109413Y-91931794D01*
X83220694Y-92113388D01*
X83226777Y-92121699D01*
X83366213Y-92282667D01*
X83373580Y-92289883D01*
X83537434Y-92425916D01*
X83545881Y-92431831D01*
X83729756Y-92539279D01*
X83739042Y-92543729D01*
X83938001Y-92619703D01*
X83947899Y-92622579D01*
X84051250Y-92643606D01*
X84065299Y-92642410D01*
X84069000Y-92632065D01*
X84069000Y-91585115D01*
X84064525Y-91569876D01*
X84063135Y-91568671D01*
X84055452Y-91567000D01*
X83006225Y-91567000D01*
X82992694Y-91570973D01*
X82991257Y-91580966D01*
X82550000Y-91580966D01*
X82550000Y-88739695D01*
X82960251Y-88739695D01*
X82960548Y-88744848D01*
X82960548Y-88744851D01*
X82966011Y-88839590D01*
X82973110Y-88962715D01*
X82974247Y-88967761D01*
X82974248Y-88967767D01*
X82994119Y-89055939D01*
X83022222Y-89180639D01*
X83106266Y-89387616D01*
X83157019Y-89470438D01*
X83220291Y-89573688D01*
X83222987Y-89578088D01*
X83369250Y-89746938D01*
X83541126Y-89889632D01*
X83614445Y-89932476D01*
X83614955Y-89932774D01*
X83663679Y-89984412D01*
X83676750Y-90054195D01*
X83650019Y-90119967D01*
X83609562Y-90153327D01*
X83601457Y-90157546D01*
X83592738Y-90163036D01*
X83422433Y-90290905D01*
X83414726Y-90297748D01*
X83267590Y-90451717D01*
X83261104Y-90459727D01*
X83141098Y-90635649D01*
X83136000Y-90644623D01*
X83046338Y-90837783D01*
X83042775Y-90847470D01*
X82987389Y-91047183D01*
X82988912Y-91055607D01*
X83001292Y-91059000D01*
X84451000Y-91059000D01*
X84519121Y-91079002D01*
X84565614Y-91132658D01*
X84577000Y-91185000D01*
X84577000Y-92631517D01*
X84581064Y-92645359D01*
X84594478Y-92647393D01*
X84601184Y-92646534D01*
X84611262Y-92644392D01*
X84815255Y-92583191D01*
X84824842Y-92579433D01*
X85016095Y-92485739D01*
X85024945Y-92480464D01*
X85198328Y-92356792D01*
X85206200Y-92350139D01*
X85357052Y-92199812D01*
X85363730Y-92191965D01*
X85491022Y-92014819D01*
X85492279Y-92015722D01*
X85539373Y-91972362D01*
X85609311Y-91960145D01*
X85674751Y-91987678D01*
X85702579Y-92019511D01*
X85762987Y-92118088D01*
X85909250Y-92286938D01*
X86081126Y-92429632D01*
X86274000Y-92542338D01*
X86482692Y-92622030D01*
X86487760Y-92623061D01*
X86487763Y-92623062D01*
X86582862Y-92642410D01*
X86701597Y-92666567D01*
X86706772Y-92666757D01*
X86706774Y-92666757D01*
X86919673Y-92674564D01*
X86919677Y-92674564D01*
X86924837Y-92674753D01*
X86929957Y-92674097D01*
X86929959Y-92674097D01*
X87141288Y-92647025D01*
X87141289Y-92647025D01*
X87146416Y-92646368D01*
X87151366Y-92644883D01*
X87355429Y-92583661D01*
X87355434Y-92583659D01*
X87360384Y-92582174D01*
X87560994Y-92483896D01*
X87742860Y-92354173D01*
X87901096Y-92196489D01*
X87910670Y-92183166D01*
X88028435Y-92019277D01*
X88031453Y-92015077D01*
X88041006Y-91995749D01*
X88128136Y-91819453D01*
X88128137Y-91819451D01*
X88130430Y-91814811D01*
X88195370Y-91601069D01*
X88224529Y-91379590D01*
X88226156Y-91313000D01*
X98146496Y-91313000D01*
X98147186Y-91319565D01*
X98153844Y-91382908D01*
X98166458Y-91502928D01*
X98225473Y-91684556D01*
X98228776Y-91690278D01*
X98228777Y-91690279D01*
X98248982Y-91725275D01*
X98320960Y-91849944D01*
X98325378Y-91854851D01*
X98325379Y-91854852D01*
X98444325Y-91986955D01*
X98448747Y-91991866D01*
X98603248Y-92104118D01*
X98609276Y-92106802D01*
X98609278Y-92106803D01*
X98643389Y-92121990D01*
X98777712Y-92181794D01*
X98862480Y-92199812D01*
X98958056Y-92220128D01*
X98958061Y-92220128D01*
X98964513Y-92221500D01*
X99155487Y-92221500D01*
X99161939Y-92220128D01*
X99161944Y-92220128D01*
X99257520Y-92199812D01*
X99342288Y-92181794D01*
X99476611Y-92121990D01*
X99510722Y-92106803D01*
X99510724Y-92106802D01*
X99516752Y-92104118D01*
X99671253Y-91991866D01*
X99675675Y-91986955D01*
X99794621Y-91854852D01*
X99794622Y-91854851D01*
X99799040Y-91849944D01*
X99871018Y-91725275D01*
X99891223Y-91690279D01*
X99891224Y-91690278D01*
X99894527Y-91684556D01*
X99953542Y-91502928D01*
X99966157Y-91382908D01*
X99972814Y-91319565D01*
X99973504Y-91313000D01*
X99953542Y-91123072D01*
X99894527Y-90941444D01*
X99799040Y-90776056D01*
X99702503Y-90668840D01*
X99675675Y-90639045D01*
X99675674Y-90639044D01*
X99671253Y-90634134D01*
X99516752Y-90521882D01*
X99510724Y-90519198D01*
X99510722Y-90519197D01*
X99348319Y-90446891D01*
X99348318Y-90446891D01*
X99342288Y-90444206D01*
X99248888Y-90424353D01*
X99161944Y-90405872D01*
X99161939Y-90405872D01*
X99155487Y-90404500D01*
X98964513Y-90404500D01*
X98958061Y-90405872D01*
X98958056Y-90405872D01*
X98871112Y-90424353D01*
X98777712Y-90444206D01*
X98771682Y-90446891D01*
X98771681Y-90446891D01*
X98609278Y-90519197D01*
X98609276Y-90519198D01*
X98603248Y-90521882D01*
X98448747Y-90634134D01*
X98444326Y-90639044D01*
X98444325Y-90639045D01*
X98417498Y-90668840D01*
X98320960Y-90776056D01*
X98225473Y-90941444D01*
X98166458Y-91123072D01*
X98146496Y-91313000D01*
X88226156Y-91313000D01*
X88207852Y-91090361D01*
X88153431Y-90873702D01*
X88064354Y-90668840D01*
X88024906Y-90607862D01*
X87945822Y-90485617D01*
X87945820Y-90485614D01*
X87943014Y-90481277D01*
X87792670Y-90316051D01*
X87788619Y-90312852D01*
X87788615Y-90312848D01*
X87621414Y-90180800D01*
X87621410Y-90180798D01*
X87617359Y-90177598D01*
X87576053Y-90154796D01*
X87526084Y-90104364D01*
X87511312Y-90034921D01*
X87536428Y-89968516D01*
X87563780Y-89941909D01*
X87607603Y-89910650D01*
X87742860Y-89814173D01*
X87901096Y-89656489D01*
X87960594Y-89573689D01*
X88028435Y-89479277D01*
X88031453Y-89475077D01*
X88052320Y-89432857D01*
X88128136Y-89279453D01*
X88128137Y-89279451D01*
X88130430Y-89274811D01*
X88195370Y-89061069D01*
X88224529Y-88839590D01*
X88226156Y-88773000D01*
X88207852Y-88550361D01*
X88153431Y-88333702D01*
X88064354Y-88128840D01*
X88006845Y-88039944D01*
X87945822Y-87945617D01*
X87945820Y-87945614D01*
X87943014Y-87941277D01*
X87792670Y-87776051D01*
X87788619Y-87772852D01*
X87788615Y-87772848D01*
X87621414Y-87640800D01*
X87621410Y-87640798D01*
X87617359Y-87637598D01*
X87576053Y-87614796D01*
X87526084Y-87564364D01*
X87513031Y-87503000D01*
X97128631Y-87503000D01*
X97129321Y-87509565D01*
X97142516Y-87635104D01*
X97148593Y-87692928D01*
X97207608Y-87874556D01*
X97210911Y-87880278D01*
X97210912Y-87880279D01*
X97231038Y-87915138D01*
X97303095Y-88039944D01*
X97307513Y-88044851D01*
X97307514Y-88044852D01*
X97379222Y-88124492D01*
X97430882Y-88181866D01*
X97529978Y-88253864D01*
X97572016Y-88284406D01*
X97585383Y-88294118D01*
X97591411Y-88296802D01*
X97591413Y-88296803D01*
X97685561Y-88338720D01*
X97759847Y-88371794D01*
X97853247Y-88391647D01*
X97940191Y-88410128D01*
X97940196Y-88410128D01*
X97946648Y-88411500D01*
X98137622Y-88411500D01*
X98144074Y-88410128D01*
X98144079Y-88410128D01*
X98231023Y-88391647D01*
X98324423Y-88371794D01*
X98398709Y-88338720D01*
X98492857Y-88296803D01*
X98492859Y-88296802D01*
X98498887Y-88294118D01*
X98512255Y-88284406D01*
X98554292Y-88253864D01*
X98653388Y-88181866D01*
X98705048Y-88124492D01*
X98776756Y-88044852D01*
X98776757Y-88044851D01*
X98781175Y-88039944D01*
X98853232Y-87915138D01*
X98873358Y-87880279D01*
X98873359Y-87880278D01*
X98876662Y-87874556D01*
X98935677Y-87692928D01*
X98941755Y-87635104D01*
X98954949Y-87509565D01*
X98955639Y-87503000D01*
X117812502Y-87503000D01*
X117832457Y-87731087D01*
X117833881Y-87736400D01*
X117833881Y-87736402D01*
X117889941Y-87945617D01*
X117891716Y-87952243D01*
X117894039Y-87957224D01*
X117894039Y-87957225D01*
X117986151Y-88154762D01*
X117986154Y-88154767D01*
X117988477Y-88159749D01*
X118061902Y-88264611D01*
X118110281Y-88333702D01*
X118119802Y-88347300D01*
X118281700Y-88509198D01*
X118286208Y-88512355D01*
X118286211Y-88512357D01*
X118333319Y-88545342D01*
X118469251Y-88640523D01*
X118474233Y-88642846D01*
X118474238Y-88642849D01*
X118671775Y-88734961D01*
X118676757Y-88737284D01*
X118682065Y-88738706D01*
X118682067Y-88738707D01*
X118892598Y-88795119D01*
X118892600Y-88795119D01*
X118897913Y-88796543D01*
X119126000Y-88816498D01*
X119354087Y-88796543D01*
X119359400Y-88795119D01*
X119359402Y-88795119D01*
X119569933Y-88738707D01*
X119569935Y-88738706D01*
X119575243Y-88737284D01*
X119580225Y-88734961D01*
X119777762Y-88642849D01*
X119777767Y-88642846D01*
X119782749Y-88640523D01*
X119918681Y-88545342D01*
X119965789Y-88512357D01*
X119965792Y-88512355D01*
X119970300Y-88509198D01*
X120132198Y-88347300D01*
X120141720Y-88333702D01*
X120190098Y-88264611D01*
X120263523Y-88159749D01*
X120265846Y-88154767D01*
X120265849Y-88154762D01*
X120357961Y-87957225D01*
X120357961Y-87957224D01*
X120360284Y-87952243D01*
X120362060Y-87945617D01*
X120418119Y-87736402D01*
X120418119Y-87736400D01*
X120419543Y-87731087D01*
X120439498Y-87503000D01*
X125432502Y-87503000D01*
X125452457Y-87731087D01*
X125453881Y-87736400D01*
X125453881Y-87736402D01*
X125509941Y-87945617D01*
X125511716Y-87952243D01*
X125514039Y-87957224D01*
X125514039Y-87957225D01*
X125606151Y-88154762D01*
X125606154Y-88154767D01*
X125608477Y-88159749D01*
X125681902Y-88264611D01*
X125730281Y-88333702D01*
X125739802Y-88347300D01*
X125901700Y-88509198D01*
X125906208Y-88512355D01*
X125906211Y-88512357D01*
X125953319Y-88545342D01*
X126089251Y-88640523D01*
X126094233Y-88642846D01*
X126094238Y-88642849D01*
X126291775Y-88734961D01*
X126296757Y-88737284D01*
X126302065Y-88738706D01*
X126302067Y-88738707D01*
X126512598Y-88795119D01*
X126512600Y-88795119D01*
X126517913Y-88796543D01*
X126746000Y-88816498D01*
X126974087Y-88796543D01*
X126979400Y-88795119D01*
X126979402Y-88795119D01*
X127189933Y-88738707D01*
X127189935Y-88738706D01*
X127195243Y-88737284D01*
X127200225Y-88734961D01*
X127397762Y-88642849D01*
X127397767Y-88642846D01*
X127402749Y-88640523D01*
X127538681Y-88545342D01*
X127585789Y-88512357D01*
X127585792Y-88512355D01*
X127590300Y-88509198D01*
X127752198Y-88347300D01*
X127761720Y-88333702D01*
X127810098Y-88264611D01*
X127883523Y-88159749D01*
X127885846Y-88154767D01*
X127885849Y-88154762D01*
X127977961Y-87957225D01*
X127977961Y-87957224D01*
X127980284Y-87952243D01*
X127982060Y-87945617D01*
X128038119Y-87736402D01*
X128038119Y-87736400D01*
X128039543Y-87731087D01*
X128059498Y-87503000D01*
X128039543Y-87274913D01*
X128020282Y-87203031D01*
X127981707Y-87059067D01*
X127981706Y-87059065D01*
X127980284Y-87053757D01*
X127974797Y-87041990D01*
X127885849Y-86851238D01*
X127885846Y-86851233D01*
X127883523Y-86846251D01*
X127789437Y-86711882D01*
X127755357Y-86663211D01*
X127755355Y-86663208D01*
X127752198Y-86658700D01*
X127590300Y-86496802D01*
X127585792Y-86493645D01*
X127585789Y-86493643D01*
X127477112Y-86417547D01*
X127402749Y-86365477D01*
X127397767Y-86363154D01*
X127397762Y-86363151D01*
X127200225Y-86271039D01*
X127200224Y-86271039D01*
X127195243Y-86268716D01*
X127189935Y-86267294D01*
X127189933Y-86267293D01*
X126979402Y-86210881D01*
X126979400Y-86210881D01*
X126974087Y-86209457D01*
X126746000Y-86189502D01*
X126517913Y-86209457D01*
X126512600Y-86210881D01*
X126512598Y-86210881D01*
X126302067Y-86267293D01*
X126302065Y-86267294D01*
X126296757Y-86268716D01*
X126291776Y-86271039D01*
X126291775Y-86271039D01*
X126094238Y-86363151D01*
X126094233Y-86363154D01*
X126089251Y-86365477D01*
X126014888Y-86417547D01*
X125906211Y-86493643D01*
X125906208Y-86493645D01*
X125901700Y-86496802D01*
X125739802Y-86658700D01*
X125736645Y-86663208D01*
X125736643Y-86663211D01*
X125702563Y-86711882D01*
X125608477Y-86846251D01*
X125606154Y-86851233D01*
X125606151Y-86851238D01*
X125517203Y-87041990D01*
X125511716Y-87053757D01*
X125510294Y-87059065D01*
X125510293Y-87059067D01*
X125471718Y-87203031D01*
X125452457Y-87274913D01*
X125432502Y-87503000D01*
X120439498Y-87503000D01*
X120419543Y-87274913D01*
X120400282Y-87203031D01*
X120361707Y-87059067D01*
X120361706Y-87059065D01*
X120360284Y-87053757D01*
X120354797Y-87041990D01*
X120265849Y-86851238D01*
X120265846Y-86851233D01*
X120263523Y-86846251D01*
X120169437Y-86711882D01*
X120135357Y-86663211D01*
X120135355Y-86663208D01*
X120132198Y-86658700D01*
X119970300Y-86496802D01*
X119965792Y-86493645D01*
X119965789Y-86493643D01*
X119857112Y-86417547D01*
X119782749Y-86365477D01*
X119777767Y-86363154D01*
X119777762Y-86363151D01*
X119580225Y-86271039D01*
X119580224Y-86271039D01*
X119575243Y-86268716D01*
X119569935Y-86267294D01*
X119569933Y-86267293D01*
X119359402Y-86210881D01*
X119359400Y-86210881D01*
X119354087Y-86209457D01*
X119126000Y-86189502D01*
X118897913Y-86209457D01*
X118892600Y-86210881D01*
X118892598Y-86210881D01*
X118682067Y-86267293D01*
X118682065Y-86267294D01*
X118676757Y-86268716D01*
X118671776Y-86271039D01*
X118671775Y-86271039D01*
X118474238Y-86363151D01*
X118474233Y-86363154D01*
X118469251Y-86365477D01*
X118394888Y-86417547D01*
X118286211Y-86493643D01*
X118286208Y-86493645D01*
X118281700Y-86496802D01*
X118119802Y-86658700D01*
X118116645Y-86663208D01*
X118116643Y-86663211D01*
X118082563Y-86711882D01*
X117988477Y-86846251D01*
X117986154Y-86851233D01*
X117986151Y-86851238D01*
X117897203Y-87041990D01*
X117891716Y-87053757D01*
X117890294Y-87059065D01*
X117890293Y-87059067D01*
X117851718Y-87203031D01*
X117832457Y-87274913D01*
X117812502Y-87503000D01*
X98955639Y-87503000D01*
X98935677Y-87313072D01*
X98876662Y-87131444D01*
X98781175Y-86966056D01*
X98753282Y-86935077D01*
X98657810Y-86829045D01*
X98657809Y-86829044D01*
X98653388Y-86824134D01*
X98530446Y-86734811D01*
X98504229Y-86715763D01*
X98504228Y-86715762D01*
X98498887Y-86711882D01*
X98492859Y-86709198D01*
X98492857Y-86709197D01*
X98330454Y-86636891D01*
X98330453Y-86636891D01*
X98324423Y-86634206D01*
X98231022Y-86614353D01*
X98144079Y-86595872D01*
X98144074Y-86595872D01*
X98137622Y-86594500D01*
X97946648Y-86594500D01*
X97940196Y-86595872D01*
X97940191Y-86595872D01*
X97853248Y-86614353D01*
X97759847Y-86634206D01*
X97753817Y-86636891D01*
X97753816Y-86636891D01*
X97591413Y-86709197D01*
X97591411Y-86709198D01*
X97585383Y-86711882D01*
X97580042Y-86715762D01*
X97580041Y-86715763D01*
X97553824Y-86734811D01*
X97430882Y-86824134D01*
X97426461Y-86829044D01*
X97426460Y-86829045D01*
X97330989Y-86935077D01*
X97303095Y-86966056D01*
X97207608Y-87131444D01*
X97148593Y-87313072D01*
X97128631Y-87503000D01*
X87513031Y-87503000D01*
X87511312Y-87494921D01*
X87536428Y-87428516D01*
X87563780Y-87401909D01*
X87607603Y-87370650D01*
X87742860Y-87274173D01*
X87901096Y-87116489D01*
X87960594Y-87033689D01*
X88028435Y-86939277D01*
X88031453Y-86935077D01*
X88052320Y-86892857D01*
X88128136Y-86739453D01*
X88128137Y-86739451D01*
X88130430Y-86734811D01*
X88195370Y-86521069D01*
X88224529Y-86299590D01*
X88225227Y-86271039D01*
X88226074Y-86236365D01*
X88226074Y-86236361D01*
X88226156Y-86233000D01*
X88207852Y-86010361D01*
X88153431Y-85793702D01*
X88064354Y-85588840D01*
X87943014Y-85401277D01*
X87792670Y-85236051D01*
X87788619Y-85232852D01*
X87788615Y-85232848D01*
X87621414Y-85100800D01*
X87621410Y-85100798D01*
X87617359Y-85097598D01*
X87576053Y-85074796D01*
X87526084Y-85024364D01*
X87511312Y-84954921D01*
X87536428Y-84888516D01*
X87563780Y-84861909D01*
X87607603Y-84830650D01*
X87742860Y-84734173D01*
X87901096Y-84576489D01*
X87956874Y-84498866D01*
X88028435Y-84399277D01*
X88031453Y-84395077D01*
X88050300Y-84356944D01*
X88128136Y-84199453D01*
X88128137Y-84199451D01*
X88130430Y-84194811D01*
X88195370Y-83981069D01*
X88216576Y-83820000D01*
X97003496Y-83820000D01*
X97004186Y-83826565D01*
X97020946Y-83986023D01*
X97023458Y-84009928D01*
X97082473Y-84191556D01*
X97085776Y-84197278D01*
X97085777Y-84197279D01*
X97091716Y-84207565D01*
X97177960Y-84356944D01*
X97182378Y-84361851D01*
X97182379Y-84361852D01*
X97301325Y-84493955D01*
X97305747Y-84498866D01*
X97460248Y-84611118D01*
X97466276Y-84613802D01*
X97466278Y-84613803D01*
X97628681Y-84686109D01*
X97634712Y-84688794D01*
X97728113Y-84708647D01*
X97815056Y-84727128D01*
X97815061Y-84727128D01*
X97821513Y-84728500D01*
X98012487Y-84728500D01*
X98018939Y-84727128D01*
X98018944Y-84727128D01*
X98105887Y-84708647D01*
X98199288Y-84688794D01*
X98205319Y-84686109D01*
X98367722Y-84613803D01*
X98367724Y-84613802D01*
X98373752Y-84611118D01*
X98528253Y-84498866D01*
X98532675Y-84493955D01*
X98651621Y-84361852D01*
X98651622Y-84361851D01*
X98656040Y-84356944D01*
X98742284Y-84207565D01*
X98746075Y-84201000D01*
X100305496Y-84201000D01*
X100306186Y-84207565D01*
X100321457Y-84352857D01*
X100325458Y-84390928D01*
X100384473Y-84572556D01*
X100479960Y-84737944D01*
X100484378Y-84742851D01*
X100484379Y-84742852D01*
X100594468Y-84865118D01*
X100607747Y-84879866D01*
X100690664Y-84940109D01*
X100747122Y-84981128D01*
X100762248Y-84992118D01*
X100768276Y-84994802D01*
X100768278Y-84994803D01*
X100930681Y-85067109D01*
X100936712Y-85069794D01*
X100997016Y-85082612D01*
X101117056Y-85108128D01*
X101117061Y-85108128D01*
X101123513Y-85109500D01*
X101314487Y-85109500D01*
X101320939Y-85108128D01*
X101320944Y-85108128D01*
X101440984Y-85082612D01*
X101501288Y-85069794D01*
X101507319Y-85067109D01*
X101669722Y-84994803D01*
X101669724Y-84994802D01*
X101675752Y-84992118D01*
X101690879Y-84981128D01*
X101747336Y-84940109D01*
X101830253Y-84879866D01*
X101843532Y-84865118D01*
X101953621Y-84742852D01*
X101953622Y-84742851D01*
X101958040Y-84737944D01*
X102053527Y-84572556D01*
X102112542Y-84390928D01*
X102116544Y-84352857D01*
X102131814Y-84207565D01*
X102132504Y-84201000D01*
X102119156Y-84074000D01*
X104496496Y-84074000D01*
X104497186Y-84080565D01*
X104509194Y-84194811D01*
X104516458Y-84263928D01*
X104575473Y-84445556D01*
X104670960Y-84610944D01*
X104798747Y-84752866D01*
X104953248Y-84865118D01*
X104959276Y-84867802D01*
X104959278Y-84867803D01*
X105121681Y-84940109D01*
X105127712Y-84942794D01*
X105218746Y-84962144D01*
X105308056Y-84981128D01*
X105308061Y-84981128D01*
X105314513Y-84982500D01*
X105505487Y-84982500D01*
X105511939Y-84981128D01*
X105511944Y-84981128D01*
X105601254Y-84962144D01*
X105692288Y-84942794D01*
X105698319Y-84940109D01*
X105860722Y-84867803D01*
X105860724Y-84867802D01*
X105866752Y-84865118D01*
X106021253Y-84752866D01*
X106149040Y-84610944D01*
X106244527Y-84445556D01*
X106303542Y-84263928D01*
X106310807Y-84194811D01*
X106322814Y-84080565D01*
X106323504Y-84074000D01*
X106313737Y-83981069D01*
X106304232Y-83890635D01*
X106304232Y-83890633D01*
X106303542Y-83884072D01*
X106244527Y-83702444D01*
X106239075Y-83693000D01*
X106152341Y-83542774D01*
X106149040Y-83537056D01*
X106084469Y-83465342D01*
X106025675Y-83400045D01*
X106025674Y-83400044D01*
X106021253Y-83395134D01*
X105922157Y-83323136D01*
X105872094Y-83286763D01*
X105872093Y-83286762D01*
X105866752Y-83282882D01*
X105860724Y-83280198D01*
X105860722Y-83280197D01*
X105698319Y-83207891D01*
X105698318Y-83207891D01*
X105692288Y-83205206D01*
X105598888Y-83185353D01*
X105511944Y-83166872D01*
X105511939Y-83166872D01*
X105505487Y-83165500D01*
X105314513Y-83165500D01*
X105308061Y-83166872D01*
X105308056Y-83166872D01*
X105221112Y-83185353D01*
X105127712Y-83205206D01*
X105121682Y-83207891D01*
X105121681Y-83207891D01*
X104959278Y-83280197D01*
X104959276Y-83280198D01*
X104953248Y-83282882D01*
X104947907Y-83286762D01*
X104947906Y-83286763D01*
X104897843Y-83323136D01*
X104798747Y-83395134D01*
X104794326Y-83400044D01*
X104794325Y-83400045D01*
X104735532Y-83465342D01*
X104670960Y-83537056D01*
X104667659Y-83542774D01*
X104580926Y-83693000D01*
X104575473Y-83702444D01*
X104516458Y-83884072D01*
X104515768Y-83890633D01*
X104515768Y-83890635D01*
X104506263Y-83981069D01*
X104496496Y-84074000D01*
X102119156Y-84074000D01*
X102112542Y-84011072D01*
X102053527Y-83829444D01*
X102048075Y-83820000D01*
X101976899Y-83696721D01*
X101958040Y-83664056D01*
X101830253Y-83522134D01*
X101675752Y-83409882D01*
X101669724Y-83407198D01*
X101669722Y-83407197D01*
X101507319Y-83334891D01*
X101507318Y-83334891D01*
X101501288Y-83332206D01*
X101407888Y-83312353D01*
X101320944Y-83293872D01*
X101320939Y-83293872D01*
X101314487Y-83292500D01*
X101123513Y-83292500D01*
X101117061Y-83293872D01*
X101117056Y-83293872D01*
X101030112Y-83312353D01*
X100936712Y-83332206D01*
X100930682Y-83334891D01*
X100930681Y-83334891D01*
X100768278Y-83407197D01*
X100768276Y-83407198D01*
X100762248Y-83409882D01*
X100607747Y-83522134D01*
X100479960Y-83664056D01*
X100461101Y-83696721D01*
X100389926Y-83820000D01*
X100384473Y-83829444D01*
X100325458Y-84011072D01*
X100305496Y-84201000D01*
X98746075Y-84201000D01*
X98748223Y-84197279D01*
X98748224Y-84197278D01*
X98751527Y-84191556D01*
X98810542Y-84009928D01*
X98813055Y-83986023D01*
X98829814Y-83826565D01*
X98830504Y-83820000D01*
X98829814Y-83813435D01*
X98811232Y-83636635D01*
X98811232Y-83636633D01*
X98810542Y-83630072D01*
X98751527Y-83448444D01*
X98656040Y-83283056D01*
X98625335Y-83248954D01*
X98532675Y-83146045D01*
X98532674Y-83146044D01*
X98528253Y-83141134D01*
X98373752Y-83028882D01*
X98367724Y-83026198D01*
X98367722Y-83026197D01*
X98205319Y-82953891D01*
X98205318Y-82953891D01*
X98199288Y-82951206D01*
X98105888Y-82931353D01*
X98018944Y-82912872D01*
X98018939Y-82912872D01*
X98012487Y-82911500D01*
X97821513Y-82911500D01*
X97815061Y-82912872D01*
X97815056Y-82912872D01*
X97728112Y-82931353D01*
X97634712Y-82951206D01*
X97628682Y-82953891D01*
X97628681Y-82953891D01*
X97466278Y-83026197D01*
X97466276Y-83026198D01*
X97460248Y-83028882D01*
X97305747Y-83141134D01*
X97301326Y-83146044D01*
X97301325Y-83146045D01*
X97208666Y-83248954D01*
X97177960Y-83283056D01*
X97082473Y-83448444D01*
X97023458Y-83630072D01*
X97022768Y-83636633D01*
X97022768Y-83636635D01*
X97004186Y-83813435D01*
X97003496Y-83820000D01*
X88216576Y-83820000D01*
X88224529Y-83759590D01*
X88226156Y-83693000D01*
X88207852Y-83470361D01*
X88153431Y-83253702D01*
X88064354Y-83048840D01*
X88000304Y-82949834D01*
X87945822Y-82865617D01*
X87945820Y-82865614D01*
X87943014Y-82861277D01*
X87792670Y-82696051D01*
X87788619Y-82692852D01*
X87788615Y-82692848D01*
X87621414Y-82560800D01*
X87621410Y-82560798D01*
X87617359Y-82557598D01*
X87576053Y-82534796D01*
X87526084Y-82484364D01*
X87511312Y-82414921D01*
X87536428Y-82348516D01*
X87563780Y-82321909D01*
X87632195Y-82273109D01*
X87742860Y-82194173D01*
X87901096Y-82036489D01*
X87960594Y-81953689D01*
X88028435Y-81859277D01*
X88031453Y-81855077D01*
X88052320Y-81812857D01*
X88128136Y-81659453D01*
X88128137Y-81659451D01*
X88130430Y-81654811D01*
X88195370Y-81441069D01*
X88199855Y-81407000D01*
X96749496Y-81407000D01*
X96769458Y-81596928D01*
X96828473Y-81778556D01*
X96831776Y-81784278D01*
X96831777Y-81784279D01*
X96848277Y-81812857D01*
X96923960Y-81943944D01*
X96928378Y-81948851D01*
X96928379Y-81948852D01*
X96932734Y-81953689D01*
X97051747Y-82085866D01*
X97150843Y-82157864D01*
X97195803Y-82190529D01*
X97206248Y-82198118D01*
X97212276Y-82200802D01*
X97212278Y-82200803D01*
X97372734Y-82272242D01*
X97380712Y-82275794D01*
X97474112Y-82295647D01*
X97561056Y-82314128D01*
X97561061Y-82314128D01*
X97567513Y-82315500D01*
X97758487Y-82315500D01*
X97764939Y-82314128D01*
X97764944Y-82314128D01*
X97851888Y-82295647D01*
X97945288Y-82275794D01*
X97953266Y-82272242D01*
X98113722Y-82200803D01*
X98113724Y-82200802D01*
X98119752Y-82198118D01*
X98130198Y-82190529D01*
X98175157Y-82157864D01*
X98274253Y-82085866D01*
X98393266Y-81953689D01*
X98397621Y-81948852D01*
X98397622Y-81948851D01*
X98402040Y-81943944D01*
X98477723Y-81812857D01*
X98494223Y-81784279D01*
X98494224Y-81784278D01*
X98497527Y-81778556D01*
X98556542Y-81596928D01*
X98576504Y-81407000D01*
X112116496Y-81407000D01*
X112136458Y-81596928D01*
X112195473Y-81778556D01*
X112198776Y-81784278D01*
X112198777Y-81784279D01*
X112215277Y-81812857D01*
X112290960Y-81943944D01*
X112295378Y-81948851D01*
X112295379Y-81948852D01*
X112299734Y-81953689D01*
X112418747Y-82085866D01*
X112517843Y-82157864D01*
X112562803Y-82190529D01*
X112573248Y-82198118D01*
X112579276Y-82200802D01*
X112579278Y-82200803D01*
X112739734Y-82272242D01*
X112747712Y-82275794D01*
X112841112Y-82295647D01*
X112928056Y-82314128D01*
X112928061Y-82314128D01*
X112934513Y-82315500D01*
X113125487Y-82315500D01*
X113131939Y-82314128D01*
X113131944Y-82314128D01*
X113218888Y-82295647D01*
X113312288Y-82275794D01*
X113320266Y-82272242D01*
X113480722Y-82200803D01*
X113480724Y-82200802D01*
X113486752Y-82198118D01*
X113497198Y-82190529D01*
X113542157Y-82157864D01*
X113641253Y-82085866D01*
X113760266Y-81953689D01*
X113764621Y-81948852D01*
X113764622Y-81948851D01*
X113769040Y-81943944D01*
X113844723Y-81812857D01*
X113861223Y-81784279D01*
X113861224Y-81784278D01*
X113864527Y-81778556D01*
X113923542Y-81596928D01*
X113943504Y-81407000D01*
X113937278Y-81347767D01*
X113924232Y-81223635D01*
X113924232Y-81223633D01*
X113923542Y-81217072D01*
X113864527Y-81035444D01*
X113769040Y-80870056D01*
X113641253Y-80728134D01*
X113486752Y-80615882D01*
X113480724Y-80613198D01*
X113480722Y-80613197D01*
X113318319Y-80540891D01*
X113318318Y-80540891D01*
X113312288Y-80538206D01*
X113218887Y-80518353D01*
X113131944Y-80499872D01*
X113131939Y-80499872D01*
X113125487Y-80498500D01*
X112934513Y-80498500D01*
X112928061Y-80499872D01*
X112928056Y-80499872D01*
X112841113Y-80518353D01*
X112747712Y-80538206D01*
X112741682Y-80540891D01*
X112741681Y-80540891D01*
X112579278Y-80613197D01*
X112579276Y-80613198D01*
X112573248Y-80615882D01*
X112418747Y-80728134D01*
X112290960Y-80870056D01*
X112195473Y-81035444D01*
X112136458Y-81217072D01*
X112135768Y-81223633D01*
X112135768Y-81223635D01*
X112122722Y-81347767D01*
X112116496Y-81407000D01*
X98576504Y-81407000D01*
X98570278Y-81347767D01*
X98557232Y-81223635D01*
X98557232Y-81223633D01*
X98556542Y-81217072D01*
X98497527Y-81035444D01*
X98402040Y-80870056D01*
X98274253Y-80728134D01*
X98119752Y-80615882D01*
X98113724Y-80613198D01*
X98113722Y-80613197D01*
X97951319Y-80540891D01*
X97951318Y-80540891D01*
X97945288Y-80538206D01*
X97851887Y-80518353D01*
X97764944Y-80499872D01*
X97764939Y-80499872D01*
X97758487Y-80498500D01*
X97567513Y-80498500D01*
X97561061Y-80499872D01*
X97561056Y-80499872D01*
X97474113Y-80518353D01*
X97380712Y-80538206D01*
X97374682Y-80540891D01*
X97374681Y-80540891D01*
X97212278Y-80613197D01*
X97212276Y-80613198D01*
X97206248Y-80615882D01*
X97051747Y-80728134D01*
X96923960Y-80870056D01*
X96828473Y-81035444D01*
X96769458Y-81217072D01*
X96768768Y-81223633D01*
X96768768Y-81223635D01*
X96755722Y-81347767D01*
X96749496Y-81407000D01*
X88199855Y-81407000D01*
X88224529Y-81219590D01*
X88226156Y-81153000D01*
X88207852Y-80930361D01*
X88153431Y-80713702D01*
X88064354Y-80508840D01*
X87943014Y-80321277D01*
X87792670Y-80156051D01*
X87788619Y-80152852D01*
X87788615Y-80152848D01*
X87621414Y-80020800D01*
X87621410Y-80020798D01*
X87617359Y-80017598D01*
X87576053Y-79994796D01*
X87526084Y-79944364D01*
X87511312Y-79874921D01*
X87536428Y-79808516D01*
X87563780Y-79781909D01*
X87607603Y-79750650D01*
X87742860Y-79654173D01*
X87901096Y-79496489D01*
X87922464Y-79466753D01*
X88028435Y-79319277D01*
X88031453Y-79315077D01*
X88050818Y-79275896D01*
X88128136Y-79119453D01*
X88128137Y-79119451D01*
X88130430Y-79114811D01*
X88191444Y-78913990D01*
X88193865Y-78906023D01*
X88193865Y-78906021D01*
X88195370Y-78901069D01*
X88224529Y-78679590D01*
X88226156Y-78613000D01*
X88207852Y-78390361D01*
X88168074Y-78232000D01*
X93320496Y-78232000D01*
X93321186Y-78238565D01*
X93337946Y-78398023D01*
X93340458Y-78421928D01*
X93399473Y-78603556D01*
X93402776Y-78609278D01*
X93402777Y-78609279D01*
X93406868Y-78616365D01*
X93494960Y-78768944D01*
X93499378Y-78773851D01*
X93499379Y-78773852D01*
X93618325Y-78905955D01*
X93622747Y-78910866D01*
X93721843Y-78982864D01*
X93746207Y-79000565D01*
X93777248Y-79023118D01*
X93783276Y-79025802D01*
X93783278Y-79025803D01*
X93945681Y-79098109D01*
X93951712Y-79100794D01*
X94039495Y-79119453D01*
X94132056Y-79139128D01*
X94132061Y-79139128D01*
X94138513Y-79140500D01*
X94329487Y-79140500D01*
X94335939Y-79139128D01*
X94335944Y-79139128D01*
X94428505Y-79119453D01*
X94516288Y-79100794D01*
X94522319Y-79098109D01*
X94684722Y-79025803D01*
X94684724Y-79025802D01*
X94690752Y-79023118D01*
X94721794Y-79000565D01*
X94730830Y-78994000D01*
X108941496Y-78994000D01*
X108942186Y-79000565D01*
X108956894Y-79140500D01*
X108961458Y-79183928D01*
X109020473Y-79365556D01*
X109023776Y-79371278D01*
X109023777Y-79371279D01*
X109049055Y-79415062D01*
X109115960Y-79530944D01*
X109243747Y-79672866D01*
X109398248Y-79785118D01*
X109404276Y-79787802D01*
X109404278Y-79787803D01*
X109566681Y-79860109D01*
X109572712Y-79862794D01*
X109663746Y-79882144D01*
X109753056Y-79901128D01*
X109753061Y-79901128D01*
X109759513Y-79902500D01*
X109950487Y-79902500D01*
X109956939Y-79901128D01*
X109956944Y-79901128D01*
X110046254Y-79882144D01*
X110137288Y-79862794D01*
X110143319Y-79860109D01*
X110305722Y-79787803D01*
X110305724Y-79787802D01*
X110311752Y-79785118D01*
X110466253Y-79672866D01*
X110594040Y-79530944D01*
X110660945Y-79415062D01*
X110686223Y-79371279D01*
X110686224Y-79371278D01*
X110689527Y-79365556D01*
X110748542Y-79183928D01*
X110753107Y-79140500D01*
X110767814Y-79000565D01*
X110768504Y-78994000D01*
X110767484Y-78984292D01*
X110749232Y-78810635D01*
X110749232Y-78810633D01*
X110748542Y-78804072D01*
X110689527Y-78622444D01*
X110684075Y-78613000D01*
X110599085Y-78465794D01*
X110594040Y-78457056D01*
X110568064Y-78428206D01*
X110470675Y-78320045D01*
X110470674Y-78320044D01*
X110466253Y-78315134D01*
X110351829Y-78232000D01*
X110317094Y-78206763D01*
X110317093Y-78206762D01*
X110311752Y-78202882D01*
X110305724Y-78200198D01*
X110305722Y-78200197D01*
X110143319Y-78127891D01*
X110143318Y-78127891D01*
X110137288Y-78125206D01*
X110026448Y-78101646D01*
X109956944Y-78086872D01*
X109956939Y-78086872D01*
X109950487Y-78085500D01*
X109759513Y-78085500D01*
X109753061Y-78086872D01*
X109753056Y-78086872D01*
X109683552Y-78101646D01*
X109572712Y-78125206D01*
X109566682Y-78127891D01*
X109566681Y-78127891D01*
X109404278Y-78200197D01*
X109404276Y-78200198D01*
X109398248Y-78202882D01*
X109392907Y-78206762D01*
X109392906Y-78206763D01*
X109358171Y-78232000D01*
X109243747Y-78315134D01*
X109239326Y-78320044D01*
X109239325Y-78320045D01*
X109141937Y-78428206D01*
X109115960Y-78457056D01*
X109110915Y-78465794D01*
X109025926Y-78613000D01*
X109020473Y-78622444D01*
X108961458Y-78804072D01*
X108960768Y-78810633D01*
X108960768Y-78810635D01*
X108942516Y-78984292D01*
X108941496Y-78994000D01*
X94730830Y-78994000D01*
X94746157Y-78982864D01*
X94845253Y-78910866D01*
X94849675Y-78905955D01*
X94968621Y-78773852D01*
X94968622Y-78773851D01*
X94973040Y-78768944D01*
X95061132Y-78616365D01*
X95065223Y-78609279D01*
X95065224Y-78609278D01*
X95068527Y-78603556D01*
X95127542Y-78421928D01*
X95130055Y-78398023D01*
X95146814Y-78238565D01*
X95147504Y-78232000D01*
X95141904Y-78178720D01*
X95128232Y-78048635D01*
X95128232Y-78048633D01*
X95127542Y-78042072D01*
X95068527Y-77860444D01*
X94973040Y-77695056D01*
X94942335Y-77660954D01*
X94884750Y-77597000D01*
X112624496Y-77597000D01*
X112625186Y-77603565D01*
X112643463Y-77777457D01*
X112644458Y-77786928D01*
X112703473Y-77968556D01*
X112798960Y-78133944D01*
X112803378Y-78138851D01*
X112803379Y-78138852D01*
X112834758Y-78173702D01*
X112926747Y-78275866D01*
X113081248Y-78388118D01*
X113087276Y-78390802D01*
X113087278Y-78390803D01*
X113225062Y-78452148D01*
X113255712Y-78465794D01*
X113349113Y-78485647D01*
X113436056Y-78504128D01*
X113436061Y-78504128D01*
X113442513Y-78505500D01*
X113633487Y-78505500D01*
X113639939Y-78504128D01*
X113639944Y-78504128D01*
X113726887Y-78485647D01*
X113820288Y-78465794D01*
X113850938Y-78452148D01*
X113988722Y-78390803D01*
X113988724Y-78390802D01*
X113994752Y-78388118D01*
X114149253Y-78275866D01*
X114241242Y-78173702D01*
X114272621Y-78138852D01*
X114272622Y-78138851D01*
X114277040Y-78133944D01*
X114372527Y-77968556D01*
X114431542Y-77786928D01*
X114432538Y-77777457D01*
X114450814Y-77603565D01*
X114451504Y-77597000D01*
X114439291Y-77480800D01*
X114432232Y-77413635D01*
X114432232Y-77413633D01*
X114431542Y-77407072D01*
X114372527Y-77225444D01*
X114277040Y-77060056D01*
X114198475Y-76972800D01*
X114153675Y-76923045D01*
X114153674Y-76923044D01*
X114149253Y-76918134D01*
X114037303Y-76836797D01*
X114000094Y-76809763D01*
X114000093Y-76809762D01*
X113994752Y-76805882D01*
X113988724Y-76803198D01*
X113988722Y-76803197D01*
X113826319Y-76730891D01*
X113826318Y-76730891D01*
X113820288Y-76728206D01*
X113726887Y-76708353D01*
X113639944Y-76689872D01*
X113639939Y-76689872D01*
X113633487Y-76688500D01*
X113442513Y-76688500D01*
X113436061Y-76689872D01*
X113436056Y-76689872D01*
X113349113Y-76708353D01*
X113255712Y-76728206D01*
X113249682Y-76730891D01*
X113249681Y-76730891D01*
X113087278Y-76803197D01*
X113087276Y-76803198D01*
X113081248Y-76805882D01*
X113075907Y-76809762D01*
X113075906Y-76809763D01*
X113038697Y-76836797D01*
X112926747Y-76918134D01*
X112922326Y-76923044D01*
X112922325Y-76923045D01*
X112877526Y-76972800D01*
X112798960Y-77060056D01*
X112703473Y-77225444D01*
X112644458Y-77407072D01*
X112643768Y-77413633D01*
X112643768Y-77413635D01*
X112636709Y-77480800D01*
X112624496Y-77597000D01*
X94884750Y-77597000D01*
X94849675Y-77558045D01*
X94849674Y-77558044D01*
X94845253Y-77553134D01*
X94690752Y-77440882D01*
X94684724Y-77438198D01*
X94684722Y-77438197D01*
X94522319Y-77365891D01*
X94522318Y-77365891D01*
X94516288Y-77363206D01*
X94403570Y-77339247D01*
X94341097Y-77305518D01*
X94306775Y-77243369D01*
X94311503Y-77172530D01*
X94353779Y-77115492D01*
X94403570Y-77092753D01*
X94516288Y-77068794D01*
X94546938Y-77055148D01*
X94684722Y-76993803D01*
X94684724Y-76993802D01*
X94690752Y-76991118D01*
X94715965Y-76972800D01*
X94796550Y-76914251D01*
X94845253Y-76878866D01*
X94849675Y-76873955D01*
X94968621Y-76741852D01*
X94968622Y-76741851D01*
X94973040Y-76736944D01*
X95068527Y-76571556D01*
X95127542Y-76389928D01*
X95130055Y-76366023D01*
X95146814Y-76206565D01*
X95147504Y-76200000D01*
X95145824Y-76184020D01*
X95128232Y-76016635D01*
X95128232Y-76016633D01*
X95127542Y-76010072D01*
X95068527Y-75828444D01*
X94973040Y-75663056D01*
X94947696Y-75634908D01*
X94849675Y-75526045D01*
X94849674Y-75526044D01*
X94845253Y-75521134D01*
X94690752Y-75408882D01*
X94684724Y-75406198D01*
X94684722Y-75406197D01*
X94522319Y-75333891D01*
X94522318Y-75333891D01*
X94516288Y-75331206D01*
X94421227Y-75311000D01*
X108306496Y-75311000D01*
X108307186Y-75317565D01*
X108319381Y-75433590D01*
X108326458Y-75500928D01*
X108385473Y-75682556D01*
X108480960Y-75847944D01*
X108485378Y-75852851D01*
X108485379Y-75852852D01*
X108487783Y-75855522D01*
X108608747Y-75989866D01*
X108763248Y-76102118D01*
X108769276Y-76104802D01*
X108769278Y-76104803D01*
X108854864Y-76142908D01*
X108937712Y-76179794D01*
X109001888Y-76193435D01*
X109118056Y-76218128D01*
X109118061Y-76218128D01*
X109124513Y-76219500D01*
X109315487Y-76219500D01*
X109321939Y-76218128D01*
X109321944Y-76218128D01*
X109438112Y-76193435D01*
X109502288Y-76179794D01*
X109585136Y-76142908D01*
X109670722Y-76104803D01*
X109670724Y-76104802D01*
X109676752Y-76102118D01*
X109831253Y-75989866D01*
X109952217Y-75855522D01*
X109954621Y-75852852D01*
X109954622Y-75852851D01*
X109959040Y-75847944D01*
X110054527Y-75682556D01*
X110113542Y-75500928D01*
X110120620Y-75433590D01*
X110132814Y-75317565D01*
X110133504Y-75311000D01*
X110131599Y-75292872D01*
X110114232Y-75127635D01*
X110114232Y-75127633D01*
X110113542Y-75121072D01*
X110054527Y-74939444D01*
X110046529Y-74925590D01*
X109991130Y-74829638D01*
X109959040Y-74774056D01*
X109922323Y-74733277D01*
X109835675Y-74637045D01*
X109835674Y-74637044D01*
X109831253Y-74632134D01*
X109676752Y-74519882D01*
X109670724Y-74517198D01*
X109670722Y-74517197D01*
X109508319Y-74444891D01*
X109508318Y-74444891D01*
X109502288Y-74442206D01*
X109381300Y-74416489D01*
X109321944Y-74403872D01*
X109321939Y-74403872D01*
X109315487Y-74402500D01*
X109124513Y-74402500D01*
X109118061Y-74403872D01*
X109118056Y-74403872D01*
X109058700Y-74416489D01*
X108937712Y-74442206D01*
X108931682Y-74444891D01*
X108931681Y-74444891D01*
X108769278Y-74517197D01*
X108769276Y-74517198D01*
X108763248Y-74519882D01*
X108608747Y-74632134D01*
X108604326Y-74637044D01*
X108604325Y-74637045D01*
X108517678Y-74733277D01*
X108480960Y-74774056D01*
X108448870Y-74829638D01*
X108393472Y-74925590D01*
X108385473Y-74939444D01*
X108326458Y-75121072D01*
X108325768Y-75127633D01*
X108325768Y-75127635D01*
X108308401Y-75292872D01*
X108306496Y-75311000D01*
X94421227Y-75311000D01*
X94414499Y-75309570D01*
X94335944Y-75292872D01*
X94335939Y-75292872D01*
X94329487Y-75291500D01*
X94138513Y-75291500D01*
X94132061Y-75292872D01*
X94132056Y-75292872D01*
X94053501Y-75309570D01*
X93951712Y-75331206D01*
X93945682Y-75333891D01*
X93945681Y-75333891D01*
X93783278Y-75406197D01*
X93783276Y-75406198D01*
X93777248Y-75408882D01*
X93622747Y-75521134D01*
X93618326Y-75526044D01*
X93618325Y-75526045D01*
X93520305Y-75634908D01*
X93494960Y-75663056D01*
X93399473Y-75828444D01*
X93340458Y-76010072D01*
X93339768Y-76016633D01*
X93339768Y-76016635D01*
X93322176Y-76184020D01*
X93320496Y-76200000D01*
X93321186Y-76206565D01*
X93337946Y-76366023D01*
X93340458Y-76389928D01*
X93399473Y-76571556D01*
X93494960Y-76736944D01*
X93499378Y-76741851D01*
X93499379Y-76741852D01*
X93618325Y-76873955D01*
X93622747Y-76878866D01*
X93671450Y-76914251D01*
X93752036Y-76972800D01*
X93777248Y-76991118D01*
X93783276Y-76993802D01*
X93783278Y-76993803D01*
X93921062Y-77055148D01*
X93951712Y-77068794D01*
X94064430Y-77092753D01*
X94126903Y-77126482D01*
X94161225Y-77188631D01*
X94156497Y-77259470D01*
X94114221Y-77316508D01*
X94064430Y-77339247D01*
X93951712Y-77363206D01*
X93945682Y-77365891D01*
X93945681Y-77365891D01*
X93783278Y-77438197D01*
X93783276Y-77438198D01*
X93777248Y-77440882D01*
X93622747Y-77553134D01*
X93618326Y-77558044D01*
X93618325Y-77558045D01*
X93525666Y-77660954D01*
X93494960Y-77695056D01*
X93399473Y-77860444D01*
X93340458Y-78042072D01*
X93339768Y-78048633D01*
X93339768Y-78048635D01*
X93326096Y-78178720D01*
X93320496Y-78232000D01*
X88168074Y-78232000D01*
X88153431Y-78173702D01*
X88064354Y-77968840D01*
X88005161Y-77877342D01*
X87945822Y-77785617D01*
X87945820Y-77785614D01*
X87943014Y-77781277D01*
X87792670Y-77616051D01*
X87788619Y-77612852D01*
X87788615Y-77612848D01*
X87621414Y-77480800D01*
X87621410Y-77480798D01*
X87617359Y-77477598D01*
X87576053Y-77454796D01*
X87526084Y-77404364D01*
X87511312Y-77334921D01*
X87536428Y-77268516D01*
X87563780Y-77241909D01*
X87607603Y-77210650D01*
X87742860Y-77114173D01*
X87749004Y-77108051D01*
X87897435Y-76960137D01*
X87901096Y-76956489D01*
X87908061Y-76946797D01*
X88028435Y-76779277D01*
X88031453Y-76775077D01*
X88038650Y-76760516D01*
X88128136Y-76579453D01*
X88128137Y-76579451D01*
X88130430Y-76574811D01*
X88195370Y-76361069D01*
X88224529Y-76139590D01*
X88225445Y-76102118D01*
X88226074Y-76076365D01*
X88226074Y-76076361D01*
X88226156Y-76073000D01*
X88207852Y-75850361D01*
X88153431Y-75633702D01*
X88064354Y-75428840D01*
X87983873Y-75304435D01*
X87945822Y-75245617D01*
X87945820Y-75245614D01*
X87943014Y-75241277D01*
X87792670Y-75076051D01*
X87788619Y-75072852D01*
X87788615Y-75072848D01*
X87621414Y-74940800D01*
X87621410Y-74940798D01*
X87617359Y-74937598D01*
X87576053Y-74914796D01*
X87526084Y-74864364D01*
X87511312Y-74794921D01*
X87536428Y-74728516D01*
X87563780Y-74701909D01*
X87607603Y-74670650D01*
X87742860Y-74574173D01*
X87749004Y-74568051D01*
X87824209Y-74493107D01*
X87901096Y-74416489D01*
X87908061Y-74406797D01*
X88028435Y-74239277D01*
X88031453Y-74235077D01*
X88038650Y-74220516D01*
X88128136Y-74039453D01*
X88128137Y-74039451D01*
X88130430Y-74034811D01*
X88191444Y-73833990D01*
X88193865Y-73826023D01*
X88193865Y-73826021D01*
X88195370Y-73821069D01*
X88224529Y-73599590D01*
X88224611Y-73596240D01*
X88226074Y-73536365D01*
X88226074Y-73536361D01*
X88226156Y-73533000D01*
X88207852Y-73310361D01*
X88168074Y-73152000D01*
X104623496Y-73152000D01*
X104624186Y-73158565D01*
X104640946Y-73318023D01*
X104643458Y-73341928D01*
X104702473Y-73523556D01*
X104705776Y-73529278D01*
X104705777Y-73529279D01*
X104733252Y-73576866D01*
X104797960Y-73688944D01*
X104802378Y-73693851D01*
X104802379Y-73693852D01*
X104921325Y-73825955D01*
X104925747Y-73830866D01*
X105080248Y-73943118D01*
X105086276Y-73945802D01*
X105086278Y-73945803D01*
X105248681Y-74018109D01*
X105254712Y-74020794D01*
X105342495Y-74039453D01*
X105435056Y-74059128D01*
X105435061Y-74059128D01*
X105441513Y-74060500D01*
X105632487Y-74060500D01*
X105638939Y-74059128D01*
X105638944Y-74059128D01*
X105731505Y-74039453D01*
X105819288Y-74020794D01*
X105825319Y-74018109D01*
X105987722Y-73945803D01*
X105987724Y-73945802D01*
X105993752Y-73943118D01*
X106148253Y-73830866D01*
X106152675Y-73825955D01*
X106271621Y-73693852D01*
X106271622Y-73693851D01*
X106276040Y-73688944D01*
X106340748Y-73576866D01*
X106368223Y-73529279D01*
X106368224Y-73529278D01*
X106371527Y-73523556D01*
X106430542Y-73341928D01*
X106433055Y-73318023D01*
X106449814Y-73158565D01*
X106450504Y-73152000D01*
X106444904Y-73098720D01*
X106431232Y-72968635D01*
X106431232Y-72968633D01*
X106430542Y-72962072D01*
X106371527Y-72780444D01*
X106276040Y-72615056D01*
X106245335Y-72580954D01*
X106152675Y-72478045D01*
X106152674Y-72478044D01*
X106148253Y-72473134D01*
X106001862Y-72366774D01*
X105999094Y-72364763D01*
X105999093Y-72364762D01*
X105993752Y-72360882D01*
X105987724Y-72358198D01*
X105987722Y-72358197D01*
X105825319Y-72285891D01*
X105825318Y-72285891D01*
X105819288Y-72283206D01*
X105720200Y-72262144D01*
X105638944Y-72244872D01*
X105638939Y-72244872D01*
X105632487Y-72243500D01*
X105441513Y-72243500D01*
X105435061Y-72244872D01*
X105435056Y-72244872D01*
X105353800Y-72262144D01*
X105254712Y-72283206D01*
X105248682Y-72285891D01*
X105248681Y-72285891D01*
X105086278Y-72358197D01*
X105086276Y-72358198D01*
X105080248Y-72360882D01*
X105074907Y-72364762D01*
X105074906Y-72364763D01*
X105072138Y-72366774D01*
X104925747Y-72473134D01*
X104921326Y-72478044D01*
X104921325Y-72478045D01*
X104828666Y-72580954D01*
X104797960Y-72615056D01*
X104702473Y-72780444D01*
X104643458Y-72962072D01*
X104642768Y-72968633D01*
X104642768Y-72968635D01*
X104629096Y-73098720D01*
X104623496Y-73152000D01*
X88168074Y-73152000D01*
X88153431Y-73093702D01*
X88064354Y-72888840D01*
X88005161Y-72797342D01*
X87945822Y-72705617D01*
X87945820Y-72705614D01*
X87943014Y-72701277D01*
X87792670Y-72536051D01*
X87788619Y-72532852D01*
X87788615Y-72532848D01*
X87621414Y-72400800D01*
X87621410Y-72400798D01*
X87617359Y-72397598D01*
X87576053Y-72374796D01*
X87526084Y-72324364D01*
X87511312Y-72254921D01*
X87536428Y-72188516D01*
X87563780Y-72161909D01*
X87622154Y-72120271D01*
X87742860Y-72034173D01*
X87747845Y-72029206D01*
X87897435Y-71880137D01*
X87901096Y-71876489D01*
X87908061Y-71866797D01*
X87988394Y-71755000D01*
X97257496Y-71755000D01*
X97258186Y-71761565D01*
X97271381Y-71887104D01*
X97277458Y-71944928D01*
X97336473Y-72126556D01*
X97339776Y-72132278D01*
X97339777Y-72132279D01*
X97358031Y-72163896D01*
X97431960Y-72291944D01*
X97436378Y-72296851D01*
X97436379Y-72296852D01*
X97555325Y-72428955D01*
X97559747Y-72433866D01*
X97608450Y-72469251D01*
X97700881Y-72536406D01*
X97714248Y-72546118D01*
X97720276Y-72548802D01*
X97720278Y-72548803D01*
X97814426Y-72590720D01*
X97888712Y-72623794D01*
X97982113Y-72643647D01*
X98069056Y-72662128D01*
X98069061Y-72662128D01*
X98075513Y-72663500D01*
X98266487Y-72663500D01*
X98272939Y-72662128D01*
X98272944Y-72662128D01*
X98359887Y-72643647D01*
X98453288Y-72623794D01*
X98527574Y-72590720D01*
X98621722Y-72548803D01*
X98621724Y-72548802D01*
X98627752Y-72546118D01*
X98641120Y-72536406D01*
X98733550Y-72469251D01*
X98782253Y-72433866D01*
X98786675Y-72428955D01*
X98905621Y-72296852D01*
X98905622Y-72296851D01*
X98910040Y-72291944D01*
X98983969Y-72163896D01*
X99002223Y-72132279D01*
X99002224Y-72132278D01*
X99005527Y-72126556D01*
X99064542Y-71944928D01*
X99070620Y-71887104D01*
X99083814Y-71761565D01*
X99084504Y-71755000D01*
X99083627Y-71746654D01*
X99065232Y-71571635D01*
X99065232Y-71571633D01*
X99064542Y-71565072D01*
X99005527Y-71383444D01*
X98910040Y-71218056D01*
X98882915Y-71187930D01*
X98786675Y-71081045D01*
X98786674Y-71081044D01*
X98782253Y-71076134D01*
X98627752Y-70963882D01*
X98621724Y-70961198D01*
X98621722Y-70961197D01*
X98459319Y-70888891D01*
X98459318Y-70888891D01*
X98453288Y-70886206D01*
X98358227Y-70866000D01*
X114402496Y-70866000D01*
X114403186Y-70872565D01*
X114415492Y-70989646D01*
X114422458Y-71055928D01*
X114481473Y-71237556D01*
X114576960Y-71402944D01*
X114581378Y-71407851D01*
X114581379Y-71407852D01*
X114684635Y-71522529D01*
X114704747Y-71544866D01*
X114859248Y-71657118D01*
X114865276Y-71659802D01*
X114865278Y-71659803D01*
X115027681Y-71732109D01*
X115033712Y-71734794D01*
X115097888Y-71748435D01*
X115214056Y-71773128D01*
X115214061Y-71773128D01*
X115220513Y-71774500D01*
X115411487Y-71774500D01*
X115417939Y-71773128D01*
X115417944Y-71773128D01*
X115534112Y-71748435D01*
X115598288Y-71734794D01*
X115604319Y-71732109D01*
X115766722Y-71659803D01*
X115766724Y-71659802D01*
X115772752Y-71657118D01*
X115927253Y-71544866D01*
X115947365Y-71522529D01*
X116050621Y-71407852D01*
X116050622Y-71407851D01*
X116055040Y-71402944D01*
X116150527Y-71237556D01*
X116209542Y-71055928D01*
X116216509Y-70989646D01*
X116228814Y-70872565D01*
X116229504Y-70866000D01*
X116227599Y-70847872D01*
X116210232Y-70682635D01*
X116210232Y-70682633D01*
X116209542Y-70676072D01*
X116150527Y-70494444D01*
X116145075Y-70485000D01*
X116113314Y-70429990D01*
X116055040Y-70329056D01*
X116019923Y-70290054D01*
X115931675Y-70192045D01*
X115931674Y-70192044D01*
X115927253Y-70187134D01*
X115772752Y-70074882D01*
X115766724Y-70072198D01*
X115766722Y-70072197D01*
X115604319Y-69999891D01*
X115604318Y-69999891D01*
X115598288Y-69997206D01*
X115487396Y-69973635D01*
X115417944Y-69958872D01*
X115417939Y-69958872D01*
X115411487Y-69957500D01*
X115220513Y-69957500D01*
X115214061Y-69958872D01*
X115214056Y-69958872D01*
X115144604Y-69973635D01*
X115033712Y-69997206D01*
X115027682Y-69999891D01*
X115027681Y-69999891D01*
X114865278Y-70072197D01*
X114865276Y-70072198D01*
X114859248Y-70074882D01*
X114704747Y-70187134D01*
X114700326Y-70192044D01*
X114700325Y-70192045D01*
X114612078Y-70290054D01*
X114576960Y-70329056D01*
X114518686Y-70429990D01*
X114486926Y-70485000D01*
X114481473Y-70494444D01*
X114422458Y-70676072D01*
X114421768Y-70682633D01*
X114421768Y-70682635D01*
X114404401Y-70847872D01*
X114402496Y-70866000D01*
X98358227Y-70866000D01*
X98272944Y-70847872D01*
X98272939Y-70847872D01*
X98266487Y-70846500D01*
X98075513Y-70846500D01*
X98069061Y-70847872D01*
X98069056Y-70847872D01*
X97983773Y-70866000D01*
X97888712Y-70886206D01*
X97882682Y-70888891D01*
X97882681Y-70888891D01*
X97720278Y-70961197D01*
X97720276Y-70961198D01*
X97714248Y-70963882D01*
X97559747Y-71076134D01*
X97555326Y-71081044D01*
X97555325Y-71081045D01*
X97459086Y-71187930D01*
X97431960Y-71218056D01*
X97336473Y-71383444D01*
X97277458Y-71565072D01*
X97276768Y-71571633D01*
X97276768Y-71571635D01*
X97258373Y-71746654D01*
X97257496Y-71755000D01*
X87988394Y-71755000D01*
X88028435Y-71699277D01*
X88031453Y-71695077D01*
X88038650Y-71680516D01*
X88128136Y-71499453D01*
X88128137Y-71499451D01*
X88130430Y-71494811D01*
X88195370Y-71281069D01*
X88224529Y-71059590D01*
X88224611Y-71056240D01*
X88226074Y-70996365D01*
X88226074Y-70996361D01*
X88226156Y-70993000D01*
X88207852Y-70770361D01*
X88153431Y-70553702D01*
X88064354Y-70348840D01*
X87983972Y-70224588D01*
X87945822Y-70165617D01*
X87945820Y-70165614D01*
X87943014Y-70161277D01*
X87792670Y-69996051D01*
X87788619Y-69992852D01*
X87788615Y-69992848D01*
X87621414Y-69860800D01*
X87621410Y-69860798D01*
X87617359Y-69857598D01*
X87576053Y-69834796D01*
X87526084Y-69784364D01*
X87511312Y-69714921D01*
X87536428Y-69648516D01*
X87563780Y-69621909D01*
X87630525Y-69574300D01*
X87742860Y-69494173D01*
X87749004Y-69488051D01*
X87897435Y-69340137D01*
X87901096Y-69336489D01*
X87922464Y-69306753D01*
X88028435Y-69159277D01*
X88031453Y-69155077D01*
X88048887Y-69119803D01*
X88128136Y-68959453D01*
X88128137Y-68959451D01*
X88130430Y-68954811D01*
X88195370Y-68741069D01*
X88224529Y-68519590D01*
X88224611Y-68516240D01*
X88226074Y-68456365D01*
X88226074Y-68456361D01*
X88226156Y-68453000D01*
X88215715Y-68326000D01*
X93320496Y-68326000D01*
X93321186Y-68332565D01*
X93333492Y-68449646D01*
X93340458Y-68515928D01*
X93399473Y-68697556D01*
X93494960Y-68862944D01*
X93622747Y-69004866D01*
X93777248Y-69117118D01*
X93783276Y-69119802D01*
X93783278Y-69119803D01*
X93945681Y-69192109D01*
X93951712Y-69194794D01*
X94042887Y-69214174D01*
X94132056Y-69233128D01*
X94132061Y-69233128D01*
X94138513Y-69234500D01*
X94329487Y-69234500D01*
X94335939Y-69233128D01*
X94335944Y-69233128D01*
X94425113Y-69214174D01*
X94478886Y-69202744D01*
X107163131Y-69202744D01*
X107163821Y-69209309D01*
X107173603Y-69302375D01*
X107183093Y-69392672D01*
X107242108Y-69574300D01*
X107245411Y-69580022D01*
X107245412Y-69580023D01*
X107270639Y-69623717D01*
X107337595Y-69739688D01*
X107342013Y-69744595D01*
X107342014Y-69744596D01*
X107460960Y-69876699D01*
X107465382Y-69881610D01*
X107619883Y-69993862D01*
X107625911Y-69996546D01*
X107625913Y-69996547D01*
X107788316Y-70068853D01*
X107794347Y-70071538D01*
X107887748Y-70091391D01*
X107974691Y-70109872D01*
X107974696Y-70109872D01*
X107981148Y-70111244D01*
X108172122Y-70111244D01*
X108178574Y-70109872D01*
X108178579Y-70109872D01*
X108265522Y-70091391D01*
X108358923Y-70071538D01*
X108364954Y-70068853D01*
X108527357Y-69996547D01*
X108527359Y-69996546D01*
X108533387Y-69993862D01*
X108687888Y-69881610D01*
X108692310Y-69876699D01*
X108811256Y-69744596D01*
X108811257Y-69744595D01*
X108815675Y-69739688D01*
X108882631Y-69623717D01*
X108907858Y-69580023D01*
X108907859Y-69580022D01*
X108911162Y-69574300D01*
X108970177Y-69392672D01*
X108979668Y-69302375D01*
X108989449Y-69209309D01*
X108990139Y-69202744D01*
X108985646Y-69159994D01*
X108970867Y-69019379D01*
X108970867Y-69019377D01*
X108970177Y-69012816D01*
X108911162Y-68831188D01*
X108815675Y-68665800D01*
X108802599Y-68651277D01*
X108692310Y-68528789D01*
X108692309Y-68528788D01*
X108687888Y-68523878D01*
X108533387Y-68411626D01*
X108527359Y-68408942D01*
X108527357Y-68408941D01*
X108364954Y-68336635D01*
X108364953Y-68336635D01*
X108358923Y-68333950D01*
X108247523Y-68310271D01*
X108178579Y-68295616D01*
X108178574Y-68295616D01*
X108172122Y-68294244D01*
X107981148Y-68294244D01*
X107974696Y-68295616D01*
X107974691Y-68295616D01*
X107905747Y-68310271D01*
X107794347Y-68333950D01*
X107788317Y-68336635D01*
X107788316Y-68336635D01*
X107625913Y-68408941D01*
X107625911Y-68408942D01*
X107619883Y-68411626D01*
X107465382Y-68523878D01*
X107460961Y-68528788D01*
X107460960Y-68528789D01*
X107350672Y-68651277D01*
X107337595Y-68665800D01*
X107242108Y-68831188D01*
X107183093Y-69012816D01*
X107182403Y-69019377D01*
X107182403Y-69019379D01*
X107167624Y-69159994D01*
X107163131Y-69202744D01*
X94478886Y-69202744D01*
X94516288Y-69194794D01*
X94522319Y-69192109D01*
X94684722Y-69119803D01*
X94684724Y-69119802D01*
X94690752Y-69117118D01*
X94845253Y-69004866D01*
X94973040Y-68862944D01*
X95068527Y-68697556D01*
X95127542Y-68515928D01*
X95134509Y-68449646D01*
X95146814Y-68332565D01*
X95147504Y-68326000D01*
X95138257Y-68238023D01*
X95128232Y-68142635D01*
X95128232Y-68142633D01*
X95127542Y-68136072D01*
X95068527Y-67954444D01*
X95044118Y-67912166D01*
X95027380Y-67843170D01*
X95050601Y-67776078D01*
X95059592Y-67764866D01*
X95100040Y-67719944D01*
X95172097Y-67595138D01*
X95192226Y-67560274D01*
X95192227Y-67560272D01*
X95195527Y-67554556D01*
X95197567Y-67548277D01*
X95198394Y-67546420D01*
X95244374Y-67492325D01*
X95312301Y-67471676D01*
X95380609Y-67491029D01*
X95428606Y-67546420D01*
X95429433Y-67548277D01*
X95431473Y-67554556D01*
X95434773Y-67560272D01*
X95434774Y-67560274D01*
X95454903Y-67595138D01*
X95526960Y-67719944D01*
X95531375Y-67724847D01*
X95531379Y-67724852D01*
X95603087Y-67804492D01*
X95654747Y-67861866D01*
X95723979Y-67912166D01*
X95795881Y-67964406D01*
X95809248Y-67974118D01*
X95815276Y-67976802D01*
X95815278Y-67976803D01*
X95900864Y-68014908D01*
X95983712Y-68051794D01*
X96077112Y-68071647D01*
X96164056Y-68090128D01*
X96164061Y-68090128D01*
X96170513Y-68091500D01*
X96361487Y-68091500D01*
X96367939Y-68090128D01*
X96367944Y-68090128D01*
X96454888Y-68071647D01*
X96548288Y-68051794D01*
X96631136Y-68014908D01*
X96716722Y-67976803D01*
X96716724Y-67976802D01*
X96722752Y-67974118D01*
X96736120Y-67964406D01*
X96762830Y-67945000D01*
X121260496Y-67945000D01*
X121261186Y-67951565D01*
X121275894Y-68091500D01*
X121280458Y-68134928D01*
X121339473Y-68316556D01*
X121342776Y-68322278D01*
X121342777Y-68322279D01*
X121348716Y-68332565D01*
X121434960Y-68481944D01*
X121439378Y-68486851D01*
X121439379Y-68486852D01*
X121558325Y-68618955D01*
X121562747Y-68623866D01*
X121717248Y-68736118D01*
X121723276Y-68738802D01*
X121723278Y-68738803D01*
X121748625Y-68750088D01*
X121891712Y-68813794D01*
X121973544Y-68831188D01*
X122072056Y-68852128D01*
X122072061Y-68852128D01*
X122078513Y-68853500D01*
X122269487Y-68853500D01*
X122275939Y-68852128D01*
X122275944Y-68852128D01*
X122374456Y-68831188D01*
X122456288Y-68813794D01*
X122599375Y-68750088D01*
X122624722Y-68738803D01*
X122624724Y-68738802D01*
X122630752Y-68736118D01*
X122785253Y-68623866D01*
X122791334Y-68617113D01*
X122819956Y-68585324D01*
X122881865Y-68516567D01*
X122942310Y-68479328D01*
X123013293Y-68480680D01*
X123072278Y-68520193D01*
X123100536Y-68585324D01*
X123101500Y-68600878D01*
X123101500Y-68843134D01*
X123108255Y-68905316D01*
X123159385Y-69041705D01*
X123246739Y-69158261D01*
X123363295Y-69245615D01*
X123371704Y-69248767D01*
X123371705Y-69248768D01*
X123480451Y-69289535D01*
X123537216Y-69332176D01*
X123561916Y-69398738D01*
X123546709Y-69468087D01*
X123527316Y-69494568D01*
X123400629Y-69627138D01*
X123397715Y-69631410D01*
X123397714Y-69631411D01*
X123335820Y-69722144D01*
X123274743Y-69811680D01*
X123244562Y-69876699D01*
X123187379Y-69999891D01*
X123180688Y-70014305D01*
X123120989Y-70229570D01*
X123097251Y-70451695D01*
X123097548Y-70456848D01*
X123097548Y-70456851D01*
X123103422Y-70558720D01*
X123110110Y-70674715D01*
X123111247Y-70679761D01*
X123111248Y-70679767D01*
X123123152Y-70732588D01*
X123159222Y-70892639D01*
X123220673Y-71043976D01*
X123228361Y-71062908D01*
X123243266Y-71099616D01*
X123245965Y-71104020D01*
X123351317Y-71275939D01*
X123359987Y-71290088D01*
X123506250Y-71458938D01*
X123678126Y-71601632D01*
X123695903Y-71612020D01*
X123751445Y-71644476D01*
X123800169Y-71696114D01*
X123813240Y-71765897D01*
X123786509Y-71831669D01*
X123746055Y-71865027D01*
X123733607Y-71871507D01*
X123729474Y-71874610D01*
X123729471Y-71874612D01*
X123559100Y-72002530D01*
X123554965Y-72005635D01*
X123400629Y-72167138D01*
X123397720Y-72171403D01*
X123397714Y-72171411D01*
X123335820Y-72262144D01*
X123274743Y-72351680D01*
X123272566Y-72356370D01*
X123272558Y-72356384D01*
X123269853Y-72362212D01*
X123223027Y-72415577D01*
X123154783Y-72435155D01*
X123086788Y-72414729D01*
X123046450Y-72372158D01*
X123040040Y-72361056D01*
X123007003Y-72324364D01*
X122916675Y-72224045D01*
X122916674Y-72224044D01*
X122912253Y-72219134D01*
X122784831Y-72126556D01*
X122763094Y-72110763D01*
X122763093Y-72110762D01*
X122757752Y-72106882D01*
X122751724Y-72104198D01*
X122751722Y-72104197D01*
X122589319Y-72031891D01*
X122589318Y-72031891D01*
X122583288Y-72029206D01*
X122472396Y-72005635D01*
X122402944Y-71990872D01*
X122402939Y-71990872D01*
X122396487Y-71989500D01*
X122205513Y-71989500D01*
X122199061Y-71990872D01*
X122199056Y-71990872D01*
X122129604Y-72005635D01*
X122018712Y-72029206D01*
X122012682Y-72031891D01*
X122012681Y-72031891D01*
X121850278Y-72104197D01*
X121850276Y-72104198D01*
X121844248Y-72106882D01*
X121838907Y-72110762D01*
X121838906Y-72110763D01*
X121817169Y-72126556D01*
X121689747Y-72219134D01*
X121685326Y-72224044D01*
X121685325Y-72224045D01*
X121594998Y-72324364D01*
X121561960Y-72361056D01*
X121466473Y-72526444D01*
X121407458Y-72708072D01*
X121406768Y-72714633D01*
X121406768Y-72714635D01*
X121394637Y-72830054D01*
X121387496Y-72898000D01*
X121388186Y-72904565D01*
X121405290Y-73067297D01*
X121407458Y-73087928D01*
X121466473Y-73269556D01*
X121469776Y-73275278D01*
X121469777Y-73275279D01*
X121494455Y-73318023D01*
X121561960Y-73434944D01*
X121566378Y-73439851D01*
X121566379Y-73439852D01*
X121647070Y-73529468D01*
X121689747Y-73576866D01*
X121844248Y-73689118D01*
X121850276Y-73691802D01*
X121850278Y-73691803D01*
X122012681Y-73764109D01*
X122018712Y-73766794D01*
X122112113Y-73786647D01*
X122199056Y-73805128D01*
X122199061Y-73805128D01*
X122205513Y-73806500D01*
X122396487Y-73806500D01*
X122402939Y-73805128D01*
X122402944Y-73805128D01*
X122489887Y-73786647D01*
X122583288Y-73766794D01*
X122589319Y-73764109D01*
X122751722Y-73691803D01*
X122751724Y-73691802D01*
X122757752Y-73689118D01*
X122912253Y-73576866D01*
X122988162Y-73492560D01*
X123048607Y-73455322D01*
X123119591Y-73456674D01*
X123178575Y-73496188D01*
X123198540Y-73529467D01*
X123213976Y-73567484D01*
X123228361Y-73602908D01*
X123243266Y-73639616D01*
X123291022Y-73717547D01*
X123357291Y-73825688D01*
X123359987Y-73830088D01*
X123506250Y-73998938D01*
X123678126Y-74141632D01*
X123695903Y-74152020D01*
X123751445Y-74184476D01*
X123800169Y-74236114D01*
X123813240Y-74305897D01*
X123786509Y-74371669D01*
X123746055Y-74405027D01*
X123733607Y-74411507D01*
X123729474Y-74414610D01*
X123729471Y-74414612D01*
X123559100Y-74542530D01*
X123554965Y-74545635D01*
X123400629Y-74707138D01*
X123397720Y-74711403D01*
X123397714Y-74711411D01*
X123335820Y-74802144D01*
X123274743Y-74891680D01*
X123227715Y-74992993D01*
X123201008Y-75050530D01*
X123180688Y-75094305D01*
X123120989Y-75309570D01*
X123097251Y-75531695D01*
X123097548Y-75536848D01*
X123097548Y-75536851D01*
X123103202Y-75634908D01*
X123110110Y-75754715D01*
X123111247Y-75759761D01*
X123111248Y-75759767D01*
X123123152Y-75812588D01*
X123159222Y-75972639D01*
X123210222Y-76098237D01*
X123228361Y-76142908D01*
X123243266Y-76179616D01*
X123291022Y-76257547D01*
X123357291Y-76365688D01*
X123359987Y-76370088D01*
X123506250Y-76538938D01*
X123678126Y-76681632D01*
X123695903Y-76692020D01*
X123751445Y-76724476D01*
X123800169Y-76776114D01*
X123813240Y-76845897D01*
X123786509Y-76911669D01*
X123746055Y-76945027D01*
X123733607Y-76951507D01*
X123729474Y-76954610D01*
X123729471Y-76954612D01*
X123559100Y-77082530D01*
X123554965Y-77085635D01*
X123400629Y-77247138D01*
X123397720Y-77251403D01*
X123397714Y-77251411D01*
X123335820Y-77342144D01*
X123274743Y-77431680D01*
X123227716Y-77532992D01*
X123201008Y-77590530D01*
X123180688Y-77634305D01*
X123120989Y-77849570D01*
X123097251Y-78071695D01*
X123097548Y-78076848D01*
X123097548Y-78076851D01*
X123103202Y-78174908D01*
X123110110Y-78294715D01*
X123111247Y-78299761D01*
X123111248Y-78299767D01*
X123131665Y-78390361D01*
X123159222Y-78512639D01*
X123201485Y-78616721D01*
X123228361Y-78682908D01*
X123243266Y-78719616D01*
X123291022Y-78797547D01*
X123357291Y-78905688D01*
X123359987Y-78910088D01*
X123506250Y-79078938D01*
X123678126Y-79221632D01*
X123871000Y-79334338D01*
X124079692Y-79414030D01*
X124084760Y-79415061D01*
X124084763Y-79415062D01*
X124192017Y-79436883D01*
X124298597Y-79458567D01*
X124303772Y-79458757D01*
X124303774Y-79458757D01*
X124516673Y-79466564D01*
X124516677Y-79466564D01*
X124521837Y-79466753D01*
X124526957Y-79466097D01*
X124526959Y-79466097D01*
X124738288Y-79439025D01*
X124738289Y-79439025D01*
X124743416Y-79438368D01*
X124748366Y-79436883D01*
X124952429Y-79375661D01*
X124952434Y-79375659D01*
X124957384Y-79374174D01*
X125157994Y-79275896D01*
X125339860Y-79146173D01*
X125498096Y-78988489D01*
X125553874Y-78910866D01*
X125628453Y-78807077D01*
X125629776Y-78808028D01*
X125676645Y-78764857D01*
X125746580Y-78752625D01*
X125812026Y-78780144D01*
X125839875Y-78811994D01*
X125899987Y-78910088D01*
X126046250Y-79078938D01*
X126218126Y-79221632D01*
X126411000Y-79334338D01*
X126619692Y-79414030D01*
X126624760Y-79415061D01*
X126624763Y-79415062D01*
X126732017Y-79436883D01*
X126838597Y-79458567D01*
X126843772Y-79458757D01*
X126843774Y-79458757D01*
X127056673Y-79466564D01*
X127056677Y-79466564D01*
X127061837Y-79466753D01*
X127066957Y-79466097D01*
X127066959Y-79466097D01*
X127278288Y-79439025D01*
X127278289Y-79439025D01*
X127283416Y-79438368D01*
X127288366Y-79436883D01*
X127492429Y-79375661D01*
X127492434Y-79375659D01*
X127497384Y-79374174D01*
X127697994Y-79275896D01*
X127879860Y-79146173D01*
X128038096Y-78988489D01*
X128093874Y-78910866D01*
X128165435Y-78811277D01*
X128168453Y-78807077D01*
X128187300Y-78768944D01*
X128265136Y-78611453D01*
X128265137Y-78611451D01*
X128267430Y-78606811D01*
X128332370Y-78393069D01*
X128361529Y-78171590D01*
X128362597Y-78127891D01*
X128363074Y-78108365D01*
X128363074Y-78108361D01*
X128363156Y-78105000D01*
X128344852Y-77882361D01*
X128290431Y-77665702D01*
X128201354Y-77460840D01*
X128133761Y-77356357D01*
X128082822Y-77277617D01*
X128082820Y-77277614D01*
X128080014Y-77273277D01*
X127929670Y-77108051D01*
X127925619Y-77104852D01*
X127925615Y-77104848D01*
X127758414Y-76972800D01*
X127758410Y-76972798D01*
X127754359Y-76969598D01*
X127713053Y-76946796D01*
X127663084Y-76896364D01*
X127648312Y-76826921D01*
X127673428Y-76760516D01*
X127700780Y-76733909D01*
X127765680Y-76687616D01*
X127879860Y-76606173D01*
X128038096Y-76448489D01*
X128097354Y-76366023D01*
X128165435Y-76271277D01*
X128168453Y-76267077D01*
X128189320Y-76224857D01*
X128265136Y-76071453D01*
X128265137Y-76071451D01*
X128267430Y-76066811D01*
X128332370Y-75853069D01*
X128361529Y-75631590D01*
X128363156Y-75565000D01*
X128344852Y-75342361D01*
X128290431Y-75125702D01*
X128201354Y-74920840D01*
X128133761Y-74816357D01*
X128082822Y-74737617D01*
X128082820Y-74737614D01*
X128080014Y-74733277D01*
X127929670Y-74568051D01*
X127925619Y-74564852D01*
X127925615Y-74564848D01*
X127758414Y-74432800D01*
X127758410Y-74432798D01*
X127754359Y-74429598D01*
X127713053Y-74406796D01*
X127663084Y-74356364D01*
X127648312Y-74286921D01*
X127673428Y-74220516D01*
X127700780Y-74193909D01*
X127765680Y-74147616D01*
X127879860Y-74066173D01*
X128038096Y-73908489D01*
X128093874Y-73830866D01*
X128165435Y-73731277D01*
X128168453Y-73727077D01*
X128185887Y-73691803D01*
X128265136Y-73531453D01*
X128265137Y-73531451D01*
X128267430Y-73526811D01*
X128332370Y-73313069D01*
X128361529Y-73091590D01*
X128361611Y-73088240D01*
X128363074Y-73028365D01*
X128363074Y-73028361D01*
X128363156Y-73025000D01*
X128344852Y-72802361D01*
X128290431Y-72585702D01*
X128201354Y-72380840D01*
X128142353Y-72289638D01*
X128082822Y-72197617D01*
X128082820Y-72197614D01*
X128080014Y-72193277D01*
X127929670Y-72028051D01*
X127925619Y-72024852D01*
X127925615Y-72024848D01*
X127758414Y-71892800D01*
X127758410Y-71892798D01*
X127754359Y-71889598D01*
X127712569Y-71866529D01*
X127662598Y-71816097D01*
X127647826Y-71746654D01*
X127672942Y-71680248D01*
X127700294Y-71653641D01*
X127875328Y-71528792D01*
X127883200Y-71522139D01*
X128034052Y-71371812D01*
X128040730Y-71363965D01*
X128165003Y-71191020D01*
X128170313Y-71182183D01*
X128264670Y-70991267D01*
X128268469Y-70981672D01*
X128330377Y-70777910D01*
X128332555Y-70767837D01*
X128333986Y-70756962D01*
X128331775Y-70742778D01*
X128318617Y-70739000D01*
X126872000Y-70739000D01*
X126803879Y-70718998D01*
X126757386Y-70665342D01*
X126746000Y-70613000D01*
X126746000Y-70357000D01*
X126766002Y-70288879D01*
X126819658Y-70242386D01*
X126872000Y-70231000D01*
X128318344Y-70231000D01*
X128331875Y-70227027D01*
X128333180Y-70217947D01*
X128291214Y-70050875D01*
X128287894Y-70041124D01*
X128202972Y-69845814D01*
X128198105Y-69836739D01*
X128082426Y-69657926D01*
X128076136Y-69649757D01*
X127932806Y-69492240D01*
X127925273Y-69485215D01*
X127758139Y-69353222D01*
X127749556Y-69347520D01*
X127712602Y-69327120D01*
X127662631Y-69276687D01*
X127647859Y-69207245D01*
X127672975Y-69140839D01*
X127700327Y-69114232D01*
X127765680Y-69067616D01*
X127879860Y-68986173D01*
X128038096Y-68828489D01*
X128047670Y-68815166D01*
X128165435Y-68651277D01*
X128168453Y-68647077D01*
X128178006Y-68627749D01*
X128265136Y-68451453D01*
X128265137Y-68451451D01*
X128267430Y-68446811D01*
X128332370Y-68233069D01*
X128361529Y-68011590D01*
X128362445Y-67974118D01*
X128363074Y-67948365D01*
X128363074Y-67948361D01*
X128363156Y-67945000D01*
X128344852Y-67722361D01*
X128290431Y-67505702D01*
X128201354Y-67300840D01*
X128133761Y-67196357D01*
X128082822Y-67117617D01*
X128082820Y-67117614D01*
X128080014Y-67113277D01*
X127929670Y-66948051D01*
X127925619Y-66944852D01*
X127925615Y-66944848D01*
X127758414Y-66812800D01*
X127758410Y-66812798D01*
X127754359Y-66809598D01*
X127737221Y-66800137D01*
X127702136Y-66780769D01*
X127558789Y-66701638D01*
X127553920Y-66699914D01*
X127553916Y-66699912D01*
X127353087Y-66628795D01*
X127353083Y-66628794D01*
X127348212Y-66627069D01*
X127343119Y-66626162D01*
X127343116Y-66626161D01*
X127133373Y-66588800D01*
X127133367Y-66588799D01*
X127128284Y-66587894D01*
X127054452Y-66586992D01*
X126910081Y-66585228D01*
X126910079Y-66585228D01*
X126904911Y-66585165D01*
X126684091Y-66618955D01*
X126471756Y-66688357D01*
X126273607Y-66791507D01*
X126269474Y-66794610D01*
X126269471Y-66794612D01*
X126136667Y-66894324D01*
X126094965Y-66925635D01*
X126038537Y-66984684D01*
X126014283Y-67010064D01*
X125952759Y-67045494D01*
X125881846Y-67042037D01*
X125824060Y-67000791D01*
X125805207Y-66967243D01*
X125763767Y-66856703D01*
X125760615Y-66848295D01*
X125673261Y-66731739D01*
X125556705Y-66644385D01*
X125420316Y-66593255D01*
X125358134Y-66586500D01*
X123561866Y-66586500D01*
X123499684Y-66593255D01*
X123363295Y-66644385D01*
X123246739Y-66731739D01*
X123159385Y-66848295D01*
X123108255Y-66984684D01*
X123101500Y-67046866D01*
X123101500Y-67289122D01*
X123081498Y-67357243D01*
X123027842Y-67403736D01*
X122957568Y-67413840D01*
X122892988Y-67384346D01*
X122881864Y-67373432D01*
X122881411Y-67372928D01*
X122785253Y-67266134D01*
X122670829Y-67183000D01*
X122636094Y-67157763D01*
X122636093Y-67157762D01*
X122630752Y-67153882D01*
X122624724Y-67151198D01*
X122624722Y-67151197D01*
X122462319Y-67078891D01*
X122462318Y-67078891D01*
X122456288Y-67076206D01*
X122334331Y-67050283D01*
X122275944Y-67037872D01*
X122275939Y-67037872D01*
X122269487Y-67036500D01*
X122078513Y-67036500D01*
X122072061Y-67037872D01*
X122072056Y-67037872D01*
X122013669Y-67050283D01*
X121891712Y-67076206D01*
X121885682Y-67078891D01*
X121885681Y-67078891D01*
X121723278Y-67151197D01*
X121723276Y-67151198D01*
X121717248Y-67153882D01*
X121711907Y-67157762D01*
X121711906Y-67157763D01*
X121677171Y-67183000D01*
X121562747Y-67266134D01*
X121558326Y-67271044D01*
X121558325Y-67271045D01*
X121456309Y-67384346D01*
X121434960Y-67408056D01*
X121339473Y-67573444D01*
X121280458Y-67755072D01*
X121279768Y-67761633D01*
X121279768Y-67761635D01*
X121263947Y-67912166D01*
X121260496Y-67945000D01*
X96762830Y-67945000D01*
X96808021Y-67912166D01*
X96877253Y-67861866D01*
X96928913Y-67804492D01*
X97000621Y-67724852D01*
X97000625Y-67724847D01*
X97005040Y-67719944D01*
X97077097Y-67595138D01*
X97097223Y-67560279D01*
X97097224Y-67560278D01*
X97100527Y-67554556D01*
X97159542Y-67372928D01*
X97165620Y-67315104D01*
X97178814Y-67189565D01*
X97179504Y-67183000D01*
X97168280Y-67076206D01*
X97160232Y-66999635D01*
X97160232Y-66999633D01*
X97159542Y-66993072D01*
X97100527Y-66811444D01*
X97005040Y-66646056D01*
X96987127Y-66626161D01*
X96881675Y-66509045D01*
X96881674Y-66509044D01*
X96877253Y-66504134D01*
X96754311Y-66414811D01*
X96728094Y-66395763D01*
X96728093Y-66395762D01*
X96722752Y-66391882D01*
X96716724Y-66389198D01*
X96716722Y-66389197D01*
X96554319Y-66316891D01*
X96554318Y-66316891D01*
X96548288Y-66314206D01*
X96454888Y-66294353D01*
X96367944Y-66275872D01*
X96367939Y-66275872D01*
X96361487Y-66274500D01*
X96170513Y-66274500D01*
X96164061Y-66275872D01*
X96164056Y-66275872D01*
X96077112Y-66294353D01*
X95983712Y-66314206D01*
X95977682Y-66316891D01*
X95977681Y-66316891D01*
X95815278Y-66389197D01*
X95815276Y-66389198D01*
X95809248Y-66391882D01*
X95803907Y-66395762D01*
X95803906Y-66395763D01*
X95777689Y-66414811D01*
X95654747Y-66504134D01*
X95650326Y-66509044D01*
X95650325Y-66509045D01*
X95544874Y-66626161D01*
X95526960Y-66646056D01*
X95501158Y-66690747D01*
X95442984Y-66791507D01*
X95431473Y-66811444D01*
X95429433Y-66817723D01*
X95428606Y-66819580D01*
X95382626Y-66873675D01*
X95314699Y-66894324D01*
X95246391Y-66874971D01*
X95198394Y-66819580D01*
X95197567Y-66817723D01*
X95195527Y-66811444D01*
X95184017Y-66791507D01*
X95125842Y-66690747D01*
X95100040Y-66646056D01*
X95082127Y-66626161D01*
X94976675Y-66509045D01*
X94976674Y-66509044D01*
X94972253Y-66504134D01*
X94849311Y-66414811D01*
X94823094Y-66395763D01*
X94823093Y-66395762D01*
X94817752Y-66391882D01*
X94811724Y-66389198D01*
X94811722Y-66389197D01*
X94649319Y-66316891D01*
X94649318Y-66316891D01*
X94643288Y-66314206D01*
X94549888Y-66294353D01*
X94462944Y-66275872D01*
X94462939Y-66275872D01*
X94456487Y-66274500D01*
X94265513Y-66274500D01*
X94259061Y-66275872D01*
X94259056Y-66275872D01*
X94172112Y-66294353D01*
X94078712Y-66314206D01*
X94072682Y-66316891D01*
X94072681Y-66316891D01*
X93910278Y-66389197D01*
X93910276Y-66389198D01*
X93904248Y-66391882D01*
X93898907Y-66395762D01*
X93898906Y-66395763D01*
X93872689Y-66414811D01*
X93749747Y-66504134D01*
X93745326Y-66509044D01*
X93745325Y-66509045D01*
X93639874Y-66626161D01*
X93621960Y-66646056D01*
X93526473Y-66811444D01*
X93467458Y-66993072D01*
X93466768Y-66999633D01*
X93466768Y-66999635D01*
X93458720Y-67076206D01*
X93447496Y-67183000D01*
X93448186Y-67189565D01*
X93461381Y-67315104D01*
X93467458Y-67372928D01*
X93526473Y-67554556D01*
X93529776Y-67560278D01*
X93529777Y-67560279D01*
X93550882Y-67596834D01*
X93567620Y-67665830D01*
X93544399Y-67732922D01*
X93535408Y-67744134D01*
X93494960Y-67789056D01*
X93452923Y-67861866D01*
X93404926Y-67945000D01*
X93399473Y-67954444D01*
X93340458Y-68136072D01*
X93339768Y-68142633D01*
X93339768Y-68142635D01*
X93329743Y-68238023D01*
X93320496Y-68326000D01*
X88215715Y-68326000D01*
X88207852Y-68230361D01*
X88153431Y-68013702D01*
X88064354Y-67808840D01*
X88010020Y-67724852D01*
X87945822Y-67625617D01*
X87945820Y-67625614D01*
X87943014Y-67621277D01*
X87792670Y-67456051D01*
X87788619Y-67452852D01*
X87788615Y-67452848D01*
X87621414Y-67320800D01*
X87621410Y-67320798D01*
X87617359Y-67317598D01*
X87576053Y-67294796D01*
X87526084Y-67244364D01*
X87511312Y-67174921D01*
X87536428Y-67108516D01*
X87563780Y-67081909D01*
X87627441Y-67036500D01*
X87742860Y-66954173D01*
X87749004Y-66948051D01*
X87877924Y-66819580D01*
X87901096Y-66796489D01*
X87960594Y-66713689D01*
X88028435Y-66619277D01*
X88031453Y-66615077D01*
X88045850Y-66585948D01*
X88128136Y-66419453D01*
X88128137Y-66419451D01*
X88130430Y-66414811D01*
X88195370Y-66201069D01*
X88224529Y-65979590D01*
X88224611Y-65976240D01*
X88226074Y-65916365D01*
X88226074Y-65916361D01*
X88226156Y-65913000D01*
X88207852Y-65690361D01*
X88153431Y-65473702D01*
X88064354Y-65268840D01*
X87943014Y-65081277D01*
X87890896Y-65024000D01*
X115799496Y-65024000D01*
X115819458Y-65213928D01*
X115878473Y-65395556D01*
X115881776Y-65401278D01*
X115881777Y-65401279D01*
X115902753Y-65437610D01*
X115973960Y-65560944D01*
X115978378Y-65565851D01*
X115978379Y-65565852D01*
X116060962Y-65657570D01*
X116101747Y-65702866D01*
X116256248Y-65815118D01*
X116262276Y-65817802D01*
X116262278Y-65817803D01*
X116424681Y-65890109D01*
X116430712Y-65892794D01*
X116509994Y-65909646D01*
X116611056Y-65931128D01*
X116611061Y-65931128D01*
X116617513Y-65932500D01*
X116808487Y-65932500D01*
X116814939Y-65931128D01*
X116814944Y-65931128D01*
X116916006Y-65909646D01*
X116995288Y-65892794D01*
X117001319Y-65890109D01*
X117163722Y-65817803D01*
X117163724Y-65817802D01*
X117169752Y-65815118D01*
X117324253Y-65702866D01*
X117365038Y-65657570D01*
X117447621Y-65565852D01*
X117447622Y-65565851D01*
X117452040Y-65560944D01*
X117523247Y-65437610D01*
X117544223Y-65401279D01*
X117544224Y-65401278D01*
X117547527Y-65395556D01*
X117585724Y-65278000D01*
X123165496Y-65278000D01*
X123166186Y-65284565D01*
X123183290Y-65447297D01*
X123185458Y-65467928D01*
X123244473Y-65649556D01*
X123247776Y-65655278D01*
X123247777Y-65655279D01*
X123272416Y-65697955D01*
X123339960Y-65814944D01*
X123467747Y-65956866D01*
X123622248Y-66069118D01*
X123628276Y-66071802D01*
X123628278Y-66071803D01*
X123697708Y-66102715D01*
X123796712Y-66146794D01*
X123890112Y-66166647D01*
X123977056Y-66185128D01*
X123977061Y-66185128D01*
X123983513Y-66186500D01*
X124174487Y-66186500D01*
X124180939Y-66185128D01*
X124180944Y-66185128D01*
X124267888Y-66166647D01*
X124361288Y-66146794D01*
X124460292Y-66102715D01*
X124529722Y-66071803D01*
X124529724Y-66071802D01*
X124535752Y-66069118D01*
X124690253Y-65956866D01*
X124818040Y-65814944D01*
X124885584Y-65697955D01*
X124910223Y-65655279D01*
X124910224Y-65655278D01*
X124913527Y-65649556D01*
X124972542Y-65467928D01*
X124974711Y-65447297D01*
X124991814Y-65284565D01*
X124992504Y-65278000D01*
X124972542Y-65088072D01*
X124913527Y-64906444D01*
X124818040Y-64741056D01*
X124785003Y-64704364D01*
X124694675Y-64604045D01*
X124694674Y-64604044D01*
X124690253Y-64599134D01*
X124543862Y-64492774D01*
X124541094Y-64490763D01*
X124541093Y-64490762D01*
X124535752Y-64486882D01*
X124529724Y-64484198D01*
X124529722Y-64484197D01*
X124367319Y-64411891D01*
X124367318Y-64411891D01*
X124361288Y-64409206D01*
X124267888Y-64389353D01*
X124180944Y-64370872D01*
X124180939Y-64370872D01*
X124174487Y-64369500D01*
X123983513Y-64369500D01*
X123977061Y-64370872D01*
X123977056Y-64370872D01*
X123890112Y-64389353D01*
X123796712Y-64409206D01*
X123790682Y-64411891D01*
X123790681Y-64411891D01*
X123628278Y-64484197D01*
X123628276Y-64484198D01*
X123622248Y-64486882D01*
X123616907Y-64490762D01*
X123616906Y-64490763D01*
X123614138Y-64492774D01*
X123467747Y-64599134D01*
X123463326Y-64604044D01*
X123463325Y-64604045D01*
X123372998Y-64704364D01*
X123339960Y-64741056D01*
X123244473Y-64906444D01*
X123185458Y-65088072D01*
X123165496Y-65278000D01*
X117585724Y-65278000D01*
X117606542Y-65213928D01*
X117626504Y-65024000D01*
X117606542Y-64834072D01*
X117547527Y-64652444D01*
X117452040Y-64487056D01*
X117328851Y-64350240D01*
X117328675Y-64350045D01*
X117328674Y-64350044D01*
X117324253Y-64345134D01*
X117202244Y-64256489D01*
X117175094Y-64236763D01*
X117175093Y-64236762D01*
X117169752Y-64232882D01*
X117163724Y-64230198D01*
X117163722Y-64230197D01*
X117001319Y-64157891D01*
X117001318Y-64157891D01*
X116995288Y-64155206D01*
X116901887Y-64135353D01*
X116814944Y-64116872D01*
X116814939Y-64116872D01*
X116808487Y-64115500D01*
X116617513Y-64115500D01*
X116611061Y-64116872D01*
X116611056Y-64116872D01*
X116524113Y-64135353D01*
X116430712Y-64155206D01*
X116424682Y-64157891D01*
X116424681Y-64157891D01*
X116262278Y-64230197D01*
X116262276Y-64230198D01*
X116256248Y-64232882D01*
X116250907Y-64236762D01*
X116250906Y-64236763D01*
X116223756Y-64256489D01*
X116101747Y-64345134D01*
X116097326Y-64350044D01*
X116097325Y-64350045D01*
X116097150Y-64350240D01*
X115973960Y-64487056D01*
X115878473Y-64652444D01*
X115819458Y-64834072D01*
X115799496Y-65024000D01*
X87890896Y-65024000D01*
X87792670Y-64916051D01*
X87788619Y-64912852D01*
X87788615Y-64912848D01*
X87621414Y-64780800D01*
X87621410Y-64780798D01*
X87617359Y-64777598D01*
X87576053Y-64754796D01*
X87526084Y-64704364D01*
X87511312Y-64634921D01*
X87536428Y-64568516D01*
X87563780Y-64541909D01*
X87632665Y-64492774D01*
X87742860Y-64414173D01*
X87747845Y-64409206D01*
X87897435Y-64260137D01*
X87901096Y-64256489D01*
X87915271Y-64236763D01*
X88028435Y-64079277D01*
X88031453Y-64075077D01*
X88052320Y-64032857D01*
X88128136Y-63879453D01*
X88128137Y-63879451D01*
X88130430Y-63874811D01*
X88195370Y-63661069D01*
X88224529Y-63439590D01*
X88226156Y-63373000D01*
X88207852Y-63150361D01*
X88153431Y-62933702D01*
X88064354Y-62728840D01*
X87943014Y-62541277D01*
X87792670Y-62376051D01*
X87788619Y-62372852D01*
X87788615Y-62372848D01*
X87621414Y-62240800D01*
X87621410Y-62240798D01*
X87617359Y-62237598D01*
X87576053Y-62214796D01*
X87526084Y-62164364D01*
X87511312Y-62094921D01*
X87536428Y-62028516D01*
X87563780Y-62001909D01*
X87607603Y-61970650D01*
X87742860Y-61874173D01*
X87901096Y-61716489D01*
X87960594Y-61633689D01*
X88028435Y-61539277D01*
X88031453Y-61535077D01*
X88052320Y-61492857D01*
X88128136Y-61339453D01*
X88128137Y-61339451D01*
X88130430Y-61334811D01*
X88195370Y-61121069D01*
X88224529Y-60899590D01*
X88224611Y-60896240D01*
X88226074Y-60836365D01*
X88226074Y-60836361D01*
X88226156Y-60833000D01*
X88207852Y-60610361D01*
X88153431Y-60393702D01*
X88064354Y-60188840D01*
X87943014Y-60001277D01*
X87792670Y-59836051D01*
X87788619Y-59832852D01*
X87788615Y-59832848D01*
X87621414Y-59700800D01*
X87621410Y-59700798D01*
X87617359Y-59697598D01*
X87576053Y-59674796D01*
X87526084Y-59624364D01*
X87511312Y-59554921D01*
X87536428Y-59488516D01*
X87563780Y-59461909D01*
X87629777Y-59414834D01*
X87742860Y-59334173D01*
X87747845Y-59329206D01*
X87848926Y-59228477D01*
X87901096Y-59176489D01*
X87960594Y-59093689D01*
X88028435Y-58999277D01*
X88031453Y-58995077D01*
X88052320Y-58952857D01*
X88128136Y-58799453D01*
X88128137Y-58799451D01*
X88130430Y-58794811D01*
X88195370Y-58581069D01*
X88224529Y-58359590D01*
X88226156Y-58293000D01*
X88207852Y-58070361D01*
X88153431Y-57853702D01*
X88064354Y-57648840D01*
X87950684Y-57473133D01*
X87945822Y-57465617D01*
X87945820Y-57465614D01*
X87943014Y-57461277D01*
X87792670Y-57296051D01*
X87788619Y-57292852D01*
X87788615Y-57292848D01*
X87621414Y-57160800D01*
X87621410Y-57160798D01*
X87617359Y-57157598D01*
X87576053Y-57134796D01*
X87526084Y-57084364D01*
X87511312Y-57014921D01*
X87536428Y-56948516D01*
X87563780Y-56921909D01*
X87607603Y-56890650D01*
X87742860Y-56794173D01*
X87901096Y-56636489D01*
X87960594Y-56553689D01*
X87999654Y-56499331D01*
X97000502Y-56499331D01*
X97020457Y-56727418D01*
X97021881Y-56732731D01*
X97021881Y-56732733D01*
X97073104Y-56923896D01*
X97079716Y-56948574D01*
X97082039Y-56953555D01*
X97082039Y-56953556D01*
X97174151Y-57151093D01*
X97174154Y-57151098D01*
X97176477Y-57156080D01*
X97196943Y-57185308D01*
X97261408Y-57277373D01*
X97307802Y-57343631D01*
X97469700Y-57505529D01*
X97474208Y-57508686D01*
X97474211Y-57508688D01*
X97552389Y-57563429D01*
X97657251Y-57636854D01*
X97662233Y-57639177D01*
X97662238Y-57639180D01*
X97859775Y-57731292D01*
X97864757Y-57733615D01*
X97870065Y-57735037D01*
X97870067Y-57735038D01*
X97921636Y-57748856D01*
X98057112Y-57785157D01*
X98117734Y-57822108D01*
X98148755Y-57885968D01*
X98150500Y-57906863D01*
X98150500Y-59327465D01*
X98157255Y-59389647D01*
X98208385Y-59526036D01*
X98295739Y-59642592D01*
X98412295Y-59729946D01*
X98548684Y-59781076D01*
X98610866Y-59787831D01*
X100223595Y-59787831D01*
X100291716Y-59807833D01*
X100338209Y-59861489D01*
X100348313Y-59931763D01*
X100343429Y-59952763D01*
X100325458Y-60008072D01*
X100305496Y-60198000D01*
X100306186Y-60204565D01*
X100323290Y-60367297D01*
X100325458Y-60387928D01*
X100384473Y-60569556D01*
X100387776Y-60575278D01*
X100387777Y-60575279D01*
X100421686Y-60634010D01*
X100479960Y-60734944D01*
X100607747Y-60876866D01*
X100762248Y-60989118D01*
X100768276Y-60991802D01*
X100768278Y-60991803D01*
X100837708Y-61022715D01*
X100936712Y-61066794D01*
X101030113Y-61086647D01*
X101117056Y-61105128D01*
X101117061Y-61105128D01*
X101123513Y-61106500D01*
X101314487Y-61106500D01*
X101320939Y-61105128D01*
X101320944Y-61105128D01*
X101407887Y-61086647D01*
X101501288Y-61066794D01*
X101600292Y-61022715D01*
X101669722Y-60991803D01*
X101669724Y-60991802D01*
X101675752Y-60989118D01*
X101830253Y-60876866D01*
X101958040Y-60734944D01*
X102016314Y-60634010D01*
X102050223Y-60575279D01*
X102050224Y-60575278D01*
X102053527Y-60569556D01*
X102112542Y-60387928D01*
X102114711Y-60367297D01*
X102131814Y-60204565D01*
X102132504Y-60198000D01*
X102112542Y-60008072D01*
X102072423Y-59884599D01*
X102070395Y-59813633D01*
X102107058Y-59752835D01*
X102159646Y-59723957D01*
X102192931Y-59715039D01*
X102192938Y-59715037D01*
X102198243Y-59713615D01*
X102237250Y-59695426D01*
X102400762Y-59619180D01*
X102400767Y-59619177D01*
X102405749Y-59616854D01*
X102535450Y-59526036D01*
X102588789Y-59488688D01*
X102588792Y-59488686D01*
X102593300Y-59485529D01*
X102755198Y-59323631D01*
X102790787Y-59272805D01*
X102846244Y-59228477D01*
X102916864Y-59221168D01*
X102980224Y-59253199D01*
X102997213Y-59272805D01*
X103032802Y-59323631D01*
X103194700Y-59485529D01*
X103199208Y-59488686D01*
X103199211Y-59488688D01*
X103252550Y-59526036D01*
X103382251Y-59616854D01*
X103387233Y-59619177D01*
X103387238Y-59619180D01*
X103550750Y-59695426D01*
X103589757Y-59713615D01*
X103595065Y-59715037D01*
X103595067Y-59715038D01*
X103805598Y-59771450D01*
X103805600Y-59771450D01*
X103810913Y-59772874D01*
X104039000Y-59792829D01*
X104267087Y-59772874D01*
X104272400Y-59771450D01*
X104272402Y-59771450D01*
X104482933Y-59715038D01*
X104482935Y-59715037D01*
X104488243Y-59713615D01*
X104527250Y-59695426D01*
X104690762Y-59619180D01*
X104690767Y-59619177D01*
X104695749Y-59616854D01*
X104825450Y-59526036D01*
X104878789Y-59488688D01*
X104878792Y-59488686D01*
X104883300Y-59485529D01*
X105045198Y-59323631D01*
X105080787Y-59272805D01*
X105136244Y-59228477D01*
X105206864Y-59221168D01*
X105270224Y-59253199D01*
X105287213Y-59272805D01*
X105322802Y-59323631D01*
X105484700Y-59485529D01*
X105489208Y-59488686D01*
X105489211Y-59488688D01*
X105542550Y-59526036D01*
X105672251Y-59616854D01*
X105677233Y-59619177D01*
X105677238Y-59619180D01*
X105840750Y-59695426D01*
X105879757Y-59713615D01*
X105885065Y-59715037D01*
X105885067Y-59715038D01*
X106100913Y-59772874D01*
X106100472Y-59774521D01*
X106157161Y-59802625D01*
X106193622Y-59863543D01*
X106191490Y-59934109D01*
X106179373Y-59971401D01*
X106167458Y-60008072D01*
X106147496Y-60198000D01*
X106148186Y-60204565D01*
X106165290Y-60367297D01*
X106167458Y-60387928D01*
X106226473Y-60569556D01*
X106229776Y-60575278D01*
X106229777Y-60575279D01*
X106263686Y-60634010D01*
X106321960Y-60734944D01*
X106449747Y-60876866D01*
X106604248Y-60989118D01*
X106610276Y-60991802D01*
X106610278Y-60991803D01*
X106679708Y-61022715D01*
X106778712Y-61066794D01*
X106872113Y-61086647D01*
X106959056Y-61105128D01*
X106959061Y-61105128D01*
X106965513Y-61106500D01*
X107156487Y-61106500D01*
X107162939Y-61105128D01*
X107162944Y-61105128D01*
X107249887Y-61086647D01*
X107343288Y-61066794D01*
X107442292Y-61022715D01*
X107511722Y-60991803D01*
X107511724Y-60991802D01*
X107517752Y-60989118D01*
X107672253Y-60876866D01*
X107800040Y-60734944D01*
X107858314Y-60634010D01*
X107892223Y-60575279D01*
X107892224Y-60575278D01*
X107895527Y-60569556D01*
X107954542Y-60387928D01*
X107956711Y-60367297D01*
X107973814Y-60204565D01*
X107974504Y-60198000D01*
X107954542Y-60008072D01*
X107906914Y-59861489D01*
X107897568Y-59832725D01*
X107897567Y-59832724D01*
X107895527Y-59826444D01*
X107895890Y-59826326D01*
X107886964Y-59759721D01*
X107917074Y-59695426D01*
X107977165Y-59657616D01*
X108048158Y-59658295D01*
X108064747Y-59664648D01*
X108169757Y-59713615D01*
X108175065Y-59715037D01*
X108175067Y-59715038D01*
X108385598Y-59771450D01*
X108385600Y-59771450D01*
X108390913Y-59772874D01*
X108619000Y-59792829D01*
X108847087Y-59772874D01*
X108852400Y-59771450D01*
X108852402Y-59771450D01*
X109062933Y-59715038D01*
X109062935Y-59715037D01*
X109068243Y-59713615D01*
X109107250Y-59695426D01*
X109270762Y-59619180D01*
X109270767Y-59619177D01*
X109275749Y-59616854D01*
X109405450Y-59526036D01*
X109458789Y-59488688D01*
X109458792Y-59488686D01*
X109463300Y-59485529D01*
X109625198Y-59323631D01*
X109756523Y-59136080D01*
X109758846Y-59131098D01*
X109758849Y-59131093D01*
X109850961Y-58933556D01*
X109850961Y-58933555D01*
X109853284Y-58928574D01*
X109860183Y-58902829D01*
X109911119Y-58712733D01*
X109911119Y-58712731D01*
X109912543Y-58707418D01*
X109932498Y-58479331D01*
X109912543Y-58251244D01*
X109864075Y-58070361D01*
X109854707Y-58035398D01*
X109854706Y-58035396D01*
X109853284Y-58030088D01*
X109795824Y-57906863D01*
X109758849Y-57827569D01*
X109758846Y-57827564D01*
X109756523Y-57822582D01*
X109638193Y-57653590D01*
X109628357Y-57639542D01*
X109628355Y-57639539D01*
X109625198Y-57635031D01*
X109463300Y-57473133D01*
X109458792Y-57469976D01*
X109458789Y-57469974D01*
X109380611Y-57415233D01*
X109275749Y-57341808D01*
X109270767Y-57339485D01*
X109270762Y-57339482D01*
X109073225Y-57247370D01*
X109073224Y-57247370D01*
X109068243Y-57245047D01*
X109062935Y-57243625D01*
X109062933Y-57243624D01*
X108852402Y-57187212D01*
X108852400Y-57187212D01*
X108847087Y-57185788D01*
X108841611Y-57185309D01*
X108841606Y-57185308D01*
X108811222Y-57182650D01*
X108786708Y-57180506D01*
X108720591Y-57154643D01*
X108678951Y-57097140D01*
X108675010Y-57026253D01*
X108683495Y-57001736D01*
X108705959Y-56953561D01*
X108705961Y-56953556D01*
X108708284Y-56948574D01*
X108714897Y-56923896D01*
X108766119Y-56732733D01*
X108766119Y-56732731D01*
X108767543Y-56727418D01*
X108787498Y-56499331D01*
X108767543Y-56271244D01*
X108761812Y-56249857D01*
X108709707Y-56055398D01*
X108709706Y-56055396D01*
X108708284Y-56050088D01*
X108705959Y-56045101D01*
X108683495Y-55996926D01*
X108672834Y-55926735D01*
X108701814Y-55861922D01*
X108761234Y-55823066D01*
X108786705Y-55818157D01*
X108811222Y-55816012D01*
X108841606Y-55813354D01*
X108841611Y-55813353D01*
X108847087Y-55812874D01*
X108852400Y-55811450D01*
X108852402Y-55811450D01*
X109062933Y-55755038D01*
X109062935Y-55755037D01*
X109068243Y-55753615D01*
X109076755Y-55749646D01*
X109270762Y-55659180D01*
X109270767Y-55659177D01*
X109275749Y-55656854D01*
X109449029Y-55535522D01*
X109458789Y-55528688D01*
X109458792Y-55528686D01*
X109463300Y-55525529D01*
X109625198Y-55363631D01*
X109756523Y-55176080D01*
X109758846Y-55171098D01*
X109758849Y-55171093D01*
X109850961Y-54973556D01*
X109850961Y-54973555D01*
X109853284Y-54968574D01*
X109864795Y-54925617D01*
X109911119Y-54752733D01*
X109911119Y-54752731D01*
X109912543Y-54747418D01*
X109932498Y-54519331D01*
X109912543Y-54291244D01*
X109902610Y-54254173D01*
X109854707Y-54075398D01*
X109854706Y-54075396D01*
X109853284Y-54070088D01*
X109829036Y-54018088D01*
X109758849Y-53867569D01*
X109758846Y-53867564D01*
X109756523Y-53862582D01*
X109656303Y-53719453D01*
X109628357Y-53679542D01*
X109628355Y-53679539D01*
X109625198Y-53675031D01*
X109463300Y-53513133D01*
X109458792Y-53509976D01*
X109458789Y-53509974D01*
X109380611Y-53455233D01*
X109275749Y-53381808D01*
X109270767Y-53379485D01*
X109270762Y-53379482D01*
X109073225Y-53287370D01*
X109073224Y-53287370D01*
X109068243Y-53285047D01*
X109062935Y-53283625D01*
X109062933Y-53283624D01*
X108852402Y-53227212D01*
X108852400Y-53227212D01*
X108847087Y-53225788D01*
X108619000Y-53205833D01*
X108390913Y-53225788D01*
X108385600Y-53227212D01*
X108385598Y-53227212D01*
X108175067Y-53283624D01*
X108175065Y-53283625D01*
X108169757Y-53285047D01*
X108164776Y-53287370D01*
X108164775Y-53287370D01*
X107967238Y-53379482D01*
X107967233Y-53379485D01*
X107962251Y-53381808D01*
X107857389Y-53455233D01*
X107779211Y-53509974D01*
X107779208Y-53509976D01*
X107774700Y-53513133D01*
X107612802Y-53675031D01*
X107609645Y-53679539D01*
X107609643Y-53679542D01*
X107577213Y-53725857D01*
X107521756Y-53770185D01*
X107451136Y-53777494D01*
X107387776Y-53745463D01*
X107370787Y-53725857D01*
X107338357Y-53679542D01*
X107338355Y-53679539D01*
X107335198Y-53675031D01*
X107173300Y-53513133D01*
X107168792Y-53509976D01*
X107168789Y-53509974D01*
X107090611Y-53455233D01*
X106985749Y-53381808D01*
X106980767Y-53379485D01*
X106980762Y-53379482D01*
X106783225Y-53287370D01*
X106783224Y-53287370D01*
X106778243Y-53285047D01*
X106772935Y-53283625D01*
X106772933Y-53283624D01*
X106562402Y-53227212D01*
X106562400Y-53227212D01*
X106557087Y-53225788D01*
X106329000Y-53205833D01*
X106100913Y-53225788D01*
X106095600Y-53227212D01*
X106095598Y-53227212D01*
X105885067Y-53283624D01*
X105885065Y-53283625D01*
X105879757Y-53285047D01*
X105874776Y-53287370D01*
X105874775Y-53287370D01*
X105677238Y-53379482D01*
X105677233Y-53379485D01*
X105672251Y-53381808D01*
X105567389Y-53455233D01*
X105489211Y-53509974D01*
X105489208Y-53509976D01*
X105484700Y-53513133D01*
X105322802Y-53675031D01*
X105319645Y-53679539D01*
X105319643Y-53679542D01*
X105287213Y-53725857D01*
X105231756Y-53770185D01*
X105161136Y-53777494D01*
X105097776Y-53745463D01*
X105080787Y-53725857D01*
X105048357Y-53679542D01*
X105048355Y-53679539D01*
X105045198Y-53675031D01*
X104883300Y-53513133D01*
X104878792Y-53509976D01*
X104878789Y-53509974D01*
X104800611Y-53455233D01*
X104695749Y-53381808D01*
X104690767Y-53379485D01*
X104690762Y-53379482D01*
X104493225Y-53287370D01*
X104493224Y-53287370D01*
X104488243Y-53285047D01*
X104482935Y-53283625D01*
X104482933Y-53283624D01*
X104272402Y-53227212D01*
X104272400Y-53227212D01*
X104267087Y-53225788D01*
X104039000Y-53205833D01*
X103810913Y-53225788D01*
X103805600Y-53227212D01*
X103805598Y-53227212D01*
X103595067Y-53283624D01*
X103595065Y-53283625D01*
X103589757Y-53285047D01*
X103584776Y-53287370D01*
X103584775Y-53287370D01*
X103387238Y-53379482D01*
X103387233Y-53379485D01*
X103382251Y-53381808D01*
X103277389Y-53455233D01*
X103199211Y-53509974D01*
X103199208Y-53509976D01*
X103194700Y-53513133D01*
X103032802Y-53675031D01*
X103029645Y-53679539D01*
X103029643Y-53679542D01*
X102997213Y-53725857D01*
X102941756Y-53770185D01*
X102871136Y-53777494D01*
X102807776Y-53745463D01*
X102790787Y-53725857D01*
X102758357Y-53679542D01*
X102758355Y-53679539D01*
X102755198Y-53675031D01*
X102593300Y-53513133D01*
X102588792Y-53509976D01*
X102588789Y-53509974D01*
X102510611Y-53455233D01*
X102405749Y-53381808D01*
X102400767Y-53379485D01*
X102400762Y-53379482D01*
X102203225Y-53287370D01*
X102203224Y-53287370D01*
X102198243Y-53285047D01*
X102192935Y-53283625D01*
X102192933Y-53283624D01*
X101982402Y-53227212D01*
X101982400Y-53227212D01*
X101977087Y-53225788D01*
X101749000Y-53205833D01*
X101520913Y-53225788D01*
X101515600Y-53227212D01*
X101515598Y-53227212D01*
X101305067Y-53283624D01*
X101305065Y-53283625D01*
X101299757Y-53285047D01*
X101294776Y-53287370D01*
X101294775Y-53287370D01*
X101097238Y-53379482D01*
X101097233Y-53379485D01*
X101092251Y-53381808D01*
X100987389Y-53455233D01*
X100909211Y-53509974D01*
X100909208Y-53509976D01*
X100904700Y-53513133D01*
X100742802Y-53675031D01*
X100739645Y-53679539D01*
X100739643Y-53679542D01*
X100707213Y-53725857D01*
X100651756Y-53770185D01*
X100581136Y-53777494D01*
X100517776Y-53745463D01*
X100500787Y-53725857D01*
X100468357Y-53679542D01*
X100468355Y-53679539D01*
X100465198Y-53675031D01*
X100303300Y-53513133D01*
X100298792Y-53509976D01*
X100298789Y-53509974D01*
X100220611Y-53455233D01*
X100115749Y-53381808D01*
X100110767Y-53379485D01*
X100110762Y-53379482D01*
X99913225Y-53287370D01*
X99913224Y-53287370D01*
X99908243Y-53285047D01*
X99902935Y-53283625D01*
X99902933Y-53283624D01*
X99692402Y-53227212D01*
X99692400Y-53227212D01*
X99687087Y-53225788D01*
X99459000Y-53205833D01*
X99230913Y-53225788D01*
X99225600Y-53227212D01*
X99225598Y-53227212D01*
X99015067Y-53283624D01*
X99015065Y-53283625D01*
X99009757Y-53285047D01*
X99004776Y-53287370D01*
X99004775Y-53287370D01*
X98807238Y-53379482D01*
X98807233Y-53379485D01*
X98802251Y-53381808D01*
X98697389Y-53455233D01*
X98619211Y-53509974D01*
X98619208Y-53509976D01*
X98614700Y-53513133D01*
X98452802Y-53675031D01*
X98449645Y-53679539D01*
X98449643Y-53679542D01*
X98421697Y-53719453D01*
X98321477Y-53862582D01*
X98319154Y-53867564D01*
X98319151Y-53867569D01*
X98248964Y-54018088D01*
X98224716Y-54070088D01*
X98223294Y-54075396D01*
X98223293Y-54075398D01*
X98175390Y-54254173D01*
X98165457Y-54291244D01*
X98145502Y-54519331D01*
X98165457Y-54747418D01*
X98166881Y-54752731D01*
X98166881Y-54752733D01*
X98213206Y-54925617D01*
X98224716Y-54968574D01*
X98227039Y-54973556D01*
X98227041Y-54973561D01*
X98249505Y-55021736D01*
X98260166Y-55091927D01*
X98231186Y-55156740D01*
X98171766Y-55195596D01*
X98146295Y-55200505D01*
X98121778Y-55202650D01*
X98091394Y-55205308D01*
X98091389Y-55205309D01*
X98085913Y-55205788D01*
X98080600Y-55207212D01*
X98080598Y-55207212D01*
X97870067Y-55263624D01*
X97870065Y-55263625D01*
X97864757Y-55265047D01*
X97859776Y-55267370D01*
X97859775Y-55267370D01*
X97662238Y-55359482D01*
X97662233Y-55359485D01*
X97657251Y-55361808D01*
X97552389Y-55435233D01*
X97474211Y-55489974D01*
X97474208Y-55489976D01*
X97469700Y-55493133D01*
X97307802Y-55655031D01*
X97176477Y-55842582D01*
X97174154Y-55847564D01*
X97174151Y-55847569D01*
X97082041Y-56045101D01*
X97079716Y-56050088D01*
X97078294Y-56055396D01*
X97078293Y-56055398D01*
X97026188Y-56249857D01*
X97020457Y-56271244D01*
X97000502Y-56499331D01*
X87999654Y-56499331D01*
X88028435Y-56459277D01*
X88031453Y-56455077D01*
X88052320Y-56412857D01*
X88128136Y-56259453D01*
X88128137Y-56259451D01*
X88130430Y-56254811D01*
X88195370Y-56041069D01*
X88224529Y-55819590D01*
X88224611Y-55816240D01*
X88226074Y-55756365D01*
X88226074Y-55756361D01*
X88226156Y-55753000D01*
X88207852Y-55530361D01*
X88153431Y-55313702D01*
X88064354Y-55108840D01*
X87943014Y-54921277D01*
X87792670Y-54756051D01*
X87788619Y-54752852D01*
X87788615Y-54752848D01*
X87621414Y-54620800D01*
X87621410Y-54620798D01*
X87617359Y-54617598D01*
X87576053Y-54594796D01*
X87526084Y-54544364D01*
X87511312Y-54474921D01*
X87536428Y-54408516D01*
X87563780Y-54381909D01*
X87607603Y-54350650D01*
X87742860Y-54254173D01*
X87901096Y-54096489D01*
X88031453Y-53915077D01*
X88057398Y-53862582D01*
X88128136Y-53719453D01*
X88128137Y-53719451D01*
X88130430Y-53714811D01*
X88191705Y-53513133D01*
X88193865Y-53506023D01*
X88193865Y-53506021D01*
X88195370Y-53501069D01*
X88224529Y-53279590D01*
X88226156Y-53213000D01*
X88207852Y-52990361D01*
X88153431Y-52773702D01*
X88064354Y-52568840D01*
X87943014Y-52381277D01*
X87792670Y-52216051D01*
X87788619Y-52212852D01*
X87788615Y-52212848D01*
X87621414Y-52080800D01*
X87621410Y-52080798D01*
X87617359Y-52077598D01*
X87421789Y-51969638D01*
X87416920Y-51967914D01*
X87416916Y-51967912D01*
X87216087Y-51896795D01*
X87216083Y-51896794D01*
X87211212Y-51895069D01*
X87206119Y-51894162D01*
X87206116Y-51894161D01*
X86996373Y-51856800D01*
X86996367Y-51856799D01*
X86991284Y-51855894D01*
X86917452Y-51854992D01*
X86773081Y-51853228D01*
X86773079Y-51853228D01*
X86767911Y-51853165D01*
X86547091Y-51886955D01*
X86334756Y-51956357D01*
X86136607Y-52059507D01*
X86132474Y-52062610D01*
X86132471Y-52062612D01*
X86049450Y-52124946D01*
X85957965Y-52193635D01*
X85954393Y-52197373D01*
X85876898Y-52278466D01*
X85815374Y-52313895D01*
X85744462Y-52310438D01*
X85686676Y-52269192D01*
X85667823Y-52235644D01*
X85626324Y-52124946D01*
X85617786Y-52109351D01*
X85541285Y-52007276D01*
X85528724Y-51994715D01*
X85426649Y-51918214D01*
X85411054Y-51909676D01*
X85290606Y-51864522D01*
X85275351Y-51860895D01*
X85224486Y-51855369D01*
X85217672Y-51855000D01*
X84595115Y-51855000D01*
X84579876Y-51859475D01*
X84578671Y-51860865D01*
X84577000Y-51868548D01*
X84577000Y-53341000D01*
X84556998Y-53409121D01*
X84503342Y-53455614D01*
X84451000Y-53467000D01*
X82983116Y-53467000D01*
X82967877Y-53471475D01*
X82966672Y-53472865D01*
X82965001Y-53480548D01*
X82965001Y-54107669D01*
X82965371Y-54114490D01*
X82970895Y-54165352D01*
X82974521Y-54180604D01*
X83019676Y-54301054D01*
X83028214Y-54316649D01*
X83104715Y-54418724D01*
X83117276Y-54431285D01*
X83219351Y-54507786D01*
X83234946Y-54516324D01*
X83343827Y-54557142D01*
X83400591Y-54599784D01*
X83425291Y-54666345D01*
X83410083Y-54735694D01*
X83390691Y-54762175D01*
X83267200Y-54891401D01*
X83263629Y-54895138D01*
X83137743Y-55079680D01*
X83122003Y-55113590D01*
X83050621Y-55267370D01*
X83043688Y-55282305D01*
X82983989Y-55497570D01*
X82960251Y-55719695D01*
X82960548Y-55724848D01*
X82960548Y-55724851D01*
X82972189Y-55926735D01*
X82973110Y-55942715D01*
X82974247Y-55947761D01*
X82974248Y-55947767D01*
X82985327Y-55996926D01*
X83022222Y-56160639D01*
X83106266Y-56367616D01*
X83157019Y-56450438D01*
X83220291Y-56553688D01*
X83222987Y-56558088D01*
X83369250Y-56726938D01*
X83541126Y-56869632D01*
X83611595Y-56910811D01*
X83614445Y-56912476D01*
X83663169Y-56964114D01*
X83676240Y-57033897D01*
X83649509Y-57099669D01*
X83609055Y-57133027D01*
X83596607Y-57139507D01*
X83592474Y-57142610D01*
X83592471Y-57142612D01*
X83422100Y-57270530D01*
X83417965Y-57273635D01*
X83263629Y-57435138D01*
X83260720Y-57439403D01*
X83260714Y-57439411D01*
X83213457Y-57508688D01*
X83137743Y-57619680D01*
X83122003Y-57653590D01*
X83048087Y-57812829D01*
X83043688Y-57822305D01*
X82983989Y-58037570D01*
X82960251Y-58259695D01*
X82960548Y-58264848D01*
X82960548Y-58264851D01*
X82966011Y-58359590D01*
X82973110Y-58482715D01*
X82974247Y-58487761D01*
X82974248Y-58487767D01*
X82994119Y-58575939D01*
X83022222Y-58700639D01*
X83106266Y-58907616D01*
X83157019Y-58990438D01*
X83220291Y-59093688D01*
X83222987Y-59098088D01*
X83369250Y-59266938D01*
X83541126Y-59409632D01*
X83611595Y-59450811D01*
X83614445Y-59452476D01*
X83663169Y-59504114D01*
X83676240Y-59573897D01*
X83649509Y-59639669D01*
X83609055Y-59673027D01*
X83596607Y-59679507D01*
X83592474Y-59682610D01*
X83592471Y-59682612D01*
X83422100Y-59810530D01*
X83417965Y-59813635D01*
X83263629Y-59975138D01*
X83260720Y-59979403D01*
X83260714Y-59979411D01*
X83245443Y-60001797D01*
X83137743Y-60159680D01*
X83043688Y-60362305D01*
X82983989Y-60577570D01*
X82960251Y-60799695D01*
X82960548Y-60804848D01*
X82960548Y-60804851D01*
X82966011Y-60899590D01*
X82973110Y-61022715D01*
X82974247Y-61027761D01*
X82974248Y-61027767D01*
X82983353Y-61068166D01*
X83022222Y-61240639D01*
X83106266Y-61447616D01*
X83157019Y-61530438D01*
X83220291Y-61633688D01*
X83222987Y-61638088D01*
X83369250Y-61806938D01*
X83541126Y-61949632D01*
X83611595Y-61990811D01*
X83614445Y-61992476D01*
X83663169Y-62044114D01*
X83676240Y-62113897D01*
X83649509Y-62179669D01*
X83609055Y-62213027D01*
X83596607Y-62219507D01*
X83592474Y-62222610D01*
X83592471Y-62222612D01*
X83568247Y-62240800D01*
X83417965Y-62353635D01*
X83263629Y-62515138D01*
X83137743Y-62699680D01*
X83043688Y-62902305D01*
X82983989Y-63117570D01*
X82960251Y-63339695D01*
X82960548Y-63344848D01*
X82960548Y-63344851D01*
X82966011Y-63439590D01*
X82973110Y-63562715D01*
X82974247Y-63567761D01*
X82974248Y-63567767D01*
X82994119Y-63655939D01*
X83022222Y-63780639D01*
X83106266Y-63987616D01*
X83157019Y-64070438D01*
X83220291Y-64173688D01*
X83222987Y-64178088D01*
X83369250Y-64346938D01*
X83450235Y-64414173D01*
X83534580Y-64484197D01*
X83541126Y-64489632D01*
X83546503Y-64492774D01*
X83614445Y-64532476D01*
X83663169Y-64584114D01*
X83676240Y-64653897D01*
X83649509Y-64719669D01*
X83609055Y-64753027D01*
X83596607Y-64759507D01*
X83592474Y-64762610D01*
X83592471Y-64762612D01*
X83488554Y-64840635D01*
X83417965Y-64893635D01*
X83399718Y-64912729D01*
X83287112Y-65030565D01*
X83263629Y-65055138D01*
X83260720Y-65059403D01*
X83260714Y-65059411D01*
X83242838Y-65085617D01*
X83137743Y-65239680D01*
X83123003Y-65271435D01*
X83062732Y-65401279D01*
X83043688Y-65442305D01*
X82983989Y-65657570D01*
X82960251Y-65879695D01*
X82960548Y-65884848D01*
X82960548Y-65884851D01*
X82966011Y-65979590D01*
X82973110Y-66102715D01*
X82974247Y-66107761D01*
X82974248Y-66107767D01*
X82983353Y-66148166D01*
X83022222Y-66320639D01*
X83106266Y-66527616D01*
X83148189Y-66596029D01*
X83220291Y-66713688D01*
X83222987Y-66718088D01*
X83369250Y-66886938D01*
X83541126Y-67029632D01*
X83568271Y-67045494D01*
X83614445Y-67072476D01*
X83663169Y-67124114D01*
X83676240Y-67193897D01*
X83649509Y-67259669D01*
X83609055Y-67293027D01*
X83596607Y-67299507D01*
X83592474Y-67302610D01*
X83592471Y-67302612D01*
X83422100Y-67430530D01*
X83417965Y-67433635D01*
X83263629Y-67595138D01*
X83137743Y-67779680D01*
X83122003Y-67813590D01*
X83049290Y-67970237D01*
X83043688Y-67982305D01*
X82983989Y-68197570D01*
X82960251Y-68419695D01*
X82960548Y-68424848D01*
X82960548Y-68424851D01*
X82966202Y-68522908D01*
X82973110Y-68642715D01*
X82974247Y-68647761D01*
X82974248Y-68647767D01*
X82994765Y-68738803D01*
X83022222Y-68860639D01*
X83060461Y-68954811D01*
X83098663Y-69048891D01*
X83106266Y-69067616D01*
X83151137Y-69140839D01*
X83220291Y-69253688D01*
X83222987Y-69258088D01*
X83369250Y-69426938D01*
X83541126Y-69569632D01*
X83611595Y-69610811D01*
X83614445Y-69612476D01*
X83663169Y-69664114D01*
X83676240Y-69733897D01*
X83649509Y-69799669D01*
X83609055Y-69833027D01*
X83596607Y-69839507D01*
X83592474Y-69842610D01*
X83592471Y-69842612D01*
X83422100Y-69970530D01*
X83417965Y-69973635D01*
X83379100Y-70014305D01*
X83323096Y-70072910D01*
X83263629Y-70135138D01*
X83260720Y-70139403D01*
X83260714Y-70139411D01*
X83202610Y-70224588D01*
X83137743Y-70319680D01*
X83122003Y-70353590D01*
X83056621Y-70494444D01*
X83043688Y-70522305D01*
X82983989Y-70737570D01*
X82960251Y-70959695D01*
X82960548Y-70964848D01*
X82960548Y-70964851D01*
X82970194Y-71132145D01*
X82973110Y-71182715D01*
X82974247Y-71187761D01*
X82974248Y-71187767D01*
X82996392Y-71286023D01*
X83022222Y-71400639D01*
X83106266Y-71607616D01*
X83150775Y-71680248D01*
X83220291Y-71793688D01*
X83222987Y-71798088D01*
X83369250Y-71966938D01*
X83450235Y-72034173D01*
X83534580Y-72104197D01*
X83541126Y-72109632D01*
X83559333Y-72120271D01*
X83614445Y-72152476D01*
X83663169Y-72204114D01*
X83676240Y-72273897D01*
X83649509Y-72339669D01*
X83609055Y-72373027D01*
X83596607Y-72379507D01*
X83592474Y-72382610D01*
X83592471Y-72382612D01*
X83422100Y-72510530D01*
X83417965Y-72513635D01*
X83384358Y-72548803D01*
X83274751Y-72663500D01*
X83263629Y-72675138D01*
X83260720Y-72679403D01*
X83260714Y-72679411D01*
X83242838Y-72705617D01*
X83137743Y-72859680D01*
X83043688Y-73062305D01*
X82983989Y-73277570D01*
X82960251Y-73499695D01*
X82960548Y-73504848D01*
X82960548Y-73504851D01*
X82970222Y-73672625D01*
X82973110Y-73722715D01*
X82974247Y-73727761D01*
X82974248Y-73727767D01*
X82996376Y-73825955D01*
X83022222Y-73940639D01*
X83106266Y-74147616D01*
X83150939Y-74220516D01*
X83220291Y-74333688D01*
X83222987Y-74338088D01*
X83369250Y-74506938D01*
X83541126Y-74649632D01*
X83611595Y-74690811D01*
X83614445Y-74692476D01*
X83663169Y-74744114D01*
X83676240Y-74813897D01*
X83649509Y-74879669D01*
X83609055Y-74913027D01*
X83596607Y-74919507D01*
X83592474Y-74922610D01*
X83592471Y-74922612D01*
X83422100Y-75050530D01*
X83417965Y-75053635D01*
X83263629Y-75215138D01*
X83137743Y-75399680D01*
X83122003Y-75433590D01*
X83074071Y-75536851D01*
X83043688Y-75602305D01*
X82983989Y-75817570D01*
X82960251Y-76039695D01*
X82960548Y-76044848D01*
X82960548Y-76044851D01*
X82969115Y-76193435D01*
X82973110Y-76262715D01*
X82974247Y-76267761D01*
X82974248Y-76267767D01*
X82996392Y-76366023D01*
X83022222Y-76480639D01*
X83106266Y-76687616D01*
X83150939Y-76760516D01*
X83220291Y-76873688D01*
X83222987Y-76878088D01*
X83369250Y-77046938D01*
X83516610Y-77169279D01*
X83520527Y-77172530D01*
X83541126Y-77189632D01*
X83602411Y-77225444D01*
X83614445Y-77232476D01*
X83663169Y-77284114D01*
X83676240Y-77353897D01*
X83649509Y-77419669D01*
X83609055Y-77453027D01*
X83596607Y-77459507D01*
X83592474Y-77462610D01*
X83592471Y-77462612D01*
X83422227Y-77590435D01*
X83417965Y-77593635D01*
X83263629Y-77755138D01*
X83137743Y-77939680D01*
X83122003Y-77973590D01*
X83050379Y-78127891D01*
X83043688Y-78142305D01*
X82983989Y-78357570D01*
X82960251Y-78579695D01*
X82960548Y-78584848D01*
X82960548Y-78584851D01*
X82970222Y-78752625D01*
X82973110Y-78802715D01*
X82974247Y-78807761D01*
X82974248Y-78807767D01*
X82996376Y-78905955D01*
X83022222Y-79020639D01*
X83106266Y-79227616D01*
X83157019Y-79310438D01*
X83220291Y-79413688D01*
X83222987Y-79418088D01*
X83369250Y-79586938D01*
X83541126Y-79729632D01*
X83611595Y-79770811D01*
X83614445Y-79772476D01*
X83663169Y-79824114D01*
X83676240Y-79893897D01*
X83649509Y-79959669D01*
X83609055Y-79993027D01*
X83596607Y-79999507D01*
X83592474Y-80002610D01*
X83592471Y-80002612D01*
X83568247Y-80020800D01*
X83417965Y-80133635D01*
X83263629Y-80295138D01*
X83137743Y-80479680D01*
X83043688Y-80682305D01*
X82983989Y-80897570D01*
X82960251Y-81119695D01*
X82960548Y-81124848D01*
X82960548Y-81124851D01*
X82966011Y-81219590D01*
X82973110Y-81342715D01*
X82974247Y-81347761D01*
X82974248Y-81347767D01*
X82986118Y-81400435D01*
X83022222Y-81560639D01*
X83106266Y-81767616D01*
X83157019Y-81850438D01*
X83220291Y-81953688D01*
X83222987Y-81958088D01*
X83369250Y-82126938D01*
X83541126Y-82269632D01*
X83551671Y-82275794D01*
X83614445Y-82312476D01*
X83663169Y-82364114D01*
X83676240Y-82433897D01*
X83649509Y-82499669D01*
X83609055Y-82533027D01*
X83596607Y-82539507D01*
X83592474Y-82542610D01*
X83592471Y-82542612D01*
X83568247Y-82560800D01*
X83417965Y-82673635D01*
X83263629Y-82835138D01*
X83137743Y-83019680D01*
X83122003Y-83053590D01*
X83050379Y-83207891D01*
X83043688Y-83222305D01*
X82983989Y-83437570D01*
X82960251Y-83659695D01*
X82960548Y-83664848D01*
X82960548Y-83664851D01*
X82966011Y-83759590D01*
X82973110Y-83882715D01*
X82974247Y-83887761D01*
X82974248Y-83887767D01*
X82994119Y-83975939D01*
X83022222Y-84100639D01*
X83106266Y-84307616D01*
X83153298Y-84384365D01*
X83220291Y-84493688D01*
X83222987Y-84498088D01*
X83369250Y-84666938D01*
X83541126Y-84809632D01*
X83611595Y-84850811D01*
X83614445Y-84852476D01*
X83663169Y-84904114D01*
X83676240Y-84973897D01*
X83649509Y-85039669D01*
X83609055Y-85073027D01*
X83596607Y-85079507D01*
X83592474Y-85082610D01*
X83592471Y-85082612D01*
X83568247Y-85100800D01*
X83417965Y-85213635D01*
X83263629Y-85375138D01*
X83137743Y-85559680D01*
X83043688Y-85762305D01*
X82983989Y-85977570D01*
X82960251Y-86199695D01*
X82960548Y-86204848D01*
X82960548Y-86204851D01*
X82966011Y-86299590D01*
X82973110Y-86422715D01*
X82974247Y-86427761D01*
X82974248Y-86427767D01*
X82989806Y-86496802D01*
X83022222Y-86640639D01*
X83106266Y-86847616D01*
X83157019Y-86930438D01*
X83220291Y-87033688D01*
X83222987Y-87038088D01*
X83369250Y-87206938D01*
X83541126Y-87349632D01*
X83611595Y-87390811D01*
X83614445Y-87392476D01*
X83663169Y-87444114D01*
X83676240Y-87513897D01*
X83649509Y-87579669D01*
X83609055Y-87613027D01*
X83596607Y-87619507D01*
X83592474Y-87622610D01*
X83592471Y-87622612D01*
X83447996Y-87731087D01*
X83417965Y-87753635D01*
X83263629Y-87915138D01*
X83137743Y-88099680D01*
X83101873Y-88176955D01*
X83049290Y-88290237D01*
X83043688Y-88302305D01*
X82983989Y-88517570D01*
X82960251Y-88739695D01*
X82550000Y-88739695D01*
X82550000Y-52940885D01*
X82965000Y-52940885D01*
X82969475Y-52956124D01*
X82970865Y-52957329D01*
X82978548Y-52959000D01*
X84050885Y-52959000D01*
X84066124Y-52954525D01*
X84067329Y-52953135D01*
X84069000Y-52945452D01*
X84069000Y-51873116D01*
X84064525Y-51857877D01*
X84063135Y-51856672D01*
X84055452Y-51855001D01*
X83428331Y-51855001D01*
X83421510Y-51855371D01*
X83370648Y-51860895D01*
X83355396Y-51864521D01*
X83234946Y-51909676D01*
X83219351Y-51918214D01*
X83117276Y-51994715D01*
X83104715Y-52007276D01*
X83028214Y-52109351D01*
X83019676Y-52124946D01*
X82974522Y-52245394D01*
X82970895Y-52260649D01*
X82965369Y-52311514D01*
X82965000Y-52318328D01*
X82965000Y-52940885D01*
X82550000Y-52940885D01*
X82550000Y-46481000D01*
X82570002Y-46412879D01*
X82623658Y-46366386D01*
X82676000Y-46355000D01*
X130684000Y-46355000D01*
X130752121Y-46375002D01*
G37*
G04 #@! TD.AperFunction*
M02*
