G04 #@! TF.GenerationSoftware,KiCad,Pcbnew,(6.0.1-0)*
G04 #@! TF.CreationDate,2022-03-29T21:42:35-04:00*
G04 #@! TF.ProjectId,G76 Mini,47373620-4d69-46e6-992e-6b696361645f,rev?*
G04 #@! TF.SameCoordinates,Original*
G04 #@! TF.FileFunction,Copper,L1,Top*
G04 #@! TF.FilePolarity,Positive*
%FSLAX46Y46*%
G04 Gerber Fmt 4.6, Leading zero omitted, Abs format (unit mm)*
G04 Created by KiCad (PCBNEW (6.0.1-0)) date 2022-03-29 21:42:35*
%MOMM*%
%LPD*%
G01*
G04 APERTURE LIST*
G04 Aperture macros list*
%AMRoundRect*
0 Rectangle with rounded corners*
0 $1 Rounding radius*
0 $2 $3 $4 $5 $6 $7 $8 $9 X,Y pos of 4 corners*
0 Add a 4 corners polygon primitive as box body*
4,1,4,$2,$3,$4,$5,$6,$7,$8,$9,$2,$3,0*
0 Add four circle primitives for the rounded corners*
1,1,$1+$1,$2,$3*
1,1,$1+$1,$4,$5*
1,1,$1+$1,$6,$7*
1,1,$1+$1,$8,$9*
0 Add four rect primitives between the rounded corners*
20,1,$1+$1,$2,$3,$4,$5,0*
20,1,$1+$1,$4,$5,$6,$7,0*
20,1,$1+$1,$6,$7,$8,$9,0*
20,1,$1+$1,$8,$9,$2,$3,0*%
G04 Aperture macros list end*
G04 #@! TA.AperFunction,SMDPad,CuDef*
%ADD10RoundRect,0.250000X0.625000X-0.400000X0.625000X0.400000X-0.625000X0.400000X-0.625000X-0.400000X0*%
G04 #@! TD*
G04 #@! TA.AperFunction,ComponentPad*
%ADD11R,1.600000X1.600000*%
G04 #@! TD*
G04 #@! TA.AperFunction,ComponentPad*
%ADD12C,1.600000*%
G04 #@! TD*
G04 #@! TA.AperFunction,SMDPad,CuDef*
%ADD13R,2.200000X0.450000*%
G04 #@! TD*
G04 #@! TA.AperFunction,SMDPad,CuDef*
%ADD14RoundRect,0.250000X-0.400000X-0.625000X0.400000X-0.625000X0.400000X0.625000X-0.400000X0.625000X0*%
G04 #@! TD*
G04 #@! TA.AperFunction,ComponentPad*
%ADD15R,1.700000X1.700000*%
G04 #@! TD*
G04 #@! TA.AperFunction,ComponentPad*
%ADD16O,1.700000X1.700000*%
G04 #@! TD*
G04 #@! TA.AperFunction,SMDPad,CuDef*
%ADD17RoundRect,0.075000X0.725000X0.075000X-0.725000X0.075000X-0.725000X-0.075000X0.725000X-0.075000X0*%
G04 #@! TD*
G04 #@! TA.AperFunction,SMDPad,CuDef*
%ADD18RoundRect,0.075000X0.075000X0.725000X-0.075000X0.725000X-0.075000X-0.725000X0.075000X-0.725000X0*%
G04 #@! TD*
G04 #@! TA.AperFunction,ViaPad*
%ADD19C,0.800000*%
G04 #@! TD*
G04 #@! TA.AperFunction,Conductor*
%ADD20C,0.090000*%
G04 #@! TD*
G04 APERTURE END LIST*
D10*
X94615000Y-65024000D03*
X94615000Y-61924000D03*
D11*
X126746000Y-102743000D03*
D12*
X126746000Y-87503000D03*
X119126000Y-87503000D03*
X119126000Y-102743000D03*
D13*
X100076000Y-95719500D03*
X100076000Y-96989500D03*
X100076000Y-98259500D03*
X100076000Y-99529500D03*
X100076000Y-100799500D03*
X100076000Y-102069500D03*
X100076000Y-103339500D03*
X100076000Y-104609500D03*
X100076000Y-105879500D03*
X100076000Y-107149500D03*
X100076000Y-108419500D03*
X100076000Y-109689500D03*
X100076000Y-110959500D03*
X100076000Y-112229500D03*
X100076000Y-113499500D03*
X100076000Y-114769500D03*
X107696000Y-114769500D03*
X107696000Y-113499500D03*
X107696000Y-112229500D03*
X107696000Y-110959500D03*
X107696000Y-109689500D03*
X107696000Y-108419500D03*
X107696000Y-107149500D03*
X107696000Y-105879500D03*
X107696000Y-104609500D03*
X107696000Y-103339500D03*
X107696000Y-102069500D03*
X107696000Y-100799500D03*
X107696000Y-99529500D03*
X107696000Y-98259500D03*
X107696000Y-96989500D03*
X107696000Y-95719500D03*
D10*
X99586142Y-65024000D03*
X99586142Y-61924000D03*
X109528426Y-65024000D03*
X109528426Y-61924000D03*
D14*
X117703000Y-75438000D03*
X120803000Y-75438000D03*
X117703000Y-70358000D03*
X120803000Y-70358000D03*
D11*
X99459000Y-58479331D03*
D12*
X101749000Y-58479331D03*
X104039000Y-58479331D03*
X106329000Y-58479331D03*
X108619000Y-58479331D03*
X98314000Y-56499331D03*
X100604000Y-56499331D03*
X102894000Y-56499331D03*
X105184000Y-56499331D03*
X107474000Y-56499331D03*
X99459000Y-54519331D03*
X101749000Y-54519331D03*
X104039000Y-54519331D03*
X106329000Y-54519331D03*
X108619000Y-54519331D03*
D10*
X102071713Y-65024000D03*
X102071713Y-61924000D03*
D14*
X117703000Y-67945000D03*
X120803000Y-67945000D03*
D10*
X112014000Y-65024000D03*
X112014000Y-61924000D03*
D15*
X124460000Y-67945000D03*
D16*
X127000000Y-67945000D03*
X124460000Y-70485000D03*
X127000000Y-70485000D03*
X124460000Y-73025000D03*
X127000000Y-73025000D03*
X124460000Y-75565000D03*
X127000000Y-75565000D03*
X124460000Y-78105000D03*
X127000000Y-78105000D03*
D17*
X111251635Y-83974276D03*
X111251635Y-83474276D03*
X111251635Y-82974276D03*
X111251635Y-82474276D03*
X111251635Y-81974276D03*
X111251635Y-81474276D03*
X111251635Y-80974276D03*
X111251635Y-80474276D03*
X111251635Y-79974276D03*
X111251635Y-79474276D03*
X111251635Y-78974276D03*
X111251635Y-78474276D03*
X111251635Y-77974276D03*
X111251635Y-77474276D03*
X111251635Y-76974276D03*
X111251635Y-76474276D03*
X111251635Y-75974276D03*
X111251635Y-75474276D03*
X111251635Y-74974276D03*
X111251635Y-74474276D03*
X111251635Y-73974276D03*
X111251635Y-73474276D03*
X111251635Y-72974276D03*
X111251635Y-72474276D03*
X111251635Y-71974276D03*
D18*
X109576635Y-70299276D03*
X109076635Y-70299276D03*
X108576635Y-70299276D03*
X108076635Y-70299276D03*
X107576635Y-70299276D03*
X107076635Y-70299276D03*
X106576635Y-70299276D03*
X106076635Y-70299276D03*
X105576635Y-70299276D03*
X105076635Y-70299276D03*
X104576635Y-70299276D03*
X104076635Y-70299276D03*
X103576635Y-70299276D03*
X103076635Y-70299276D03*
X102576635Y-70299276D03*
X102076635Y-70299276D03*
X101576635Y-70299276D03*
X101076635Y-70299276D03*
X100576635Y-70299276D03*
X100076635Y-70299276D03*
X99576635Y-70299276D03*
X99076635Y-70299276D03*
X98576635Y-70299276D03*
X98076635Y-70299276D03*
X97576635Y-70299276D03*
D17*
X95901635Y-71974276D03*
X95901635Y-72474276D03*
X95901635Y-72974276D03*
X95901635Y-73474276D03*
X95901635Y-73974276D03*
X95901635Y-74474276D03*
X95901635Y-74974276D03*
X95901635Y-75474276D03*
X95901635Y-75974276D03*
X95901635Y-76474276D03*
X95901635Y-76974276D03*
X95901635Y-77474276D03*
X95901635Y-77974276D03*
X95901635Y-78474276D03*
X95901635Y-78974276D03*
X95901635Y-79474276D03*
X95901635Y-79974276D03*
X95901635Y-80474276D03*
X95901635Y-80974276D03*
X95901635Y-81474276D03*
X95901635Y-81974276D03*
X95901635Y-82474276D03*
X95901635Y-82974276D03*
X95901635Y-83474276D03*
X95901635Y-83974276D03*
D18*
X97576635Y-85649276D03*
X98076635Y-85649276D03*
X98576635Y-85649276D03*
X99076635Y-85649276D03*
X99576635Y-85649276D03*
X100076635Y-85649276D03*
X100576635Y-85649276D03*
X101076635Y-85649276D03*
X101576635Y-85649276D03*
X102076635Y-85649276D03*
X102576635Y-85649276D03*
X103076635Y-85649276D03*
X103576635Y-85649276D03*
X104076635Y-85649276D03*
X104576635Y-85649276D03*
X105076635Y-85649276D03*
X105576635Y-85649276D03*
X106076635Y-85649276D03*
X106576635Y-85649276D03*
X107076635Y-85649276D03*
X107576635Y-85649276D03*
X108076635Y-85649276D03*
X108576635Y-85649276D03*
X109076635Y-85649276D03*
X109576635Y-85649276D03*
D10*
X104557284Y-65024000D03*
X104557284Y-61924000D03*
D15*
X84323000Y-53213000D03*
D16*
X86863000Y-53213000D03*
X84323000Y-55753000D03*
X86863000Y-55753000D03*
X84323000Y-58293000D03*
X86863000Y-58293000D03*
X84323000Y-60833000D03*
X86863000Y-60833000D03*
X84323000Y-63373000D03*
X86863000Y-63373000D03*
X84323000Y-65913000D03*
X86863000Y-65913000D03*
X84323000Y-68453000D03*
X86863000Y-68453000D03*
X84323000Y-70993000D03*
X86863000Y-70993000D03*
X84323000Y-73533000D03*
X86863000Y-73533000D03*
X84323000Y-76073000D03*
X86863000Y-76073000D03*
X84323000Y-78613000D03*
X86863000Y-78613000D03*
X84323000Y-81153000D03*
X86863000Y-81153000D03*
X84323000Y-83693000D03*
X86863000Y-83693000D03*
X84323000Y-86233000D03*
X86863000Y-86233000D03*
X84323000Y-88773000D03*
X86863000Y-88773000D03*
X84323000Y-91313000D03*
X86863000Y-91313000D03*
D10*
X107042855Y-65024000D03*
X107042855Y-61924000D03*
D14*
X117703000Y-72898000D03*
X120803000Y-72898000D03*
D10*
X97100571Y-65024000D03*
X97100571Y-61924000D03*
D19*
X116078000Y-67945000D03*
X100076000Y-71755000D03*
X97409000Y-77978000D03*
X106553000Y-84074000D03*
X109855000Y-77944497D03*
X109728000Y-105918000D03*
X109855000Y-80043503D03*
X101262103Y-104208269D03*
X119126000Y-75438000D03*
X97409000Y-75946000D03*
X119126000Y-72898000D03*
X107271135Y-71737918D03*
X99568000Y-84328000D03*
X97917000Y-83820000D03*
X98171000Y-71755000D03*
X109855000Y-78994000D03*
X101219000Y-84201000D03*
X105537000Y-73152000D03*
X97663000Y-81407000D03*
X105410000Y-84074000D03*
X99060000Y-91313000D03*
X115316000Y-70866000D03*
X94234000Y-78232000D03*
X124079000Y-65278000D03*
X113538000Y-77597000D03*
X94234000Y-76200000D03*
X116713000Y-65024000D03*
X113030000Y-81407000D03*
X109220000Y-75311000D03*
X94361000Y-67183000D03*
X96266000Y-67183000D03*
X94234000Y-68326000D03*
X108076635Y-69202744D03*
X122174000Y-67945000D03*
X122301000Y-72898000D03*
X101219000Y-60198000D03*
X107061000Y-60198000D03*
X88873500Y-102108000D03*
X98552000Y-102108000D03*
X89381500Y-103380716D03*
X98552000Y-103378000D03*
X97918509Y-108006020D03*
X89916000Y-107061000D03*
X97059500Y-108236927D03*
X90678000Y-108458000D03*
X106172000Y-108331000D03*
X91694000Y-108458000D03*
X106172000Y-107061000D03*
X92329000Y-106680000D03*
X106172000Y-103378000D03*
X92964000Y-102743000D03*
X106172000Y-102108000D03*
X93726000Y-101473000D03*
X106172000Y-100838000D03*
X98042135Y-87503000D03*
D20*
X109888503Y-80010000D02*
X109855000Y-80043503D01*
X97409000Y-77978000D02*
X95905359Y-77978000D01*
X107061000Y-70314911D02*
X107061000Y-71527783D01*
X107061000Y-71527783D02*
X107271135Y-71737918D01*
X117703000Y-67945000D02*
X116078000Y-67945000D01*
X97409000Y-75946000D02*
X95929911Y-75946000D01*
X117703000Y-75438000D02*
X119126000Y-75438000D01*
X100860872Y-104609500D02*
X100076000Y-104609500D01*
X109689500Y-105879500D02*
X109728000Y-105918000D01*
X101262103Y-104208269D02*
X100860872Y-104609500D01*
X111247911Y-77978000D02*
X109888503Y-77978000D01*
X106553000Y-84074000D02*
X106553000Y-85625641D01*
X117703000Y-72898000D02*
X119126000Y-72898000D01*
X100076000Y-71755000D02*
X100076000Y-70299911D01*
X111215911Y-80010000D02*
X109888503Y-80010000D01*
X107696000Y-105879500D02*
X109689500Y-105879500D01*
X109888503Y-77978000D02*
X109855000Y-77944497D01*
X99568000Y-84328000D02*
X99568000Y-85640641D01*
X95901635Y-76474276D02*
X94508276Y-76474276D01*
X94508276Y-76474276D02*
X94234000Y-76200000D01*
X102894000Y-56499331D02*
X98314000Y-56499331D01*
X94976276Y-78974276D02*
X94234000Y-78232000D01*
X111251635Y-79474276D02*
X111251635Y-78974276D01*
X95901635Y-78974276D02*
X94976276Y-78974276D01*
X111251635Y-78974276D02*
X109874724Y-78974276D01*
X106576635Y-70299276D02*
X106576635Y-72112365D01*
X106576635Y-72112365D02*
X105537000Y-73152000D01*
X109874724Y-78974276D02*
X109855000Y-78994000D01*
X106076635Y-85649276D02*
X106076635Y-84740635D01*
X99576635Y-70299276D02*
X99576635Y-71121856D01*
X98943491Y-71755000D02*
X98171000Y-71755000D01*
X106076635Y-84740635D02*
X105410000Y-84074000D01*
X99576635Y-71121856D02*
X98943491Y-71755000D01*
X99769355Y-68146489D02*
X101076635Y-69453769D01*
X87086095Y-56897511D02*
X93605480Y-63416896D01*
X96168696Y-68146489D02*
X99769355Y-68146489D01*
X101076635Y-69453769D02*
X101076635Y-70299276D01*
X84323000Y-55753000D02*
X85467511Y-56897511D01*
X85467511Y-56897511D02*
X87086095Y-56897511D01*
X93605480Y-63416896D02*
X93605480Y-65583273D01*
X93605480Y-65583273D02*
X96168696Y-68146489D01*
X87374489Y-59688489D02*
X94361000Y-66675000D01*
X99059732Y-67183000D02*
X101576635Y-69699903D01*
X84323000Y-58293000D02*
X85718489Y-59688489D01*
X94361000Y-66675000D02*
X94361000Y-67183000D01*
X96266000Y-67183000D02*
X99059732Y-67183000D01*
X85718489Y-59688489D02*
X87374489Y-59688489D01*
X90425511Y-64517511D02*
X94234000Y-68326000D01*
X85718489Y-63847073D02*
X86388927Y-64517511D01*
X108076635Y-69202744D02*
X108076635Y-70299276D01*
X84323000Y-60833000D02*
X86053708Y-62563708D01*
X85718489Y-62898927D02*
X85718489Y-63847073D01*
X86388927Y-64517511D02*
X90425511Y-64517511D01*
X86053708Y-62563708D02*
X85718489Y-62898927D01*
X100576635Y-69207635D02*
X100576635Y-70299276D01*
X89849122Y-64697022D02*
X94012601Y-68860501D01*
X84323000Y-63373000D02*
X85647022Y-64697022D01*
X85647022Y-64697022D02*
X89849122Y-64697022D01*
X94012601Y-68860501D02*
X100229501Y-68860501D01*
X100229501Y-68860501D02*
X100576635Y-69207635D01*
X98413677Y-69040012D02*
X99076635Y-69702970D01*
X93938246Y-69040012D02*
X98413677Y-69040012D01*
X84323000Y-65913000D02*
X85467511Y-67057511D01*
X85467511Y-67057511D02*
X91955745Y-67057511D01*
X91955745Y-67057511D02*
X93938246Y-69040012D01*
X98238421Y-69364756D02*
X98576635Y-69702970D01*
X97414849Y-69364756D02*
X98238421Y-69364756D01*
X97182094Y-69597511D02*
X97414849Y-69364756D01*
X84323000Y-68453000D02*
X85467511Y-69597511D01*
X85467511Y-69597511D02*
X97182094Y-69597511D01*
X93968564Y-72137511D02*
X95305329Y-73474276D01*
X95305329Y-73474276D02*
X95901635Y-73474276D01*
X85467511Y-72137511D02*
X93968564Y-72137511D01*
X84323000Y-70993000D02*
X85467511Y-72137511D01*
X95305329Y-73974276D02*
X95901635Y-73974276D01*
X93719542Y-72388489D02*
X95305329Y-73974276D01*
X84323000Y-73533000D02*
X85467511Y-72388489D01*
X85467511Y-72388489D02*
X93719542Y-72388489D01*
X95686155Y-74689756D02*
X95901635Y-74474276D01*
X84323000Y-76073000D02*
X85706244Y-74689756D01*
X85706244Y-74689756D02*
X95686155Y-74689756D01*
X85647022Y-77288978D02*
X87265606Y-77288978D01*
X89624584Y-74930000D02*
X95857359Y-74930000D01*
X84323000Y-78613000D02*
X85647022Y-77288978D01*
X95857359Y-74930000D02*
X95901635Y-74974276D01*
X87265606Y-77288978D02*
X89624584Y-74930000D01*
X84323000Y-81153000D02*
X85718489Y-79757511D01*
X88393645Y-77468489D02*
X90387858Y-75474276D01*
X85718489Y-79757511D02*
X85718489Y-78138927D01*
X86388927Y-77468489D02*
X88393645Y-77468489D01*
X85718489Y-78138927D02*
X86388927Y-77468489D01*
X90387858Y-75474276D02*
X95901635Y-75474276D01*
X86514416Y-79883000D02*
X87211584Y-79883000D01*
X85359468Y-81037948D02*
X86514416Y-79883000D01*
X85359468Y-82656532D02*
X85359468Y-81037948D01*
X87211584Y-79883000D02*
X88265000Y-78829584D01*
X89141724Y-76974276D02*
X95901635Y-76974276D01*
X88265000Y-78829584D02*
X88265000Y-77851000D01*
X84323000Y-83693000D02*
X85359468Y-82656532D01*
X88265000Y-77851000D02*
X89141724Y-76974276D01*
X88540980Y-81004288D02*
X88794978Y-80750290D01*
X88794979Y-79607021D02*
X88927724Y-79474276D01*
X84323000Y-86233000D02*
X85538978Y-85017022D01*
X88794978Y-80750290D02*
X88794979Y-79607021D01*
X85538979Y-82609155D02*
X85779156Y-82368978D01*
X87265606Y-82368978D02*
X88540979Y-81093605D01*
X88927724Y-79474276D02*
X95901635Y-79474276D01*
X85779156Y-82368978D02*
X87265606Y-82368978D01*
X85538978Y-85017022D02*
X85538979Y-82609155D01*
X88540979Y-81093605D02*
X88540980Y-81004288D01*
X86388927Y-82548489D02*
X87339961Y-82548489D01*
X88974489Y-80824645D02*
X88974489Y-80189511D01*
X88720489Y-81167961D02*
X88720490Y-81078644D01*
X85718489Y-87377511D02*
X85718489Y-83218927D01*
X85718489Y-83218927D02*
X86388927Y-82548489D01*
X89189724Y-79974276D02*
X95901635Y-79974276D01*
X84323000Y-88773000D02*
X85718489Y-87377511D01*
X88720490Y-81078644D02*
X88974489Y-80824645D01*
X88974489Y-80189511D02*
X89189724Y-79974276D01*
X87339961Y-82548489D02*
X88720489Y-81167961D01*
X119432520Y-71728480D02*
X120803000Y-70358000D01*
X116331657Y-72474276D02*
X117077453Y-71728480D01*
X123216000Y-67945000D02*
X124460000Y-67945000D01*
X111251635Y-72474276D02*
X116331657Y-72474276D01*
X120803000Y-70358000D02*
X123216000Y-67945000D01*
X117077453Y-71728480D02*
X119432520Y-71728480D01*
X111251635Y-71974276D02*
X114037431Y-69188480D01*
X119559520Y-69188480D02*
X120803000Y-67945000D01*
X120803000Y-67945000D02*
X122174000Y-67945000D01*
X114037431Y-69188480D02*
X119559520Y-69188480D01*
X119612031Y-74247031D02*
X120803000Y-75438000D01*
X120803000Y-75438000D02*
X122047000Y-75438000D01*
X122047000Y-75438000D02*
X124460000Y-73025000D01*
X117003098Y-74247031D02*
X119612031Y-74247031D01*
X116230343Y-73474276D02*
X117003098Y-74247031D01*
X111251635Y-73474276D02*
X116230343Y-73474276D01*
X120803000Y-72898000D02*
X122301000Y-72898000D01*
X111251635Y-72974276D02*
X115984209Y-72974276D01*
X115984209Y-72974276D02*
X117077453Y-74067520D01*
X117077453Y-74067520D02*
X119633480Y-74067520D01*
X119633480Y-74067520D02*
X120803000Y-72898000D01*
X100434842Y-59413842D02*
X101219000Y-60198000D01*
X107061000Y-60198000D02*
X107061000Y-61905855D01*
X100393511Y-59413842D02*
X100434842Y-59413842D01*
X107042855Y-61924000D02*
X112014000Y-61924000D01*
X99459000Y-58479331D02*
X100393511Y-59413842D01*
X104426088Y-57544820D02*
X103237180Y-57544820D01*
X104973511Y-59022202D02*
X104973511Y-58092243D01*
X99586142Y-61924000D02*
X104557284Y-61924000D01*
X102071713Y-61924000D02*
X104973511Y-59022202D01*
X104973511Y-58092243D02*
X104426088Y-57544820D01*
X103237180Y-57544820D02*
X102302669Y-58479331D01*
X97885091Y-61139480D02*
X101378851Y-61139480D01*
X97100571Y-61924000D02*
X97885091Y-61139480D01*
X101378851Y-61139480D02*
X104039000Y-58479331D01*
X94615000Y-61924000D02*
X97100571Y-61924000D01*
X104973511Y-53584820D02*
X104039000Y-54519331D01*
X108048204Y-68475275D02*
X110385384Y-68475275D01*
X113538000Y-65322659D02*
X113538000Y-53975000D01*
X107542134Y-68981345D02*
X108048204Y-68475275D01*
X107576635Y-69702970D02*
X107542134Y-69668469D01*
X107542134Y-69668469D02*
X107542134Y-68981345D01*
X113147820Y-53584820D02*
X104973511Y-53584820D01*
X110385384Y-68475275D02*
X113538000Y-65322659D01*
X113538000Y-53975000D02*
X113147820Y-53584820D01*
X107257567Y-68295764D02*
X110311029Y-68295764D01*
X113358489Y-60580419D02*
X107297401Y-54519331D01*
X106076635Y-69476696D02*
X107257567Y-68295764D01*
X113358489Y-65248304D02*
X113358489Y-60580419D01*
X110311029Y-68295764D02*
X113358489Y-65248304D01*
X107297401Y-54519331D02*
X106329000Y-54519331D01*
X106076635Y-70299276D02*
X106076635Y-69476696D01*
X108921747Y-68116253D02*
X107163352Y-68116253D01*
X112014000Y-65024000D02*
X108921747Y-68116253D01*
X107163352Y-68116253D02*
X105576635Y-69702970D01*
X109528426Y-65024000D02*
X105076635Y-69475791D01*
X105076635Y-69475791D02*
X105076635Y-70299276D01*
X104576635Y-67490220D02*
X104576635Y-70299276D01*
X107042855Y-65024000D02*
X104576635Y-67490220D01*
X104076635Y-65504649D02*
X104076635Y-70299276D01*
X103576635Y-66528922D02*
X103576635Y-70299276D01*
X102071713Y-65024000D02*
X103576635Y-66528922D01*
X103076635Y-68514493D02*
X103076635Y-70299276D01*
X99586142Y-65024000D02*
X103076635Y-68514493D01*
X98682185Y-65808520D02*
X102576635Y-69702970D01*
X97100571Y-65024000D02*
X97885091Y-65808520D01*
X97885091Y-65808520D02*
X98682185Y-65808520D01*
X94615000Y-65024000D02*
X96239499Y-66648499D01*
X96239499Y-66648499D02*
X99022164Y-66648499D01*
X99022164Y-66648499D02*
X102076635Y-69702970D01*
X119126000Y-85526061D02*
X112074215Y-78474276D01*
X112074215Y-78474276D02*
X111251635Y-78474276D01*
X119126000Y-87503000D02*
X119126000Y-85526061D01*
X88900000Y-102081500D02*
X88873500Y-102108000D01*
X98590500Y-102069500D02*
X100076000Y-102069500D01*
X89578724Y-80474276D02*
X88900000Y-81153000D01*
X88900000Y-81153000D02*
X88900000Y-102081500D01*
X95901635Y-80474276D02*
X89578724Y-80474276D01*
X98552000Y-102108000D02*
X98590500Y-102069500D01*
X95305329Y-80974276D02*
X95253605Y-81026000D01*
X89408000Y-103354216D02*
X89381500Y-103380716D01*
X89662000Y-81026000D02*
X89408000Y-81280000D01*
X98552000Y-103378000D02*
X98590500Y-103339500D01*
X89408000Y-81280000D02*
X89408000Y-103354216D01*
X98590500Y-103339500D02*
X100076000Y-103339500D01*
X95253605Y-81026000D02*
X89662000Y-81026000D01*
X95901635Y-80974276D02*
X95305329Y-80974276D01*
X95305329Y-81474276D02*
X95238053Y-81407000D01*
X95901635Y-81474276D02*
X95305329Y-81474276D01*
X100076000Y-107149500D02*
X98775029Y-107149500D01*
X98775029Y-107149500D02*
X97918509Y-108006020D01*
X95238053Y-81407000D02*
X89916000Y-81407000D01*
X89916000Y-81407000D02*
X89916000Y-107061000D01*
X95901635Y-81974276D02*
X90864276Y-81974276D01*
X100076000Y-108419500D02*
X99954979Y-108540521D01*
X90678000Y-82042000D02*
X90678000Y-108458000D01*
X90805000Y-81915000D02*
X90678000Y-82042000D01*
X90864276Y-81974276D02*
X90805000Y-81915000D01*
X97363094Y-108540521D02*
X97059500Y-108236927D01*
X99954979Y-108540521D02*
X97363094Y-108540521D01*
X91896724Y-82474276D02*
X95901635Y-82474276D01*
X91694000Y-82677000D02*
X91896724Y-82474276D01*
X91694000Y-108458000D02*
X91694000Y-82677000D01*
X106260500Y-108419500D02*
X106172000Y-108331000D01*
X107696000Y-108419500D02*
X106260500Y-108419500D01*
X106260500Y-107149500D02*
X106172000Y-107061000D01*
X107696000Y-107149500D02*
X106260500Y-107149500D01*
X92793724Y-82974276D02*
X95901635Y-82974276D01*
X92329000Y-83439000D02*
X92793724Y-82974276D01*
X92329000Y-106680000D02*
X92329000Y-83439000D01*
X106210500Y-103339500D02*
X106172000Y-103378000D01*
X92964000Y-102743000D02*
X92964000Y-83947000D01*
X107696000Y-103339500D02*
X106210500Y-103339500D01*
X93436724Y-83474276D02*
X95901635Y-83474276D01*
X92964000Y-83947000D02*
X93436724Y-83474276D01*
X93726000Y-84582000D02*
X94333724Y-83974276D01*
X93726000Y-101473000D02*
X93726000Y-84582000D01*
X106210500Y-102069500D02*
X106172000Y-102108000D01*
X94333724Y-83974276D02*
X95901635Y-83974276D01*
X107696000Y-102069500D02*
X106210500Y-102069500D01*
X98076635Y-87468500D02*
X98042135Y-87503000D01*
X98076635Y-85649276D02*
X98076635Y-87468500D01*
X106210500Y-100799500D02*
X107696000Y-100799500D01*
X106172000Y-100838000D02*
X106210500Y-100799500D01*
X100076000Y-109689500D02*
X96227500Y-109689500D01*
X98576635Y-90018365D02*
X98576635Y-85649276D01*
X95885000Y-109347000D02*
X95885000Y-92710000D01*
X95885000Y-92710000D02*
X98576635Y-90018365D01*
X96227500Y-109689500D02*
X95885000Y-109347000D01*
X100076000Y-95719500D02*
X100076000Y-85649911D01*
X101310511Y-95359989D02*
X100576635Y-94626113D01*
X100951000Y-96989500D02*
X101310511Y-96629989D01*
X100576635Y-94626113D02*
X100576635Y-85649276D01*
X101310511Y-96629989D02*
X101310511Y-95359989D01*
X101490021Y-95285633D02*
X101076635Y-94872247D01*
X101490021Y-97720479D02*
X101490021Y-95285633D01*
X101076635Y-94872247D02*
X101076635Y-85649276D01*
X100951000Y-98259500D02*
X101490021Y-97720479D01*
X101832020Y-98648480D02*
X101832020Y-95373766D01*
X100951000Y-99529500D02*
X101832020Y-98648480D01*
X101576635Y-95118381D02*
X101576635Y-85649276D01*
X101832020Y-95373766D02*
X101576635Y-95118381D01*
X102108000Y-110617000D02*
X102108000Y-85680641D01*
X100076000Y-110959500D02*
X101765500Y-110959500D01*
X101765500Y-110959500D02*
X102108000Y-110617000D01*
X102146500Y-112229500D02*
X102576635Y-111799365D01*
X102576635Y-111799365D02*
X102576635Y-85649276D01*
X100076000Y-112229500D02*
X102146500Y-112229500D01*
X103124000Y-111887000D02*
X103124000Y-85696641D01*
X101511500Y-113499500D02*
X103124000Y-111887000D01*
X100076000Y-113499500D02*
X101511500Y-113499500D01*
X100876500Y-114769500D02*
X103576635Y-112069365D01*
X103576635Y-112069365D02*
X103576635Y-85649276D01*
X105752500Y-114769500D02*
X104013000Y-113030000D01*
X104013000Y-113030000D02*
X104013000Y-85712911D01*
X107696000Y-114769500D02*
X105752500Y-114769500D01*
X104521000Y-112522000D02*
X104521000Y-85704911D01*
X105498500Y-113499500D02*
X104521000Y-112522000D01*
X107696000Y-113499500D02*
X105498500Y-113499500D01*
X105625500Y-112229500D02*
X105029000Y-111633000D01*
X105029000Y-111633000D02*
X105029000Y-85696911D01*
X107696000Y-112229500D02*
X105625500Y-112229500D01*
X105484489Y-109622989D02*
X105484489Y-108653255D01*
X105457988Y-85767923D02*
X105576635Y-85649276D01*
X105457988Y-108626754D02*
X105457988Y-85767923D01*
X106821000Y-110959500D02*
X105484489Y-109622989D01*
X105484489Y-108653255D02*
X105457988Y-108626754D01*
X105637499Y-108552399D02*
X105637499Y-93625501D01*
X105997001Y-108865501D02*
X105950601Y-108865501D01*
X106821000Y-109689500D02*
X105997001Y-108865501D01*
X105637499Y-93625501D02*
X107076635Y-92186365D01*
X105950601Y-108865501D02*
X105637499Y-108552399D01*
X107076635Y-92186365D02*
X107076635Y-85649276D01*
X107576635Y-94226365D02*
X107576635Y-85649276D01*
X105970511Y-98679011D02*
X105970511Y-95070489D01*
X107569000Y-94234000D02*
X107576635Y-94226365D01*
X105970511Y-95070489D02*
X106807000Y-94234000D01*
X106821000Y-99529500D02*
X105970511Y-98679011D01*
X106807000Y-94234000D02*
X107569000Y-94234000D01*
X107696000Y-94488000D02*
X108076635Y-94107365D01*
X106807000Y-94488000D02*
X107696000Y-94488000D01*
X106150022Y-97588522D02*
X106150022Y-95144978D01*
X106821000Y-98259500D02*
X106150022Y-97588522D01*
X108076635Y-94107365D02*
X108076635Y-85649276D01*
X106150022Y-95144978D02*
X106807000Y-94488000D01*
X106329533Y-96498033D02*
X106329533Y-95219467D01*
X108576635Y-94369365D02*
X108576635Y-85649276D01*
X108077000Y-94869000D02*
X108576635Y-94369365D01*
X106680000Y-94869000D02*
X108077000Y-94869000D01*
X106821000Y-96989500D02*
X106329533Y-96498033D01*
X106329533Y-95219467D02*
X106680000Y-94869000D01*
X108369500Y-95719500D02*
X109076635Y-95012365D01*
X109076635Y-95012365D02*
X109076635Y-85649276D01*
G04 #@! TA.AperFunction,Conductor*
G36*
X130752121Y-46375002D02*
G01*
X130798614Y-46428658D01*
X130810000Y-46481000D01*
X130810000Y-117476000D01*
X130789998Y-117544121D01*
X130736342Y-117590614D01*
X130684000Y-117602000D01*
X82676000Y-117602000D01*
X82607879Y-117581998D01*
X82561386Y-117528342D01*
X82550000Y-117476000D01*
X82550000Y-91279695D01*
X82960251Y-91279695D01*
X82973110Y-91502715D01*
X82974247Y-91507761D01*
X82974248Y-91507767D01*
X82995275Y-91601069D01*
X83022222Y-91720639D01*
X83106266Y-91927616D01*
X83222987Y-92118088D01*
X83369250Y-92286938D01*
X83541126Y-92429632D01*
X83734000Y-92542338D01*
X83942692Y-92622030D01*
X83947760Y-92623061D01*
X83947763Y-92623062D01*
X84038178Y-92641457D01*
X84161597Y-92666567D01*
X84166772Y-92666757D01*
X84166774Y-92666757D01*
X84379673Y-92674564D01*
X84379677Y-92674564D01*
X84384837Y-92674753D01*
X84389957Y-92674097D01*
X84389959Y-92674097D01*
X84601288Y-92647025D01*
X84601289Y-92647025D01*
X84606416Y-92646368D01*
X84611366Y-92644883D01*
X84815429Y-92583661D01*
X84815434Y-92583659D01*
X84820384Y-92582174D01*
X85020994Y-92483896D01*
X85202860Y-92354173D01*
X85209004Y-92348051D01*
X85357435Y-92200137D01*
X85361096Y-92196489D01*
X85420594Y-92113689D01*
X85491453Y-92015077D01*
X85492640Y-92015930D01*
X85539960Y-91972362D01*
X85609897Y-91960145D01*
X85675338Y-91987678D01*
X85703166Y-92019511D01*
X85760694Y-92113388D01*
X85766777Y-92121699D01*
X85906213Y-92282667D01*
X85913580Y-92289883D01*
X86077434Y-92425916D01*
X86085881Y-92431831D01*
X86269756Y-92539279D01*
X86279042Y-92543729D01*
X86478001Y-92619703D01*
X86487899Y-92622579D01*
X86591250Y-92643606D01*
X86605299Y-92642410D01*
X86609000Y-92632065D01*
X86609000Y-83227989D01*
X86629002Y-83159868D01*
X86682658Y-83113375D01*
X86735000Y-83101989D01*
X86991000Y-83101989D01*
X87059121Y-83121991D01*
X87105614Y-83175647D01*
X87117000Y-83227989D01*
X87117000Y-92631517D01*
X87121064Y-92645359D01*
X87134478Y-92647393D01*
X87141184Y-92646534D01*
X87151262Y-92644392D01*
X87355255Y-92583191D01*
X87364842Y-92579433D01*
X87556095Y-92485739D01*
X87564945Y-92480464D01*
X87738328Y-92356792D01*
X87746200Y-92350139D01*
X87897052Y-92199812D01*
X87903730Y-92191965D01*
X88028003Y-92019020D01*
X88033313Y-92010183D01*
X88107543Y-91859991D01*
X88155657Y-91807784D01*
X88224358Y-91789877D01*
X88291834Y-91811956D01*
X88336663Y-91867010D01*
X88346500Y-91915818D01*
X88346500Y-101303720D01*
X88326498Y-101371841D01*
X88294562Y-101405655D01*
X88267593Y-101425249D01*
X88267591Y-101425251D01*
X88262247Y-101429134D01*
X88257826Y-101434044D01*
X88257825Y-101434045D01*
X88197024Y-101501572D01*
X88134460Y-101571056D01*
X88123171Y-101590609D01*
X88044550Y-101726785D01*
X88038973Y-101736444D01*
X87979958Y-101918072D01*
X87959996Y-102108000D01*
X87960686Y-102114565D01*
X87976687Y-102266803D01*
X87979958Y-102297928D01*
X88038973Y-102479556D01*
X88134460Y-102644944D01*
X88138875Y-102649847D01*
X88138879Y-102649852D01*
X88228661Y-102749565D01*
X88262247Y-102786866D01*
X88416748Y-102899118D01*
X88422776Y-102901802D01*
X88422778Y-102901803D01*
X88458109Y-102917533D01*
X88512204Y-102963513D01*
X88532854Y-103031440D01*
X88526694Y-103071573D01*
X88487958Y-103190788D01*
X88487268Y-103197349D01*
X88487268Y-103197351D01*
X88468971Y-103371435D01*
X88467996Y-103380716D01*
X88487958Y-103570644D01*
X88546973Y-103752272D01*
X88642460Y-103917660D01*
X88646878Y-103922567D01*
X88646879Y-103922568D01*
X88749934Y-104037022D01*
X88770247Y-104059582D01*
X88868347Y-104130856D01*
X88889805Y-104146446D01*
X88924748Y-104171834D01*
X88930776Y-104174518D01*
X88930778Y-104174519D01*
X89093181Y-104246825D01*
X89099212Y-104249510D01*
X89252761Y-104282148D01*
X89262697Y-104284260D01*
X89325170Y-104317989D01*
X89359492Y-104380138D01*
X89362500Y-104407507D01*
X89362500Y-106275974D01*
X89342498Y-106344095D01*
X89314712Y-106373515D01*
X89314998Y-106373833D01*
X89311077Y-106377364D01*
X89310561Y-106377910D01*
X89304747Y-106382134D01*
X89300326Y-106387044D01*
X89300325Y-106387045D01*
X89194096Y-106505025D01*
X89176960Y-106524056D01*
X89134923Y-106596866D01*
X89086259Y-106681155D01*
X89081473Y-106689444D01*
X89022458Y-106871072D01*
X89002496Y-107061000D01*
X89003186Y-107067565D01*
X89018672Y-107214902D01*
X89022458Y-107250928D01*
X89081473Y-107432556D01*
X89084776Y-107438278D01*
X89084777Y-107438279D01*
X89091230Y-107449455D01*
X89176960Y-107597944D01*
X89181378Y-107602851D01*
X89181379Y-107602852D01*
X89236751Y-107664349D01*
X89304747Y-107739866D01*
X89358795Y-107779134D01*
X89430511Y-107831239D01*
X89459248Y-107852118D01*
X89465276Y-107854802D01*
X89465278Y-107854803D01*
X89614086Y-107921056D01*
X89633712Y-107929794D01*
X89740653Y-107952525D01*
X89803126Y-107986253D01*
X89837448Y-108048403D01*
X89834289Y-108114708D01*
X89798849Y-108223782D01*
X89784458Y-108268072D01*
X89764496Y-108458000D01*
X89784458Y-108647928D01*
X89843473Y-108829556D01*
X89938960Y-108994944D01*
X89943378Y-108999851D01*
X89943379Y-108999852D01*
X90052976Y-109121572D01*
X90066747Y-109136866D01*
X90221248Y-109249118D01*
X90227276Y-109251802D01*
X90227278Y-109251803D01*
X90389681Y-109324109D01*
X90395712Y-109326794D01*
X90489113Y-109346647D01*
X90576056Y-109365128D01*
X90576061Y-109365128D01*
X90582513Y-109366500D01*
X90773487Y-109366500D01*
X90779939Y-109365128D01*
X90779944Y-109365128D01*
X90866887Y-109346647D01*
X90960288Y-109326794D01*
X91134752Y-109249118D01*
X91205118Y-109239684D01*
X91237247Y-109249118D01*
X91237248Y-109249118D01*
X91411712Y-109326794D01*
X91505113Y-109346647D01*
X91592056Y-109365128D01*
X91592061Y-109365128D01*
X91598513Y-109366500D01*
X91789487Y-109366500D01*
X91795939Y-109365128D01*
X91795944Y-109365128D01*
X91882887Y-109346647D01*
X91976288Y-109326794D01*
X91982319Y-109324109D01*
X92144722Y-109251803D01*
X92144724Y-109251802D01*
X92150752Y-109249118D01*
X92305253Y-109136866D01*
X92319024Y-109121572D01*
X92428621Y-108999852D01*
X92428622Y-108999851D01*
X92433040Y-108994944D01*
X92528527Y-108829556D01*
X92587542Y-108647928D01*
X92607504Y-108458000D01*
X92587542Y-108268072D01*
X92528527Y-108086444D01*
X92522951Y-108076785D01*
X92491314Y-108021990D01*
X92433040Y-107921056D01*
X92322968Y-107798808D01*
X92292252Y-107734803D01*
X92301016Y-107664349D01*
X92346478Y-107609818D01*
X92411411Y-107590079D01*
X92411318Y-107589190D01*
X92415929Y-107588705D01*
X92416605Y-107588500D01*
X92424487Y-107588500D01*
X92430939Y-107587128D01*
X92430944Y-107587128D01*
X92517888Y-107568647D01*
X92611288Y-107548794D01*
X92617319Y-107546109D01*
X92779722Y-107473803D01*
X92779724Y-107473802D01*
X92785752Y-107471118D01*
X92815569Y-107449455D01*
X92857187Y-107419217D01*
X92940253Y-107358866D01*
X92968807Y-107327154D01*
X93063621Y-107221852D01*
X93063622Y-107221851D01*
X93068040Y-107216944D01*
X93133929Y-107102822D01*
X93160223Y-107057279D01*
X93160224Y-107057278D01*
X93163527Y-107051556D01*
X93222542Y-106869928D01*
X93227107Y-106826500D01*
X93241814Y-106686565D01*
X93242504Y-106680000D01*
X93235817Y-106616373D01*
X93223232Y-106496635D01*
X93223232Y-106496633D01*
X93222542Y-106490072D01*
X93163527Y-106308444D01*
X93068040Y-106143056D01*
X93042064Y-106114206D01*
X92944675Y-106006045D01*
X92944674Y-106006044D01*
X92940253Y-106001134D01*
X92934439Y-105996910D01*
X92934233Y-105996643D01*
X92930002Y-105992833D01*
X92930699Y-105992059D01*
X92891086Y-105940689D01*
X92882500Y-105894974D01*
X92882500Y-103777500D01*
X92902502Y-103709379D01*
X92956158Y-103662886D01*
X93008500Y-103651500D01*
X93059487Y-103651500D01*
X93065939Y-103650128D01*
X93065944Y-103650128D01*
X93152887Y-103631647D01*
X93246288Y-103611794D01*
X93292550Y-103591197D01*
X93414722Y-103536803D01*
X93414724Y-103536802D01*
X93420752Y-103534118D01*
X93575253Y-103421866D01*
X93599658Y-103394762D01*
X93698621Y-103284852D01*
X93698622Y-103284851D01*
X93703040Y-103279944D01*
X93798527Y-103114556D01*
X93857542Y-102932928D01*
X93860814Y-102901803D01*
X93876814Y-102749565D01*
X93877504Y-102743000D01*
X93867714Y-102649852D01*
X93858233Y-102559642D01*
X93858232Y-102559638D01*
X93857542Y-102553072D01*
X93846310Y-102518504D01*
X93844282Y-102447538D01*
X93880944Y-102386740D01*
X93939945Y-102356322D01*
X94001824Y-102343169D01*
X94001833Y-102343166D01*
X94008288Y-102341794D01*
X94014319Y-102339109D01*
X94176722Y-102266803D01*
X94176724Y-102266802D01*
X94182752Y-102264118D01*
X94337253Y-102151866D01*
X94465040Y-102009944D01*
X94560527Y-101844556D01*
X94619542Y-101662928D01*
X94625249Y-101608634D01*
X94638814Y-101479565D01*
X94639504Y-101473000D01*
X94628408Y-101367428D01*
X94620232Y-101289635D01*
X94620232Y-101289633D01*
X94619542Y-101283072D01*
X94560527Y-101101444D01*
X94465040Y-100936056D01*
X94337253Y-100794134D01*
X94331439Y-100789910D01*
X94331233Y-100789643D01*
X94327002Y-100785833D01*
X94327699Y-100785059D01*
X94288086Y-100733689D01*
X94279500Y-100687974D01*
X94279500Y-84863458D01*
X94299502Y-84795337D01*
X94316405Y-84774362D01*
X94526088Y-84564680D01*
X94588400Y-84530655D01*
X94615183Y-84527776D01*
X94798955Y-84527776D01*
X94867076Y-84547778D01*
X94875651Y-84553808D01*
X94882368Y-84558962D01*
X95024311Y-84617757D01*
X95095482Y-84627127D01*
X95134304Y-84632238D01*
X95134305Y-84632238D01*
X95138391Y-84632776D01*
X96664879Y-84632776D01*
X96668965Y-84632238D01*
X96668966Y-84632238D01*
X96685904Y-84630008D01*
X96778959Y-84617757D01*
X96782412Y-84616327D01*
X96851292Y-84617967D01*
X96910088Y-84657761D01*
X96938036Y-84723025D01*
X96934826Y-84767917D01*
X96933154Y-84771952D01*
X96918135Y-84886032D01*
X96918135Y-86412520D01*
X96933154Y-86526600D01*
X96991949Y-86668544D01*
X97085478Y-86790433D01*
X97092028Y-86795459D01*
X97092029Y-86795460D01*
X97141783Y-86833637D01*
X97207368Y-86883962D01*
X97208408Y-86884393D01*
X97255121Y-86933380D01*
X97268561Y-87003093D01*
X97252250Y-87054122D01*
X97207608Y-87131444D01*
X97148593Y-87313072D01*
X97128631Y-87503000D01*
X97129321Y-87509565D01*
X97143159Y-87641222D01*
X97148593Y-87692928D01*
X97207608Y-87874556D01*
X97210911Y-87880278D01*
X97210912Y-87880279D01*
X97231038Y-87915138D01*
X97303095Y-88039944D01*
X97307513Y-88044851D01*
X97307514Y-88044852D01*
X97426460Y-88176955D01*
X97430882Y-88181866D01*
X97585383Y-88294118D01*
X97591411Y-88296802D01*
X97591413Y-88296803D01*
X97694700Y-88342789D01*
X97759847Y-88371794D01*
X97923332Y-88406544D01*
X97985805Y-88440273D01*
X98020127Y-88502422D01*
X98023135Y-88529791D01*
X98023135Y-89736908D01*
X98003133Y-89805029D01*
X97986230Y-89826003D01*
X95504272Y-92307961D01*
X95500463Y-92311614D01*
X95454511Y-92353869D01*
X95449982Y-92361174D01*
X95431445Y-92391070D01*
X95424722Y-92400852D01*
X95403443Y-92428886D01*
X95403440Y-92428891D01*
X95398249Y-92435730D01*
X95395088Y-92443715D01*
X95392663Y-92449840D01*
X95382595Y-92469857D01*
X95374598Y-92482755D01*
X95372202Y-92491003D01*
X95362384Y-92524796D01*
X95358539Y-92536025D01*
X95345586Y-92568741D01*
X95345584Y-92568750D01*
X95342424Y-92576731D01*
X95341526Y-92585272D01*
X95341525Y-92585277D01*
X95340836Y-92591828D01*
X95336525Y-92613801D01*
X95334133Y-92622035D01*
X95334131Y-92622046D01*
X95332290Y-92628383D01*
X95331500Y-92639140D01*
X95331500Y-92674058D01*
X95330810Y-92687229D01*
X95326572Y-92727550D01*
X95328005Y-92736022D01*
X95328005Y-92736023D01*
X95329735Y-92746250D01*
X95331500Y-92767264D01*
X95331500Y-109331955D01*
X95331389Y-109337230D01*
X95328776Y-109399579D01*
X95330738Y-109407943D01*
X95330738Y-109407946D01*
X95338771Y-109442197D01*
X95340934Y-109453865D01*
X95346877Y-109497247D01*
X95352908Y-109511183D01*
X95359939Y-109532445D01*
X95363405Y-109547222D01*
X95384500Y-109585594D01*
X95389713Y-109596233D01*
X95407105Y-109636424D01*
X95412512Y-109643101D01*
X95416655Y-109648217D01*
X95429151Y-109666813D01*
X95436463Y-109680113D01*
X95443511Y-109688278D01*
X95468194Y-109712961D01*
X95477019Y-109722761D01*
X95502541Y-109754278D01*
X95509543Y-109759254D01*
X95509544Y-109759255D01*
X95518007Y-109765269D01*
X95534113Y-109778880D01*
X95825461Y-110070228D01*
X95829114Y-110074037D01*
X95871369Y-110119989D01*
X95895396Y-110134886D01*
X95908570Y-110143055D01*
X95918352Y-110149778D01*
X95946386Y-110171057D01*
X95946391Y-110171060D01*
X95953230Y-110176251D01*
X95967344Y-110181839D01*
X95987357Y-110191905D01*
X96000255Y-110199902D01*
X96042296Y-110212116D01*
X96053525Y-110215961D01*
X96086241Y-110228914D01*
X96086250Y-110228916D01*
X96094231Y-110232076D01*
X96102772Y-110232974D01*
X96102777Y-110232975D01*
X96109328Y-110233664D01*
X96131301Y-110237975D01*
X96139535Y-110240367D01*
X96139546Y-110240369D01*
X96145883Y-110242210D01*
X96153626Y-110242779D01*
X96154335Y-110242831D01*
X96154343Y-110242831D01*
X96156640Y-110243000D01*
X96191558Y-110243000D01*
X96204729Y-110243690D01*
X96245050Y-110247928D01*
X96253522Y-110246495D01*
X96253523Y-110246495D01*
X96263750Y-110244765D01*
X96284764Y-110243000D01*
X98456958Y-110243000D01*
X98525079Y-110263002D01*
X98571572Y-110316658D01*
X98581676Y-110386932D01*
X98557784Y-110444565D01*
X98530771Y-110480608D01*
X98530770Y-110480610D01*
X98525385Y-110487795D01*
X98474255Y-110624184D01*
X98467500Y-110686366D01*
X98467500Y-111232634D01*
X98474255Y-111294816D01*
X98525385Y-111431205D01*
X98532455Y-111440638D01*
X98591135Y-111518935D01*
X98615983Y-111585441D01*
X98600930Y-111654824D01*
X98591135Y-111670065D01*
X98525385Y-111757795D01*
X98474255Y-111894184D01*
X98467500Y-111956366D01*
X98467500Y-112502634D01*
X98474255Y-112564816D01*
X98525385Y-112701205D01*
X98530771Y-112708391D01*
X98591135Y-112788935D01*
X98615983Y-112855441D01*
X98600930Y-112924824D01*
X98591135Y-112940065D01*
X98525385Y-113027795D01*
X98474255Y-113164184D01*
X98467500Y-113226366D01*
X98467500Y-113772634D01*
X98474255Y-113834816D01*
X98525385Y-113971205D01*
X98530771Y-113978391D01*
X98591135Y-114058935D01*
X98615983Y-114125441D01*
X98600930Y-114194824D01*
X98591135Y-114210065D01*
X98525385Y-114297795D01*
X98474255Y-114434184D01*
X98467500Y-114496366D01*
X98467500Y-115042634D01*
X98474255Y-115104816D01*
X98525385Y-115241205D01*
X98612739Y-115357761D01*
X98729295Y-115445115D01*
X98865684Y-115496245D01*
X98927866Y-115503000D01*
X101224134Y-115503000D01*
X101286316Y-115496245D01*
X101422705Y-115445115D01*
X101539261Y-115357761D01*
X101626615Y-115241205D01*
X101677745Y-115104816D01*
X101684500Y-115042634D01*
X101684500Y-114796457D01*
X101704502Y-114728336D01*
X101721405Y-114707362D01*
X103275410Y-113153358D01*
X103337722Y-113119332D01*
X103408538Y-113124397D01*
X103465373Y-113166944D01*
X103480144Y-113192417D01*
X103480909Y-113194185D01*
X103487939Y-113215445D01*
X103491405Y-113230222D01*
X103512500Y-113268594D01*
X103517713Y-113279233D01*
X103535105Y-113319424D01*
X103540512Y-113326101D01*
X103544655Y-113331217D01*
X103557151Y-113349813D01*
X103564463Y-113363113D01*
X103571511Y-113371278D01*
X103596194Y-113395961D01*
X103605019Y-113405761D01*
X103630541Y-113437278D01*
X103637543Y-113442254D01*
X103637544Y-113442255D01*
X103646007Y-113448269D01*
X103662113Y-113461880D01*
X105350461Y-115150228D01*
X105354114Y-115154037D01*
X105396369Y-115199989D01*
X105420396Y-115214886D01*
X105433570Y-115223055D01*
X105443352Y-115229778D01*
X105471386Y-115251057D01*
X105471391Y-115251060D01*
X105478230Y-115256251D01*
X105492344Y-115261839D01*
X105512357Y-115271905D01*
X105525255Y-115279902D01*
X105567296Y-115292116D01*
X105578525Y-115295961D01*
X105611241Y-115308914D01*
X105611250Y-115308916D01*
X105619231Y-115312076D01*
X105627772Y-115312974D01*
X105627777Y-115312975D01*
X105634328Y-115313664D01*
X105656301Y-115317975D01*
X105664535Y-115320367D01*
X105664546Y-115320369D01*
X105670883Y-115322210D01*
X105678626Y-115322779D01*
X105679335Y-115322831D01*
X105679343Y-115322831D01*
X105681640Y-115323000D01*
X105716557Y-115323000D01*
X105729728Y-115323690D01*
X105770049Y-115327928D01*
X105778521Y-115326495D01*
X105778522Y-115326495D01*
X105788749Y-115324765D01*
X105809763Y-115323000D01*
X106147587Y-115323000D01*
X106215708Y-115343002D01*
X106230783Y-115355151D01*
X106232739Y-115357761D01*
X106349295Y-115445115D01*
X106485684Y-115496245D01*
X106547866Y-115503000D01*
X108844134Y-115503000D01*
X108906316Y-115496245D01*
X109042705Y-115445115D01*
X109159261Y-115357761D01*
X109246615Y-115241205D01*
X109297745Y-115104816D01*
X109304500Y-115042634D01*
X109304500Y-114496366D01*
X109297745Y-114434184D01*
X109246615Y-114297795D01*
X109180865Y-114210065D01*
X109156017Y-114143559D01*
X109171070Y-114074176D01*
X109180865Y-114058935D01*
X109241229Y-113978391D01*
X109246615Y-113971205D01*
X109297745Y-113834816D01*
X109304500Y-113772634D01*
X109304500Y-113226366D01*
X109297745Y-113164184D01*
X109246615Y-113027795D01*
X109180865Y-112940065D01*
X109156017Y-112873559D01*
X109171070Y-112804176D01*
X109180865Y-112788935D01*
X109241229Y-112708391D01*
X109246615Y-112701205D01*
X109297745Y-112564816D01*
X109304500Y-112502634D01*
X109304500Y-111956366D01*
X109297745Y-111894184D01*
X109246615Y-111757795D01*
X109180865Y-111670065D01*
X109156017Y-111603559D01*
X109171070Y-111534176D01*
X109180865Y-111518935D01*
X109239545Y-111440638D01*
X109246615Y-111431205D01*
X109297745Y-111294816D01*
X109304500Y-111232634D01*
X109304500Y-110686366D01*
X109297745Y-110624184D01*
X109246615Y-110487795D01*
X109180865Y-110400065D01*
X109156017Y-110333559D01*
X109171070Y-110264176D01*
X109180865Y-110248935D01*
X109195870Y-110228914D01*
X109246615Y-110161205D01*
X109297745Y-110024816D01*
X109304500Y-109962634D01*
X109304500Y-109416366D01*
X109297745Y-109354184D01*
X109246615Y-109217795D01*
X109180865Y-109130065D01*
X109156017Y-109063559D01*
X109171070Y-108994176D01*
X109180865Y-108978935D01*
X109241229Y-108898391D01*
X109246615Y-108891205D01*
X109297745Y-108754816D01*
X109304500Y-108692634D01*
X109304500Y-108146366D01*
X109297745Y-108084184D01*
X109246615Y-107947795D01*
X109180865Y-107860065D01*
X109156017Y-107793559D01*
X109171070Y-107724176D01*
X109180865Y-107708935D01*
X109241229Y-107628391D01*
X109246615Y-107621205D01*
X109297745Y-107484816D01*
X109304500Y-107422634D01*
X109304500Y-106912376D01*
X109324502Y-106844255D01*
X109378158Y-106797762D01*
X109448432Y-106787658D01*
X109456697Y-106789129D01*
X109626056Y-106825128D01*
X109626061Y-106825128D01*
X109632513Y-106826500D01*
X109823487Y-106826500D01*
X109829939Y-106825128D01*
X109829944Y-106825128D01*
X109916887Y-106806647D01*
X110010288Y-106786794D01*
X110019917Y-106782507D01*
X110178722Y-106711803D01*
X110178724Y-106711802D01*
X110184752Y-106709118D01*
X110195977Y-106700963D01*
X110312404Y-106616373D01*
X110339253Y-106596866D01*
X110435411Y-106490072D01*
X110462621Y-106459852D01*
X110462622Y-106459851D01*
X110467040Y-106454944D01*
X110562527Y-106289556D01*
X110621542Y-106107928D01*
X110637177Y-105959174D01*
X110640814Y-105924565D01*
X110641504Y-105918000D01*
X110621542Y-105728072D01*
X110562527Y-105546444D01*
X110467040Y-105381056D01*
X110380655Y-105285115D01*
X110343675Y-105244045D01*
X110343674Y-105244044D01*
X110339253Y-105239134D01*
X110184752Y-105126882D01*
X110178724Y-105124198D01*
X110178722Y-105124197D01*
X110016319Y-105051891D01*
X110016318Y-105051891D01*
X110010288Y-105049206D01*
X109916887Y-105029353D01*
X109829944Y-105010872D01*
X109829939Y-105010872D01*
X109823487Y-105009500D01*
X109632513Y-105009500D01*
X109626061Y-105010872D01*
X109626056Y-105010872D01*
X109452381Y-105047788D01*
X109381590Y-105042386D01*
X109324957Y-104999569D01*
X109300464Y-104932931D01*
X109300921Y-104910934D01*
X109303631Y-104885988D01*
X109304000Y-104879172D01*
X109304000Y-104852615D01*
X109299525Y-104837376D01*
X109298135Y-104836171D01*
X109290452Y-104834500D01*
X107597000Y-104834500D01*
X107528879Y-104814498D01*
X107482386Y-104760842D01*
X107471000Y-104708500D01*
X107471000Y-104510500D01*
X107491002Y-104442379D01*
X107544658Y-104395886D01*
X107597000Y-104384500D01*
X109285884Y-104384500D01*
X109301123Y-104380025D01*
X109302328Y-104378635D01*
X109303999Y-104370952D01*
X109303999Y-104339831D01*
X109303629Y-104333010D01*
X109298105Y-104282148D01*
X109294479Y-104266896D01*
X109249324Y-104146446D01*
X109240789Y-104130856D01*
X109180552Y-104050482D01*
X109155705Y-103983975D01*
X109170758Y-103914593D01*
X109180553Y-103899352D01*
X109241229Y-103818392D01*
X109241230Y-103818390D01*
X109246615Y-103811205D01*
X109297745Y-103674816D01*
X109304500Y-103612634D01*
X109304500Y-103066366D01*
X109297745Y-103004184D01*
X109246615Y-102867795D01*
X109180865Y-102780065D01*
X109167017Y-102743000D01*
X117812502Y-102743000D01*
X117832457Y-102971087D01*
X117833881Y-102976400D01*
X117833881Y-102976402D01*
X117869216Y-103108271D01*
X117891716Y-103192243D01*
X117894039Y-103197224D01*
X117894039Y-103197225D01*
X117986151Y-103394762D01*
X117986154Y-103394767D01*
X117988477Y-103399749D01*
X118061902Y-103504611D01*
X118106238Y-103567928D01*
X118119802Y-103587300D01*
X118281700Y-103749198D01*
X118286208Y-103752355D01*
X118286211Y-103752357D01*
X118294263Y-103757995D01*
X118469251Y-103880523D01*
X118474233Y-103882846D01*
X118474238Y-103882849D01*
X118671775Y-103974961D01*
X118676757Y-103977284D01*
X118682065Y-103978706D01*
X118682067Y-103978707D01*
X118892598Y-104035119D01*
X118892600Y-104035119D01*
X118897913Y-104036543D01*
X119126000Y-104056498D01*
X119354087Y-104036543D01*
X119359400Y-104035119D01*
X119359402Y-104035119D01*
X119569933Y-103978707D01*
X119569935Y-103978706D01*
X119575243Y-103977284D01*
X119580225Y-103974961D01*
X119777762Y-103882849D01*
X119777767Y-103882846D01*
X119782749Y-103880523D01*
X119957737Y-103757995D01*
X119965789Y-103752357D01*
X119965792Y-103752355D01*
X119970300Y-103749198D01*
X120128364Y-103591134D01*
X125437500Y-103591134D01*
X125444255Y-103653316D01*
X125495385Y-103789705D01*
X125582739Y-103906261D01*
X125699295Y-103993615D01*
X125835684Y-104044745D01*
X125897866Y-104051500D01*
X127594134Y-104051500D01*
X127656316Y-104044745D01*
X127792705Y-103993615D01*
X127909261Y-103906261D01*
X127996615Y-103789705D01*
X128047745Y-103653316D01*
X128054500Y-103591134D01*
X128054500Y-101894866D01*
X128047745Y-101832684D01*
X127996615Y-101696295D01*
X127909261Y-101579739D01*
X127792705Y-101492385D01*
X127656316Y-101441255D01*
X127594134Y-101434500D01*
X125897866Y-101434500D01*
X125835684Y-101441255D01*
X125699295Y-101492385D01*
X125582739Y-101579739D01*
X125495385Y-101696295D01*
X125444255Y-101832684D01*
X125437500Y-101894866D01*
X125437500Y-103591134D01*
X120128364Y-103591134D01*
X120132198Y-103587300D01*
X120145763Y-103567928D01*
X120190098Y-103504611D01*
X120263523Y-103399749D01*
X120265846Y-103394767D01*
X120265849Y-103394762D01*
X120357961Y-103197225D01*
X120357961Y-103197224D01*
X120360284Y-103192243D01*
X120382785Y-103108271D01*
X120418119Y-102976402D01*
X120418119Y-102976400D01*
X120419543Y-102971087D01*
X120439498Y-102743000D01*
X120419543Y-102514913D01*
X120392025Y-102412215D01*
X120361707Y-102299067D01*
X120361706Y-102299065D01*
X120360284Y-102293757D01*
X120346463Y-102264118D01*
X120265849Y-102091238D01*
X120265846Y-102091233D01*
X120263523Y-102086251D01*
X120150358Y-101924635D01*
X120135357Y-101903211D01*
X120135355Y-101903208D01*
X120132198Y-101898700D01*
X119970300Y-101736802D01*
X119965792Y-101733645D01*
X119965789Y-101733643D01*
X119855424Y-101656365D01*
X119782749Y-101605477D01*
X119777767Y-101603154D01*
X119777762Y-101603151D01*
X119580225Y-101511039D01*
X119580224Y-101511039D01*
X119575243Y-101508716D01*
X119569935Y-101507294D01*
X119569933Y-101507293D01*
X119359402Y-101450881D01*
X119359400Y-101450881D01*
X119354087Y-101449457D01*
X119126000Y-101429502D01*
X118897913Y-101449457D01*
X118892600Y-101450881D01*
X118892598Y-101450881D01*
X118682067Y-101507293D01*
X118682065Y-101507294D01*
X118676757Y-101508716D01*
X118671776Y-101511039D01*
X118671775Y-101511039D01*
X118474238Y-101603151D01*
X118474233Y-101603154D01*
X118469251Y-101605477D01*
X118396576Y-101656365D01*
X118286211Y-101733643D01*
X118286208Y-101733645D01*
X118281700Y-101736802D01*
X118119802Y-101898700D01*
X118116645Y-101903208D01*
X118116643Y-101903211D01*
X118101642Y-101924635D01*
X117988477Y-102086251D01*
X117986154Y-102091233D01*
X117986151Y-102091238D01*
X117905537Y-102264118D01*
X117891716Y-102293757D01*
X117890294Y-102299065D01*
X117890293Y-102299067D01*
X117859975Y-102412215D01*
X117832457Y-102514913D01*
X117812502Y-102743000D01*
X109167017Y-102743000D01*
X109156017Y-102713559D01*
X109171070Y-102644176D01*
X109180865Y-102628935D01*
X109241229Y-102548391D01*
X109246615Y-102541205D01*
X109297745Y-102404816D01*
X109304500Y-102342634D01*
X109304500Y-101796366D01*
X109297745Y-101734184D01*
X109246615Y-101597795D01*
X109180865Y-101510065D01*
X109156017Y-101443559D01*
X109171070Y-101374176D01*
X109180865Y-101358935D01*
X109241229Y-101278391D01*
X109246615Y-101271205D01*
X109297745Y-101134816D01*
X109304500Y-101072634D01*
X109304500Y-100526366D01*
X109297745Y-100464184D01*
X109246615Y-100327795D01*
X109180865Y-100240065D01*
X109156017Y-100173559D01*
X109171070Y-100104176D01*
X109180865Y-100088935D01*
X109241229Y-100008391D01*
X109246615Y-100001205D01*
X109297745Y-99864816D01*
X109304500Y-99802634D01*
X109304500Y-99256366D01*
X109297745Y-99194184D01*
X109246615Y-99057795D01*
X109180865Y-98970065D01*
X109156017Y-98903559D01*
X109171070Y-98834176D01*
X109180865Y-98818935D01*
X109241229Y-98738391D01*
X109246615Y-98731205D01*
X109297745Y-98594816D01*
X109304500Y-98532634D01*
X109304500Y-97986366D01*
X109297745Y-97924184D01*
X109246615Y-97787795D01*
X109180865Y-97700065D01*
X109156017Y-97633559D01*
X109171070Y-97564176D01*
X109180865Y-97548935D01*
X109241229Y-97468391D01*
X109246615Y-97461205D01*
X109297745Y-97324816D01*
X109304500Y-97262634D01*
X109304500Y-96716366D01*
X109297745Y-96654184D01*
X109246615Y-96517795D01*
X109180865Y-96430065D01*
X109156017Y-96363559D01*
X109171070Y-96294176D01*
X109180865Y-96278935D01*
X109241229Y-96198391D01*
X109246615Y-96191205D01*
X109297745Y-96054816D01*
X109304500Y-95992634D01*
X109304500Y-95619457D01*
X109324502Y-95551336D01*
X109341405Y-95530362D01*
X109457363Y-95414404D01*
X109461172Y-95410751D01*
X109500797Y-95374314D01*
X109507124Y-95368496D01*
X109530190Y-95331295D01*
X109536913Y-95321513D01*
X109558192Y-95293479D01*
X109558195Y-95293474D01*
X109563386Y-95286635D01*
X109568974Y-95272521D01*
X109579040Y-95252508D01*
X109582509Y-95246913D01*
X109587037Y-95239610D01*
X109599250Y-95197572D01*
X109603095Y-95186342D01*
X109616050Y-95153622D01*
X109616051Y-95153618D01*
X109619212Y-95145634D01*
X109620799Y-95130533D01*
X109625111Y-95108555D01*
X109629345Y-95093982D01*
X109630135Y-95083225D01*
X109630135Y-95048309D01*
X109630825Y-95035139D01*
X109634165Y-95003359D01*
X109635063Y-94994815D01*
X109631900Y-94976115D01*
X109630135Y-94955101D01*
X109630135Y-87076140D01*
X109650137Y-87008019D01*
X109703793Y-86961526D01*
X109739687Y-86951219D01*
X109803959Y-86942757D01*
X109811586Y-86939598D01*
X109811589Y-86939597D01*
X109874931Y-86913360D01*
X109945903Y-86883962D01*
X110067792Y-86790433D01*
X110072821Y-86783880D01*
X110156294Y-86675094D01*
X110161321Y-86668543D01*
X110220116Y-86526600D01*
X110235135Y-86412520D01*
X110235135Y-84886032D01*
X110220116Y-84771952D01*
X110218686Y-84768499D01*
X110220326Y-84699619D01*
X110260120Y-84640823D01*
X110325384Y-84612875D01*
X110370276Y-84616085D01*
X110374311Y-84617757D01*
X110467366Y-84630008D01*
X110484304Y-84632238D01*
X110484305Y-84632238D01*
X110488391Y-84632776D01*
X112014879Y-84632776D01*
X112018965Y-84632238D01*
X112018966Y-84632238D01*
X112057788Y-84627127D01*
X112128959Y-84617757D01*
X112136586Y-84614598D01*
X112136589Y-84614597D01*
X112199931Y-84588360D01*
X112270903Y-84558962D01*
X112392792Y-84465433D01*
X112486321Y-84343543D01*
X112545116Y-84201600D01*
X112560135Y-84087520D01*
X112560135Y-83861032D01*
X112545116Y-83746952D01*
X112546661Y-83746749D01*
X112546661Y-83701803D01*
X112545116Y-83701600D01*
X112559597Y-83591607D01*
X112559597Y-83591606D01*
X112560135Y-83587520D01*
X112560135Y-83361032D01*
X112545116Y-83246952D01*
X112546661Y-83246749D01*
X112546661Y-83201803D01*
X112545116Y-83201600D01*
X112559597Y-83091607D01*
X112559597Y-83091606D01*
X112560135Y-83087520D01*
X112560135Y-82861032D01*
X112545116Y-82746952D01*
X112546661Y-82746749D01*
X112546661Y-82701803D01*
X112545116Y-82701600D01*
X112559597Y-82591607D01*
X112559597Y-82591606D01*
X112560135Y-82587520D01*
X112560135Y-82361032D01*
X112545116Y-82246952D01*
X112546661Y-82246749D01*
X112546661Y-82201803D01*
X112545116Y-82201600D01*
X112559597Y-82091607D01*
X112559597Y-82091606D01*
X112560135Y-82087520D01*
X112560135Y-81861032D01*
X112545116Y-81746952D01*
X112546661Y-81746749D01*
X112546661Y-81701803D01*
X112545116Y-81701600D01*
X112559597Y-81591607D01*
X112559597Y-81591606D01*
X112560135Y-81587520D01*
X112560135Y-81361032D01*
X112545116Y-81246952D01*
X112546661Y-81246749D01*
X112546661Y-81201803D01*
X112545116Y-81201600D01*
X112559597Y-81091607D01*
X112559597Y-81091606D01*
X112560135Y-81087520D01*
X112560135Y-80861032D01*
X112555364Y-80824789D01*
X112545116Y-80746952D01*
X112546661Y-80746749D01*
X112546661Y-80701803D01*
X112545116Y-80701600D01*
X112559597Y-80591607D01*
X112559597Y-80591606D01*
X112560135Y-80587520D01*
X112560135Y-80361032D01*
X112545116Y-80246952D01*
X112546661Y-80246749D01*
X112546661Y-80201803D01*
X112545116Y-80201600D01*
X112559597Y-80091607D01*
X112559597Y-80091606D01*
X112560135Y-80087520D01*
X112560135Y-80047153D01*
X112580137Y-79979032D01*
X112633793Y-79932539D01*
X112704067Y-79922435D01*
X112768647Y-79951929D01*
X112775230Y-79958058D01*
X118535595Y-85718423D01*
X118569621Y-85780735D01*
X118572500Y-85807518D01*
X118572500Y-86237061D01*
X118552498Y-86305182D01*
X118499750Y-86351256D01*
X118469251Y-86365477D01*
X118412080Y-86405509D01*
X118286211Y-86493643D01*
X118286208Y-86493645D01*
X118281700Y-86496802D01*
X118119802Y-86658700D01*
X118116645Y-86663208D01*
X118116643Y-86663211D01*
X118083967Y-86709877D01*
X117988477Y-86846251D01*
X117986154Y-86851233D01*
X117986151Y-86851238D01*
X117898540Y-87039123D01*
X117891716Y-87053757D01*
X117890294Y-87059065D01*
X117890293Y-87059067D01*
X117869019Y-87138461D01*
X117832457Y-87274913D01*
X117812502Y-87503000D01*
X117832457Y-87731087D01*
X117833881Y-87736400D01*
X117833881Y-87736402D01*
X117882919Y-87919411D01*
X117891716Y-87952243D01*
X117894039Y-87957224D01*
X117894039Y-87957225D01*
X117986151Y-88154762D01*
X117986154Y-88154767D01*
X117988477Y-88159749D01*
X118027312Y-88215211D01*
X118110281Y-88333702D01*
X118119802Y-88347300D01*
X118281700Y-88509198D01*
X118286208Y-88512355D01*
X118286211Y-88512357D01*
X118340487Y-88550361D01*
X118469251Y-88640523D01*
X118474233Y-88642846D01*
X118474238Y-88642849D01*
X118671775Y-88734961D01*
X118676757Y-88737284D01*
X118682065Y-88738706D01*
X118682067Y-88738707D01*
X118892598Y-88795119D01*
X118892600Y-88795119D01*
X118897913Y-88796543D01*
X119126000Y-88816498D01*
X119354087Y-88796543D01*
X119359400Y-88795119D01*
X119359402Y-88795119D01*
X119569933Y-88738707D01*
X119569935Y-88738706D01*
X119575243Y-88737284D01*
X119580225Y-88734961D01*
X119777762Y-88642849D01*
X119777767Y-88642846D01*
X119782749Y-88640523D01*
X119856243Y-88589062D01*
X126024493Y-88589062D01*
X126033789Y-88601077D01*
X126084994Y-88636931D01*
X126094489Y-88642414D01*
X126291947Y-88734490D01*
X126302239Y-88738236D01*
X126512688Y-88794625D01*
X126523481Y-88796528D01*
X126740525Y-88815517D01*
X126751475Y-88815517D01*
X126968519Y-88796528D01*
X126979312Y-88794625D01*
X127189761Y-88738236D01*
X127200053Y-88734490D01*
X127397511Y-88642414D01*
X127407006Y-88636931D01*
X127459048Y-88600491D01*
X127467424Y-88590012D01*
X127460356Y-88576566D01*
X126758812Y-87875022D01*
X126744868Y-87867408D01*
X126743035Y-87867539D01*
X126736420Y-87871790D01*
X126030923Y-88577287D01*
X126024493Y-88589062D01*
X119856243Y-88589062D01*
X119911513Y-88550361D01*
X119965789Y-88512357D01*
X119965792Y-88512355D01*
X119970300Y-88509198D01*
X120132198Y-88347300D01*
X120141720Y-88333702D01*
X120224688Y-88215211D01*
X120263523Y-88159749D01*
X120265846Y-88154767D01*
X120265849Y-88154762D01*
X120357961Y-87957225D01*
X120357961Y-87957224D01*
X120360284Y-87952243D01*
X120369082Y-87919411D01*
X120418119Y-87736402D01*
X120418119Y-87736400D01*
X120419543Y-87731087D01*
X120439019Y-87508475D01*
X125433483Y-87508475D01*
X125452472Y-87725519D01*
X125454375Y-87736312D01*
X125510764Y-87946761D01*
X125514510Y-87957053D01*
X125606586Y-88154511D01*
X125612069Y-88164006D01*
X125648509Y-88216048D01*
X125658988Y-88224424D01*
X125672434Y-88217356D01*
X126373978Y-87515812D01*
X126380356Y-87504132D01*
X127110408Y-87504132D01*
X127110539Y-87505965D01*
X127114790Y-87512580D01*
X127820287Y-88218077D01*
X127832062Y-88224507D01*
X127844077Y-88215211D01*
X127879931Y-88164006D01*
X127885414Y-88154511D01*
X127977490Y-87957053D01*
X127981236Y-87946761D01*
X128037625Y-87736312D01*
X128039528Y-87725519D01*
X128058517Y-87508475D01*
X128058517Y-87497525D01*
X128039528Y-87280481D01*
X128037625Y-87269688D01*
X127981236Y-87059239D01*
X127977490Y-87048947D01*
X127885414Y-86851489D01*
X127879931Y-86841994D01*
X127843491Y-86789952D01*
X127833012Y-86781576D01*
X127819566Y-86788644D01*
X127118022Y-87490188D01*
X127110408Y-87504132D01*
X126380356Y-87504132D01*
X126381592Y-87501868D01*
X126381461Y-87500035D01*
X126377210Y-87493420D01*
X125671713Y-86787923D01*
X125659938Y-86781493D01*
X125647923Y-86790789D01*
X125612069Y-86841994D01*
X125606586Y-86851489D01*
X125514510Y-87048947D01*
X125510764Y-87059239D01*
X125454375Y-87269688D01*
X125452472Y-87280481D01*
X125433483Y-87497525D01*
X125433483Y-87508475D01*
X120439019Y-87508475D01*
X120439498Y-87503000D01*
X120419543Y-87274913D01*
X120382981Y-87138461D01*
X120361707Y-87059067D01*
X120361706Y-87059065D01*
X120360284Y-87053757D01*
X120353460Y-87039123D01*
X120265849Y-86851238D01*
X120265846Y-86851233D01*
X120263523Y-86846251D01*
X120168033Y-86709877D01*
X120135357Y-86663211D01*
X120135355Y-86663208D01*
X120132198Y-86658700D01*
X119970300Y-86496802D01*
X119965792Y-86493645D01*
X119965789Y-86493643D01*
X119854886Y-86415988D01*
X126024576Y-86415988D01*
X126031644Y-86429434D01*
X126733188Y-87130978D01*
X126747132Y-87138592D01*
X126748965Y-87138461D01*
X126755580Y-87134210D01*
X127461077Y-86428713D01*
X127467507Y-86416938D01*
X127458211Y-86404923D01*
X127407006Y-86369069D01*
X127397511Y-86363586D01*
X127200053Y-86271510D01*
X127189761Y-86267764D01*
X126979312Y-86211375D01*
X126968519Y-86209472D01*
X126751475Y-86190483D01*
X126740525Y-86190483D01*
X126523481Y-86209472D01*
X126512688Y-86211375D01*
X126302239Y-86267764D01*
X126291947Y-86271510D01*
X126094489Y-86363586D01*
X126084994Y-86369069D01*
X126032952Y-86405509D01*
X126024576Y-86415988D01*
X119854886Y-86415988D01*
X119839920Y-86405509D01*
X119782749Y-86365477D01*
X119752250Y-86351256D01*
X119698966Y-86304340D01*
X119679500Y-86237061D01*
X119679500Y-85541106D01*
X119679611Y-85535830D01*
X119681864Y-85482067D01*
X119682224Y-85473482D01*
X119672229Y-85430864D01*
X119670066Y-85419196D01*
X119665289Y-85384324D01*
X119665289Y-85384323D01*
X119664123Y-85375814D01*
X119658092Y-85361878D01*
X119651061Y-85340616D01*
X119647595Y-85325839D01*
X119626500Y-85287467D01*
X119621285Y-85276823D01*
X119607306Y-85244520D01*
X119603895Y-85236637D01*
X119594344Y-85224843D01*
X119581848Y-85206247D01*
X119577715Y-85198729D01*
X119574537Y-85192948D01*
X119567489Y-85184783D01*
X119542806Y-85160100D01*
X119533980Y-85150299D01*
X119513865Y-85125459D01*
X119508459Y-85118783D01*
X119492993Y-85107792D01*
X119476887Y-85094181D01*
X112593613Y-78210907D01*
X112559587Y-78148595D01*
X112557786Y-78105368D01*
X112559597Y-78091614D01*
X112559598Y-78091599D01*
X112560135Y-78087520D01*
X112560135Y-77861032D01*
X112545116Y-77746952D01*
X112546661Y-77746749D01*
X112546661Y-77701803D01*
X112545116Y-77701600D01*
X112559597Y-77591607D01*
X112559597Y-77591606D01*
X112560135Y-77587520D01*
X112560135Y-77361032D01*
X112552633Y-77304045D01*
X112545116Y-77246952D01*
X112546661Y-77246749D01*
X112546661Y-77201803D01*
X112545116Y-77201600D01*
X112559597Y-77091607D01*
X112559597Y-77091606D01*
X112560135Y-77087520D01*
X112560135Y-76861032D01*
X112554931Y-76821500D01*
X112545116Y-76746952D01*
X112546661Y-76746749D01*
X112546661Y-76701803D01*
X112545116Y-76701600D01*
X112559597Y-76591607D01*
X112559597Y-76591606D01*
X112560135Y-76587520D01*
X112560135Y-76361032D01*
X112545116Y-76246952D01*
X112546661Y-76246749D01*
X112546661Y-76201803D01*
X112545116Y-76201600D01*
X112559597Y-76091607D01*
X112559597Y-76091606D01*
X112560135Y-76087520D01*
X112560135Y-75861032D01*
X112553872Y-75813456D01*
X112545116Y-75746952D01*
X112546661Y-75746749D01*
X112546661Y-75701803D01*
X112545116Y-75701600D01*
X112559597Y-75591607D01*
X112559597Y-75591606D01*
X112560135Y-75587520D01*
X112560135Y-75361032D01*
X112545116Y-75246952D01*
X112546661Y-75246749D01*
X112546661Y-75201803D01*
X112545116Y-75201600D01*
X112559597Y-75091607D01*
X112559597Y-75091606D01*
X112560135Y-75087520D01*
X112560135Y-74861032D01*
X112545116Y-74746952D01*
X112546661Y-74746749D01*
X112546661Y-74701803D01*
X112545116Y-74701600D01*
X112559597Y-74591607D01*
X112559597Y-74591606D01*
X112560135Y-74587520D01*
X112560135Y-74361032D01*
X112559521Y-74356364D01*
X112545116Y-74246952D01*
X112546661Y-74246749D01*
X112546661Y-74201803D01*
X112545116Y-74201600D01*
X112547370Y-74184476D01*
X112553578Y-74137329D01*
X112582299Y-74072403D01*
X112641564Y-74033311D01*
X112678499Y-74027776D01*
X115948885Y-74027776D01*
X116017006Y-74047778D01*
X116037981Y-74064681D01*
X116520817Y-74547518D01*
X116554842Y-74609830D01*
X116554913Y-74658109D01*
X116555203Y-74658139D01*
X116544500Y-74762600D01*
X116544500Y-76113400D01*
X116544837Y-76116646D01*
X116544837Y-76116650D01*
X116554758Y-76212264D01*
X116555474Y-76219166D01*
X116557655Y-76225702D01*
X116557655Y-76225704D01*
X116592899Y-76331341D01*
X116611450Y-76386946D01*
X116704522Y-76537348D01*
X116829697Y-76662305D01*
X116835927Y-76666145D01*
X116835928Y-76666146D01*
X116973090Y-76750694D01*
X116980262Y-76755115D01*
X117044471Y-76776412D01*
X117141611Y-76808632D01*
X117141613Y-76808632D01*
X117148139Y-76810797D01*
X117154975Y-76811497D01*
X117154978Y-76811498D01*
X117198031Y-76815909D01*
X117252600Y-76821500D01*
X118153400Y-76821500D01*
X118156646Y-76821163D01*
X118156650Y-76821163D01*
X118252308Y-76811238D01*
X118252312Y-76811237D01*
X118259166Y-76810526D01*
X118265702Y-76808345D01*
X118265704Y-76808345D01*
X118409064Y-76760516D01*
X118426946Y-76754550D01*
X118577348Y-76661478D01*
X118702305Y-76536303D01*
X118739726Y-76475596D01*
X118795115Y-76385738D01*
X118797040Y-76386924D01*
X118836705Y-76341880D01*
X118904984Y-76322423D01*
X118930172Y-76325172D01*
X118954320Y-76330305D01*
X119024056Y-76345128D01*
X119024061Y-76345128D01*
X119030513Y-76346500D01*
X119221487Y-76346500D01*
X119227939Y-76345128D01*
X119227944Y-76345128D01*
X119321827Y-76325172D01*
X119408288Y-76306794D01*
X119427818Y-76298099D01*
X119495358Y-76268028D01*
X119522127Y-76256110D01*
X119592493Y-76246676D01*
X119656790Y-76276782D01*
X119692898Y-76331340D01*
X119711450Y-76386946D01*
X119804522Y-76537348D01*
X119929697Y-76662305D01*
X119935927Y-76666145D01*
X119935928Y-76666146D01*
X120073090Y-76750694D01*
X120080262Y-76755115D01*
X120144471Y-76776412D01*
X120241611Y-76808632D01*
X120241613Y-76808632D01*
X120248139Y-76810797D01*
X120254975Y-76811497D01*
X120254978Y-76811498D01*
X120298031Y-76815909D01*
X120352600Y-76821500D01*
X121253400Y-76821500D01*
X121256646Y-76821163D01*
X121256650Y-76821163D01*
X121352308Y-76811238D01*
X121352312Y-76811237D01*
X121359166Y-76810526D01*
X121365702Y-76808345D01*
X121365704Y-76808345D01*
X121509064Y-76760516D01*
X121526946Y-76754550D01*
X121677348Y-76661478D01*
X121802305Y-76536303D01*
X121838721Y-76477226D01*
X121891275Y-76391968D01*
X121891276Y-76391966D01*
X121895115Y-76385738D01*
X121933080Y-76271277D01*
X121948632Y-76224389D01*
X121948632Y-76224387D01*
X121950797Y-76217861D01*
X121952443Y-76201803D01*
X121961173Y-76116594D01*
X121961173Y-76116589D01*
X121961500Y-76113400D01*
X121961500Y-76112925D01*
X121984783Y-76046381D01*
X122040738Y-76002682D01*
X122082535Y-75995604D01*
X122082447Y-75994672D01*
X122090994Y-75993864D01*
X122099579Y-75994224D01*
X122107943Y-75992262D01*
X122107946Y-75992262D01*
X122142197Y-75984229D01*
X122153865Y-75982066D01*
X122188737Y-75977289D01*
X122188738Y-75977289D01*
X122197247Y-75976123D01*
X122211183Y-75970092D01*
X122232445Y-75963061D01*
X122247222Y-75959595D01*
X122285594Y-75938500D01*
X122296233Y-75933287D01*
X122336424Y-75915895D01*
X122348218Y-75906344D01*
X122366814Y-75893848D01*
X122374332Y-75889715D01*
X122380113Y-75886537D01*
X122388278Y-75879489D01*
X122412961Y-75854806D01*
X122422762Y-75845980D01*
X122447602Y-75825865D01*
X122454278Y-75820459D01*
X122465269Y-75804993D01*
X122478880Y-75788887D01*
X122888171Y-75379596D01*
X122950483Y-75345570D01*
X123021298Y-75350635D01*
X123078134Y-75393182D01*
X123102945Y-75459702D01*
X123102553Y-75482079D01*
X123097251Y-75531695D01*
X123097548Y-75536848D01*
X123097548Y-75536851D01*
X123103202Y-75634908D01*
X123110110Y-75754715D01*
X123111247Y-75759761D01*
X123111248Y-75759767D01*
X123130678Y-75845980D01*
X123159222Y-75972639D01*
X123243266Y-76179616D01*
X123290141Y-76256110D01*
X123357291Y-76365688D01*
X123359987Y-76370088D01*
X123506250Y-76538938D01*
X123678126Y-76681632D01*
X123712645Y-76701803D01*
X123751445Y-76724476D01*
X123800169Y-76776114D01*
X123813240Y-76845897D01*
X123786509Y-76911669D01*
X123746055Y-76945027D01*
X123733607Y-76951507D01*
X123729474Y-76954610D01*
X123729471Y-76954612D01*
X123568193Y-77075703D01*
X123554965Y-77085635D01*
X123400629Y-77247138D01*
X123397715Y-77251410D01*
X123397714Y-77251411D01*
X123365160Y-77299134D01*
X123274743Y-77431680D01*
X123260385Y-77462612D01*
X123193621Y-77606444D01*
X123180688Y-77634305D01*
X123120989Y-77849570D01*
X123097251Y-78071695D01*
X123097548Y-78076848D01*
X123097548Y-78076851D01*
X123107344Y-78246749D01*
X123110110Y-78294715D01*
X123111247Y-78299761D01*
X123111248Y-78299767D01*
X123122469Y-78349556D01*
X123159222Y-78512639D01*
X123202188Y-78618452D01*
X123235951Y-78701600D01*
X123243266Y-78719616D01*
X123273601Y-78769118D01*
X123344692Y-78885128D01*
X123359987Y-78910088D01*
X123506250Y-79078938D01*
X123678126Y-79221632D01*
X123871000Y-79334338D01*
X124079692Y-79414030D01*
X124084760Y-79415061D01*
X124084763Y-79415062D01*
X124179862Y-79434410D01*
X124298597Y-79458567D01*
X124303772Y-79458757D01*
X124303774Y-79458757D01*
X124516673Y-79466564D01*
X124516677Y-79466564D01*
X124521837Y-79466753D01*
X124526957Y-79466097D01*
X124526959Y-79466097D01*
X124738288Y-79439025D01*
X124738289Y-79439025D01*
X124743416Y-79438368D01*
X124748366Y-79436883D01*
X124952429Y-79375661D01*
X124952434Y-79375659D01*
X124957384Y-79374174D01*
X125157994Y-79275896D01*
X125339860Y-79146173D01*
X125349693Y-79136375D01*
X125494435Y-78992137D01*
X125498096Y-78988489D01*
X125546753Y-78920776D01*
X125628453Y-78807077D01*
X125629640Y-78807930D01*
X125676960Y-78764362D01*
X125746897Y-78752145D01*
X125812338Y-78779678D01*
X125840166Y-78811511D01*
X125897694Y-78905388D01*
X125903777Y-78913699D01*
X126043213Y-79074667D01*
X126050580Y-79081883D01*
X126214434Y-79217916D01*
X126222881Y-79223831D01*
X126406756Y-79331279D01*
X126416042Y-79335729D01*
X126615001Y-79411703D01*
X126624899Y-79414579D01*
X126728250Y-79435606D01*
X126742299Y-79434410D01*
X126746000Y-79424065D01*
X126746000Y-79423517D01*
X127254000Y-79423517D01*
X127258064Y-79437359D01*
X127271478Y-79439393D01*
X127278184Y-79438534D01*
X127288262Y-79436392D01*
X127492255Y-79375191D01*
X127501842Y-79371433D01*
X127693095Y-79277739D01*
X127701945Y-79272464D01*
X127875328Y-79148792D01*
X127883200Y-79142139D01*
X128034052Y-78991812D01*
X128040730Y-78983965D01*
X128165003Y-78811020D01*
X128170313Y-78802183D01*
X128264670Y-78611267D01*
X128268469Y-78601672D01*
X128330377Y-78397910D01*
X128332555Y-78387837D01*
X128333986Y-78376962D01*
X128331775Y-78362778D01*
X128318617Y-78359000D01*
X127272115Y-78359000D01*
X127256876Y-78363475D01*
X127255671Y-78364865D01*
X127254000Y-78372548D01*
X127254000Y-79423517D01*
X126746000Y-79423517D01*
X126746000Y-77977000D01*
X126766002Y-77908879D01*
X126819658Y-77862386D01*
X126872000Y-77851000D01*
X128318344Y-77851000D01*
X128331875Y-77847027D01*
X128333180Y-77837947D01*
X128291214Y-77670875D01*
X128287894Y-77661124D01*
X128202972Y-77465814D01*
X128198105Y-77456739D01*
X128082426Y-77277926D01*
X128076136Y-77269757D01*
X127932806Y-77112240D01*
X127925273Y-77105215D01*
X127758139Y-76973222D01*
X127749556Y-76967520D01*
X127712602Y-76947120D01*
X127662631Y-76896687D01*
X127647859Y-76827245D01*
X127672975Y-76760839D01*
X127700327Y-76734232D01*
X127765680Y-76687616D01*
X127879860Y-76606173D01*
X127944777Y-76541483D01*
X128034435Y-76452137D01*
X128038096Y-76448489D01*
X128087312Y-76379998D01*
X128165435Y-76271277D01*
X128168453Y-76267077D01*
X128178400Y-76246952D01*
X128265136Y-76071453D01*
X128265137Y-76071451D01*
X128267430Y-76066811D01*
X128314925Y-75910488D01*
X128330865Y-75858023D01*
X128330865Y-75858021D01*
X128332370Y-75853069D01*
X128361529Y-75631590D01*
X128362642Y-75586054D01*
X128363074Y-75568365D01*
X128363074Y-75568361D01*
X128363156Y-75565000D01*
X128344852Y-75342361D01*
X128290431Y-75125702D01*
X128201354Y-74920840D01*
X128133761Y-74816357D01*
X128082822Y-74737617D01*
X128082820Y-74737614D01*
X128080014Y-74733277D01*
X127929670Y-74568051D01*
X127925619Y-74564852D01*
X127925615Y-74564848D01*
X127758414Y-74432800D01*
X127758410Y-74432798D01*
X127754359Y-74429598D01*
X127713053Y-74406796D01*
X127663084Y-74356364D01*
X127648312Y-74286921D01*
X127673428Y-74220516D01*
X127700780Y-74193909D01*
X127769509Y-74144885D01*
X127879860Y-74066173D01*
X127898320Y-74047778D01*
X127972730Y-73973627D01*
X128038096Y-73908489D01*
X128086832Y-73840666D01*
X128165435Y-73731277D01*
X128168453Y-73727077D01*
X128181045Y-73701600D01*
X128265136Y-73531453D01*
X128265137Y-73531451D01*
X128267430Y-73526811D01*
X128332370Y-73313069D01*
X128361529Y-73091590D01*
X128361611Y-73088240D01*
X128363074Y-73028365D01*
X128363074Y-73028361D01*
X128363156Y-73025000D01*
X128344852Y-72802361D01*
X128290431Y-72585702D01*
X128201354Y-72380840D01*
X128143845Y-72291944D01*
X128082822Y-72197617D01*
X128082820Y-72197614D01*
X128080014Y-72193277D01*
X127929670Y-72028051D01*
X127925619Y-72024852D01*
X127925615Y-72024848D01*
X127758414Y-71892800D01*
X127758410Y-71892798D01*
X127754359Y-71889598D01*
X127713053Y-71866796D01*
X127663084Y-71816364D01*
X127648312Y-71746921D01*
X127673428Y-71680516D01*
X127700780Y-71653909D01*
X127769337Y-71605008D01*
X127879860Y-71526173D01*
X127895736Y-71510353D01*
X128010894Y-71395596D01*
X128038096Y-71368489D01*
X128097594Y-71285689D01*
X128165435Y-71191277D01*
X128168453Y-71187077D01*
X128172961Y-71177957D01*
X128265136Y-70991453D01*
X128265137Y-70991451D01*
X128267430Y-70986811D01*
X128332370Y-70773069D01*
X128361529Y-70551590D01*
X128363156Y-70485000D01*
X128344852Y-70262361D01*
X128290431Y-70045702D01*
X128201354Y-69840840D01*
X128133761Y-69736357D01*
X128082822Y-69657617D01*
X128082820Y-69657614D01*
X128080014Y-69653277D01*
X127929670Y-69488051D01*
X127925619Y-69484852D01*
X127925615Y-69484848D01*
X127758414Y-69352800D01*
X127758410Y-69352798D01*
X127754359Y-69349598D01*
X127712569Y-69326529D01*
X127662598Y-69276097D01*
X127647826Y-69206654D01*
X127672942Y-69140248D01*
X127700294Y-69113641D01*
X127875328Y-68988792D01*
X127883200Y-68982139D01*
X128034052Y-68831812D01*
X128040730Y-68823965D01*
X128165003Y-68651020D01*
X128170313Y-68642183D01*
X128264670Y-68451267D01*
X128268469Y-68441672D01*
X128330377Y-68237910D01*
X128332555Y-68227837D01*
X128333986Y-68216962D01*
X128331775Y-68202778D01*
X128318617Y-68199000D01*
X126872000Y-68199000D01*
X126803879Y-68178998D01*
X126757386Y-68125342D01*
X126746000Y-68073000D01*
X126746000Y-67672885D01*
X127254000Y-67672885D01*
X127258475Y-67688124D01*
X127259865Y-67689329D01*
X127267548Y-67691000D01*
X128318344Y-67691000D01*
X128331875Y-67687027D01*
X128333180Y-67677947D01*
X128291214Y-67510875D01*
X128287894Y-67501124D01*
X128202972Y-67305814D01*
X128198105Y-67296739D01*
X128082426Y-67117926D01*
X128076136Y-67109757D01*
X127932806Y-66952240D01*
X127925273Y-66945215D01*
X127758139Y-66813222D01*
X127749552Y-66807517D01*
X127563117Y-66704599D01*
X127553705Y-66700369D01*
X127352959Y-66629280D01*
X127342988Y-66626646D01*
X127271837Y-66613972D01*
X127258540Y-66615432D01*
X127254000Y-66629989D01*
X127254000Y-67672885D01*
X126746000Y-67672885D01*
X126746000Y-66628102D01*
X126742082Y-66614758D01*
X126727806Y-66612771D01*
X126689324Y-66618660D01*
X126679288Y-66621051D01*
X126476868Y-66687212D01*
X126467359Y-66691209D01*
X126278463Y-66789542D01*
X126269738Y-66795036D01*
X126099433Y-66922905D01*
X126091726Y-66929748D01*
X126014478Y-67010584D01*
X125952954Y-67046014D01*
X125882042Y-67042557D01*
X125824255Y-67001311D01*
X125805402Y-66967763D01*
X125763767Y-66856703D01*
X125760615Y-66848295D01*
X125673261Y-66731739D01*
X125556705Y-66644385D01*
X125420316Y-66593255D01*
X125358134Y-66586500D01*
X123561866Y-66586500D01*
X123499684Y-66593255D01*
X123363295Y-66644385D01*
X123246739Y-66731739D01*
X123159385Y-66848295D01*
X123108255Y-66984684D01*
X123101500Y-67046866D01*
X123101500Y-67289122D01*
X123081498Y-67357243D01*
X123027842Y-67403736D01*
X122957568Y-67413840D01*
X122892988Y-67384346D01*
X122881864Y-67373432D01*
X122867288Y-67357243D01*
X122791315Y-67272866D01*
X122789675Y-67271045D01*
X122789674Y-67271044D01*
X122785253Y-67266134D01*
X122653889Y-67170692D01*
X122636094Y-67157763D01*
X122636093Y-67157762D01*
X122630752Y-67153882D01*
X122624724Y-67151198D01*
X122624722Y-67151197D01*
X122462319Y-67078891D01*
X122462318Y-67078891D01*
X122456288Y-67076206D01*
X122334331Y-67050283D01*
X122275944Y-67037872D01*
X122275939Y-67037872D01*
X122269487Y-67036500D01*
X122078513Y-67036500D01*
X122072060Y-67037872D01*
X122072056Y-67037872D01*
X122024753Y-67047927D01*
X121953962Y-67042525D01*
X121897329Y-66999708D01*
X121891412Y-66990983D01*
X121805332Y-66851880D01*
X121801478Y-66845652D01*
X121676303Y-66720695D01*
X121650191Y-66704599D01*
X121531968Y-66631725D01*
X121531966Y-66631724D01*
X121525738Y-66627885D01*
X121421331Y-66593255D01*
X121364389Y-66574368D01*
X121364387Y-66574368D01*
X121357861Y-66572203D01*
X121351025Y-66571503D01*
X121351022Y-66571502D01*
X121307969Y-66567091D01*
X121253400Y-66561500D01*
X120352600Y-66561500D01*
X120349354Y-66561837D01*
X120349350Y-66561837D01*
X120253692Y-66571762D01*
X120253688Y-66571763D01*
X120246834Y-66572474D01*
X120240298Y-66574655D01*
X120240296Y-66574655D01*
X120122450Y-66613972D01*
X120079054Y-66628450D01*
X119928652Y-66721522D01*
X119803695Y-66846697D01*
X119799855Y-66852927D01*
X119799854Y-66852928D01*
X119729069Y-66967763D01*
X119710885Y-66997262D01*
X119655203Y-67165139D01*
X119654503Y-67171975D01*
X119654502Y-67171978D01*
X119653198Y-67184707D01*
X119644500Y-67269600D01*
X119644500Y-68268543D01*
X119624498Y-68336664D01*
X119607595Y-68357638D01*
X119367158Y-68598075D01*
X119304846Y-68632101D01*
X119278063Y-68634980D01*
X118987500Y-68634980D01*
X118919379Y-68614978D01*
X118872886Y-68561322D01*
X118861500Y-68508980D01*
X118861500Y-67269600D01*
X118861163Y-67266350D01*
X118851238Y-67170692D01*
X118851237Y-67170688D01*
X118850526Y-67163834D01*
X118843355Y-67142338D01*
X118796868Y-67003002D01*
X118794550Y-66996054D01*
X118701478Y-66845652D01*
X118576303Y-66720695D01*
X118550191Y-66704599D01*
X118431968Y-66631725D01*
X118431966Y-66631724D01*
X118425738Y-66627885D01*
X118321331Y-66593255D01*
X118264389Y-66574368D01*
X118264387Y-66574368D01*
X118257861Y-66572203D01*
X118251025Y-66571503D01*
X118251022Y-66571502D01*
X118207969Y-66567091D01*
X118153400Y-66561500D01*
X117252600Y-66561500D01*
X117249354Y-66561837D01*
X117249350Y-66561837D01*
X117153692Y-66571762D01*
X117153688Y-66571763D01*
X117146834Y-66572474D01*
X117140298Y-66574655D01*
X117140296Y-66574655D01*
X117022450Y-66613972D01*
X116979054Y-66628450D01*
X116828652Y-66721522D01*
X116703695Y-66846697D01*
X116699855Y-66852927D01*
X116699854Y-66852928D01*
X116629069Y-66967763D01*
X116610885Y-66997262D01*
X116601245Y-67026327D01*
X116599610Y-67031255D01*
X116559179Y-67089615D01*
X116493615Y-67116852D01*
X116428769Y-67106695D01*
X116366323Y-67078892D01*
X116366315Y-67078889D01*
X116360288Y-67076206D01*
X116238331Y-67050283D01*
X116179944Y-67037872D01*
X116179939Y-67037872D01*
X116173487Y-67036500D01*
X115982513Y-67036500D01*
X115976061Y-67037872D01*
X115976056Y-67037872D01*
X115917669Y-67050283D01*
X115795712Y-67076206D01*
X115789682Y-67078891D01*
X115789681Y-67078891D01*
X115627278Y-67151197D01*
X115627276Y-67151198D01*
X115621248Y-67153882D01*
X115615907Y-67157762D01*
X115615906Y-67157763D01*
X115598111Y-67170692D01*
X115466747Y-67266134D01*
X115462326Y-67271044D01*
X115462325Y-67271045D01*
X115360309Y-67384346D01*
X115338960Y-67408056D01*
X115243473Y-67573444D01*
X115184458Y-67755072D01*
X115183768Y-67761633D01*
X115183768Y-67761635D01*
X115181378Y-67784375D01*
X115164496Y-67945000D01*
X115165186Y-67951565D01*
X115168942Y-67987297D01*
X115184458Y-68134928D01*
X115243473Y-68316556D01*
X115246776Y-68322278D01*
X115246777Y-68322279D01*
X115318196Y-68445980D01*
X115334934Y-68514975D01*
X115311714Y-68582067D01*
X115255906Y-68625954D01*
X115209077Y-68634980D01*
X114052468Y-68634980D01*
X114047191Y-68634869D01*
X114045505Y-68634798D01*
X113984852Y-68632256D01*
X113976487Y-68634218D01*
X113942228Y-68642253D01*
X113930556Y-68644416D01*
X113895696Y-68649191D01*
X113895695Y-68649191D01*
X113887184Y-68650357D01*
X113879297Y-68653770D01*
X113873253Y-68656385D01*
X113851988Y-68663418D01*
X113837208Y-68666885D01*
X113798832Y-68687983D01*
X113788198Y-68693193D01*
X113748007Y-68710585D01*
X113741330Y-68715992D01*
X113736214Y-68720135D01*
X113717618Y-68732631D01*
X113704318Y-68739943D01*
X113696153Y-68746991D01*
X113671470Y-68771674D01*
X113661670Y-68780499D01*
X113630153Y-68806021D01*
X113625177Y-68813023D01*
X113625176Y-68813024D01*
X113619162Y-68821487D01*
X113605551Y-68837593D01*
X111164273Y-71278871D01*
X111101961Y-71312897D01*
X111075178Y-71315776D01*
X110488391Y-71315776D01*
X110484305Y-71316314D01*
X110484304Y-71316314D01*
X110468804Y-71318355D01*
X110374311Y-71330795D01*
X110370858Y-71332225D01*
X110301978Y-71330585D01*
X110243182Y-71290791D01*
X110215234Y-71225527D01*
X110218444Y-71180635D01*
X110220116Y-71176600D01*
X110235135Y-71062520D01*
X110235135Y-69536032D01*
X110220116Y-69421952D01*
X110210501Y-69398738D01*
X110182930Y-69332176D01*
X110161321Y-69280008D01*
X110124083Y-69231478D01*
X110098482Y-69165259D01*
X110112746Y-69095710D01*
X110162347Y-69044914D01*
X110224045Y-69028775D01*
X110370339Y-69028775D01*
X110375614Y-69028886D01*
X110437963Y-69031499D01*
X110446327Y-69029537D01*
X110446330Y-69029537D01*
X110480581Y-69021504D01*
X110492249Y-69019341D01*
X110527121Y-69014564D01*
X110527122Y-69014564D01*
X110535631Y-69013398D01*
X110549567Y-69007367D01*
X110570829Y-69000336D01*
X110585606Y-68996870D01*
X110623978Y-68975775D01*
X110634617Y-68970562D01*
X110674808Y-68953170D01*
X110686602Y-68943619D01*
X110705198Y-68931123D01*
X110712716Y-68926990D01*
X110718497Y-68923812D01*
X110726662Y-68916764D01*
X110751345Y-68892081D01*
X110761146Y-68883255D01*
X110785986Y-68863140D01*
X110792662Y-68857734D01*
X110803654Y-68842267D01*
X110817264Y-68826162D01*
X113918728Y-65724698D01*
X113922537Y-65721045D01*
X113962162Y-65684608D01*
X113968489Y-65678790D01*
X113991555Y-65641589D01*
X113998278Y-65631807D01*
X114019557Y-65603773D01*
X114019560Y-65603768D01*
X114024751Y-65596929D01*
X114030339Y-65582815D01*
X114040405Y-65562802D01*
X114043875Y-65557205D01*
X114048402Y-65549904D01*
X114060617Y-65507861D01*
X114064461Y-65496634D01*
X114077414Y-65463918D01*
X114077416Y-65463909D01*
X114080576Y-65455928D01*
X114081474Y-65447387D01*
X114081475Y-65447382D01*
X114082164Y-65440831D01*
X114086475Y-65418858D01*
X114088867Y-65410624D01*
X114088869Y-65410613D01*
X114090710Y-65404276D01*
X114091500Y-65393519D01*
X114091500Y-65358602D01*
X114092190Y-65345431D01*
X114095530Y-65313654D01*
X114096428Y-65305110D01*
X114093265Y-65286410D01*
X114091500Y-65265396D01*
X114091500Y-53990045D01*
X114091611Y-53984769D01*
X114093864Y-53931006D01*
X114094224Y-53922421D01*
X114084229Y-53879803D01*
X114082066Y-53868135D01*
X114077289Y-53833263D01*
X114077289Y-53833262D01*
X114076123Y-53824753D01*
X114070092Y-53810817D01*
X114063061Y-53789555D01*
X114059595Y-53774778D01*
X114038500Y-53736406D01*
X114033285Y-53725762D01*
X114015895Y-53685576D01*
X114006344Y-53673782D01*
X113993848Y-53655186D01*
X113989715Y-53647668D01*
X113986537Y-53641887D01*
X113979489Y-53633722D01*
X113954806Y-53609039D01*
X113945980Y-53599238D01*
X113925865Y-53574398D01*
X113920459Y-53567722D01*
X113904993Y-53556731D01*
X113888887Y-53543120D01*
X113549859Y-53204092D01*
X113546206Y-53200283D01*
X113509769Y-53160658D01*
X113503951Y-53154331D01*
X113474843Y-53136283D01*
X113466750Y-53131265D01*
X113456968Y-53124542D01*
X113428934Y-53103263D01*
X113428929Y-53103260D01*
X113422090Y-53098069D01*
X113407976Y-53092481D01*
X113387963Y-53082415D01*
X113382366Y-53078945D01*
X113382367Y-53078945D01*
X113375065Y-53074418D01*
X113333022Y-53062203D01*
X113321795Y-53058359D01*
X113289079Y-53045406D01*
X113289070Y-53045404D01*
X113281089Y-53042244D01*
X113272548Y-53041346D01*
X113272543Y-53041345D01*
X113265992Y-53040656D01*
X113244019Y-53036345D01*
X113235785Y-53033953D01*
X113235774Y-53033951D01*
X113229437Y-53032110D01*
X113221694Y-53031541D01*
X113220985Y-53031489D01*
X113220977Y-53031489D01*
X113218680Y-53031320D01*
X113183762Y-53031320D01*
X113170591Y-53030630D01*
X113138814Y-53027290D01*
X113130270Y-53026392D01*
X113121798Y-53027825D01*
X113121797Y-53027825D01*
X113111570Y-53029555D01*
X113090556Y-53031320D01*
X104988556Y-53031320D01*
X104983280Y-53031209D01*
X104920932Y-53028596D01*
X104912568Y-53030558D01*
X104912565Y-53030558D01*
X104878314Y-53038591D01*
X104866646Y-53040754D01*
X104831774Y-53045531D01*
X104831773Y-53045531D01*
X104823264Y-53046697D01*
X104809328Y-53052728D01*
X104788066Y-53059759D01*
X104773289Y-53063225D01*
X104734917Y-53084320D01*
X104724278Y-53089533D01*
X104684087Y-53106925D01*
X104677410Y-53112332D01*
X104672294Y-53116475D01*
X104653698Y-53128971D01*
X104640398Y-53136283D01*
X104632233Y-53143331D01*
X104607550Y-53168014D01*
X104597750Y-53176839D01*
X104566233Y-53202361D01*
X104561257Y-53209363D01*
X104561256Y-53209364D01*
X104555242Y-53217827D01*
X104541631Y-53233933D01*
X104541476Y-53234088D01*
X104479164Y-53268114D01*
X104419772Y-53266700D01*
X104267087Y-53225788D01*
X104039000Y-53205833D01*
X103810913Y-53225788D01*
X103805600Y-53227212D01*
X103805598Y-53227212D01*
X103595067Y-53283624D01*
X103595065Y-53283625D01*
X103589757Y-53285047D01*
X103584776Y-53287370D01*
X103584775Y-53287370D01*
X103387238Y-53379482D01*
X103387233Y-53379485D01*
X103382251Y-53381808D01*
X103277389Y-53455233D01*
X103199211Y-53509974D01*
X103199208Y-53509976D01*
X103194700Y-53513133D01*
X103032802Y-53675031D01*
X103029645Y-53679539D01*
X103029643Y-53679542D01*
X102997213Y-53725857D01*
X102941756Y-53770185D01*
X102871136Y-53777494D01*
X102807776Y-53745463D01*
X102790787Y-53725857D01*
X102758357Y-53679542D01*
X102758355Y-53679539D01*
X102755198Y-53675031D01*
X102593300Y-53513133D01*
X102588792Y-53509976D01*
X102588789Y-53509974D01*
X102510611Y-53455233D01*
X102405749Y-53381808D01*
X102400767Y-53379485D01*
X102400762Y-53379482D01*
X102203225Y-53287370D01*
X102203224Y-53287370D01*
X102198243Y-53285047D01*
X102192935Y-53283625D01*
X102192933Y-53283624D01*
X101982402Y-53227212D01*
X101982400Y-53227212D01*
X101977087Y-53225788D01*
X101749000Y-53205833D01*
X101520913Y-53225788D01*
X101515600Y-53227212D01*
X101515598Y-53227212D01*
X101305067Y-53283624D01*
X101305065Y-53283625D01*
X101299757Y-53285047D01*
X101294776Y-53287370D01*
X101294775Y-53287370D01*
X101097238Y-53379482D01*
X101097233Y-53379485D01*
X101092251Y-53381808D01*
X100987389Y-53455233D01*
X100909211Y-53509974D01*
X100909208Y-53509976D01*
X100904700Y-53513133D01*
X100742802Y-53675031D01*
X100739645Y-53679539D01*
X100739643Y-53679542D01*
X100707213Y-53725857D01*
X100651756Y-53770185D01*
X100581136Y-53777494D01*
X100517776Y-53745463D01*
X100500787Y-53725857D01*
X100468357Y-53679542D01*
X100468355Y-53679539D01*
X100465198Y-53675031D01*
X100303300Y-53513133D01*
X100298792Y-53509976D01*
X100298789Y-53509974D01*
X100220611Y-53455233D01*
X100115749Y-53381808D01*
X100110767Y-53379485D01*
X100110762Y-53379482D01*
X99913225Y-53287370D01*
X99913224Y-53287370D01*
X99908243Y-53285047D01*
X99902935Y-53283625D01*
X99902933Y-53283624D01*
X99692402Y-53227212D01*
X99692400Y-53227212D01*
X99687087Y-53225788D01*
X99459000Y-53205833D01*
X99230913Y-53225788D01*
X99225600Y-53227212D01*
X99225598Y-53227212D01*
X99015067Y-53283624D01*
X99015065Y-53283625D01*
X99009757Y-53285047D01*
X99004776Y-53287370D01*
X99004775Y-53287370D01*
X98807238Y-53379482D01*
X98807233Y-53379485D01*
X98802251Y-53381808D01*
X98697389Y-53455233D01*
X98619211Y-53509974D01*
X98619208Y-53509976D01*
X98614700Y-53513133D01*
X98452802Y-53675031D01*
X98449645Y-53679539D01*
X98449643Y-53679542D01*
X98417280Y-53725762D01*
X98321477Y-53862582D01*
X98319154Y-53867564D01*
X98319151Y-53867569D01*
X98263265Y-53987418D01*
X98224716Y-54070088D01*
X98223294Y-54075396D01*
X98223293Y-54075398D01*
X98186696Y-54211978D01*
X98165457Y-54291244D01*
X98145502Y-54519331D01*
X98165457Y-54747418D01*
X98166881Y-54752731D01*
X98166881Y-54752733D01*
X98213206Y-54925617D01*
X98224716Y-54968574D01*
X98227039Y-54973555D01*
X98227039Y-54973556D01*
X98249730Y-55022217D01*
X98260391Y-55092409D01*
X98231411Y-55157222D01*
X98171991Y-55196078D01*
X98146516Y-55200988D01*
X98091480Y-55205803D01*
X98080688Y-55207706D01*
X97870239Y-55264095D01*
X97859947Y-55267841D01*
X97662489Y-55359917D01*
X97652994Y-55365400D01*
X97600952Y-55401840D01*
X97592576Y-55412319D01*
X97599644Y-55425765D01*
X98584115Y-56410236D01*
X98618141Y-56472548D01*
X98613076Y-56543363D01*
X98584115Y-56588426D01*
X97598923Y-57573618D01*
X97592493Y-57585393D01*
X97601789Y-57597408D01*
X97652994Y-57633262D01*
X97662489Y-57638745D01*
X97859947Y-57730821D01*
X97870239Y-57734567D01*
X98057111Y-57784639D01*
X98117734Y-57821591D01*
X98148755Y-57885451D01*
X98150500Y-57906346D01*
X98150500Y-59327465D01*
X98157255Y-59389647D01*
X98208385Y-59526036D01*
X98295739Y-59642592D01*
X98412295Y-59729946D01*
X98548684Y-59781076D01*
X98610866Y-59787831D01*
X99930116Y-59787831D01*
X99998237Y-59807833D01*
X100022864Y-59828545D01*
X100037380Y-59844331D01*
X100061407Y-59859228D01*
X100074581Y-59867397D01*
X100084363Y-59874120D01*
X100112397Y-59895399D01*
X100112402Y-59895402D01*
X100119241Y-59900593D01*
X100127404Y-59903825D01*
X100127720Y-59904032D01*
X100134710Y-59907971D01*
X100134441Y-59908448D01*
X100170114Y-59931881D01*
X100275433Y-60037200D01*
X100309459Y-60099512D01*
X100311648Y-60139465D01*
X100309030Y-60164375D01*
X100305496Y-60198000D01*
X100306186Y-60204565D01*
X100323290Y-60367297D01*
X100325458Y-60387928D01*
X100327498Y-60394206D01*
X100336218Y-60421044D01*
X100338245Y-60492012D01*
X100301583Y-60552809D01*
X100237871Y-60584135D01*
X100216385Y-60585980D01*
X97900136Y-60585980D01*
X97894860Y-60585869D01*
X97832512Y-60583256D01*
X97824148Y-60585218D01*
X97824145Y-60585218D01*
X97789894Y-60593251D01*
X97778226Y-60595414D01*
X97743354Y-60600191D01*
X97743353Y-60600191D01*
X97734844Y-60601357D01*
X97720908Y-60607388D01*
X97699646Y-60614419D01*
X97684869Y-60617885D01*
X97646497Y-60638980D01*
X97635858Y-60644193D01*
X97595667Y-60661585D01*
X97588990Y-60666992D01*
X97583874Y-60671135D01*
X97565278Y-60683631D01*
X97551978Y-60690943D01*
X97543813Y-60697991D01*
X97519130Y-60722674D01*
X97509328Y-60731500D01*
X97502016Y-60737421D01*
X97436488Y-60764746D01*
X97422723Y-60765500D01*
X96425171Y-60765500D01*
X96421925Y-60765837D01*
X96421921Y-60765837D01*
X96326263Y-60775762D01*
X96326259Y-60775763D01*
X96319405Y-60776474D01*
X96312869Y-60778655D01*
X96312867Y-60778655D01*
X96234349Y-60804851D01*
X96151625Y-60832450D01*
X96001223Y-60925522D01*
X95996050Y-60930704D01*
X95946945Y-60979895D01*
X95884663Y-61013974D01*
X95813843Y-61008971D01*
X95768756Y-60980051D01*
X95713303Y-60924695D01*
X95707072Y-60920854D01*
X95568968Y-60835725D01*
X95568966Y-60835724D01*
X95562738Y-60831885D01*
X95402254Y-60778655D01*
X95401389Y-60778368D01*
X95401387Y-60778368D01*
X95394861Y-60776203D01*
X95388025Y-60775503D01*
X95388022Y-60775502D01*
X95340088Y-60770591D01*
X95290400Y-60765500D01*
X93939600Y-60765500D01*
X93936354Y-60765837D01*
X93936350Y-60765837D01*
X93840692Y-60775762D01*
X93840688Y-60775763D01*
X93833834Y-60776474D01*
X93827298Y-60778655D01*
X93827296Y-60778655D01*
X93748778Y-60804851D01*
X93666054Y-60832450D01*
X93515652Y-60925522D01*
X93390695Y-61050697D01*
X93297885Y-61201262D01*
X93242203Y-61369139D01*
X93231500Y-61473600D01*
X93231500Y-61955959D01*
X93211498Y-62024080D01*
X93157842Y-62070573D01*
X93087568Y-62080677D01*
X93022988Y-62051183D01*
X93016405Y-62045054D01*
X87843109Y-56871758D01*
X87809083Y-56809446D01*
X87814148Y-56738631D01*
X87843264Y-56693412D01*
X87897053Y-56639810D01*
X87903731Y-56631963D01*
X87995102Y-56504806D01*
X97001483Y-56504806D01*
X97020472Y-56721850D01*
X97022375Y-56732643D01*
X97078764Y-56943092D01*
X97082510Y-56953384D01*
X97174586Y-57150842D01*
X97180069Y-57160337D01*
X97216509Y-57212379D01*
X97226988Y-57220755D01*
X97240434Y-57213687D01*
X97941978Y-56512143D01*
X97949592Y-56498199D01*
X97949461Y-56496366D01*
X97945210Y-56489751D01*
X97239713Y-55784254D01*
X97227938Y-55777824D01*
X97215923Y-55787120D01*
X97180069Y-55838325D01*
X97174586Y-55847820D01*
X97082510Y-56045278D01*
X97078764Y-56055570D01*
X97022375Y-56266019D01*
X97020472Y-56276812D01*
X97001483Y-56493856D01*
X97001483Y-56504806D01*
X87995102Y-56504806D01*
X88028003Y-56459020D01*
X88033313Y-56450183D01*
X88127670Y-56259267D01*
X88131469Y-56249672D01*
X88193377Y-56045910D01*
X88195555Y-56035837D01*
X88196986Y-56024962D01*
X88194775Y-56010778D01*
X88181617Y-56007000D01*
X87135115Y-56007000D01*
X87119876Y-56011475D01*
X87118671Y-56012865D01*
X87117000Y-56020548D01*
X87117000Y-56218011D01*
X87096998Y-56286132D01*
X87043342Y-56332625D01*
X86991000Y-56344011D01*
X86735000Y-56344011D01*
X86666879Y-56324009D01*
X86620386Y-56270353D01*
X86609000Y-56218011D01*
X86609000Y-55480885D01*
X87117000Y-55480885D01*
X87121475Y-55496124D01*
X87122865Y-55497329D01*
X87130548Y-55499000D01*
X88181344Y-55499000D01*
X88194875Y-55495027D01*
X88196180Y-55485947D01*
X88154214Y-55318875D01*
X88150894Y-55309124D01*
X88065972Y-55113814D01*
X88061105Y-55104739D01*
X87945426Y-54925926D01*
X87939136Y-54917757D01*
X87795806Y-54760240D01*
X87788273Y-54753215D01*
X87621139Y-54621222D01*
X87612552Y-54615517D01*
X87575116Y-54594851D01*
X87525146Y-54544419D01*
X87510374Y-54474976D01*
X87535490Y-54408571D01*
X87562842Y-54381964D01*
X87738327Y-54256792D01*
X87746200Y-54250139D01*
X87897052Y-54099812D01*
X87903730Y-54091965D01*
X88028003Y-53919020D01*
X88033313Y-53910183D01*
X88127670Y-53719267D01*
X88131469Y-53709672D01*
X88193377Y-53505910D01*
X88195555Y-53495837D01*
X88196986Y-53484962D01*
X88194775Y-53470778D01*
X88181617Y-53467000D01*
X87135115Y-53467000D01*
X87119876Y-53471475D01*
X87118671Y-53472865D01*
X87117000Y-53480548D01*
X87117000Y-55480885D01*
X86609000Y-55480885D01*
X86609000Y-52940885D01*
X87117000Y-52940885D01*
X87121475Y-52956124D01*
X87122865Y-52957329D01*
X87130548Y-52959000D01*
X88181344Y-52959000D01*
X88194875Y-52955027D01*
X88196180Y-52945947D01*
X88154214Y-52778875D01*
X88150894Y-52769124D01*
X88065972Y-52573814D01*
X88061105Y-52564739D01*
X87945426Y-52385926D01*
X87939136Y-52377757D01*
X87795806Y-52220240D01*
X87788273Y-52213215D01*
X87621139Y-52081222D01*
X87612552Y-52075517D01*
X87426117Y-51972599D01*
X87416705Y-51968369D01*
X87215959Y-51897280D01*
X87205988Y-51894646D01*
X87134837Y-51881972D01*
X87121540Y-51883432D01*
X87117000Y-51897989D01*
X87117000Y-52940885D01*
X86609000Y-52940885D01*
X86609000Y-51896102D01*
X86605082Y-51882758D01*
X86590806Y-51880771D01*
X86552324Y-51886660D01*
X86542288Y-51889051D01*
X86339868Y-51955212D01*
X86330359Y-51959209D01*
X86141463Y-52057542D01*
X86132738Y-52063036D01*
X85962433Y-52190905D01*
X85954726Y-52197748D01*
X85877478Y-52278584D01*
X85815954Y-52314014D01*
X85745042Y-52310557D01*
X85687255Y-52269311D01*
X85668402Y-52235763D01*
X85626767Y-52124703D01*
X85623615Y-52116295D01*
X85536261Y-51999739D01*
X85419705Y-51912385D01*
X85283316Y-51861255D01*
X85221134Y-51854500D01*
X83424866Y-51854500D01*
X83362684Y-51861255D01*
X83226295Y-51912385D01*
X83109739Y-51999739D01*
X83022385Y-52116295D01*
X82971255Y-52252684D01*
X82964500Y-52314866D01*
X82964500Y-54111134D01*
X82971255Y-54173316D01*
X83022385Y-54309705D01*
X83109739Y-54426261D01*
X83226295Y-54513615D01*
X83234704Y-54516767D01*
X83234705Y-54516768D01*
X83343451Y-54557535D01*
X83400216Y-54600176D01*
X83424916Y-54666738D01*
X83409709Y-54736087D01*
X83390316Y-54762568D01*
X83263629Y-54895138D01*
X83137743Y-55079680D01*
X83121899Y-55113814D01*
X83052141Y-55264095D01*
X83043688Y-55282305D01*
X82983989Y-55497570D01*
X82960251Y-55719695D01*
X82960548Y-55724848D01*
X82960548Y-55724851D01*
X82966011Y-55819590D01*
X82973110Y-55942715D01*
X82974247Y-55947761D01*
X82974248Y-55947767D01*
X82987597Y-56007000D01*
X83022222Y-56160639D01*
X83106266Y-56367616D01*
X83132705Y-56410760D01*
X83213964Y-56543363D01*
X83222987Y-56558088D01*
X83369250Y-56726938D01*
X83541126Y-56869632D01*
X83588522Y-56897328D01*
X83614445Y-56912476D01*
X83663169Y-56964114D01*
X83676240Y-57033897D01*
X83649509Y-57099669D01*
X83609055Y-57133027D01*
X83596607Y-57139507D01*
X83592474Y-57142610D01*
X83592471Y-57142612D01*
X83422100Y-57270530D01*
X83417965Y-57273635D01*
X83263629Y-57435138D01*
X83260715Y-57439410D01*
X83260714Y-57439411D01*
X83227626Y-57487916D01*
X83137743Y-57619680D01*
X83043688Y-57822305D01*
X82983989Y-58037570D01*
X82960251Y-58259695D01*
X82973110Y-58482715D01*
X82974247Y-58487761D01*
X82974248Y-58487767D01*
X82978383Y-58506114D01*
X83022222Y-58700639D01*
X83106266Y-58907616D01*
X83108965Y-58912020D01*
X83210132Y-59077110D01*
X83222987Y-59098088D01*
X83369250Y-59266938D01*
X83541126Y-59409632D01*
X83601179Y-59444724D01*
X83614445Y-59452476D01*
X83663169Y-59504114D01*
X83676240Y-59573897D01*
X83649509Y-59639669D01*
X83609055Y-59673027D01*
X83596607Y-59679507D01*
X83592474Y-59682610D01*
X83592471Y-59682612D01*
X83422100Y-59810530D01*
X83417965Y-59813635D01*
X83388631Y-59844331D01*
X83327360Y-59908448D01*
X83263629Y-59975138D01*
X83260715Y-59979410D01*
X83260714Y-59979411D01*
X83241163Y-60008072D01*
X83137743Y-60159680D01*
X83043688Y-60362305D01*
X82983989Y-60577570D01*
X82960251Y-60799695D01*
X82960548Y-60804848D01*
X82960548Y-60804851D01*
X82962171Y-60833000D01*
X82973110Y-61022715D01*
X82974247Y-61027761D01*
X82974248Y-61027767D01*
X82979416Y-61050697D01*
X83022222Y-61240639D01*
X83106266Y-61447616D01*
X83222987Y-61638088D01*
X83369250Y-61806938D01*
X83541126Y-61949632D01*
X83611595Y-61990811D01*
X83614445Y-61992476D01*
X83663169Y-62044114D01*
X83676240Y-62113897D01*
X83649509Y-62179669D01*
X83609055Y-62213027D01*
X83596607Y-62219507D01*
X83592474Y-62222610D01*
X83592471Y-62222612D01*
X83473050Y-62312276D01*
X83417965Y-62353635D01*
X83414393Y-62357373D01*
X83267428Y-62511163D01*
X83263629Y-62515138D01*
X83260715Y-62519410D01*
X83260714Y-62519411D01*
X83202836Y-62604257D01*
X83137743Y-62699680D01*
X83135564Y-62704375D01*
X83059564Y-62868104D01*
X83043688Y-62902305D01*
X82983989Y-63117570D01*
X82960251Y-63339695D01*
X82960548Y-63344848D01*
X82960548Y-63344851D01*
X82965266Y-63426680D01*
X82973110Y-63562715D01*
X82974247Y-63567761D01*
X82974248Y-63567767D01*
X82983599Y-63609259D01*
X83022222Y-63780639D01*
X83073179Y-63906132D01*
X83101626Y-63976188D01*
X83106266Y-63987616D01*
X83222987Y-64178088D01*
X83369250Y-64346938D01*
X83541126Y-64489632D01*
X83611595Y-64530811D01*
X83614445Y-64532476D01*
X83663169Y-64584114D01*
X83676240Y-64653897D01*
X83649509Y-64719669D01*
X83609055Y-64753027D01*
X83596607Y-64759507D01*
X83592474Y-64762610D01*
X83592471Y-64762612D01*
X83422100Y-64890530D01*
X83417965Y-64893635D01*
X83263629Y-65055138D01*
X83137743Y-65239680D01*
X83116052Y-65286410D01*
X83054572Y-65418858D01*
X83043688Y-65442305D01*
X82983989Y-65657570D01*
X82960251Y-65879695D01*
X82973110Y-66102715D01*
X82974247Y-66107761D01*
X82974248Y-66107767D01*
X82994096Y-66195837D01*
X83022222Y-66320639D01*
X83106266Y-66527616D01*
X83148189Y-66596029D01*
X83206516Y-66691209D01*
X83222987Y-66718088D01*
X83369250Y-66886938D01*
X83541126Y-67029632D01*
X83576466Y-67050283D01*
X83614445Y-67072476D01*
X83663169Y-67124114D01*
X83676240Y-67193897D01*
X83649509Y-67259669D01*
X83609055Y-67293027D01*
X83596607Y-67299507D01*
X83592474Y-67302610D01*
X83592471Y-67302612D01*
X83439625Y-67417372D01*
X83417965Y-67433635D01*
X83263629Y-67595138D01*
X83260715Y-67599410D01*
X83260714Y-67599411D01*
X83206951Y-67678225D01*
X83137743Y-67779680D01*
X83121899Y-67813814D01*
X83056621Y-67954444D01*
X83043688Y-67982305D01*
X82983989Y-68197570D01*
X82960251Y-68419695D01*
X82960548Y-68424848D01*
X82960548Y-68424851D01*
X82962071Y-68451267D01*
X82973110Y-68642715D01*
X82974247Y-68647761D01*
X82974248Y-68647767D01*
X82990651Y-68720548D01*
X83022222Y-68860639D01*
X83071558Y-68982139D01*
X83098663Y-69048891D01*
X83106266Y-69067616D01*
X83134470Y-69113641D01*
X83217276Y-69248768D01*
X83222987Y-69258088D01*
X83369250Y-69426938D01*
X83541126Y-69569632D01*
X83611595Y-69610811D01*
X83614445Y-69612476D01*
X83663169Y-69664114D01*
X83676240Y-69733897D01*
X83649509Y-69799669D01*
X83609055Y-69833027D01*
X83596607Y-69839507D01*
X83592474Y-69842610D01*
X83592471Y-69842612D01*
X83588505Y-69845590D01*
X83417965Y-69973635D01*
X83379100Y-70014305D01*
X83296134Y-70101124D01*
X83263629Y-70135138D01*
X83260715Y-70139410D01*
X83260714Y-70139411D01*
X83245798Y-70161277D01*
X83137743Y-70319680D01*
X83121899Y-70353814D01*
X83074071Y-70456851D01*
X83043688Y-70522305D01*
X82983989Y-70737570D01*
X82960251Y-70959695D01*
X82960548Y-70964848D01*
X82960548Y-70964851D01*
X82970129Y-71131022D01*
X82973110Y-71182715D01*
X82974247Y-71187761D01*
X82974248Y-71187767D01*
X82996366Y-71285910D01*
X83022222Y-71400639D01*
X83078411Y-71539016D01*
X83101533Y-71595959D01*
X83106266Y-71607616D01*
X83139852Y-71662423D01*
X83220163Y-71793479D01*
X83222987Y-71798088D01*
X83369250Y-71966938D01*
X83489741Y-72066971D01*
X83534580Y-72104197D01*
X83541126Y-72109632D01*
X83559333Y-72120271D01*
X83614445Y-72152476D01*
X83663169Y-72204114D01*
X83676240Y-72273897D01*
X83649509Y-72339669D01*
X83609055Y-72373027D01*
X83596607Y-72379507D01*
X83592474Y-72382610D01*
X83592471Y-72382612D01*
X83422100Y-72510530D01*
X83417965Y-72513635D01*
X83384358Y-72548803D01*
X83274751Y-72663500D01*
X83263629Y-72675138D01*
X83137743Y-72859680D01*
X83135564Y-72864375D01*
X83059731Y-73027744D01*
X83043688Y-73062305D01*
X82983989Y-73277570D01*
X82960251Y-73499695D01*
X82960548Y-73504848D01*
X82960548Y-73504851D01*
X82971904Y-73701803D01*
X82973110Y-73722715D01*
X82974247Y-73727761D01*
X82974248Y-73727767D01*
X82983297Y-73767919D01*
X83022222Y-73940639D01*
X83059852Y-74033311D01*
X83095653Y-74121478D01*
X83106266Y-74147616D01*
X83115848Y-74163252D01*
X83220163Y-74333479D01*
X83222987Y-74338088D01*
X83369250Y-74506938D01*
X83541126Y-74649632D01*
X83611595Y-74690811D01*
X83614445Y-74692476D01*
X83663169Y-74744114D01*
X83676240Y-74813897D01*
X83649509Y-74879669D01*
X83609055Y-74913027D01*
X83596607Y-74919507D01*
X83592474Y-74922610D01*
X83592471Y-74922612D01*
X83422100Y-75050530D01*
X83417965Y-75053635D01*
X83263629Y-75215138D01*
X83260715Y-75219410D01*
X83260714Y-75219411D01*
X83230804Y-75263258D01*
X83137743Y-75399680D01*
X83110509Y-75458351D01*
X83056621Y-75574444D01*
X83043688Y-75602305D01*
X82983989Y-75817570D01*
X82960251Y-76039695D01*
X82960548Y-76044848D01*
X82960548Y-76044851D01*
X82970129Y-76211022D01*
X82973110Y-76262715D01*
X82974247Y-76267761D01*
X82974248Y-76267767D01*
X82997308Y-76370088D01*
X83022222Y-76480639D01*
X83060461Y-76574811D01*
X83095653Y-76661478D01*
X83106266Y-76687616D01*
X83134634Y-76733909D01*
X83210031Y-76856945D01*
X83222987Y-76878088D01*
X83369250Y-77046938D01*
X83447907Y-77112240D01*
X83534580Y-77184197D01*
X83541126Y-77189632D01*
X83600412Y-77224276D01*
X83614445Y-77232476D01*
X83663169Y-77284114D01*
X83676240Y-77353897D01*
X83649509Y-77419669D01*
X83609055Y-77453027D01*
X83596607Y-77459507D01*
X83592474Y-77462610D01*
X83592471Y-77462612D01*
X83437156Y-77579226D01*
X83417965Y-77593635D01*
X83263629Y-77755138D01*
X83260715Y-77759410D01*
X83260714Y-77759411D01*
X83202612Y-77844586D01*
X83137743Y-77939680D01*
X83135564Y-77944375D01*
X83047346Y-78134425D01*
X83043688Y-78142305D01*
X82983989Y-78357570D01*
X82960251Y-78579695D01*
X82960548Y-78584848D01*
X82960548Y-78584851D01*
X82969017Y-78731734D01*
X82973110Y-78802715D01*
X82974247Y-78807761D01*
X82974248Y-78807767D01*
X82997308Y-78910088D01*
X83022222Y-79020639D01*
X83066588Y-79129899D01*
X83096474Y-79203500D01*
X83106266Y-79227616D01*
X83123563Y-79255842D01*
X83219370Y-79412185D01*
X83222987Y-79418088D01*
X83369250Y-79586938D01*
X83541126Y-79729632D01*
X83570766Y-79746952D01*
X83614445Y-79772476D01*
X83663169Y-79824114D01*
X83676240Y-79893897D01*
X83649509Y-79959669D01*
X83609055Y-79993027D01*
X83596607Y-79999507D01*
X83592474Y-80002610D01*
X83592471Y-80002612D01*
X83473941Y-80091607D01*
X83417965Y-80133635D01*
X83263629Y-80295138D01*
X83260715Y-80299410D01*
X83260714Y-80299411D01*
X83186112Y-80408774D01*
X83137743Y-80479680D01*
X83112400Y-80534278D01*
X83088691Y-80585355D01*
X83043688Y-80682305D01*
X82983989Y-80897570D01*
X82960251Y-81119695D01*
X82960548Y-81124848D01*
X82960548Y-81124851D01*
X82964985Y-81201803D01*
X82973110Y-81342715D01*
X82974247Y-81347761D01*
X82974248Y-81347767D01*
X82998304Y-81454508D01*
X83022222Y-81560639D01*
X83106266Y-81767616D01*
X83222987Y-81958088D01*
X83369250Y-82126938D01*
X83541126Y-82269632D01*
X83611595Y-82310811D01*
X83614445Y-82312476D01*
X83663169Y-82364114D01*
X83676240Y-82433897D01*
X83649509Y-82499669D01*
X83609055Y-82533027D01*
X83596607Y-82539507D01*
X83592474Y-82542610D01*
X83592471Y-82542612D01*
X83527216Y-82591607D01*
X83417965Y-82673635D01*
X83263629Y-82835138D01*
X83137743Y-83019680D01*
X83111546Y-83076117D01*
X83050379Y-83207891D01*
X83043688Y-83222305D01*
X82983989Y-83437570D01*
X82960251Y-83659695D01*
X82960548Y-83664848D01*
X82960548Y-83664851D01*
X82965270Y-83746749D01*
X82973110Y-83882715D01*
X82974247Y-83887761D01*
X82974248Y-83887767D01*
X82988436Y-83950721D01*
X83022222Y-84100639D01*
X83106266Y-84307616D01*
X83135661Y-84355585D01*
X83198962Y-84458882D01*
X83222987Y-84498088D01*
X83369250Y-84666938D01*
X83541126Y-84809632D01*
X83611595Y-84850811D01*
X83614445Y-84852476D01*
X83663169Y-84904114D01*
X83676240Y-84973897D01*
X83649509Y-85039669D01*
X83609055Y-85073027D01*
X83596607Y-85079507D01*
X83592474Y-85082610D01*
X83592471Y-85082612D01*
X83422100Y-85210530D01*
X83417965Y-85213635D01*
X83263629Y-85375138D01*
X83137743Y-85559680D01*
X83135564Y-85564375D01*
X83046927Y-85755328D01*
X83043688Y-85762305D01*
X82983989Y-85977570D01*
X82960251Y-86199695D01*
X82960548Y-86204848D01*
X82960548Y-86204851D01*
X82972522Y-86412520D01*
X82973110Y-86422715D01*
X82974247Y-86427761D01*
X82974248Y-86427767D01*
X82989806Y-86496802D01*
X83022222Y-86640639D01*
X83106266Y-86847616D01*
X83128539Y-86883962D01*
X83162837Y-86939931D01*
X83222987Y-87038088D01*
X83369250Y-87206938D01*
X83541126Y-87349632D01*
X83558804Y-87359962D01*
X83614445Y-87392476D01*
X83663169Y-87444114D01*
X83676240Y-87513897D01*
X83649509Y-87579669D01*
X83609055Y-87613027D01*
X83596607Y-87619507D01*
X83592474Y-87622610D01*
X83592471Y-87622612D01*
X83447996Y-87731087D01*
X83417965Y-87753635D01*
X83263629Y-87915138D01*
X83260715Y-87919410D01*
X83260714Y-87919411D01*
X83234919Y-87957225D01*
X83137743Y-88099680D01*
X83103609Y-88173216D01*
X83049290Y-88290237D01*
X83043688Y-88302305D01*
X82983989Y-88517570D01*
X82960251Y-88739695D01*
X82960548Y-88744848D01*
X82960548Y-88744851D01*
X82963528Y-88796528D01*
X82973110Y-88962715D01*
X82974247Y-88967761D01*
X82974248Y-88967767D01*
X82995275Y-89061069D01*
X83022222Y-89180639D01*
X83106266Y-89387616D01*
X83222987Y-89578088D01*
X83369250Y-89746938D01*
X83541126Y-89889632D01*
X83611595Y-89930811D01*
X83614445Y-89932476D01*
X83663169Y-89984114D01*
X83676240Y-90053897D01*
X83649509Y-90119669D01*
X83609055Y-90153027D01*
X83596607Y-90159507D01*
X83592474Y-90162610D01*
X83592471Y-90162612D01*
X83422100Y-90290530D01*
X83417965Y-90293635D01*
X83352346Y-90362301D01*
X83300313Y-90416751D01*
X83263629Y-90455138D01*
X83137743Y-90639680D01*
X83121899Y-90673814D01*
X83059408Y-90808440D01*
X83043688Y-90842305D01*
X82983989Y-91057570D01*
X82960251Y-91279695D01*
X82550000Y-91279695D01*
X82550000Y-46481000D01*
X82570002Y-46412879D01*
X82623658Y-46366386D01*
X82676000Y-46355000D01*
X130684000Y-46355000D01*
X130752121Y-46375002D01*
G37*
G04 #@! TD.AperFunction*
G04 #@! TA.AperFunction,Conductor*
G36*
X99304063Y-86944041D02*
G01*
X99349143Y-86944042D01*
X99349312Y-86942757D01*
X99383233Y-86947223D01*
X99412947Y-86951135D01*
X99477874Y-86979858D01*
X99516965Y-87039123D01*
X99522500Y-87076057D01*
X99522500Y-94860000D01*
X99502498Y-94928121D01*
X99448842Y-94974614D01*
X99396500Y-94986000D01*
X98927866Y-94986000D01*
X98865684Y-94992755D01*
X98729295Y-95043885D01*
X98612739Y-95131239D01*
X98525385Y-95247795D01*
X98474255Y-95384184D01*
X98467500Y-95446366D01*
X98467500Y-95992634D01*
X98474255Y-96054816D01*
X98525385Y-96191205D01*
X98530771Y-96198391D01*
X98591135Y-96278935D01*
X98615983Y-96345441D01*
X98600930Y-96414824D01*
X98591135Y-96430065D01*
X98525385Y-96517795D01*
X98474255Y-96654184D01*
X98467500Y-96716366D01*
X98467500Y-97262634D01*
X98474255Y-97324816D01*
X98525385Y-97461205D01*
X98530771Y-97468391D01*
X98591135Y-97548935D01*
X98615983Y-97615441D01*
X98600930Y-97684824D01*
X98591135Y-97700065D01*
X98525385Y-97787795D01*
X98474255Y-97924184D01*
X98467500Y-97986366D01*
X98467500Y-98532634D01*
X98474255Y-98594816D01*
X98525385Y-98731205D01*
X98530771Y-98738391D01*
X98591135Y-98818935D01*
X98615983Y-98885441D01*
X98600930Y-98954824D01*
X98591135Y-98970065D01*
X98525385Y-99057795D01*
X98474255Y-99194184D01*
X98467500Y-99256366D01*
X98467500Y-99802634D01*
X98474255Y-99864816D01*
X98525385Y-100001205D01*
X98530771Y-100008391D01*
X98591135Y-100088935D01*
X98615983Y-100155441D01*
X98600930Y-100224824D01*
X98591135Y-100240065D01*
X98525385Y-100327795D01*
X98474255Y-100464184D01*
X98467500Y-100526366D01*
X98467500Y-101072634D01*
X98468428Y-101081175D01*
X98455897Y-101151057D01*
X98407574Y-101203071D01*
X98369362Y-101218025D01*
X98269712Y-101239206D01*
X98263682Y-101241891D01*
X98263681Y-101241891D01*
X98101278Y-101314197D01*
X98101276Y-101314198D01*
X98095248Y-101316882D01*
X97940747Y-101429134D01*
X97936326Y-101434044D01*
X97936325Y-101434045D01*
X97875524Y-101501572D01*
X97812960Y-101571056D01*
X97801671Y-101590609D01*
X97723050Y-101726785D01*
X97717473Y-101736444D01*
X97658458Y-101918072D01*
X97638496Y-102108000D01*
X97639186Y-102114565D01*
X97655187Y-102266803D01*
X97658458Y-102297928D01*
X97717473Y-102479556D01*
X97812960Y-102644944D01*
X97825338Y-102658691D01*
X97856054Y-102722697D01*
X97847290Y-102793150D01*
X97825339Y-102827307D01*
X97812960Y-102841056D01*
X97809659Y-102846774D01*
X97723050Y-102996785D01*
X97717473Y-103006444D01*
X97658458Y-103188072D01*
X97638496Y-103378000D01*
X97639186Y-103384565D01*
X97655187Y-103536803D01*
X97658458Y-103567928D01*
X97717473Y-103749556D01*
X97720776Y-103755278D01*
X97720777Y-103755279D01*
X97735799Y-103781297D01*
X97812960Y-103914944D01*
X97817378Y-103919851D01*
X97817379Y-103919852D01*
X97886634Y-103996767D01*
X97940747Y-104056866D01*
X98095248Y-104169118D01*
X98101276Y-104171802D01*
X98101278Y-104171803D01*
X98263681Y-104244109D01*
X98269712Y-104246794D01*
X98276167Y-104248166D01*
X98276170Y-104248167D01*
X98325494Y-104258651D01*
X98367697Y-104267621D01*
X98430170Y-104301349D01*
X98464492Y-104363499D01*
X98467500Y-104390868D01*
X98467500Y-104882634D01*
X98474255Y-104944816D01*
X98525385Y-105081205D01*
X98530770Y-105088390D01*
X98530771Y-105088392D01*
X98591447Y-105169352D01*
X98616295Y-105235859D01*
X98601242Y-105305241D01*
X98591448Y-105320482D01*
X98531211Y-105400856D01*
X98522676Y-105416446D01*
X98477522Y-105536894D01*
X98473895Y-105552149D01*
X98468369Y-105603014D01*
X98468000Y-105609828D01*
X98468000Y-105636385D01*
X98472475Y-105651624D01*
X98473865Y-105652829D01*
X98481548Y-105654500D01*
X100175000Y-105654500D01*
X100243121Y-105674502D01*
X100289614Y-105728158D01*
X100301000Y-105780500D01*
X100301000Y-105978500D01*
X100280998Y-106046621D01*
X100227342Y-106093114D01*
X100175000Y-106104500D01*
X98486116Y-106104500D01*
X98470877Y-106108975D01*
X98469672Y-106110365D01*
X98468001Y-106118048D01*
X98468001Y-106149169D01*
X98468371Y-106155990D01*
X98473895Y-106206852D01*
X98477521Y-106222104D01*
X98522676Y-106342554D01*
X98531211Y-106358144D01*
X98591448Y-106438518D01*
X98616295Y-106505025D01*
X98601242Y-106574407D01*
X98591449Y-106589646D01*
X98571418Y-106616374D01*
X98520633Y-106656447D01*
X98485605Y-106671605D01*
X98478928Y-106677012D01*
X98473812Y-106681155D01*
X98455216Y-106693651D01*
X98441916Y-106700963D01*
X98433751Y-106708011D01*
X98409068Y-106732694D01*
X98399268Y-106741519D01*
X98367751Y-106767041D01*
X98362775Y-106774043D01*
X98362774Y-106774044D01*
X98356760Y-106782507D01*
X98343149Y-106798613D01*
X98081147Y-107060615D01*
X98018835Y-107094641D01*
X97992052Y-107097520D01*
X97823022Y-107097520D01*
X97816570Y-107098892D01*
X97816565Y-107098892D01*
X97729621Y-107117373D01*
X97636221Y-107137226D01*
X97630191Y-107139911D01*
X97630190Y-107139911D01*
X97467787Y-107212217D01*
X97467785Y-107212218D01*
X97461757Y-107214902D01*
X97456416Y-107218782D01*
X97456415Y-107218783D01*
X97316821Y-107320204D01*
X97249953Y-107344063D01*
X97216564Y-107341515D01*
X97161446Y-107329800D01*
X97161447Y-107329800D01*
X97154987Y-107328427D01*
X96964013Y-107328427D01*
X96957561Y-107329799D01*
X96957556Y-107329799D01*
X96870613Y-107348280D01*
X96777212Y-107368133D01*
X96615748Y-107440021D01*
X96545382Y-107449455D01*
X96481085Y-107419349D01*
X96443271Y-107359260D01*
X96438500Y-107324914D01*
X96438500Y-92991457D01*
X96458502Y-92923336D01*
X96475405Y-92902362D01*
X98957363Y-90420404D01*
X98961172Y-90416751D01*
X99000797Y-90380314D01*
X99007124Y-90374496D01*
X99030190Y-90337295D01*
X99036913Y-90327513D01*
X99058192Y-90299479D01*
X99058195Y-90299474D01*
X99063386Y-90292635D01*
X99068974Y-90278521D01*
X99079040Y-90258508D01*
X99082509Y-90252913D01*
X99087037Y-90245610D01*
X99099250Y-90203572D01*
X99103095Y-90192342D01*
X99116050Y-90159622D01*
X99116051Y-90159618D01*
X99119212Y-90151634D01*
X99120798Y-90136542D01*
X99125113Y-90114549D01*
X99127504Y-90106322D01*
X99127506Y-90106313D01*
X99129345Y-90099982D01*
X99130135Y-90089225D01*
X99130135Y-90054316D01*
X99130825Y-90041145D01*
X99134166Y-90009359D01*
X99135064Y-90000815D01*
X99131900Y-89982108D01*
X99130135Y-89961096D01*
X99130135Y-87075636D01*
X99150137Y-87007515D01*
X99203793Y-86961022D01*
X99239689Y-86950714D01*
X99303830Y-86942270D01*
X99304063Y-86944041D01*
G37*
G04 #@! TD.AperFunction*
G04 #@! TA.AperFunction,Conductor*
G36*
X97345276Y-71591085D02*
G01*
X97349311Y-71592757D01*
X97442366Y-71605008D01*
X97459304Y-71607238D01*
X97459305Y-71607238D01*
X97463391Y-71607776D01*
X97689879Y-71607776D01*
X97693965Y-71607238D01*
X97693966Y-71607238D01*
X97803959Y-71592757D01*
X97804162Y-71594302D01*
X97849108Y-71594302D01*
X97849311Y-71592757D01*
X97959304Y-71607238D01*
X97959305Y-71607238D01*
X97963391Y-71607776D01*
X98189879Y-71607776D01*
X98193965Y-71607238D01*
X98193966Y-71607238D01*
X98303959Y-71592757D01*
X98304162Y-71594302D01*
X98349108Y-71594302D01*
X98349311Y-71592757D01*
X98459304Y-71607238D01*
X98459305Y-71607238D01*
X98463391Y-71607776D01*
X98689879Y-71607776D01*
X98693965Y-71607238D01*
X98693966Y-71607238D01*
X98803959Y-71592757D01*
X98804162Y-71594302D01*
X98849108Y-71594302D01*
X98849311Y-71592757D01*
X98959304Y-71607238D01*
X98959305Y-71607238D01*
X98963391Y-71607776D01*
X99038032Y-71607776D01*
X99106153Y-71627778D01*
X99152646Y-71681434D01*
X99162507Y-71741829D01*
X99163186Y-71741829D01*
X99163186Y-71745985D01*
X99163342Y-71746940D01*
X99163186Y-71748425D01*
X99163186Y-71748435D01*
X99162496Y-71755000D01*
X99163186Y-71761565D01*
X99180663Y-71927846D01*
X99182458Y-71944928D01*
X99241473Y-72126556D01*
X99244776Y-72132278D01*
X99244777Y-72132279D01*
X99264903Y-72167138D01*
X99336960Y-72291944D01*
X99341378Y-72296851D01*
X99341379Y-72296852D01*
X99460325Y-72428955D01*
X99464747Y-72433866D01*
X99563843Y-72505864D01*
X99605881Y-72536406D01*
X99619248Y-72546118D01*
X99625276Y-72548802D01*
X99625278Y-72548803D01*
X99772300Y-72614261D01*
X99793712Y-72623794D01*
X99887113Y-72643647D01*
X99974056Y-72662128D01*
X99974061Y-72662128D01*
X99980513Y-72663500D01*
X100171487Y-72663500D01*
X100177939Y-72662128D01*
X100177944Y-72662128D01*
X100264887Y-72643647D01*
X100358288Y-72623794D01*
X100379700Y-72614261D01*
X100526722Y-72548803D01*
X100526724Y-72548802D01*
X100532752Y-72546118D01*
X100546120Y-72536406D01*
X100588157Y-72505864D01*
X100687253Y-72433866D01*
X100691675Y-72428955D01*
X100810621Y-72296852D01*
X100810622Y-72296851D01*
X100815040Y-72291944D01*
X100887097Y-72167138D01*
X100907223Y-72132279D01*
X100907224Y-72132278D01*
X100910527Y-72126556D01*
X100969542Y-71944928D01*
X100971338Y-71927846D01*
X100988814Y-71761565D01*
X100989504Y-71755000D01*
X100988814Y-71748435D01*
X100988814Y-71748425D01*
X100988658Y-71746940D01*
X100988814Y-71746087D01*
X100988814Y-71741829D01*
X100989593Y-71741829D01*
X101001433Y-71677103D01*
X101049937Y-71625258D01*
X101113968Y-71607776D01*
X101189879Y-71607776D01*
X101193965Y-71607238D01*
X101193966Y-71607238D01*
X101303959Y-71592757D01*
X101304162Y-71594302D01*
X101349108Y-71594302D01*
X101349311Y-71592757D01*
X101459304Y-71607238D01*
X101459305Y-71607238D01*
X101463391Y-71607776D01*
X101689879Y-71607776D01*
X101693965Y-71607238D01*
X101693966Y-71607238D01*
X101803959Y-71592757D01*
X101804162Y-71594302D01*
X101849108Y-71594302D01*
X101849311Y-71592757D01*
X101959304Y-71607238D01*
X101959305Y-71607238D01*
X101963391Y-71607776D01*
X102189879Y-71607776D01*
X102193965Y-71607238D01*
X102193966Y-71607238D01*
X102303959Y-71592757D01*
X102304162Y-71594302D01*
X102349108Y-71594302D01*
X102349311Y-71592757D01*
X102459304Y-71607238D01*
X102459305Y-71607238D01*
X102463391Y-71607776D01*
X102689879Y-71607776D01*
X102693965Y-71607238D01*
X102693966Y-71607238D01*
X102803959Y-71592757D01*
X102804162Y-71594302D01*
X102849108Y-71594302D01*
X102849311Y-71592757D01*
X102959304Y-71607238D01*
X102959305Y-71607238D01*
X102963391Y-71607776D01*
X103189879Y-71607776D01*
X103193965Y-71607238D01*
X103193966Y-71607238D01*
X103303959Y-71592757D01*
X103304162Y-71594302D01*
X103349108Y-71594302D01*
X103349311Y-71592757D01*
X103459304Y-71607238D01*
X103459305Y-71607238D01*
X103463391Y-71607776D01*
X103689879Y-71607776D01*
X103693965Y-71607238D01*
X103693966Y-71607238D01*
X103803959Y-71592757D01*
X103804162Y-71594302D01*
X103849108Y-71594302D01*
X103849311Y-71592757D01*
X103959304Y-71607238D01*
X103959305Y-71607238D01*
X103963391Y-71607776D01*
X104189879Y-71607776D01*
X104193965Y-71607238D01*
X104193966Y-71607238D01*
X104303959Y-71592757D01*
X104304162Y-71594302D01*
X104349108Y-71594302D01*
X104349311Y-71592757D01*
X104459304Y-71607238D01*
X104459305Y-71607238D01*
X104463391Y-71607776D01*
X104689879Y-71607776D01*
X104693965Y-71607238D01*
X104693966Y-71607238D01*
X104803959Y-71592757D01*
X104804162Y-71594302D01*
X104849108Y-71594302D01*
X104849311Y-71592757D01*
X104959304Y-71607238D01*
X104959305Y-71607238D01*
X104963391Y-71607776D01*
X105189879Y-71607776D01*
X105193965Y-71607238D01*
X105193966Y-71607238D01*
X105303959Y-71592757D01*
X105304162Y-71594302D01*
X105349108Y-71594302D01*
X105349311Y-71592757D01*
X105459304Y-71607238D01*
X105459305Y-71607238D01*
X105463391Y-71607776D01*
X105689879Y-71607776D01*
X105693965Y-71607238D01*
X105693966Y-71607238D01*
X105803959Y-71592757D01*
X105804162Y-71594302D01*
X105849108Y-71594302D01*
X105849311Y-71592757D01*
X105959304Y-71607238D01*
X105959305Y-71607238D01*
X105963391Y-71607776D01*
X106189879Y-71607776D01*
X106193960Y-71607239D01*
X106193971Y-71607238D01*
X106215877Y-71604354D01*
X106286025Y-71615294D01*
X106339123Y-71662423D01*
X106358321Y-71729276D01*
X106358321Y-71731353D01*
X106357631Y-71737918D01*
X106358321Y-71744483D01*
X106374748Y-71900774D01*
X106377593Y-71927846D01*
X106436608Y-72109474D01*
X106439911Y-72115196D01*
X106439912Y-72115197D01*
X106446470Y-72126556D01*
X106532095Y-72274862D01*
X106536513Y-72279769D01*
X106536514Y-72279770D01*
X106624773Y-72377792D01*
X106659882Y-72416784D01*
X106814383Y-72529036D01*
X106820411Y-72531720D01*
X106820413Y-72531721D01*
X106952928Y-72590720D01*
X106988847Y-72606712D01*
X107069211Y-72623794D01*
X107169191Y-72645046D01*
X107169196Y-72645046D01*
X107175648Y-72646418D01*
X107366622Y-72646418D01*
X107373074Y-72645046D01*
X107373079Y-72645046D01*
X107473059Y-72623794D01*
X107553423Y-72606712D01*
X107589342Y-72590720D01*
X107721857Y-72531721D01*
X107721859Y-72531720D01*
X107727887Y-72529036D01*
X107882388Y-72416784D01*
X107917497Y-72377792D01*
X108005756Y-72279770D01*
X108005757Y-72279769D01*
X108010175Y-72274862D01*
X108095800Y-72126556D01*
X108102358Y-72115197D01*
X108102359Y-72115196D01*
X108105662Y-72109474D01*
X108164677Y-71927846D01*
X108167523Y-71900774D01*
X108183949Y-71744483D01*
X108184639Y-71737918D01*
X108183949Y-71731353D01*
X108183949Y-71724748D01*
X108185430Y-71724748D01*
X108196823Y-71662462D01*
X108245326Y-71610617D01*
X108287801Y-71595974D01*
X108287800Y-71595971D01*
X108287844Y-71595959D01*
X108292915Y-71594211D01*
X108303961Y-71592757D01*
X108304164Y-71594302D01*
X108349108Y-71594302D01*
X108349311Y-71592757D01*
X108459304Y-71607238D01*
X108459305Y-71607238D01*
X108463391Y-71607776D01*
X108689879Y-71607776D01*
X108693965Y-71607238D01*
X108693966Y-71607238D01*
X108803959Y-71592757D01*
X108804162Y-71594302D01*
X108849108Y-71594302D01*
X108849311Y-71592757D01*
X108959304Y-71607238D01*
X108959305Y-71607238D01*
X108963391Y-71607776D01*
X109189879Y-71607776D01*
X109193965Y-71607238D01*
X109193966Y-71607238D01*
X109303959Y-71592757D01*
X109304162Y-71594302D01*
X109349108Y-71594302D01*
X109349311Y-71592757D01*
X109459304Y-71607238D01*
X109459305Y-71607238D01*
X109463391Y-71607776D01*
X109689879Y-71607776D01*
X109693965Y-71607238D01*
X109693966Y-71607238D01*
X109710904Y-71605008D01*
X109803959Y-71592757D01*
X109807412Y-71591327D01*
X109876292Y-71592967D01*
X109935088Y-71632761D01*
X109963036Y-71698025D01*
X109959826Y-71742917D01*
X109958154Y-71746952D01*
X109943135Y-71861032D01*
X109943135Y-72087520D01*
X109943673Y-72091606D01*
X109943673Y-72091607D01*
X109958154Y-72201600D01*
X109956609Y-72201803D01*
X109956609Y-72246749D01*
X109958154Y-72246952D01*
X109945948Y-72339669D01*
X109943135Y-72361032D01*
X109943135Y-72587520D01*
X109943673Y-72591606D01*
X109943673Y-72591607D01*
X109958154Y-72701600D01*
X109956609Y-72701803D01*
X109956609Y-72746749D01*
X109958154Y-72746952D01*
X109943135Y-72861032D01*
X109943135Y-73087520D01*
X109943673Y-73091606D01*
X109943673Y-73091607D01*
X109958154Y-73201600D01*
X109956609Y-73201803D01*
X109956609Y-73246749D01*
X109958154Y-73246952D01*
X109953037Y-73285823D01*
X109943135Y-73361032D01*
X109943135Y-73587520D01*
X109943673Y-73591606D01*
X109943673Y-73591607D01*
X109958154Y-73701600D01*
X109956609Y-73701803D01*
X109956609Y-73746749D01*
X109958154Y-73746952D01*
X109945149Y-73845738D01*
X109943135Y-73861032D01*
X109943135Y-74087520D01*
X109943673Y-74091606D01*
X109943673Y-74091607D01*
X109958154Y-74201600D01*
X109956609Y-74201803D01*
X109956609Y-74246749D01*
X109958154Y-74246952D01*
X109943750Y-74356364D01*
X109943135Y-74361032D01*
X109943135Y-74587520D01*
X109943673Y-74591606D01*
X109943673Y-74591607D01*
X109958154Y-74701600D01*
X109956609Y-74701803D01*
X109956609Y-74746749D01*
X109958154Y-74746952D01*
X109943135Y-74861032D01*
X109943135Y-75087520D01*
X109943673Y-75091606D01*
X109943673Y-75091607D01*
X109958154Y-75201600D01*
X109956609Y-75201803D01*
X109956609Y-75246749D01*
X109958154Y-75246952D01*
X109943135Y-75361032D01*
X109943135Y-75587520D01*
X109943673Y-75591606D01*
X109943673Y-75591607D01*
X109958154Y-75701600D01*
X109956609Y-75701803D01*
X109956609Y-75746749D01*
X109958154Y-75746952D01*
X109949399Y-75813456D01*
X109943135Y-75861032D01*
X109943135Y-76087520D01*
X109943673Y-76091606D01*
X109943673Y-76091607D01*
X109958154Y-76201600D01*
X109956609Y-76201803D01*
X109956609Y-76246749D01*
X109958154Y-76246952D01*
X109943135Y-76361032D01*
X109943135Y-76587520D01*
X109943673Y-76591606D01*
X109943673Y-76591607D01*
X109958154Y-76701600D01*
X109956609Y-76701803D01*
X109956609Y-76746749D01*
X109958154Y-76746952D01*
X109948340Y-76821500D01*
X109943135Y-76861032D01*
X109943135Y-76909997D01*
X109923133Y-76978118D01*
X109869477Y-77024611D01*
X109817135Y-77035997D01*
X109759513Y-77035997D01*
X109753061Y-77037369D01*
X109753056Y-77037369D01*
X109666112Y-77055850D01*
X109572712Y-77075703D01*
X109566682Y-77078388D01*
X109566681Y-77078388D01*
X109404278Y-77150694D01*
X109404276Y-77150695D01*
X109398248Y-77153379D01*
X109243747Y-77265631D01*
X109239326Y-77270541D01*
X109239325Y-77270542D01*
X109120502Y-77402509D01*
X109115960Y-77407553D01*
X109020473Y-77572941D01*
X108961458Y-77754569D01*
X108960768Y-77761130D01*
X108960768Y-77761132D01*
X108957937Y-77788072D01*
X108941496Y-77944497D01*
X108961458Y-78134425D01*
X109020473Y-78316053D01*
X109023776Y-78321775D01*
X109023777Y-78321776D01*
X109050577Y-78368194D01*
X109115960Y-78481441D01*
X109120378Y-78486348D01*
X109120379Y-78486349D01*
X109232856Y-78611267D01*
X109243747Y-78623363D01*
X109289860Y-78656866D01*
X109369639Y-78714829D01*
X109398248Y-78735615D01*
X109404276Y-78738299D01*
X109404278Y-78738300D01*
X109560671Y-78807930D01*
X109572712Y-78813291D01*
X109666113Y-78833144D01*
X109753056Y-78851625D01*
X109753061Y-78851625D01*
X109759513Y-78852997D01*
X109950487Y-78852997D01*
X109950487Y-78853009D01*
X110017874Y-78865335D01*
X110061166Y-78901168D01*
X110076823Y-78921573D01*
X110102423Y-78987794D01*
X110088158Y-79057342D01*
X110038556Y-79108138D01*
X109976860Y-79124276D01*
X109966593Y-79124276D01*
X109947443Y-79129899D01*
X109911945Y-79135003D01*
X109759513Y-79135003D01*
X109753061Y-79136375D01*
X109753056Y-79136375D01*
X109666112Y-79154856D01*
X109572712Y-79174709D01*
X109566682Y-79177394D01*
X109566681Y-79177394D01*
X109404278Y-79249700D01*
X109404276Y-79249701D01*
X109398248Y-79252385D01*
X109392907Y-79256265D01*
X109392906Y-79256266D01*
X109365888Y-79275896D01*
X109243747Y-79364637D01*
X109239326Y-79369547D01*
X109151972Y-79466564D01*
X109115960Y-79506559D01*
X109020473Y-79671947D01*
X108961458Y-79853575D01*
X108960768Y-79860136D01*
X108960768Y-79860138D01*
X108950307Y-79959669D01*
X108941496Y-80043503D01*
X108961458Y-80233431D01*
X109020473Y-80415059D01*
X109023776Y-80420781D01*
X109023777Y-80420782D01*
X109032852Y-80436500D01*
X109115960Y-80580447D01*
X109120378Y-80585354D01*
X109120379Y-80585355D01*
X109225229Y-80701803D01*
X109243747Y-80722369D01*
X109398248Y-80834621D01*
X109404276Y-80837305D01*
X109404278Y-80837306D01*
X109539634Y-80897570D01*
X109572712Y-80912297D01*
X109666112Y-80932150D01*
X109753056Y-80950631D01*
X109753061Y-80950631D01*
X109759513Y-80952003D01*
X109817135Y-80952003D01*
X109885256Y-80972005D01*
X109931749Y-81025661D01*
X109943135Y-81078003D01*
X109943135Y-81087520D01*
X109943673Y-81091606D01*
X109943673Y-81091607D01*
X109958154Y-81201600D01*
X109956609Y-81201803D01*
X109956609Y-81246749D01*
X109958154Y-81246952D01*
X109943135Y-81361032D01*
X109943135Y-81587520D01*
X109943673Y-81591606D01*
X109943673Y-81591607D01*
X109958154Y-81701600D01*
X109956609Y-81701803D01*
X109956609Y-81746749D01*
X109958154Y-81746952D01*
X109943135Y-81861032D01*
X109943135Y-82087520D01*
X109943673Y-82091606D01*
X109943673Y-82091607D01*
X109958154Y-82201600D01*
X109956609Y-82201803D01*
X109956609Y-82246749D01*
X109958154Y-82246952D01*
X109943135Y-82361032D01*
X109943135Y-82587520D01*
X109943673Y-82591606D01*
X109943673Y-82591607D01*
X109958154Y-82701600D01*
X109956609Y-82701803D01*
X109956609Y-82746749D01*
X109958154Y-82746952D01*
X109943135Y-82861032D01*
X109943135Y-83087520D01*
X109943673Y-83091606D01*
X109943673Y-83091607D01*
X109958154Y-83201600D01*
X109956609Y-83201803D01*
X109956609Y-83246749D01*
X109958154Y-83246952D01*
X109943135Y-83361032D01*
X109943135Y-83587520D01*
X109943673Y-83591606D01*
X109943673Y-83591607D01*
X109958154Y-83701600D01*
X109956609Y-83701803D01*
X109956609Y-83746749D01*
X109958154Y-83746952D01*
X109943135Y-83861032D01*
X109943135Y-84087520D01*
X109958154Y-84201600D01*
X109959584Y-84205053D01*
X109957944Y-84273933D01*
X109918150Y-84332729D01*
X109852886Y-84360677D01*
X109807994Y-84357467D01*
X109803959Y-84355795D01*
X109709466Y-84343355D01*
X109693966Y-84341314D01*
X109693965Y-84341314D01*
X109689879Y-84340776D01*
X109463391Y-84340776D01*
X109459305Y-84341314D01*
X109459304Y-84341314D01*
X109349311Y-84355795D01*
X109349108Y-84354250D01*
X109304162Y-84354250D01*
X109303959Y-84355795D01*
X109193966Y-84341314D01*
X109193965Y-84341314D01*
X109189879Y-84340776D01*
X108963391Y-84340776D01*
X108959305Y-84341314D01*
X108959304Y-84341314D01*
X108849311Y-84355795D01*
X108849108Y-84354250D01*
X108804162Y-84354250D01*
X108803959Y-84355795D01*
X108693966Y-84341314D01*
X108693965Y-84341314D01*
X108689879Y-84340776D01*
X108463391Y-84340776D01*
X108459305Y-84341314D01*
X108459304Y-84341314D01*
X108349311Y-84355795D01*
X108349108Y-84354250D01*
X108304162Y-84354250D01*
X108303959Y-84355795D01*
X108193966Y-84341314D01*
X108193965Y-84341314D01*
X108189879Y-84340776D01*
X107963391Y-84340776D01*
X107959305Y-84341314D01*
X107959304Y-84341314D01*
X107849311Y-84355795D01*
X107849108Y-84354250D01*
X107804162Y-84354250D01*
X107803959Y-84355795D01*
X107693966Y-84341314D01*
X107693965Y-84341314D01*
X107689879Y-84340776D01*
X107578402Y-84340776D01*
X107510281Y-84320774D01*
X107463788Y-84267118D01*
X107453092Y-84201605D01*
X107453954Y-84193411D01*
X107466504Y-84074000D01*
X107446542Y-83884072D01*
X107387527Y-83702444D01*
X107292040Y-83537056D01*
X107212029Y-83448194D01*
X107168675Y-83400045D01*
X107168674Y-83400044D01*
X107164253Y-83395134D01*
X107009752Y-83282882D01*
X107003724Y-83280198D01*
X107003722Y-83280197D01*
X106841319Y-83207891D01*
X106841318Y-83207891D01*
X106835288Y-83205206D01*
X106741888Y-83185353D01*
X106654944Y-83166872D01*
X106654939Y-83166872D01*
X106648487Y-83165500D01*
X106457513Y-83165500D01*
X106451061Y-83166872D01*
X106451056Y-83166872D01*
X106364112Y-83185353D01*
X106270712Y-83205206D01*
X106264682Y-83207891D01*
X106264681Y-83207891D01*
X106102278Y-83280197D01*
X106102276Y-83280198D01*
X106096248Y-83282882D01*
X105941747Y-83395134D01*
X105937326Y-83400044D01*
X105937325Y-83400045D01*
X105893972Y-83448194D01*
X105813960Y-83537056D01*
X105718473Y-83702444D01*
X105659458Y-83884072D01*
X105639496Y-84074000D01*
X105652047Y-84193411D01*
X105652908Y-84201605D01*
X105640136Y-84271444D01*
X105591634Y-84323290D01*
X105527598Y-84340776D01*
X105463391Y-84340776D01*
X105459305Y-84341314D01*
X105459304Y-84341314D01*
X105349311Y-84355795D01*
X105349108Y-84354250D01*
X105304162Y-84354250D01*
X105303959Y-84355795D01*
X105193966Y-84341314D01*
X105193965Y-84341314D01*
X105189879Y-84340776D01*
X104963391Y-84340776D01*
X104959305Y-84341314D01*
X104959304Y-84341314D01*
X104849311Y-84355795D01*
X104849108Y-84354250D01*
X104804162Y-84354250D01*
X104803959Y-84355795D01*
X104693966Y-84341314D01*
X104693965Y-84341314D01*
X104689879Y-84340776D01*
X104463391Y-84340776D01*
X104459305Y-84341314D01*
X104459304Y-84341314D01*
X104349311Y-84355795D01*
X104349108Y-84354250D01*
X104304162Y-84354250D01*
X104303959Y-84355795D01*
X104193966Y-84341314D01*
X104193965Y-84341314D01*
X104189879Y-84340776D01*
X103963391Y-84340776D01*
X103959305Y-84341314D01*
X103959304Y-84341314D01*
X103849311Y-84355795D01*
X103849108Y-84354250D01*
X103804162Y-84354250D01*
X103803959Y-84355795D01*
X103693966Y-84341314D01*
X103693965Y-84341314D01*
X103689879Y-84340776D01*
X103463391Y-84340776D01*
X103459305Y-84341314D01*
X103459304Y-84341314D01*
X103349311Y-84355795D01*
X103349108Y-84354250D01*
X103304162Y-84354250D01*
X103303959Y-84355795D01*
X103193966Y-84341314D01*
X103193965Y-84341314D01*
X103189879Y-84340776D01*
X102963391Y-84340776D01*
X102959305Y-84341314D01*
X102959304Y-84341314D01*
X102849311Y-84355795D01*
X102849108Y-84354250D01*
X102804162Y-84354250D01*
X102803959Y-84355795D01*
X102693966Y-84341314D01*
X102693965Y-84341314D01*
X102689879Y-84340776D01*
X102463391Y-84340776D01*
X102459305Y-84341314D01*
X102459304Y-84341314D01*
X102349311Y-84355795D01*
X102349108Y-84354250D01*
X102304162Y-84354250D01*
X102303959Y-84355795D01*
X102193966Y-84341314D01*
X102193965Y-84341314D01*
X102189879Y-84340776D01*
X101963391Y-84340776D01*
X101959305Y-84341314D01*
X101959304Y-84341314D01*
X101849311Y-84355795D01*
X101849108Y-84354250D01*
X101804162Y-84354250D01*
X101803959Y-84355795D01*
X101693966Y-84341314D01*
X101693965Y-84341314D01*
X101689879Y-84340776D01*
X101463391Y-84340776D01*
X101459305Y-84341314D01*
X101459304Y-84341314D01*
X101349311Y-84355795D01*
X101349108Y-84354250D01*
X101304162Y-84354250D01*
X101303959Y-84355795D01*
X101193966Y-84341314D01*
X101193965Y-84341314D01*
X101189879Y-84340776D01*
X100963391Y-84340776D01*
X100959305Y-84341314D01*
X100959304Y-84341314D01*
X100849311Y-84355795D01*
X100849108Y-84354250D01*
X100804162Y-84354250D01*
X100803959Y-84355795D01*
X100693966Y-84341314D01*
X100693965Y-84341314D01*
X100689879Y-84340776D01*
X100596298Y-84340776D01*
X100528177Y-84320774D01*
X100481684Y-84267118D01*
X100470988Y-84227946D01*
X100462232Y-84144635D01*
X100462232Y-84144633D01*
X100461542Y-84138072D01*
X100402527Y-83956444D01*
X100307040Y-83791056D01*
X100227254Y-83702444D01*
X100183675Y-83654045D01*
X100183674Y-83654044D01*
X100179253Y-83649134D01*
X100024752Y-83536882D01*
X100018724Y-83534198D01*
X100018722Y-83534197D01*
X99856319Y-83461891D01*
X99856318Y-83461891D01*
X99850288Y-83459206D01*
X99748499Y-83437570D01*
X99669944Y-83420872D01*
X99669939Y-83420872D01*
X99663487Y-83419500D01*
X99472513Y-83419500D01*
X99466061Y-83420872D01*
X99466056Y-83420872D01*
X99387501Y-83437570D01*
X99285712Y-83459206D01*
X99279682Y-83461891D01*
X99279681Y-83461891D01*
X99117278Y-83534197D01*
X99117276Y-83534198D01*
X99111248Y-83536882D01*
X98956747Y-83649134D01*
X98952326Y-83654044D01*
X98952325Y-83654045D01*
X98908747Y-83702444D01*
X98828960Y-83791056D01*
X98733473Y-83956444D01*
X98674458Y-84138072D01*
X98673768Y-84144633D01*
X98673768Y-84144635D01*
X98665012Y-84227946D01*
X98637999Y-84293603D01*
X98579777Y-84334233D01*
X98539702Y-84340776D01*
X98463391Y-84340776D01*
X98459305Y-84341314D01*
X98459304Y-84341314D01*
X98349311Y-84355795D01*
X98349108Y-84354250D01*
X98304162Y-84354250D01*
X98303959Y-84355795D01*
X98193966Y-84341314D01*
X98193965Y-84341314D01*
X98189879Y-84340776D01*
X97963391Y-84340776D01*
X97959305Y-84341314D01*
X97959304Y-84341314D01*
X97849311Y-84355795D01*
X97849108Y-84354250D01*
X97804162Y-84354250D01*
X97803959Y-84355795D01*
X97693966Y-84341314D01*
X97693965Y-84341314D01*
X97689879Y-84340776D01*
X97463391Y-84340776D01*
X97459305Y-84341314D01*
X97459304Y-84341314D01*
X97443804Y-84343355D01*
X97349311Y-84355795D01*
X97345858Y-84357225D01*
X97276978Y-84355585D01*
X97218182Y-84315791D01*
X97190234Y-84250527D01*
X97193444Y-84205635D01*
X97195116Y-84201600D01*
X97210135Y-84087520D01*
X97210135Y-83861032D01*
X97195116Y-83746952D01*
X97196661Y-83746749D01*
X97196661Y-83701803D01*
X97195116Y-83701600D01*
X97209597Y-83591607D01*
X97209597Y-83591606D01*
X97210135Y-83587520D01*
X97210135Y-83361032D01*
X97195116Y-83246952D01*
X97196661Y-83246749D01*
X97196661Y-83201803D01*
X97195116Y-83201600D01*
X97209597Y-83091607D01*
X97209597Y-83091606D01*
X97210135Y-83087520D01*
X97210135Y-82861032D01*
X97195116Y-82746952D01*
X97196661Y-82746749D01*
X97196661Y-82701803D01*
X97195116Y-82701600D01*
X97209597Y-82591607D01*
X97209597Y-82591606D01*
X97210135Y-82587520D01*
X97210135Y-82361032D01*
X97195116Y-82246952D01*
X97196661Y-82246749D01*
X97196661Y-82201803D01*
X97195116Y-82201600D01*
X97209597Y-82091607D01*
X97209597Y-82091606D01*
X97210135Y-82087520D01*
X97210135Y-81861032D01*
X97195116Y-81746952D01*
X97196661Y-81746749D01*
X97196661Y-81701803D01*
X97195116Y-81701600D01*
X97209597Y-81591607D01*
X97209597Y-81591606D01*
X97210135Y-81587520D01*
X97210135Y-81361032D01*
X97195116Y-81246952D01*
X97196661Y-81246749D01*
X97196661Y-81201803D01*
X97195116Y-81201600D01*
X97209597Y-81091607D01*
X97209597Y-81091606D01*
X97210135Y-81087520D01*
X97210135Y-80861032D01*
X97205364Y-80824789D01*
X97195116Y-80746952D01*
X97196661Y-80746749D01*
X97196661Y-80701803D01*
X97195116Y-80701600D01*
X97209597Y-80591607D01*
X97209597Y-80591606D01*
X97210135Y-80587520D01*
X97210135Y-80361032D01*
X97195116Y-80246952D01*
X97196661Y-80246749D01*
X97196661Y-80201803D01*
X97195116Y-80201600D01*
X97209597Y-80091607D01*
X97209597Y-80091606D01*
X97210135Y-80087520D01*
X97210135Y-79861032D01*
X97195116Y-79746952D01*
X97196661Y-79746749D01*
X97196661Y-79701803D01*
X97195116Y-79701600D01*
X97209597Y-79591607D01*
X97209597Y-79591606D01*
X97210135Y-79587520D01*
X97210135Y-79361032D01*
X97195116Y-79246952D01*
X97196401Y-79246783D01*
X97196400Y-79201703D01*
X97194629Y-79201470D01*
X97202427Y-79142236D01*
X97200216Y-79128054D01*
X97180851Y-79122493D01*
X97120898Y-79084465D01*
X97115682Y-79078111D01*
X97109361Y-79069873D01*
X97083760Y-79003656D01*
X97098023Y-78934107D01*
X97147623Y-78883309D01*
X97216812Y-78867392D01*
X97235520Y-78869922D01*
X97307056Y-78885128D01*
X97307061Y-78885128D01*
X97313513Y-78886500D01*
X97504487Y-78886500D01*
X97510939Y-78885128D01*
X97510944Y-78885128D01*
X97604060Y-78865335D01*
X97691288Y-78846794D01*
X97763456Y-78814663D01*
X97859722Y-78771803D01*
X97859724Y-78771802D01*
X97865752Y-78769118D01*
X98020253Y-78656866D01*
X98054841Y-78618452D01*
X98143621Y-78519852D01*
X98143622Y-78519851D01*
X98148040Y-78514944D01*
X98232766Y-78368194D01*
X98240223Y-78355279D01*
X98240224Y-78355278D01*
X98243527Y-78349556D01*
X98302542Y-78167928D01*
X98304711Y-78147297D01*
X98321814Y-77984565D01*
X98322504Y-77978000D01*
X98302542Y-77788072D01*
X98243527Y-77606444D01*
X98148040Y-77441056D01*
X98020253Y-77299134D01*
X97886010Y-77201600D01*
X97871094Y-77190763D01*
X97871093Y-77190762D01*
X97865752Y-77186882D01*
X97859724Y-77184198D01*
X97859722Y-77184197D01*
X97697319Y-77111891D01*
X97697318Y-77111891D01*
X97691288Y-77109206D01*
X97578570Y-77085247D01*
X97516097Y-77051518D01*
X97481775Y-76989369D01*
X97486503Y-76918530D01*
X97528779Y-76861492D01*
X97578570Y-76838753D01*
X97691288Y-76814794D01*
X97699275Y-76811238D01*
X97859722Y-76739803D01*
X97859724Y-76739802D01*
X97865752Y-76737118D01*
X97883428Y-76724276D01*
X97942122Y-76681632D01*
X98020253Y-76624866D01*
X98024675Y-76619955D01*
X98143621Y-76487852D01*
X98143622Y-76487851D01*
X98148040Y-76482944D01*
X98243527Y-76317556D01*
X98302542Y-76135928D01*
X98304911Y-76113394D01*
X98321814Y-75952565D01*
X98322504Y-75946000D01*
X98315672Y-75881000D01*
X98303232Y-75762635D01*
X98303232Y-75762633D01*
X98302542Y-75756072D01*
X98243527Y-75574444D01*
X98238075Y-75565000D01*
X98188403Y-75478967D01*
X98148040Y-75409056D01*
X98083469Y-75337342D01*
X98024675Y-75272045D01*
X98024674Y-75272044D01*
X98020253Y-75267134D01*
X97865752Y-75154882D01*
X97859724Y-75152198D01*
X97859722Y-75152197D01*
X97697319Y-75079891D01*
X97697318Y-75079891D01*
X97691288Y-75077206D01*
X97580396Y-75053635D01*
X97510944Y-75038872D01*
X97510939Y-75038872D01*
X97504487Y-75037500D01*
X97336135Y-75037500D01*
X97268014Y-75017498D01*
X97221521Y-74963842D01*
X97210135Y-74911500D01*
X97210135Y-74861032D01*
X97195116Y-74746952D01*
X97196661Y-74746749D01*
X97196661Y-74701803D01*
X97195116Y-74701600D01*
X97209597Y-74591607D01*
X97209597Y-74591606D01*
X97210135Y-74587520D01*
X97210135Y-74361032D01*
X97209521Y-74356364D01*
X97195116Y-74246952D01*
X97196661Y-74246749D01*
X97196661Y-74201803D01*
X97195116Y-74201600D01*
X97209597Y-74091607D01*
X97209597Y-74091606D01*
X97210135Y-74087520D01*
X97210135Y-73861032D01*
X97208122Y-73845738D01*
X97195116Y-73746952D01*
X97196661Y-73746749D01*
X97196661Y-73701803D01*
X97195116Y-73701600D01*
X97209597Y-73591607D01*
X97209597Y-73591606D01*
X97210135Y-73587520D01*
X97210135Y-73361032D01*
X97200234Y-73285823D01*
X97195116Y-73246952D01*
X97196661Y-73246749D01*
X97196661Y-73201803D01*
X97195116Y-73201600D01*
X97209597Y-73091607D01*
X97209597Y-73091606D01*
X97210135Y-73087520D01*
X97210135Y-72861032D01*
X97195116Y-72746952D01*
X97196661Y-72746749D01*
X97196661Y-72701803D01*
X97195116Y-72701600D01*
X97209597Y-72591607D01*
X97209597Y-72591606D01*
X97210135Y-72587520D01*
X97210135Y-72361032D01*
X97207323Y-72339669D01*
X97195116Y-72246952D01*
X97196661Y-72246749D01*
X97196661Y-72201803D01*
X97195116Y-72201600D01*
X97209597Y-72091607D01*
X97209597Y-72091606D01*
X97210135Y-72087520D01*
X97210135Y-71861032D01*
X97195116Y-71746952D01*
X97193686Y-71743499D01*
X97195326Y-71674619D01*
X97235120Y-71615823D01*
X97300384Y-71587875D01*
X97345276Y-71591085D01*
G37*
G04 #@! TD.AperFunction*
G04 #@! TA.AperFunction,Conductor*
G36*
X87059121Y-80456502D02*
G01*
X87105614Y-80510158D01*
X87117000Y-80562500D01*
X87117000Y-81682627D01*
X87096998Y-81750748D01*
X87080095Y-81771722D01*
X87073244Y-81778573D01*
X87010932Y-81812599D01*
X86984149Y-81815478D01*
X86735000Y-81815478D01*
X86666879Y-81795476D01*
X86620386Y-81741820D01*
X86609000Y-81689478D01*
X86609000Y-80623373D01*
X86629002Y-80555252D01*
X86645905Y-80534278D01*
X86706778Y-80473405D01*
X86769090Y-80439379D01*
X86795873Y-80436500D01*
X86991000Y-80436500D01*
X87059121Y-80456502D01*
G37*
G04 #@! TD.AperFunction*
G04 #@! TA.AperFunction,Conductor*
G36*
X87059121Y-78041991D02*
G01*
X87105614Y-78095647D01*
X87117000Y-78147989D01*
X87117000Y-79142627D01*
X87096998Y-79210748D01*
X87080095Y-79231722D01*
X87019222Y-79292595D01*
X86956910Y-79326621D01*
X86930127Y-79329500D01*
X86735000Y-79329500D01*
X86666879Y-79309498D01*
X86620386Y-79255842D01*
X86609000Y-79203500D01*
X86609000Y-78147989D01*
X86629002Y-78079868D01*
X86682658Y-78033375D01*
X86735000Y-78021989D01*
X86991000Y-78021989D01*
X87059121Y-78041991D01*
G37*
G04 #@! TD.AperFunction*
G04 #@! TA.AperFunction,Conductor*
G36*
X94542892Y-77547778D02*
G01*
X94589385Y-77601434D01*
X94599693Y-77637330D01*
X94608154Y-77701600D01*
X94606609Y-77701803D01*
X94606609Y-77746749D01*
X94608154Y-77746952D01*
X94593135Y-77861032D01*
X94593135Y-78087520D01*
X94593673Y-78091606D01*
X94593673Y-78091607D01*
X94608154Y-78201600D01*
X94606609Y-78201803D01*
X94606609Y-78246749D01*
X94608154Y-78246952D01*
X94593135Y-78361032D01*
X94593135Y-78587520D01*
X94593673Y-78591606D01*
X94593673Y-78591607D01*
X94608154Y-78701600D01*
X94606869Y-78701769D01*
X94606870Y-78746848D01*
X94608641Y-78747081D01*
X94600197Y-78811222D01*
X94571475Y-78876149D01*
X94512210Y-78915241D01*
X94475275Y-78920776D01*
X88947781Y-78920776D01*
X88879660Y-78900774D01*
X88833167Y-78847118D01*
X88824898Y-78811785D01*
X88823428Y-78812034D01*
X88820265Y-78793334D01*
X88818500Y-78772320D01*
X88818500Y-78132457D01*
X88838502Y-78064336D01*
X88855405Y-78043362D01*
X89334086Y-77564681D01*
X89396398Y-77530655D01*
X89423181Y-77527776D01*
X94474771Y-77527776D01*
X94542892Y-77547778D01*
G37*
G04 #@! TD.AperFunction*
G04 #@! TA.AperFunction,Conductor*
G36*
X87059121Y-75263258D02*
G01*
X87105614Y-75316914D01*
X87117000Y-75369256D01*
X87117000Y-76602627D01*
X87096998Y-76670748D01*
X87080095Y-76691722D01*
X87073244Y-76698573D01*
X87010932Y-76732599D01*
X86984149Y-76735478D01*
X86735000Y-76735478D01*
X86666879Y-76715476D01*
X86620386Y-76661820D01*
X86609000Y-76609478D01*
X86609000Y-75369256D01*
X86629002Y-75301135D01*
X86682658Y-75254642D01*
X86735000Y-75243256D01*
X86991000Y-75243256D01*
X87059121Y-75263258D01*
G37*
G04 #@! TD.AperFunction*
G04 #@! TA.AperFunction,Conductor*
G36*
X94542892Y-76047778D02*
G01*
X94589385Y-76101434D01*
X94599692Y-76137328D01*
X94600335Y-76142206D01*
X94608154Y-76201600D01*
X94606869Y-76201769D01*
X94606870Y-76246848D01*
X94608641Y-76247081D01*
X94600197Y-76311222D01*
X94571475Y-76376149D01*
X94512210Y-76415241D01*
X94475275Y-76420776D01*
X90528315Y-76420776D01*
X90460194Y-76400774D01*
X90413701Y-76347118D01*
X90403597Y-76276844D01*
X90433091Y-76212264D01*
X90439220Y-76205681D01*
X90580220Y-76064681D01*
X90642532Y-76030655D01*
X90669315Y-76027776D01*
X94474771Y-76027776D01*
X94542892Y-76047778D01*
G37*
G04 #@! TD.AperFunction*
G04 #@! TA.AperFunction,Conductor*
G36*
X87059121Y-72961991D02*
G01*
X87105614Y-73015647D01*
X87117000Y-73067989D01*
X87117000Y-73260885D01*
X87121475Y-73276124D01*
X87122865Y-73277329D01*
X87130548Y-73279000D01*
X88181344Y-73279000D01*
X88194875Y-73275027D01*
X88196180Y-73265947D01*
X88154166Y-73098685D01*
X88156970Y-73027744D01*
X88197683Y-72969580D01*
X88263378Y-72942661D01*
X88276370Y-72941989D01*
X93438085Y-72941989D01*
X93506206Y-72961991D01*
X93527180Y-72978894D01*
X94469447Y-73921161D01*
X94503473Y-73983473D01*
X94498408Y-74054288D01*
X94455861Y-74111124D01*
X94389341Y-74135935D01*
X94380352Y-74136256D01*
X88269055Y-74136256D01*
X88200934Y-74116254D01*
X88154441Y-74062598D01*
X88144337Y-73992324D01*
X88148497Y-73973627D01*
X88193377Y-73825910D01*
X88195555Y-73815837D01*
X88196986Y-73804962D01*
X88194775Y-73790778D01*
X88181617Y-73787000D01*
X87135115Y-73787000D01*
X87119876Y-73791475D01*
X87118671Y-73792865D01*
X87117000Y-73800548D01*
X87117000Y-74010256D01*
X87096998Y-74078377D01*
X87043342Y-74124870D01*
X86991000Y-74136256D01*
X86735000Y-74136256D01*
X86666879Y-74116254D01*
X86620386Y-74062598D01*
X86609000Y-74010256D01*
X86609000Y-73067989D01*
X86629002Y-72999868D01*
X86682658Y-72953375D01*
X86735000Y-72941989D01*
X86991000Y-72941989D01*
X87059121Y-72961991D01*
G37*
G04 #@! TD.AperFunction*
G04 #@! TA.AperFunction,Conductor*
G36*
X116487121Y-69761982D02*
G01*
X116533614Y-69815638D01*
X116545000Y-69867980D01*
X116545000Y-70085885D01*
X116549475Y-70101124D01*
X116550865Y-70102329D01*
X116558548Y-70104000D01*
X118842884Y-70104000D01*
X118858123Y-70099525D01*
X118859328Y-70098135D01*
X118860999Y-70090452D01*
X118860999Y-69867980D01*
X118881001Y-69799859D01*
X118934657Y-69753366D01*
X118986999Y-69741980D01*
X119518500Y-69741980D01*
X119586621Y-69761982D01*
X119633114Y-69815638D01*
X119644500Y-69867980D01*
X119644500Y-70681543D01*
X119624498Y-70749664D01*
X119607595Y-70770638D01*
X119240158Y-71138075D01*
X119177846Y-71172101D01*
X119151063Y-71174980D01*
X118986060Y-71174980D01*
X118917939Y-71154978D01*
X118871446Y-71101322D01*
X118861319Y-71039818D01*
X118860508Y-71039777D01*
X118861000Y-71030146D01*
X118861000Y-70630115D01*
X118856525Y-70614876D01*
X118855135Y-70613671D01*
X118847452Y-70612000D01*
X116563116Y-70612000D01*
X116547877Y-70616475D01*
X116546672Y-70617865D01*
X116545001Y-70625548D01*
X116545001Y-71030095D01*
X116545338Y-71036614D01*
X116555257Y-71132206D01*
X116558149Y-71145600D01*
X116611906Y-71306732D01*
X116609950Y-71307384D01*
X116619179Y-71367391D01*
X116590321Y-71432258D01*
X116583387Y-71439779D01*
X116139295Y-71883871D01*
X116076983Y-71917897D01*
X116050200Y-71920776D01*
X112678499Y-71920776D01*
X112610378Y-71900774D01*
X112563885Y-71847118D01*
X112553577Y-71811222D01*
X112549683Y-71781638D01*
X112545116Y-71746952D01*
X112494331Y-71624346D01*
X112486742Y-71553756D01*
X112521645Y-71487033D01*
X114229793Y-69778885D01*
X114292105Y-69744859D01*
X114318888Y-69741980D01*
X116419000Y-69741980D01*
X116487121Y-69761982D01*
G37*
G04 #@! TD.AperFunction*
G04 #@! TA.AperFunction,Conductor*
G36*
X87059121Y-70171013D02*
G01*
X87105614Y-70224669D01*
X87117000Y-70277011D01*
X87117000Y-70720885D01*
X87121475Y-70736124D01*
X87122865Y-70737329D01*
X87130548Y-70739000D01*
X88181344Y-70739000D01*
X88194875Y-70735027D01*
X88196180Y-70725947D01*
X88154214Y-70558875D01*
X88150894Y-70549124D01*
X88065972Y-70353814D01*
X88058661Y-70340180D01*
X88059818Y-70339560D01*
X88041359Y-70277397D01*
X88061152Y-70209215D01*
X88114665Y-70162558D01*
X88167358Y-70151011D01*
X96792135Y-70151011D01*
X96860256Y-70171013D01*
X96906749Y-70224669D01*
X96918135Y-70277011D01*
X96918135Y-71062520D01*
X96933154Y-71176600D01*
X96934584Y-71180053D01*
X96932944Y-71248933D01*
X96893150Y-71307729D01*
X96827886Y-71335677D01*
X96782994Y-71332467D01*
X96778959Y-71330795D01*
X96684466Y-71318355D01*
X96668966Y-71316314D01*
X96668965Y-71316314D01*
X96664879Y-71315776D01*
X95138391Y-71315776D01*
X95134305Y-71316314D01*
X95134304Y-71316314D01*
X95117366Y-71318544D01*
X95024311Y-71330795D01*
X95016684Y-71333954D01*
X95016681Y-71333955D01*
X94987552Y-71346021D01*
X94882367Y-71389590D01*
X94760478Y-71483119D01*
X94666949Y-71605009D01*
X94608154Y-71746952D01*
X94605016Y-71745652D01*
X94576223Y-71792816D01*
X94512341Y-71823793D01*
X94441853Y-71815315D01*
X94402438Y-71788618D01*
X94370603Y-71756783D01*
X94366950Y-71752974D01*
X94330513Y-71713349D01*
X94324695Y-71707022D01*
X94287494Y-71683956D01*
X94277712Y-71677233D01*
X94249678Y-71655954D01*
X94249673Y-71655951D01*
X94242834Y-71650760D01*
X94228720Y-71645172D01*
X94208707Y-71635106D01*
X94203110Y-71631636D01*
X94203111Y-71631636D01*
X94195809Y-71627109D01*
X94153766Y-71614894D01*
X94142539Y-71611050D01*
X94109823Y-71598097D01*
X94109814Y-71598095D01*
X94101833Y-71594935D01*
X94093292Y-71594037D01*
X94093287Y-71594036D01*
X94086736Y-71593347D01*
X94064763Y-71589036D01*
X94056529Y-71586644D01*
X94056518Y-71586642D01*
X94050181Y-71584801D01*
X94042438Y-71584232D01*
X94041729Y-71584180D01*
X94041721Y-71584180D01*
X94039424Y-71584011D01*
X94004506Y-71584011D01*
X93991335Y-71583321D01*
X93959558Y-71579981D01*
X93951014Y-71579083D01*
X93942542Y-71580516D01*
X93942541Y-71580516D01*
X93932314Y-71582246D01*
X93911300Y-71584011D01*
X88272775Y-71584011D01*
X88204654Y-71564009D01*
X88158161Y-71510353D01*
X88148057Y-71440079D01*
X88152217Y-71421382D01*
X88193377Y-71285910D01*
X88195555Y-71275837D01*
X88196986Y-71264962D01*
X88194775Y-71250778D01*
X88181617Y-71247000D01*
X87135115Y-71247000D01*
X87119876Y-71251475D01*
X87118671Y-71252865D01*
X87117000Y-71260548D01*
X87117000Y-71458011D01*
X87096998Y-71526132D01*
X87043342Y-71572625D01*
X86991000Y-71584011D01*
X86735000Y-71584011D01*
X86666879Y-71564009D01*
X86620386Y-71510353D01*
X86609000Y-71458011D01*
X86609000Y-70277011D01*
X86629002Y-70208890D01*
X86682658Y-70162397D01*
X86735000Y-70151011D01*
X86991000Y-70151011D01*
X87059121Y-70171013D01*
G37*
G04 #@! TD.AperFunction*
G04 #@! TA.AperFunction,Conductor*
G36*
X87059121Y-67631013D02*
G01*
X87105614Y-67684669D01*
X87117000Y-67737011D01*
X87117000Y-68180885D01*
X87121475Y-68196124D01*
X87122865Y-68197329D01*
X87130548Y-68199000D01*
X88181344Y-68199000D01*
X88194875Y-68195027D01*
X88196180Y-68185947D01*
X88154214Y-68018875D01*
X88150894Y-68009124D01*
X88065972Y-67813814D01*
X88058661Y-67800180D01*
X88059818Y-67799560D01*
X88041359Y-67737397D01*
X88061152Y-67669215D01*
X88114665Y-67622558D01*
X88167358Y-67611011D01*
X91674288Y-67611011D01*
X91742409Y-67631013D01*
X91763383Y-67647916D01*
X92944383Y-68828916D01*
X92978409Y-68891228D01*
X92973344Y-68962043D01*
X92930797Y-69018879D01*
X92864277Y-69043690D01*
X92855288Y-69044011D01*
X88272775Y-69044011D01*
X88204654Y-69024009D01*
X88158161Y-68970353D01*
X88148057Y-68900079D01*
X88152217Y-68881382D01*
X88193377Y-68745910D01*
X88195555Y-68735837D01*
X88196986Y-68724962D01*
X88194775Y-68710778D01*
X88181617Y-68707000D01*
X87135115Y-68707000D01*
X87119876Y-68711475D01*
X87118671Y-68712865D01*
X87117000Y-68720548D01*
X87117000Y-68918011D01*
X87096998Y-68986132D01*
X87043342Y-69032625D01*
X86991000Y-69044011D01*
X86735000Y-69044011D01*
X86666879Y-69024009D01*
X86620386Y-68970353D01*
X86609000Y-68918011D01*
X86609000Y-67737011D01*
X86629002Y-67668890D01*
X86682658Y-67622397D01*
X86735000Y-67611011D01*
X86991000Y-67611011D01*
X87059121Y-67631013D01*
G37*
G04 #@! TD.AperFunction*
G04 #@! TA.AperFunction,Conductor*
G36*
X87059121Y-65270524D02*
G01*
X87105614Y-65324180D01*
X87117000Y-65376522D01*
X87117000Y-65640885D01*
X87121475Y-65656124D01*
X87122865Y-65657329D01*
X87130548Y-65659000D01*
X88181344Y-65659000D01*
X88194875Y-65655027D01*
X88196180Y-65645947D01*
X88154214Y-65478875D01*
X88150894Y-65469124D01*
X88132476Y-65426764D01*
X88123657Y-65356317D01*
X88154323Y-65292285D01*
X88214740Y-65254998D01*
X88248026Y-65250522D01*
X89567665Y-65250522D01*
X89635786Y-65270524D01*
X89656760Y-65287427D01*
X90658249Y-66288916D01*
X90692275Y-66351228D01*
X90687210Y-66422043D01*
X90644663Y-66478879D01*
X90578143Y-66503690D01*
X90569154Y-66504011D01*
X88272775Y-66504011D01*
X88204654Y-66484009D01*
X88158161Y-66430353D01*
X88148057Y-66360079D01*
X88152217Y-66341382D01*
X88193377Y-66205910D01*
X88195555Y-66195837D01*
X88196986Y-66184962D01*
X88194775Y-66170778D01*
X88181617Y-66167000D01*
X87135115Y-66167000D01*
X87119876Y-66171475D01*
X87118671Y-66172865D01*
X87117000Y-66180548D01*
X87117000Y-66378011D01*
X87096998Y-66446132D01*
X87043342Y-66492625D01*
X86991000Y-66504011D01*
X86735000Y-66504011D01*
X86666879Y-66484009D01*
X86620386Y-66430353D01*
X86609000Y-66378011D01*
X86609000Y-65376522D01*
X86629002Y-65308401D01*
X86682658Y-65261908D01*
X86735000Y-65250522D01*
X86991000Y-65250522D01*
X87059121Y-65270524D01*
G37*
G04 #@! TD.AperFunction*
G04 #@! TA.AperFunction,Conductor*
G36*
X87059121Y-60261991D02*
G01*
X87105614Y-60315647D01*
X87117000Y-60367989D01*
X87117000Y-63100885D01*
X87121475Y-63116124D01*
X87122865Y-63117329D01*
X87130548Y-63119000D01*
X88181344Y-63119000D01*
X88194875Y-63115027D01*
X88196180Y-63105947D01*
X88154214Y-62938875D01*
X88150894Y-62929124D01*
X88065972Y-62733814D01*
X88061105Y-62724739D01*
X87945426Y-62545926D01*
X87939136Y-62537757D01*
X87795806Y-62380240D01*
X87788273Y-62373215D01*
X87621139Y-62241222D01*
X87612552Y-62235517D01*
X87575116Y-62214851D01*
X87525146Y-62164419D01*
X87510374Y-62094976D01*
X87535490Y-62028571D01*
X87562842Y-62001964D01*
X87738327Y-61876792D01*
X87746200Y-61870139D01*
X87897052Y-61719812D01*
X87903730Y-61711965D01*
X88028003Y-61539020D01*
X88033313Y-61530183D01*
X88087817Y-61419904D01*
X88135931Y-61367697D01*
X88204632Y-61349790D01*
X88272109Y-61371869D01*
X88289868Y-61386635D01*
X90664648Y-63761415D01*
X90698673Y-63823726D01*
X90693608Y-63894541D01*
X90651061Y-63951377D01*
X90584541Y-63976188D01*
X90558874Y-63974009D01*
X90558777Y-63974934D01*
X90543683Y-63973347D01*
X90521710Y-63969036D01*
X90513476Y-63966644D01*
X90513465Y-63966642D01*
X90507128Y-63964801D01*
X90499385Y-63964232D01*
X90498676Y-63964180D01*
X90498668Y-63964180D01*
X90496371Y-63964011D01*
X90461453Y-63964011D01*
X90448282Y-63963321D01*
X90416505Y-63959981D01*
X90407961Y-63959083D01*
X90399489Y-63960516D01*
X90399488Y-63960516D01*
X90389261Y-63962246D01*
X90368247Y-63964011D01*
X88272775Y-63964011D01*
X88204654Y-63944009D01*
X88158161Y-63890353D01*
X88148057Y-63820079D01*
X88152217Y-63801382D01*
X88193377Y-63665910D01*
X88195555Y-63655837D01*
X88196986Y-63644962D01*
X88194775Y-63630778D01*
X88181617Y-63627000D01*
X87135115Y-63627000D01*
X87119876Y-63631475D01*
X87118671Y-63632865D01*
X87117000Y-63640548D01*
X87117000Y-63838011D01*
X87096998Y-63906132D01*
X87043342Y-63952625D01*
X86991000Y-63964011D01*
X86735000Y-63964011D01*
X86666879Y-63944009D01*
X86620386Y-63890353D01*
X86609000Y-63838011D01*
X86609000Y-62582600D01*
X86609690Y-62569428D01*
X86611238Y-62554699D01*
X86612136Y-62546158D01*
X86610704Y-62537689D01*
X86610434Y-62529103D01*
X86610603Y-62529098D01*
X86610550Y-62528250D01*
X86610382Y-62528266D01*
X86609573Y-62519713D01*
X86609629Y-62518381D01*
X86609855Y-62517213D01*
X86609749Y-62515521D01*
X86609934Y-62511117D01*
X86611027Y-62511163D01*
X86611804Y-62507151D01*
X86609000Y-62507151D01*
X86609000Y-60367989D01*
X86629002Y-60299868D01*
X86682658Y-60253375D01*
X86735000Y-60241989D01*
X86991000Y-60241989D01*
X87059121Y-60261991D01*
G37*
G04 #@! TD.AperFunction*
G04 #@! TA.AperFunction,Conductor*
G36*
X110088039Y-58102541D02*
G01*
X110122090Y-58126787D01*
X112545708Y-60550405D01*
X112579734Y-60612717D01*
X112574669Y-60683532D01*
X112532122Y-60740368D01*
X112465602Y-60765179D01*
X112456613Y-60765500D01*
X111338600Y-60765500D01*
X111335354Y-60765837D01*
X111335350Y-60765837D01*
X111239692Y-60775762D01*
X111239688Y-60775763D01*
X111232834Y-60776474D01*
X111226298Y-60778655D01*
X111226296Y-60778655D01*
X111147778Y-60804851D01*
X111065054Y-60832450D01*
X110914652Y-60925522D01*
X110909479Y-60930704D01*
X110860373Y-60979896D01*
X110798091Y-61013975D01*
X110727271Y-61008972D01*
X110682183Y-60980051D01*
X110631914Y-60929870D01*
X110631909Y-60929866D01*
X110626729Y-60924695D01*
X110620498Y-60920854D01*
X110482394Y-60835725D01*
X110482392Y-60835724D01*
X110476164Y-60831885D01*
X110315680Y-60778655D01*
X110314815Y-60778368D01*
X110314813Y-60778368D01*
X110308287Y-60776203D01*
X110301451Y-60775503D01*
X110301448Y-60775502D01*
X110253514Y-60770591D01*
X110203826Y-60765500D01*
X108853026Y-60765500D01*
X108849780Y-60765837D01*
X108849776Y-60765837D01*
X108754118Y-60775762D01*
X108754114Y-60775763D01*
X108747260Y-60776474D01*
X108740724Y-60778655D01*
X108740722Y-60778655D01*
X108662204Y-60804851D01*
X108579480Y-60832450D01*
X108429078Y-60925522D01*
X108423905Y-60930704D01*
X108374800Y-60979895D01*
X108312518Y-61013974D01*
X108241698Y-61008971D01*
X108196611Y-60980051D01*
X108141158Y-60924695D01*
X108134927Y-60920854D01*
X107996823Y-60835725D01*
X107996821Y-60835724D01*
X107990593Y-60831885D01*
X107930460Y-60811940D01*
X107872100Y-60771510D01*
X107844862Y-60705946D01*
X107857395Y-60636065D01*
X107861007Y-60629347D01*
X107892223Y-60575279D01*
X107892224Y-60575278D01*
X107895527Y-60569556D01*
X107954542Y-60387928D01*
X107956711Y-60367297D01*
X107973814Y-60204565D01*
X107974504Y-60198000D01*
X107962070Y-60079697D01*
X107955232Y-60014635D01*
X107955232Y-60014633D01*
X107954542Y-60008072D01*
X107907581Y-59863543D01*
X107897568Y-59832725D01*
X107897567Y-59832724D01*
X107895527Y-59826444D01*
X107895683Y-59826393D01*
X107886654Y-59759027D01*
X107916763Y-59694731D01*
X107976853Y-59656920D01*
X108047846Y-59657599D01*
X108064444Y-59663955D01*
X108164947Y-59710821D01*
X108175239Y-59714567D01*
X108385688Y-59770956D01*
X108396481Y-59772859D01*
X108613525Y-59791848D01*
X108624475Y-59791848D01*
X108841519Y-59772859D01*
X108852312Y-59770956D01*
X109062761Y-59714567D01*
X109073053Y-59710821D01*
X109270511Y-59618745D01*
X109280006Y-59613262D01*
X109332048Y-59576822D01*
X109340424Y-59566343D01*
X109333356Y-59552897D01*
X108348885Y-58568426D01*
X108314859Y-58506114D01*
X108319924Y-58435299D01*
X108348885Y-58390236D01*
X108529905Y-58209216D01*
X108592217Y-58175190D01*
X108663032Y-58180255D01*
X108708095Y-58209216D01*
X109693287Y-59194408D01*
X109705062Y-59200838D01*
X109717077Y-59191542D01*
X109752931Y-59140337D01*
X109758414Y-59130842D01*
X109850490Y-58933384D01*
X109854236Y-58923092D01*
X109910625Y-58712643D01*
X109912528Y-58701850D01*
X109931517Y-58484806D01*
X109931517Y-58473856D01*
X109912528Y-58256812D01*
X109909670Y-58240601D01*
X109911486Y-58240281D01*
X109912974Y-58177528D01*
X109952763Y-58118729D01*
X110018024Y-58090775D01*
X110088039Y-58102541D01*
G37*
G04 #@! TD.AperFunction*
G04 #@! TA.AperFunction,Conductor*
G36*
X86872759Y-57471013D02*
G01*
X86893733Y-57487916D01*
X87080095Y-57674278D01*
X87114121Y-57736590D01*
X87117000Y-57763373D01*
X87117000Y-59008989D01*
X87096998Y-59077110D01*
X87043342Y-59123603D01*
X86991000Y-59134989D01*
X86735000Y-59134989D01*
X86666879Y-59114987D01*
X86620386Y-59061331D01*
X86609000Y-59008989D01*
X86609000Y-57577011D01*
X86629002Y-57508890D01*
X86682658Y-57462397D01*
X86735000Y-57451011D01*
X86804638Y-57451011D01*
X86872759Y-57471013D01*
G37*
G04 #@! TD.AperFunction*
M02*
