G04 #@! TF.GenerationSoftware,KiCad,Pcbnew,(6.0.1-0)*
G04 #@! TF.CreationDate,2022-03-29T21:42:36-04:00*
G04 #@! TF.ProjectId,G76 Mini,47373620-4d69-46e6-992e-6b696361645f,rev?*
G04 #@! TF.SameCoordinates,Original*
G04 #@! TF.FileFunction,Soldermask,Top*
G04 #@! TF.FilePolarity,Negative*
%FSLAX46Y46*%
G04 Gerber Fmt 4.6, Leading zero omitted, Abs format (unit mm)*
G04 Created by KiCad (PCBNEW (6.0.1-0)) date 2022-03-29 21:42:36*
%MOMM*%
%LPD*%
G01*
G04 APERTURE LIST*
G04 Aperture macros list*
%AMRoundRect*
0 Rectangle with rounded corners*
0 $1 Rounding radius*
0 $2 $3 $4 $5 $6 $7 $8 $9 X,Y pos of 4 corners*
0 Add a 4 corners polygon primitive as box body*
4,1,4,$2,$3,$4,$5,$6,$7,$8,$9,$2,$3,0*
0 Add four circle primitives for the rounded corners*
1,1,$1+$1,$2,$3*
1,1,$1+$1,$4,$5*
1,1,$1+$1,$6,$7*
1,1,$1+$1,$8,$9*
0 Add four rect primitives between the rounded corners*
20,1,$1+$1,$2,$3,$4,$5,0*
20,1,$1+$1,$4,$5,$6,$7,0*
20,1,$1+$1,$6,$7,$8,$9,0*
20,1,$1+$1,$8,$9,$2,$3,0*%
G04 Aperture macros list end*
%ADD10RoundRect,0.250000X0.625000X-0.400000X0.625000X0.400000X-0.625000X0.400000X-0.625000X-0.400000X0*%
%ADD11R,1.600000X1.600000*%
%ADD12C,1.600000*%
%ADD13R,2.200000X0.450000*%
%ADD14RoundRect,0.250000X-0.400000X-0.625000X0.400000X-0.625000X0.400000X0.625000X-0.400000X0.625000X0*%
%ADD15R,1.700000X1.700000*%
%ADD16O,1.700000X1.700000*%
%ADD17RoundRect,0.075000X0.725000X0.075000X-0.725000X0.075000X-0.725000X-0.075000X0.725000X-0.075000X0*%
%ADD18RoundRect,0.075000X0.075000X0.725000X-0.075000X0.725000X-0.075000X-0.725000X0.075000X-0.725000X0*%
G04 APERTURE END LIST*
D10*
X94615000Y-65024000D03*
X94615000Y-61924000D03*
D11*
X126746000Y-102743000D03*
D12*
X126746000Y-87503000D03*
X119126000Y-87503000D03*
X119126000Y-102743000D03*
D13*
X100076000Y-95719500D03*
X100076000Y-96989500D03*
X100076000Y-98259500D03*
X100076000Y-99529500D03*
X100076000Y-100799500D03*
X100076000Y-102069500D03*
X100076000Y-103339500D03*
X100076000Y-104609500D03*
X100076000Y-105879500D03*
X100076000Y-107149500D03*
X100076000Y-108419500D03*
X100076000Y-109689500D03*
X100076000Y-110959500D03*
X100076000Y-112229500D03*
X100076000Y-113499500D03*
X100076000Y-114769500D03*
X107696000Y-114769500D03*
X107696000Y-113499500D03*
X107696000Y-112229500D03*
X107696000Y-110959500D03*
X107696000Y-109689500D03*
X107696000Y-108419500D03*
X107696000Y-107149500D03*
X107696000Y-105879500D03*
X107696000Y-104609500D03*
X107696000Y-103339500D03*
X107696000Y-102069500D03*
X107696000Y-100799500D03*
X107696000Y-99529500D03*
X107696000Y-98259500D03*
X107696000Y-96989500D03*
X107696000Y-95719500D03*
D10*
X99586142Y-65024000D03*
X99586142Y-61924000D03*
X109528426Y-65024000D03*
X109528426Y-61924000D03*
D14*
X117703000Y-75438000D03*
X120803000Y-75438000D03*
X117703000Y-70358000D03*
X120803000Y-70358000D03*
D11*
X99459000Y-58479331D03*
D12*
X101749000Y-58479331D03*
X104039000Y-58479331D03*
X106329000Y-58479331D03*
X108619000Y-58479331D03*
X98314000Y-56499331D03*
X100604000Y-56499331D03*
X102894000Y-56499331D03*
X105184000Y-56499331D03*
X107474000Y-56499331D03*
X99459000Y-54519331D03*
X101749000Y-54519331D03*
X104039000Y-54519331D03*
X106329000Y-54519331D03*
X108619000Y-54519331D03*
D10*
X102071713Y-65024000D03*
X102071713Y-61924000D03*
D14*
X117703000Y-67945000D03*
X120803000Y-67945000D03*
D10*
X112014000Y-65024000D03*
X112014000Y-61924000D03*
D15*
X124460000Y-67945000D03*
D16*
X127000000Y-67945000D03*
X124460000Y-70485000D03*
X127000000Y-70485000D03*
X124460000Y-73025000D03*
X127000000Y-73025000D03*
X124460000Y-75565000D03*
X127000000Y-75565000D03*
X124460000Y-78105000D03*
X127000000Y-78105000D03*
D17*
X111251635Y-83974276D03*
X111251635Y-83474276D03*
X111251635Y-82974276D03*
X111251635Y-82474276D03*
X111251635Y-81974276D03*
X111251635Y-81474276D03*
X111251635Y-80974276D03*
X111251635Y-80474276D03*
X111251635Y-79974276D03*
X111251635Y-79474276D03*
X111251635Y-78974276D03*
X111251635Y-78474276D03*
X111251635Y-77974276D03*
X111251635Y-77474276D03*
X111251635Y-76974276D03*
X111251635Y-76474276D03*
X111251635Y-75974276D03*
X111251635Y-75474276D03*
X111251635Y-74974276D03*
X111251635Y-74474276D03*
X111251635Y-73974276D03*
X111251635Y-73474276D03*
X111251635Y-72974276D03*
X111251635Y-72474276D03*
X111251635Y-71974276D03*
D18*
X109576635Y-70299276D03*
X109076635Y-70299276D03*
X108576635Y-70299276D03*
X108076635Y-70299276D03*
X107576635Y-70299276D03*
X107076635Y-70299276D03*
X106576635Y-70299276D03*
X106076635Y-70299276D03*
X105576635Y-70299276D03*
X105076635Y-70299276D03*
X104576635Y-70299276D03*
X104076635Y-70299276D03*
X103576635Y-70299276D03*
X103076635Y-70299276D03*
X102576635Y-70299276D03*
X102076635Y-70299276D03*
X101576635Y-70299276D03*
X101076635Y-70299276D03*
X100576635Y-70299276D03*
X100076635Y-70299276D03*
X99576635Y-70299276D03*
X99076635Y-70299276D03*
X98576635Y-70299276D03*
X98076635Y-70299276D03*
X97576635Y-70299276D03*
D17*
X95901635Y-71974276D03*
X95901635Y-72474276D03*
X95901635Y-72974276D03*
X95901635Y-73474276D03*
X95901635Y-73974276D03*
X95901635Y-74474276D03*
X95901635Y-74974276D03*
X95901635Y-75474276D03*
X95901635Y-75974276D03*
X95901635Y-76474276D03*
X95901635Y-76974276D03*
X95901635Y-77474276D03*
X95901635Y-77974276D03*
X95901635Y-78474276D03*
X95901635Y-78974276D03*
X95901635Y-79474276D03*
X95901635Y-79974276D03*
X95901635Y-80474276D03*
X95901635Y-80974276D03*
X95901635Y-81474276D03*
X95901635Y-81974276D03*
X95901635Y-82474276D03*
X95901635Y-82974276D03*
X95901635Y-83474276D03*
X95901635Y-83974276D03*
D18*
X97576635Y-85649276D03*
X98076635Y-85649276D03*
X98576635Y-85649276D03*
X99076635Y-85649276D03*
X99576635Y-85649276D03*
X100076635Y-85649276D03*
X100576635Y-85649276D03*
X101076635Y-85649276D03*
X101576635Y-85649276D03*
X102076635Y-85649276D03*
X102576635Y-85649276D03*
X103076635Y-85649276D03*
X103576635Y-85649276D03*
X104076635Y-85649276D03*
X104576635Y-85649276D03*
X105076635Y-85649276D03*
X105576635Y-85649276D03*
X106076635Y-85649276D03*
X106576635Y-85649276D03*
X107076635Y-85649276D03*
X107576635Y-85649276D03*
X108076635Y-85649276D03*
X108576635Y-85649276D03*
X109076635Y-85649276D03*
X109576635Y-85649276D03*
D10*
X104557284Y-65024000D03*
X104557284Y-61924000D03*
D15*
X84323000Y-53213000D03*
D16*
X86863000Y-53213000D03*
X84323000Y-55753000D03*
X86863000Y-55753000D03*
X84323000Y-58293000D03*
X86863000Y-58293000D03*
X84323000Y-60833000D03*
X86863000Y-60833000D03*
X84323000Y-63373000D03*
X86863000Y-63373000D03*
X84323000Y-65913000D03*
X86863000Y-65913000D03*
X84323000Y-68453000D03*
X86863000Y-68453000D03*
X84323000Y-70993000D03*
X86863000Y-70993000D03*
X84323000Y-73533000D03*
X86863000Y-73533000D03*
X84323000Y-76073000D03*
X86863000Y-76073000D03*
X84323000Y-78613000D03*
X86863000Y-78613000D03*
X84323000Y-81153000D03*
X86863000Y-81153000D03*
X84323000Y-83693000D03*
X86863000Y-83693000D03*
X84323000Y-86233000D03*
X86863000Y-86233000D03*
X84323000Y-88773000D03*
X86863000Y-88773000D03*
X84323000Y-91313000D03*
X86863000Y-91313000D03*
D10*
X107042855Y-65024000D03*
X107042855Y-61924000D03*
D14*
X117703000Y-72898000D03*
X120803000Y-72898000D03*
D10*
X97100571Y-65024000D03*
X97100571Y-61924000D03*
M02*
