G04 #@! TF.GenerationSoftware,KiCad,Pcbnew,(6.0.1-0)*
G04 #@! TF.CreationDate,2022-03-29T21:42:35-04:00*
G04 #@! TF.ProjectId,G76 Mini,47373620-4d69-46e6-992e-6b696361645f,rev?*
G04 #@! TF.SameCoordinates,Original*
G04 #@! TF.FileFunction,Copper,L3,Inr*
G04 #@! TF.FilePolarity,Positive*
%FSLAX46Y46*%
G04 Gerber Fmt 4.6, Leading zero omitted, Abs format (unit mm)*
G04 Created by KiCad (PCBNEW (6.0.1-0)) date 2022-03-29 21:42:35*
%MOMM*%
%LPD*%
G01*
G04 APERTURE LIST*
G04 #@! TA.AperFunction,ComponentPad*
%ADD10R,1.600000X1.600000*%
G04 #@! TD*
G04 #@! TA.AperFunction,ComponentPad*
%ADD11C,1.600000*%
G04 #@! TD*
G04 #@! TA.AperFunction,ComponentPad*
%ADD12R,1.700000X1.700000*%
G04 #@! TD*
G04 #@! TA.AperFunction,ComponentPad*
%ADD13O,1.700000X1.700000*%
G04 #@! TD*
G04 #@! TA.AperFunction,ViaPad*
%ADD14C,0.800000*%
G04 #@! TD*
G04 APERTURE END LIST*
D10*
X126746000Y-102743000D03*
D11*
X126746000Y-87503000D03*
X119126000Y-87503000D03*
X119126000Y-102743000D03*
D10*
X99459000Y-58479331D03*
D11*
X101749000Y-58479331D03*
X104039000Y-58479331D03*
X106329000Y-58479331D03*
X108619000Y-58479331D03*
X98314000Y-56499331D03*
X100604000Y-56499331D03*
X102894000Y-56499331D03*
X105184000Y-56499331D03*
X107474000Y-56499331D03*
X99459000Y-54519331D03*
X101749000Y-54519331D03*
X104039000Y-54519331D03*
X106329000Y-54519331D03*
X108619000Y-54519331D03*
D12*
X124460000Y-67945000D03*
D13*
X127000000Y-67945000D03*
X124460000Y-70485000D03*
X127000000Y-70485000D03*
X124460000Y-73025000D03*
X127000000Y-73025000D03*
X124460000Y-75565000D03*
X127000000Y-75565000D03*
X124460000Y-78105000D03*
X127000000Y-78105000D03*
D12*
X84323000Y-53213000D03*
D13*
X86863000Y-53213000D03*
X84323000Y-55753000D03*
X86863000Y-55753000D03*
X84323000Y-58293000D03*
X86863000Y-58293000D03*
X84323000Y-60833000D03*
X86863000Y-60833000D03*
X84323000Y-63373000D03*
X86863000Y-63373000D03*
X84323000Y-65913000D03*
X86863000Y-65913000D03*
X84323000Y-68453000D03*
X86863000Y-68453000D03*
X84323000Y-70993000D03*
X86863000Y-70993000D03*
X84323000Y-73533000D03*
X86863000Y-73533000D03*
X84323000Y-76073000D03*
X86863000Y-76073000D03*
X84323000Y-78613000D03*
X86863000Y-78613000D03*
X84323000Y-81153000D03*
X86863000Y-81153000D03*
X84323000Y-83693000D03*
X86863000Y-83693000D03*
X84323000Y-86233000D03*
X86863000Y-86233000D03*
X84323000Y-88773000D03*
X86863000Y-88773000D03*
X84323000Y-91313000D03*
X86863000Y-91313000D03*
D14*
X116078000Y-67945000D03*
X100076000Y-71755000D03*
X97409000Y-77978000D03*
X106553000Y-84074000D03*
X109855000Y-77944497D03*
X109728000Y-105918000D03*
X109855000Y-80043503D03*
X101262103Y-104208269D03*
X119126000Y-75438000D03*
X97409000Y-75946000D03*
X119126000Y-72898000D03*
X107271135Y-71737918D03*
X99568000Y-84328000D03*
X97917000Y-83820000D03*
X98171000Y-71755000D03*
X109855000Y-78994000D03*
X101219000Y-84201000D03*
X105537000Y-73152000D03*
X97663000Y-81407000D03*
X105410000Y-84074000D03*
X99060000Y-91313000D03*
X115316000Y-70866000D03*
X94234000Y-78232000D03*
X124079000Y-65278000D03*
X113538000Y-77597000D03*
X94234000Y-76200000D03*
X116713000Y-65024000D03*
X113030000Y-81407000D03*
X109220000Y-75311000D03*
X94361000Y-67183000D03*
X96266000Y-67183000D03*
X94234000Y-68326000D03*
X108076635Y-69202744D03*
X122174000Y-67945000D03*
X122301000Y-72898000D03*
X101219000Y-60198000D03*
X107061000Y-60198000D03*
X88873500Y-102108000D03*
X98552000Y-102108000D03*
X89381500Y-103380716D03*
X98552000Y-103378000D03*
X97918509Y-108006020D03*
X89916000Y-107061000D03*
X97059500Y-108236927D03*
X90678000Y-108458000D03*
X106172000Y-108331000D03*
X91694000Y-108458000D03*
X106172000Y-107061000D03*
X92329000Y-106680000D03*
X106172000Y-103378000D03*
X92964000Y-102743000D03*
X106172000Y-102108000D03*
X93726000Y-101473000D03*
X106172000Y-100838000D03*
X98042135Y-87503000D03*
G04 #@! TA.AperFunction,Conductor*
G36*
X130752121Y-46375002D02*
G01*
X130798614Y-46428658D01*
X130810000Y-46481000D01*
X130810000Y-117476000D01*
X130789998Y-117544121D01*
X130736342Y-117590614D01*
X130684000Y-117602000D01*
X82676000Y-117602000D01*
X82607879Y-117581998D01*
X82561386Y-117528342D01*
X82550000Y-117476000D01*
X82550000Y-107061000D01*
X89002496Y-107061000D01*
X89003186Y-107067565D01*
X89019402Y-107221847D01*
X89022458Y-107250928D01*
X89081473Y-107432556D01*
X89084776Y-107438278D01*
X89084777Y-107438279D01*
X89091365Y-107449690D01*
X89176960Y-107597944D01*
X89181375Y-107602847D01*
X89181379Y-107602852D01*
X89273985Y-107705701D01*
X89304747Y-107739866D01*
X89459248Y-107852118D01*
X89465276Y-107854802D01*
X89465278Y-107854803D01*
X89614086Y-107921056D01*
X89633712Y-107929794D01*
X89740653Y-107952525D01*
X89803126Y-107986253D01*
X89837448Y-108048403D01*
X89834289Y-108114708D01*
X89810025Y-108189385D01*
X89784458Y-108268072D01*
X89764496Y-108458000D01*
X89765186Y-108464565D01*
X89779652Y-108602198D01*
X89784458Y-108647928D01*
X89843473Y-108829556D01*
X89938960Y-108994944D01*
X90066747Y-109136866D01*
X90149664Y-109197109D01*
X90206122Y-109238128D01*
X90221248Y-109249118D01*
X90227276Y-109251802D01*
X90227278Y-109251803D01*
X90389681Y-109324109D01*
X90395712Y-109326794D01*
X90489113Y-109346647D01*
X90576056Y-109365128D01*
X90576061Y-109365128D01*
X90582513Y-109366500D01*
X90773487Y-109366500D01*
X90779939Y-109365128D01*
X90779944Y-109365128D01*
X90866887Y-109346647D01*
X90960288Y-109326794D01*
X91134752Y-109249118D01*
X91205118Y-109239684D01*
X91237247Y-109249118D01*
X91237248Y-109249118D01*
X91411712Y-109326794D01*
X91505113Y-109346647D01*
X91592056Y-109365128D01*
X91592061Y-109365128D01*
X91598513Y-109366500D01*
X91789487Y-109366500D01*
X91795939Y-109365128D01*
X91795944Y-109365128D01*
X91882887Y-109346647D01*
X91976288Y-109326794D01*
X91982319Y-109324109D01*
X92144722Y-109251803D01*
X92144724Y-109251802D01*
X92150752Y-109249118D01*
X92165879Y-109238128D01*
X92222336Y-109197109D01*
X92305253Y-109136866D01*
X92433040Y-108994944D01*
X92528527Y-108829556D01*
X92587542Y-108647928D01*
X92592349Y-108602198D01*
X92606814Y-108464565D01*
X92607504Y-108458000D01*
X92587542Y-108268072D01*
X92577422Y-108236927D01*
X96145996Y-108236927D01*
X96146686Y-108243492D01*
X96160779Y-108377576D01*
X96165958Y-108426855D01*
X96224973Y-108608483D01*
X96320460Y-108773871D01*
X96324878Y-108778778D01*
X96324879Y-108778779D01*
X96408932Y-108872129D01*
X96448247Y-108915793D01*
X96602748Y-109028045D01*
X96608776Y-109030729D01*
X96608778Y-109030730D01*
X96771181Y-109103036D01*
X96777212Y-109105721D01*
X96866985Y-109124803D01*
X96957556Y-109144055D01*
X96957561Y-109144055D01*
X96964013Y-109145427D01*
X97154987Y-109145427D01*
X97161439Y-109144055D01*
X97161444Y-109144055D01*
X97252015Y-109124803D01*
X97341788Y-109105721D01*
X97347819Y-109103036D01*
X97510222Y-109030730D01*
X97510224Y-109030729D01*
X97516252Y-109028045D01*
X97535929Y-109013749D01*
X97661188Y-108922743D01*
X97728056Y-108898884D01*
X97761445Y-108901432D01*
X97809265Y-108911596D01*
X97823022Y-108914520D01*
X98013996Y-108914520D01*
X98020448Y-108913148D01*
X98020453Y-108913148D01*
X98107397Y-108894667D01*
X98200797Y-108874814D01*
X98206828Y-108872129D01*
X98369231Y-108799823D01*
X98369233Y-108799822D01*
X98375261Y-108797138D01*
X98529762Y-108684886D01*
X98563039Y-108647928D01*
X98653130Y-108547872D01*
X98653131Y-108547871D01*
X98657549Y-108542964D01*
X98753036Y-108377576D01*
X98768170Y-108331000D01*
X105258496Y-108331000D01*
X105278458Y-108520928D01*
X105337473Y-108702556D01*
X105432960Y-108867944D01*
X105437378Y-108872851D01*
X105437379Y-108872852D01*
X105482301Y-108922743D01*
X105560747Y-109009866D01*
X105589464Y-109030730D01*
X105692680Y-109105721D01*
X105715248Y-109122118D01*
X105721276Y-109124802D01*
X105721278Y-109124803D01*
X105767601Y-109145427D01*
X105889712Y-109199794D01*
X105983113Y-109219647D01*
X106070056Y-109238128D01*
X106070061Y-109238128D01*
X106076513Y-109239500D01*
X106267487Y-109239500D01*
X106273939Y-109238128D01*
X106273944Y-109238128D01*
X106360887Y-109219647D01*
X106454288Y-109199794D01*
X106576399Y-109145427D01*
X106622722Y-109124803D01*
X106622724Y-109124802D01*
X106628752Y-109122118D01*
X106651321Y-109105721D01*
X106754536Y-109030730D01*
X106783253Y-109009866D01*
X106861699Y-108922743D01*
X106906621Y-108872852D01*
X106906622Y-108872851D01*
X106911040Y-108867944D01*
X107006527Y-108702556D01*
X107065542Y-108520928D01*
X107085504Y-108331000D01*
X107074927Y-108230362D01*
X107066232Y-108147635D01*
X107066232Y-108147633D01*
X107065542Y-108141072D01*
X107006527Y-107959444D01*
X106911040Y-107794056D01*
X106898662Y-107780309D01*
X106867946Y-107716303D01*
X106876710Y-107645850D01*
X106898661Y-107611693D01*
X106911040Y-107597944D01*
X106996635Y-107449690D01*
X107003223Y-107438279D01*
X107003224Y-107438278D01*
X107006527Y-107432556D01*
X107065542Y-107250928D01*
X107068599Y-107221847D01*
X107084814Y-107067565D01*
X107085504Y-107061000D01*
X107065542Y-106871072D01*
X107006527Y-106689444D01*
X107001075Y-106680000D01*
X106953077Y-106596866D01*
X106911040Y-106524056D01*
X106783253Y-106382134D01*
X106655831Y-106289556D01*
X106634094Y-106273763D01*
X106634093Y-106273762D01*
X106628752Y-106269882D01*
X106622724Y-106267198D01*
X106622722Y-106267197D01*
X106460319Y-106194891D01*
X106460318Y-106194891D01*
X106454288Y-106192206D01*
X106360887Y-106172353D01*
X106273944Y-106153872D01*
X106273939Y-106153872D01*
X106267487Y-106152500D01*
X106076513Y-106152500D01*
X106070061Y-106153872D01*
X106070056Y-106153872D01*
X105983112Y-106172353D01*
X105889712Y-106192206D01*
X105883682Y-106194891D01*
X105883681Y-106194891D01*
X105721278Y-106267197D01*
X105721276Y-106267198D01*
X105715248Y-106269882D01*
X105709907Y-106273762D01*
X105709906Y-106273763D01*
X105688169Y-106289556D01*
X105560747Y-106382134D01*
X105432960Y-106524056D01*
X105390923Y-106596866D01*
X105342926Y-106680000D01*
X105337473Y-106689444D01*
X105278458Y-106871072D01*
X105258496Y-107061000D01*
X105259186Y-107067565D01*
X105275402Y-107221847D01*
X105278458Y-107250928D01*
X105337473Y-107432556D01*
X105340776Y-107438278D01*
X105340777Y-107438279D01*
X105347365Y-107449690D01*
X105432960Y-107597944D01*
X105445338Y-107611691D01*
X105476054Y-107675697D01*
X105467290Y-107746150D01*
X105445339Y-107780307D01*
X105432960Y-107794056D01*
X105337473Y-107959444D01*
X105278458Y-108141072D01*
X105277768Y-108147633D01*
X105277768Y-108147635D01*
X105269073Y-108230362D01*
X105258496Y-108331000D01*
X98768170Y-108331000D01*
X98812051Y-108195948D01*
X98818479Y-108134794D01*
X98831323Y-108012585D01*
X98832013Y-108006020D01*
X98824146Y-107931166D01*
X98812741Y-107822655D01*
X98812741Y-107822653D01*
X98812051Y-107816092D01*
X98753036Y-107634464D01*
X98725707Y-107587128D01*
X98703982Y-107549500D01*
X98657549Y-107469076D01*
X98529762Y-107327154D01*
X98375261Y-107214902D01*
X98369233Y-107212218D01*
X98369231Y-107212217D01*
X98206828Y-107139911D01*
X98206827Y-107139911D01*
X98200797Y-107137226D01*
X98107397Y-107117373D01*
X98020453Y-107098892D01*
X98020448Y-107098892D01*
X98013996Y-107097520D01*
X97823022Y-107097520D01*
X97816570Y-107098892D01*
X97816565Y-107098892D01*
X97729621Y-107117373D01*
X97636221Y-107137226D01*
X97630191Y-107139911D01*
X97630190Y-107139911D01*
X97467787Y-107212217D01*
X97467785Y-107212218D01*
X97461757Y-107214902D01*
X97456416Y-107218782D01*
X97456415Y-107218783D01*
X97316821Y-107320204D01*
X97249953Y-107344063D01*
X97216564Y-107341515D01*
X97161446Y-107329800D01*
X97161447Y-107329800D01*
X97154987Y-107328427D01*
X96964013Y-107328427D01*
X96957561Y-107329799D01*
X96957556Y-107329799D01*
X96870613Y-107348280D01*
X96777212Y-107368133D01*
X96771182Y-107370818D01*
X96771181Y-107370818D01*
X96608778Y-107443124D01*
X96608776Y-107443125D01*
X96602748Y-107445809D01*
X96448247Y-107558061D01*
X96443826Y-107562971D01*
X96443825Y-107562972D01*
X96369202Y-107645850D01*
X96320460Y-107699983D01*
X96274762Y-107779134D01*
X96232625Y-107852118D01*
X96224973Y-107865371D01*
X96165958Y-108046999D01*
X96165268Y-108053560D01*
X96165268Y-108053562D01*
X96156730Y-108134794D01*
X96145996Y-108236927D01*
X92577422Y-108236927D01*
X92528527Y-108086444D01*
X92433040Y-107921056D01*
X92322968Y-107798808D01*
X92292252Y-107734803D01*
X92301016Y-107664349D01*
X92346478Y-107609818D01*
X92411411Y-107590079D01*
X92411318Y-107589190D01*
X92415929Y-107588705D01*
X92416605Y-107588500D01*
X92424487Y-107588500D01*
X92430939Y-107587128D01*
X92430944Y-107587128D01*
X92528106Y-107566475D01*
X92611288Y-107548794D01*
X92617319Y-107546109D01*
X92779722Y-107473803D01*
X92779724Y-107473802D01*
X92785752Y-107471118D01*
X92940253Y-107358866D01*
X92972303Y-107323271D01*
X93063621Y-107221852D01*
X93063625Y-107221847D01*
X93068040Y-107216944D01*
X93126314Y-107116010D01*
X93160223Y-107057279D01*
X93160224Y-107057278D01*
X93163527Y-107051556D01*
X93222542Y-106869928D01*
X93227107Y-106826500D01*
X93241814Y-106686565D01*
X93242504Y-106680000D01*
X93241814Y-106673435D01*
X93223232Y-106496635D01*
X93223232Y-106496633D01*
X93222542Y-106490072D01*
X93163527Y-106308444D01*
X93068040Y-106143056D01*
X93042064Y-106114206D01*
X92944675Y-106006045D01*
X92944674Y-106006044D01*
X92940253Y-106001134D01*
X92825829Y-105918000D01*
X108814496Y-105918000D01*
X108815186Y-105924565D01*
X108822826Y-105997251D01*
X108834458Y-106107928D01*
X108893473Y-106289556D01*
X108988960Y-106454944D01*
X108993378Y-106459851D01*
X108993379Y-106459852D01*
X109020589Y-106490072D01*
X109116747Y-106596866D01*
X109215843Y-106668864D01*
X109252820Y-106695729D01*
X109271248Y-106709118D01*
X109277276Y-106711802D01*
X109277278Y-106711803D01*
X109439681Y-106784109D01*
X109445712Y-106786794D01*
X109539113Y-106806647D01*
X109626056Y-106825128D01*
X109626061Y-106825128D01*
X109632513Y-106826500D01*
X109823487Y-106826500D01*
X109829939Y-106825128D01*
X109829944Y-106825128D01*
X109916887Y-106806647D01*
X110010288Y-106786794D01*
X110016319Y-106784109D01*
X110178722Y-106711803D01*
X110178724Y-106711802D01*
X110184752Y-106709118D01*
X110203181Y-106695729D01*
X110240157Y-106668864D01*
X110339253Y-106596866D01*
X110435411Y-106490072D01*
X110462621Y-106459852D01*
X110462622Y-106459851D01*
X110467040Y-106454944D01*
X110562527Y-106289556D01*
X110621542Y-106107928D01*
X110633175Y-105997251D01*
X110640814Y-105924565D01*
X110641504Y-105918000D01*
X110630280Y-105811206D01*
X110622232Y-105734635D01*
X110622232Y-105734633D01*
X110621542Y-105728072D01*
X110562527Y-105546444D01*
X110467040Y-105381056D01*
X110339253Y-105239134D01*
X110184752Y-105126882D01*
X110178724Y-105124198D01*
X110178722Y-105124197D01*
X110016319Y-105051891D01*
X110016318Y-105051891D01*
X110010288Y-105049206D01*
X109916887Y-105029353D01*
X109829944Y-105010872D01*
X109829939Y-105010872D01*
X109823487Y-105009500D01*
X109632513Y-105009500D01*
X109626061Y-105010872D01*
X109626056Y-105010872D01*
X109539113Y-105029353D01*
X109445712Y-105049206D01*
X109439682Y-105051891D01*
X109439681Y-105051891D01*
X109277278Y-105124197D01*
X109277276Y-105124198D01*
X109271248Y-105126882D01*
X109116747Y-105239134D01*
X108988960Y-105381056D01*
X108893473Y-105546444D01*
X108834458Y-105728072D01*
X108833768Y-105734633D01*
X108833768Y-105734635D01*
X108825720Y-105811206D01*
X108814496Y-105918000D01*
X92825829Y-105918000D01*
X92791094Y-105892763D01*
X92791093Y-105892762D01*
X92785752Y-105888882D01*
X92779724Y-105886198D01*
X92779722Y-105886197D01*
X92617319Y-105813891D01*
X92617318Y-105813891D01*
X92611288Y-105811206D01*
X92517888Y-105791353D01*
X92430944Y-105772872D01*
X92430939Y-105772872D01*
X92424487Y-105771500D01*
X92233513Y-105771500D01*
X92227061Y-105772872D01*
X92227056Y-105772872D01*
X92140113Y-105791353D01*
X92046712Y-105811206D01*
X92040682Y-105813891D01*
X92040681Y-105813891D01*
X91878278Y-105886197D01*
X91878276Y-105886198D01*
X91872248Y-105888882D01*
X91866907Y-105892762D01*
X91866906Y-105892763D01*
X91832171Y-105918000D01*
X91717747Y-106001134D01*
X91713326Y-106006044D01*
X91713325Y-106006045D01*
X91615937Y-106114206D01*
X91589960Y-106143056D01*
X91494473Y-106308444D01*
X91435458Y-106490072D01*
X91434768Y-106496633D01*
X91434768Y-106496635D01*
X91416186Y-106673435D01*
X91415496Y-106680000D01*
X91416186Y-106686565D01*
X91430894Y-106826500D01*
X91435458Y-106869928D01*
X91494473Y-107051556D01*
X91497776Y-107057278D01*
X91497777Y-107057279D01*
X91531686Y-107116010D01*
X91589960Y-107216944D01*
X91700032Y-107339192D01*
X91730748Y-107403197D01*
X91721984Y-107473651D01*
X91676522Y-107528182D01*
X91611589Y-107547921D01*
X91611682Y-107548810D01*
X91607071Y-107549295D01*
X91606395Y-107549500D01*
X91598513Y-107549500D01*
X91592061Y-107550872D01*
X91592056Y-107550872D01*
X91518652Y-107566475D01*
X91411712Y-107589206D01*
X91237248Y-107666882D01*
X91166882Y-107676316D01*
X91134753Y-107666882D01*
X91134752Y-107666882D01*
X90960288Y-107589206D01*
X90853347Y-107566475D01*
X90790874Y-107532747D01*
X90756552Y-107470597D01*
X90759711Y-107404292D01*
X90807502Y-107257206D01*
X90809542Y-107250928D01*
X90812599Y-107221847D01*
X90828814Y-107067565D01*
X90829504Y-107061000D01*
X90809542Y-106871072D01*
X90750527Y-106689444D01*
X90745075Y-106680000D01*
X90697077Y-106596866D01*
X90655040Y-106524056D01*
X90527253Y-106382134D01*
X90399831Y-106289556D01*
X90378094Y-106273763D01*
X90378093Y-106273762D01*
X90372752Y-106269882D01*
X90366724Y-106267198D01*
X90366722Y-106267197D01*
X90204319Y-106194891D01*
X90204318Y-106194891D01*
X90198288Y-106192206D01*
X90104887Y-106172353D01*
X90017944Y-106153872D01*
X90017939Y-106153872D01*
X90011487Y-106152500D01*
X89820513Y-106152500D01*
X89814061Y-106153872D01*
X89814056Y-106153872D01*
X89727112Y-106172353D01*
X89633712Y-106192206D01*
X89627682Y-106194891D01*
X89627681Y-106194891D01*
X89465278Y-106267197D01*
X89465276Y-106267198D01*
X89459248Y-106269882D01*
X89453907Y-106273762D01*
X89453906Y-106273763D01*
X89432169Y-106289556D01*
X89304747Y-106382134D01*
X89176960Y-106524056D01*
X89134923Y-106596866D01*
X89086926Y-106680000D01*
X89081473Y-106689444D01*
X89022458Y-106871072D01*
X89002496Y-107061000D01*
X82550000Y-107061000D01*
X82550000Y-102108000D01*
X87959996Y-102108000D01*
X87960686Y-102114565D01*
X87976687Y-102266803D01*
X87979958Y-102297928D01*
X88038973Y-102479556D01*
X88134460Y-102644944D01*
X88138875Y-102649847D01*
X88138879Y-102649852D01*
X88228661Y-102749565D01*
X88262247Y-102786866D01*
X88416748Y-102899118D01*
X88422776Y-102901802D01*
X88422778Y-102901803D01*
X88458109Y-102917533D01*
X88512204Y-102963513D01*
X88532854Y-103031440D01*
X88526694Y-103071573D01*
X88487958Y-103190788D01*
X88487268Y-103197349D01*
X88487268Y-103197351D01*
X88472475Y-103338103D01*
X88467996Y-103380716D01*
X88468686Y-103387281D01*
X88484140Y-103534314D01*
X88487958Y-103570644D01*
X88546973Y-103752272D01*
X88642460Y-103917660D01*
X88646878Y-103922567D01*
X88646879Y-103922568D01*
X88749934Y-104037022D01*
X88770247Y-104059582D01*
X88924748Y-104171834D01*
X88930776Y-104174518D01*
X88930778Y-104174519D01*
X89093181Y-104246825D01*
X89099212Y-104249510D01*
X89192612Y-104269363D01*
X89279556Y-104287844D01*
X89279561Y-104287844D01*
X89286013Y-104289216D01*
X89476987Y-104289216D01*
X89483439Y-104287844D01*
X89483444Y-104287844D01*
X89570387Y-104269363D01*
X89663788Y-104249510D01*
X89669819Y-104246825D01*
X89832222Y-104174519D01*
X89832224Y-104174518D01*
X89838252Y-104171834D01*
X89992753Y-104059582D01*
X90013066Y-104037022D01*
X90116121Y-103922568D01*
X90116122Y-103922567D01*
X90120540Y-103917660D01*
X90216027Y-103752272D01*
X90275042Y-103570644D01*
X90278861Y-103534314D01*
X90294314Y-103387281D01*
X90295004Y-103380716D01*
X90290525Y-103338103D01*
X90275732Y-103197351D01*
X90275732Y-103197349D01*
X90275042Y-103190788D01*
X90216027Y-103009160D01*
X90194046Y-102971087D01*
X90123841Y-102849490D01*
X90120540Y-102843772D01*
X90105719Y-102827311D01*
X90029805Y-102743000D01*
X92050496Y-102743000D01*
X92051186Y-102749565D01*
X92067187Y-102901803D01*
X92070458Y-102932928D01*
X92129473Y-103114556D01*
X92224960Y-103279944D01*
X92229378Y-103284851D01*
X92229379Y-103284852D01*
X92328342Y-103394762D01*
X92352747Y-103421866D01*
X92507248Y-103534118D01*
X92513276Y-103536802D01*
X92513278Y-103536803D01*
X92635450Y-103591197D01*
X92681712Y-103611794D01*
X92775113Y-103631647D01*
X92862056Y-103650128D01*
X92862061Y-103650128D01*
X92868513Y-103651500D01*
X93059487Y-103651500D01*
X93065939Y-103650128D01*
X93065944Y-103650128D01*
X93152887Y-103631647D01*
X93246288Y-103611794D01*
X93292550Y-103591197D01*
X93414722Y-103536803D01*
X93414724Y-103536802D01*
X93420752Y-103534118D01*
X93575253Y-103421866D01*
X93599658Y-103394762D01*
X93614751Y-103378000D01*
X97638496Y-103378000D01*
X97639186Y-103384565D01*
X97655187Y-103536803D01*
X97658458Y-103567928D01*
X97717473Y-103749556D01*
X97812960Y-103914944D01*
X97817378Y-103919851D01*
X97817379Y-103919852D01*
X97886634Y-103996767D01*
X97940747Y-104056866D01*
X98095248Y-104169118D01*
X98101276Y-104171802D01*
X98101278Y-104171803D01*
X98183183Y-104208269D01*
X98269712Y-104246794D01*
X98363112Y-104266647D01*
X98450056Y-104285128D01*
X98450061Y-104285128D01*
X98456513Y-104286500D01*
X98647487Y-104286500D01*
X98653939Y-104285128D01*
X98653944Y-104285128D01*
X98740887Y-104266647D01*
X98834288Y-104246794D01*
X98920817Y-104208269D01*
X100348599Y-104208269D01*
X100349289Y-104214834D01*
X100356963Y-104287844D01*
X100368561Y-104398197D01*
X100427576Y-104579825D01*
X100523063Y-104745213D01*
X100650850Y-104887135D01*
X100805351Y-104999387D01*
X100811379Y-105002071D01*
X100811381Y-105002072D01*
X100923277Y-105051891D01*
X100979815Y-105077063D01*
X101073215Y-105096916D01*
X101160159Y-105115397D01*
X101160164Y-105115397D01*
X101166616Y-105116769D01*
X101357590Y-105116769D01*
X101364042Y-105115397D01*
X101364047Y-105115397D01*
X101450991Y-105096916D01*
X101544391Y-105077063D01*
X101600929Y-105051891D01*
X101712825Y-105002072D01*
X101712827Y-105002071D01*
X101718855Y-104999387D01*
X101873356Y-104887135D01*
X102001143Y-104745213D01*
X102096630Y-104579825D01*
X102155645Y-104398197D01*
X102167244Y-104287844D01*
X102174917Y-104214834D01*
X102175607Y-104208269D01*
X102159694Y-104056866D01*
X102156335Y-104024904D01*
X102156335Y-104024902D01*
X102155645Y-104018341D01*
X102096630Y-103836713D01*
X102064636Y-103781297D01*
X102004444Y-103677043D01*
X102001143Y-103671325D01*
X101948777Y-103613166D01*
X101877778Y-103534314D01*
X101877777Y-103534313D01*
X101873356Y-103529403D01*
X101718855Y-103417151D01*
X101712827Y-103414467D01*
X101712825Y-103414466D01*
X101630920Y-103378000D01*
X105258496Y-103378000D01*
X105259186Y-103384565D01*
X105275187Y-103536803D01*
X105278458Y-103567928D01*
X105337473Y-103749556D01*
X105432960Y-103914944D01*
X105437378Y-103919851D01*
X105437379Y-103919852D01*
X105506634Y-103996767D01*
X105560747Y-104056866D01*
X105715248Y-104169118D01*
X105721276Y-104171802D01*
X105721278Y-104171803D01*
X105803183Y-104208269D01*
X105889712Y-104246794D01*
X105983112Y-104266647D01*
X106070056Y-104285128D01*
X106070061Y-104285128D01*
X106076513Y-104286500D01*
X106267487Y-104286500D01*
X106273939Y-104285128D01*
X106273944Y-104285128D01*
X106360887Y-104266647D01*
X106454288Y-104246794D01*
X106540817Y-104208269D01*
X106622722Y-104171803D01*
X106622724Y-104171802D01*
X106628752Y-104169118D01*
X106783253Y-104056866D01*
X106837366Y-103996767D01*
X106906621Y-103919852D01*
X106906622Y-103919851D01*
X106911040Y-103914944D01*
X107006527Y-103749556D01*
X107065542Y-103567928D01*
X107068814Y-103536803D01*
X107084814Y-103384565D01*
X107085504Y-103378000D01*
X107065542Y-103188072D01*
X107006527Y-103006444D01*
X106984184Y-102967744D01*
X106914341Y-102846774D01*
X106911040Y-102841056D01*
X106898662Y-102827309D01*
X106867946Y-102763303D01*
X106870472Y-102743000D01*
X117812502Y-102743000D01*
X117832457Y-102971087D01*
X117833881Y-102976400D01*
X117833881Y-102976402D01*
X117869216Y-103108271D01*
X117891716Y-103192243D01*
X117894039Y-103197224D01*
X117894039Y-103197225D01*
X117986151Y-103394762D01*
X117986154Y-103394767D01*
X117988477Y-103399749D01*
X118061902Y-103504611D01*
X118106238Y-103567928D01*
X118119802Y-103587300D01*
X118281700Y-103749198D01*
X118286208Y-103752355D01*
X118286211Y-103752357D01*
X118294263Y-103757995D01*
X118469251Y-103880523D01*
X118474233Y-103882846D01*
X118474238Y-103882849D01*
X118559417Y-103922568D01*
X118676757Y-103977284D01*
X118682065Y-103978706D01*
X118682067Y-103978707D01*
X118892598Y-104035119D01*
X118892600Y-104035119D01*
X118897913Y-104036543D01*
X119126000Y-104056498D01*
X119354087Y-104036543D01*
X119359400Y-104035119D01*
X119359402Y-104035119D01*
X119569933Y-103978707D01*
X119569935Y-103978706D01*
X119575243Y-103977284D01*
X119692583Y-103922568D01*
X119777762Y-103882849D01*
X119777767Y-103882846D01*
X119782749Y-103880523D01*
X119957737Y-103757995D01*
X119965789Y-103752357D01*
X119965792Y-103752355D01*
X119970300Y-103749198D01*
X120128364Y-103591134D01*
X125437500Y-103591134D01*
X125444255Y-103653316D01*
X125495385Y-103789705D01*
X125582739Y-103906261D01*
X125699295Y-103993615D01*
X125835684Y-104044745D01*
X125897866Y-104051500D01*
X127594134Y-104051500D01*
X127656316Y-104044745D01*
X127792705Y-103993615D01*
X127909261Y-103906261D01*
X127996615Y-103789705D01*
X128047745Y-103653316D01*
X128054500Y-103591134D01*
X128054500Y-101894866D01*
X128047745Y-101832684D01*
X127996615Y-101696295D01*
X127909261Y-101579739D01*
X127792705Y-101492385D01*
X127656316Y-101441255D01*
X127594134Y-101434500D01*
X125897866Y-101434500D01*
X125835684Y-101441255D01*
X125699295Y-101492385D01*
X125582739Y-101579739D01*
X125495385Y-101696295D01*
X125444255Y-101832684D01*
X125437500Y-101894866D01*
X125437500Y-103591134D01*
X120128364Y-103591134D01*
X120132198Y-103587300D01*
X120145763Y-103567928D01*
X120190098Y-103504611D01*
X120263523Y-103399749D01*
X120265846Y-103394767D01*
X120265849Y-103394762D01*
X120357961Y-103197225D01*
X120357961Y-103197224D01*
X120360284Y-103192243D01*
X120382785Y-103108271D01*
X120418119Y-102976402D01*
X120418119Y-102976400D01*
X120419543Y-102971087D01*
X120439498Y-102743000D01*
X120419543Y-102514913D01*
X120401490Y-102447538D01*
X120361707Y-102299067D01*
X120361706Y-102299065D01*
X120360284Y-102293757D01*
X120346463Y-102264118D01*
X120265849Y-102091238D01*
X120265846Y-102091233D01*
X120263523Y-102086251D01*
X120169437Y-101951882D01*
X120135357Y-101903211D01*
X120135355Y-101903208D01*
X120132198Y-101898700D01*
X119970300Y-101736802D01*
X119965792Y-101733645D01*
X119965789Y-101733643D01*
X119855414Y-101656358D01*
X119782749Y-101605477D01*
X119777767Y-101603154D01*
X119777762Y-101603151D01*
X119580225Y-101511039D01*
X119580224Y-101511039D01*
X119575243Y-101508716D01*
X119569935Y-101507294D01*
X119569933Y-101507293D01*
X119359402Y-101450881D01*
X119359400Y-101450881D01*
X119354087Y-101449457D01*
X119126000Y-101429502D01*
X118897913Y-101449457D01*
X118892600Y-101450881D01*
X118892598Y-101450881D01*
X118682067Y-101507293D01*
X118682065Y-101507294D01*
X118676757Y-101508716D01*
X118671776Y-101511039D01*
X118671775Y-101511039D01*
X118474238Y-101603151D01*
X118474233Y-101603154D01*
X118469251Y-101605477D01*
X118396586Y-101656358D01*
X118286211Y-101733643D01*
X118286208Y-101733645D01*
X118281700Y-101736802D01*
X118119802Y-101898700D01*
X118116645Y-101903208D01*
X118116643Y-101903211D01*
X118082563Y-101951882D01*
X117988477Y-102086251D01*
X117986154Y-102091233D01*
X117986151Y-102091238D01*
X117905537Y-102264118D01*
X117891716Y-102293757D01*
X117890294Y-102299065D01*
X117890293Y-102299067D01*
X117850510Y-102447538D01*
X117832457Y-102514913D01*
X117812502Y-102743000D01*
X106870472Y-102743000D01*
X106876710Y-102692850D01*
X106898661Y-102658693D01*
X106911040Y-102644944D01*
X107006527Y-102479556D01*
X107065542Y-102297928D01*
X107068814Y-102266803D01*
X107084814Y-102114565D01*
X107085504Y-102108000D01*
X107074597Y-102004226D01*
X107066232Y-101924635D01*
X107066232Y-101924633D01*
X107065542Y-101918072D01*
X107006527Y-101736444D01*
X106911040Y-101571056D01*
X106898662Y-101557309D01*
X106867946Y-101493303D01*
X106876710Y-101422850D01*
X106898661Y-101388693D01*
X106911040Y-101374944D01*
X107006527Y-101209556D01*
X107065542Y-101027928D01*
X107085504Y-100838000D01*
X107080485Y-100790251D01*
X107066232Y-100654635D01*
X107066232Y-100654633D01*
X107065542Y-100648072D01*
X107006527Y-100466444D01*
X106911040Y-100301056D01*
X106783253Y-100159134D01*
X106628752Y-100046882D01*
X106622724Y-100044198D01*
X106622722Y-100044197D01*
X106460319Y-99971891D01*
X106460318Y-99971891D01*
X106454288Y-99969206D01*
X106360888Y-99949353D01*
X106273944Y-99930872D01*
X106273939Y-99930872D01*
X106267487Y-99929500D01*
X106076513Y-99929500D01*
X106070061Y-99930872D01*
X106070056Y-99930872D01*
X105983112Y-99949353D01*
X105889712Y-99969206D01*
X105883682Y-99971891D01*
X105883681Y-99971891D01*
X105721278Y-100044197D01*
X105721276Y-100044198D01*
X105715248Y-100046882D01*
X105560747Y-100159134D01*
X105432960Y-100301056D01*
X105337473Y-100466444D01*
X105278458Y-100648072D01*
X105277768Y-100654633D01*
X105277768Y-100654635D01*
X105263515Y-100790251D01*
X105258496Y-100838000D01*
X105278458Y-101027928D01*
X105337473Y-101209556D01*
X105432960Y-101374944D01*
X105445338Y-101388691D01*
X105476054Y-101452697D01*
X105467290Y-101523150D01*
X105445339Y-101557307D01*
X105432960Y-101571056D01*
X105337473Y-101736444D01*
X105278458Y-101918072D01*
X105277768Y-101924633D01*
X105277768Y-101924635D01*
X105269403Y-102004226D01*
X105258496Y-102108000D01*
X105259186Y-102114565D01*
X105275187Y-102266803D01*
X105278458Y-102297928D01*
X105337473Y-102479556D01*
X105432960Y-102644944D01*
X105445338Y-102658691D01*
X105476054Y-102722697D01*
X105467290Y-102793150D01*
X105445339Y-102827307D01*
X105432960Y-102841056D01*
X105429659Y-102846774D01*
X105359817Y-102967744D01*
X105337473Y-103006444D01*
X105278458Y-103188072D01*
X105258496Y-103378000D01*
X101630920Y-103378000D01*
X101550422Y-103342160D01*
X101550421Y-103342160D01*
X101544391Y-103339475D01*
X101450991Y-103319622D01*
X101364047Y-103301141D01*
X101364042Y-103301141D01*
X101357590Y-103299769D01*
X101166616Y-103299769D01*
X101160164Y-103301141D01*
X101160159Y-103301141D01*
X101073215Y-103319622D01*
X100979815Y-103339475D01*
X100973785Y-103342160D01*
X100973784Y-103342160D01*
X100811381Y-103414466D01*
X100811379Y-103414467D01*
X100805351Y-103417151D01*
X100650850Y-103529403D01*
X100646429Y-103534313D01*
X100646428Y-103534314D01*
X100575430Y-103613166D01*
X100523063Y-103671325D01*
X100519762Y-103677043D01*
X100459571Y-103781297D01*
X100427576Y-103836713D01*
X100368561Y-104018341D01*
X100367871Y-104024902D01*
X100367871Y-104024904D01*
X100364512Y-104056866D01*
X100348599Y-104208269D01*
X98920817Y-104208269D01*
X99002722Y-104171803D01*
X99002724Y-104171802D01*
X99008752Y-104169118D01*
X99163253Y-104056866D01*
X99217366Y-103996767D01*
X99286621Y-103919852D01*
X99286622Y-103919851D01*
X99291040Y-103914944D01*
X99386527Y-103749556D01*
X99445542Y-103567928D01*
X99448814Y-103536803D01*
X99464814Y-103384565D01*
X99465504Y-103378000D01*
X99445542Y-103188072D01*
X99386527Y-103006444D01*
X99364184Y-102967744D01*
X99294341Y-102846774D01*
X99291040Y-102841056D01*
X99278662Y-102827309D01*
X99247946Y-102763303D01*
X99256710Y-102692850D01*
X99278661Y-102658693D01*
X99291040Y-102644944D01*
X99386527Y-102479556D01*
X99445542Y-102297928D01*
X99448814Y-102266803D01*
X99464814Y-102114565D01*
X99465504Y-102108000D01*
X99454597Y-102004226D01*
X99446232Y-101924635D01*
X99446232Y-101924633D01*
X99445542Y-101918072D01*
X99386527Y-101736444D01*
X99291040Y-101571056D01*
X99220205Y-101492385D01*
X99167675Y-101434045D01*
X99167674Y-101434044D01*
X99163253Y-101429134D01*
X99008752Y-101316882D01*
X99002724Y-101314198D01*
X99002722Y-101314197D01*
X98840319Y-101241891D01*
X98840318Y-101241891D01*
X98834288Y-101239206D01*
X98721721Y-101215279D01*
X98653944Y-101200872D01*
X98653939Y-101200872D01*
X98647487Y-101199500D01*
X98456513Y-101199500D01*
X98450061Y-101200872D01*
X98450056Y-101200872D01*
X98382279Y-101215279D01*
X98269712Y-101239206D01*
X98263682Y-101241891D01*
X98263681Y-101241891D01*
X98101278Y-101314197D01*
X98101276Y-101314198D01*
X98095248Y-101316882D01*
X97940747Y-101429134D01*
X97936326Y-101434044D01*
X97936325Y-101434045D01*
X97883796Y-101492385D01*
X97812960Y-101571056D01*
X97717473Y-101736444D01*
X97658458Y-101918072D01*
X97657768Y-101924633D01*
X97657768Y-101924635D01*
X97649403Y-102004226D01*
X97638496Y-102108000D01*
X97639186Y-102114565D01*
X97655187Y-102266803D01*
X97658458Y-102297928D01*
X97717473Y-102479556D01*
X97812960Y-102644944D01*
X97825338Y-102658691D01*
X97856054Y-102722697D01*
X97847290Y-102793150D01*
X97825339Y-102827307D01*
X97812960Y-102841056D01*
X97809659Y-102846774D01*
X97739817Y-102967744D01*
X97717473Y-103006444D01*
X97658458Y-103188072D01*
X97638496Y-103378000D01*
X93614751Y-103378000D01*
X93698621Y-103284852D01*
X93698622Y-103284851D01*
X93703040Y-103279944D01*
X93798527Y-103114556D01*
X93857542Y-102932928D01*
X93860814Y-102901803D01*
X93876814Y-102749565D01*
X93877504Y-102743000D01*
X93867714Y-102649852D01*
X93858233Y-102559642D01*
X93858232Y-102559635D01*
X93857542Y-102553072D01*
X93846310Y-102518504D01*
X93844282Y-102447538D01*
X93880944Y-102386740D01*
X93939945Y-102356322D01*
X94001824Y-102343169D01*
X94001833Y-102343166D01*
X94008288Y-102341794D01*
X94014319Y-102339109D01*
X94176722Y-102266803D01*
X94176724Y-102266802D01*
X94182752Y-102264118D01*
X94337253Y-102151866D01*
X94416247Y-102064134D01*
X94460621Y-102014852D01*
X94460622Y-102014851D01*
X94465040Y-102009944D01*
X94543409Y-101874206D01*
X94557223Y-101850279D01*
X94557224Y-101850278D01*
X94560527Y-101844556D01*
X94619542Y-101662928D01*
X94625249Y-101608634D01*
X94638814Y-101479565D01*
X94639504Y-101473000D01*
X94628597Y-101369226D01*
X94620232Y-101289635D01*
X94620232Y-101289633D01*
X94619542Y-101283072D01*
X94560527Y-101101444D01*
X94465040Y-100936056D01*
X94337253Y-100794134D01*
X94182752Y-100681882D01*
X94176724Y-100679198D01*
X94176722Y-100679197D01*
X94014319Y-100606891D01*
X94014318Y-100606891D01*
X94008288Y-100604206D01*
X93914888Y-100584353D01*
X93827944Y-100565872D01*
X93827939Y-100565872D01*
X93821487Y-100564500D01*
X93630513Y-100564500D01*
X93624061Y-100565872D01*
X93624056Y-100565872D01*
X93537112Y-100584353D01*
X93443712Y-100604206D01*
X93437682Y-100606891D01*
X93437681Y-100606891D01*
X93275278Y-100679197D01*
X93275276Y-100679198D01*
X93269248Y-100681882D01*
X93114747Y-100794134D01*
X92986960Y-100936056D01*
X92891473Y-101101444D01*
X92832458Y-101283072D01*
X92831768Y-101289633D01*
X92831768Y-101289635D01*
X92823403Y-101369226D01*
X92812496Y-101473000D01*
X92813186Y-101479565D01*
X92826752Y-101608634D01*
X92832458Y-101662928D01*
X92843690Y-101697496D01*
X92845718Y-101768462D01*
X92809056Y-101829260D01*
X92750055Y-101859678D01*
X92688176Y-101872831D01*
X92688167Y-101872834D01*
X92681712Y-101874206D01*
X92675682Y-101876891D01*
X92675681Y-101876891D01*
X92513278Y-101949197D01*
X92513276Y-101949198D01*
X92507248Y-101951882D01*
X92352747Y-102064134D01*
X92348326Y-102069044D01*
X92348325Y-102069045D01*
X92270257Y-102155749D01*
X92224960Y-102206056D01*
X92221659Y-102211774D01*
X92145798Y-102343169D01*
X92129473Y-102371444D01*
X92070458Y-102553072D01*
X92050496Y-102743000D01*
X90029805Y-102743000D01*
X89997175Y-102706761D01*
X89997174Y-102706760D01*
X89992753Y-102701850D01*
X89838252Y-102589598D01*
X89832224Y-102586914D01*
X89832222Y-102586913D01*
X89796891Y-102571183D01*
X89742796Y-102525203D01*
X89722146Y-102457276D01*
X89728306Y-102417143D01*
X89767042Y-102297928D01*
X89770314Y-102266803D01*
X89786314Y-102114565D01*
X89787004Y-102108000D01*
X89776097Y-102004226D01*
X89767732Y-101924635D01*
X89767732Y-101924633D01*
X89767042Y-101918072D01*
X89708027Y-101736444D01*
X89612540Y-101571056D01*
X89541705Y-101492385D01*
X89489175Y-101434045D01*
X89489174Y-101434044D01*
X89484753Y-101429134D01*
X89330252Y-101316882D01*
X89324224Y-101314198D01*
X89324222Y-101314197D01*
X89161819Y-101241891D01*
X89161818Y-101241891D01*
X89155788Y-101239206D01*
X89043221Y-101215279D01*
X88975444Y-101200872D01*
X88975439Y-101200872D01*
X88968987Y-101199500D01*
X88778013Y-101199500D01*
X88771561Y-101200872D01*
X88771556Y-101200872D01*
X88703779Y-101215279D01*
X88591212Y-101239206D01*
X88585182Y-101241891D01*
X88585181Y-101241891D01*
X88422778Y-101314197D01*
X88422776Y-101314198D01*
X88416748Y-101316882D01*
X88262247Y-101429134D01*
X88257826Y-101434044D01*
X88257825Y-101434045D01*
X88205296Y-101492385D01*
X88134460Y-101571056D01*
X88038973Y-101736444D01*
X87979958Y-101918072D01*
X87979268Y-101924633D01*
X87979268Y-101924635D01*
X87970903Y-102004226D01*
X87959996Y-102108000D01*
X82550000Y-102108000D01*
X82550000Y-91279695D01*
X82960251Y-91279695D01*
X82973110Y-91502715D01*
X82974247Y-91507761D01*
X82974248Y-91507767D01*
X82987597Y-91567000D01*
X83022222Y-91720639D01*
X83106266Y-91927616D01*
X83222987Y-92118088D01*
X83369250Y-92286938D01*
X83541126Y-92429632D01*
X83734000Y-92542338D01*
X83942692Y-92622030D01*
X83947760Y-92623061D01*
X83947763Y-92623062D01*
X84042862Y-92642410D01*
X84161597Y-92666567D01*
X84166772Y-92666757D01*
X84166774Y-92666757D01*
X84379673Y-92674564D01*
X84379677Y-92674564D01*
X84384837Y-92674753D01*
X84389957Y-92674097D01*
X84389959Y-92674097D01*
X84601288Y-92647025D01*
X84601289Y-92647025D01*
X84606416Y-92646368D01*
X84611366Y-92644883D01*
X84815429Y-92583661D01*
X84815434Y-92583659D01*
X84820384Y-92582174D01*
X85020994Y-92483896D01*
X85202860Y-92354173D01*
X85361096Y-92196489D01*
X85420594Y-92113689D01*
X85491453Y-92015077D01*
X85492640Y-92015930D01*
X85539960Y-91972362D01*
X85609897Y-91960145D01*
X85675338Y-91987678D01*
X85703166Y-92019511D01*
X85760694Y-92113388D01*
X85766777Y-92121699D01*
X85906213Y-92282667D01*
X85913580Y-92289883D01*
X86077434Y-92425916D01*
X86085881Y-92431831D01*
X86269756Y-92539279D01*
X86279042Y-92543729D01*
X86478001Y-92619703D01*
X86487899Y-92622579D01*
X86591250Y-92643606D01*
X86605299Y-92642410D01*
X86609000Y-92632065D01*
X86609000Y-92631517D01*
X87117000Y-92631517D01*
X87121064Y-92645359D01*
X87134478Y-92647393D01*
X87141184Y-92646534D01*
X87151262Y-92644392D01*
X87355255Y-92583191D01*
X87364842Y-92579433D01*
X87556095Y-92485739D01*
X87564945Y-92480464D01*
X87738328Y-92356792D01*
X87746200Y-92350139D01*
X87897052Y-92199812D01*
X87903730Y-92191965D01*
X88028003Y-92019020D01*
X88033313Y-92010183D01*
X88127670Y-91819267D01*
X88131469Y-91809672D01*
X88193377Y-91605910D01*
X88195555Y-91595837D01*
X88196986Y-91584962D01*
X88194775Y-91570778D01*
X88181617Y-91567000D01*
X87135115Y-91567000D01*
X87119876Y-91571475D01*
X87118671Y-91572865D01*
X87117000Y-91580548D01*
X87117000Y-92631517D01*
X86609000Y-92631517D01*
X86609000Y-91040885D01*
X87117000Y-91040885D01*
X87121475Y-91056124D01*
X87122865Y-91057329D01*
X87130548Y-91059000D01*
X88181344Y-91059000D01*
X88194875Y-91055027D01*
X88196180Y-91045947D01*
X88154214Y-90878875D01*
X88150894Y-90869124D01*
X88065972Y-90673814D01*
X88061105Y-90664739D01*
X87945426Y-90485926D01*
X87939136Y-90477757D01*
X87795806Y-90320240D01*
X87788273Y-90313215D01*
X87621139Y-90181222D01*
X87612552Y-90175517D01*
X87575116Y-90154851D01*
X87525146Y-90104419D01*
X87510374Y-90034976D01*
X87535490Y-89968571D01*
X87562842Y-89941964D01*
X87738327Y-89816792D01*
X87746200Y-89810139D01*
X87897052Y-89659812D01*
X87903730Y-89651965D01*
X88028003Y-89479020D01*
X88033313Y-89470183D01*
X88127670Y-89279267D01*
X88131469Y-89269672D01*
X88193377Y-89065910D01*
X88195555Y-89055837D01*
X88196986Y-89044962D01*
X88194775Y-89030778D01*
X88181617Y-89027000D01*
X87135115Y-89027000D01*
X87119876Y-89031475D01*
X87118671Y-89032865D01*
X87117000Y-89040548D01*
X87117000Y-91040885D01*
X86609000Y-91040885D01*
X86609000Y-88500885D01*
X87117000Y-88500885D01*
X87121475Y-88516124D01*
X87122865Y-88517329D01*
X87130548Y-88519000D01*
X88181344Y-88519000D01*
X88194875Y-88515027D01*
X88196180Y-88505947D01*
X88154214Y-88338875D01*
X88150894Y-88329124D01*
X88065972Y-88133814D01*
X88061105Y-88124739D01*
X87945426Y-87945926D01*
X87939136Y-87937757D01*
X87795806Y-87780240D01*
X87788273Y-87773215D01*
X87621139Y-87641222D01*
X87612552Y-87635517D01*
X87575116Y-87614851D01*
X87525146Y-87564419D01*
X87512081Y-87503000D01*
X97128631Y-87503000D01*
X97129321Y-87509565D01*
X97143159Y-87641222D01*
X97148593Y-87692928D01*
X97207608Y-87874556D01*
X97210911Y-87880278D01*
X97210912Y-87880279D01*
X97229063Y-87911717D01*
X97303095Y-88039944D01*
X97307513Y-88044851D01*
X97307514Y-88044852D01*
X97356881Y-88099680D01*
X97430882Y-88181866D01*
X97585383Y-88294118D01*
X97591411Y-88296802D01*
X97591413Y-88296803D01*
X97685909Y-88338875D01*
X97759847Y-88371794D01*
X97853247Y-88391647D01*
X97940191Y-88410128D01*
X97940196Y-88410128D01*
X97946648Y-88411500D01*
X98137622Y-88411500D01*
X98144074Y-88410128D01*
X98144079Y-88410128D01*
X98231023Y-88391647D01*
X98324423Y-88371794D01*
X98398361Y-88338875D01*
X98492857Y-88296803D01*
X98492859Y-88296802D01*
X98498887Y-88294118D01*
X98653388Y-88181866D01*
X98727389Y-88099680D01*
X98776756Y-88044852D01*
X98776757Y-88044851D01*
X98781175Y-88039944D01*
X98855207Y-87911717D01*
X98873358Y-87880279D01*
X98873359Y-87880278D01*
X98876662Y-87874556D01*
X98935677Y-87692928D01*
X98941112Y-87641222D01*
X98954949Y-87509565D01*
X98955639Y-87503000D01*
X117812502Y-87503000D01*
X117832457Y-87731087D01*
X117833881Y-87736400D01*
X117833881Y-87736402D01*
X117889941Y-87945617D01*
X117891716Y-87952243D01*
X117894039Y-87957224D01*
X117894039Y-87957225D01*
X117986151Y-88154762D01*
X117986154Y-88154767D01*
X117988477Y-88159749D01*
X118027312Y-88215211D01*
X118113903Y-88338875D01*
X118119802Y-88347300D01*
X118281700Y-88509198D01*
X118286208Y-88512355D01*
X118286211Y-88512357D01*
X118340487Y-88550361D01*
X118469251Y-88640523D01*
X118474233Y-88642846D01*
X118474238Y-88642849D01*
X118671775Y-88734961D01*
X118676757Y-88737284D01*
X118682065Y-88738706D01*
X118682067Y-88738707D01*
X118892598Y-88795119D01*
X118892600Y-88795119D01*
X118897913Y-88796543D01*
X119126000Y-88816498D01*
X119354087Y-88796543D01*
X119359400Y-88795119D01*
X119359402Y-88795119D01*
X119569933Y-88738707D01*
X119569935Y-88738706D01*
X119575243Y-88737284D01*
X119580225Y-88734961D01*
X119777762Y-88642849D01*
X119777767Y-88642846D01*
X119782749Y-88640523D01*
X119856243Y-88589062D01*
X126024493Y-88589062D01*
X126033789Y-88601077D01*
X126084994Y-88636931D01*
X126094489Y-88642414D01*
X126291947Y-88734490D01*
X126302239Y-88738236D01*
X126512688Y-88794625D01*
X126523481Y-88796528D01*
X126740525Y-88815517D01*
X126751475Y-88815517D01*
X126968519Y-88796528D01*
X126979312Y-88794625D01*
X127189761Y-88738236D01*
X127200053Y-88734490D01*
X127397511Y-88642414D01*
X127407006Y-88636931D01*
X127459048Y-88600491D01*
X127467424Y-88590012D01*
X127460356Y-88576566D01*
X126758812Y-87875022D01*
X126744868Y-87867408D01*
X126743035Y-87867539D01*
X126736420Y-87871790D01*
X126030923Y-88577287D01*
X126024493Y-88589062D01*
X119856243Y-88589062D01*
X119911513Y-88550361D01*
X119965789Y-88512357D01*
X119965792Y-88512355D01*
X119970300Y-88509198D01*
X120132198Y-88347300D01*
X120138098Y-88338875D01*
X120224688Y-88215211D01*
X120263523Y-88159749D01*
X120265846Y-88154767D01*
X120265849Y-88154762D01*
X120357961Y-87957225D01*
X120357961Y-87957224D01*
X120360284Y-87952243D01*
X120362060Y-87945617D01*
X120418119Y-87736402D01*
X120418119Y-87736400D01*
X120419543Y-87731087D01*
X120439019Y-87508475D01*
X125433483Y-87508475D01*
X125452472Y-87725519D01*
X125454375Y-87736312D01*
X125510764Y-87946761D01*
X125514510Y-87957053D01*
X125606586Y-88154511D01*
X125612069Y-88164006D01*
X125648509Y-88216048D01*
X125658988Y-88224424D01*
X125672434Y-88217356D01*
X126373978Y-87515812D01*
X126380356Y-87504132D01*
X127110408Y-87504132D01*
X127110539Y-87505965D01*
X127114790Y-87512580D01*
X127820287Y-88218077D01*
X127832062Y-88224507D01*
X127844077Y-88215211D01*
X127879931Y-88164006D01*
X127885414Y-88154511D01*
X127977490Y-87957053D01*
X127981236Y-87946761D01*
X128037625Y-87736312D01*
X128039528Y-87725519D01*
X128058517Y-87508475D01*
X128058517Y-87497525D01*
X128039528Y-87280481D01*
X128037625Y-87269688D01*
X127981236Y-87059239D01*
X127977490Y-87048947D01*
X127885414Y-86851489D01*
X127879931Y-86841994D01*
X127843491Y-86789952D01*
X127833012Y-86781576D01*
X127819566Y-86788644D01*
X127118022Y-87490188D01*
X127110408Y-87504132D01*
X126380356Y-87504132D01*
X126381592Y-87501868D01*
X126381461Y-87500035D01*
X126377210Y-87493420D01*
X125671713Y-86787923D01*
X125659938Y-86781493D01*
X125647923Y-86790789D01*
X125612069Y-86841994D01*
X125606586Y-86851489D01*
X125514510Y-87048947D01*
X125510764Y-87059239D01*
X125454375Y-87269688D01*
X125452472Y-87280481D01*
X125433483Y-87497525D01*
X125433483Y-87508475D01*
X120439019Y-87508475D01*
X120439498Y-87503000D01*
X120419543Y-87274913D01*
X120382981Y-87138461D01*
X120361707Y-87059067D01*
X120361706Y-87059065D01*
X120360284Y-87053757D01*
X120354661Y-87041699D01*
X120265849Y-86851238D01*
X120265846Y-86851233D01*
X120263523Y-86846251D01*
X120169437Y-86711882D01*
X120135357Y-86663211D01*
X120135355Y-86663208D01*
X120132198Y-86658700D01*
X119970300Y-86496802D01*
X119965792Y-86493645D01*
X119965789Y-86493643D01*
X119854886Y-86415988D01*
X126024576Y-86415988D01*
X126031644Y-86429434D01*
X126733188Y-87130978D01*
X126747132Y-87138592D01*
X126748965Y-87138461D01*
X126755580Y-87134210D01*
X127461077Y-86428713D01*
X127467507Y-86416938D01*
X127458211Y-86404923D01*
X127407006Y-86369069D01*
X127397511Y-86363586D01*
X127200053Y-86271510D01*
X127189761Y-86267764D01*
X126979312Y-86211375D01*
X126968519Y-86209472D01*
X126751475Y-86190483D01*
X126740525Y-86190483D01*
X126523481Y-86209472D01*
X126512688Y-86211375D01*
X126302239Y-86267764D01*
X126291947Y-86271510D01*
X126094489Y-86363586D01*
X126084994Y-86369069D01*
X126032952Y-86405509D01*
X126024576Y-86415988D01*
X119854886Y-86415988D01*
X119839920Y-86405509D01*
X119782749Y-86365477D01*
X119777767Y-86363154D01*
X119777762Y-86363151D01*
X119580225Y-86271039D01*
X119580224Y-86271039D01*
X119575243Y-86268716D01*
X119569935Y-86267294D01*
X119569933Y-86267293D01*
X119359402Y-86210881D01*
X119359400Y-86210881D01*
X119354087Y-86209457D01*
X119126000Y-86189502D01*
X118897913Y-86209457D01*
X118892600Y-86210881D01*
X118892598Y-86210881D01*
X118682067Y-86267293D01*
X118682065Y-86267294D01*
X118676757Y-86268716D01*
X118671776Y-86271039D01*
X118671775Y-86271039D01*
X118474238Y-86363151D01*
X118474233Y-86363154D01*
X118469251Y-86365477D01*
X118412080Y-86405509D01*
X118286211Y-86493643D01*
X118286208Y-86493645D01*
X118281700Y-86496802D01*
X118119802Y-86658700D01*
X118116645Y-86663208D01*
X118116643Y-86663211D01*
X118082563Y-86711882D01*
X117988477Y-86846251D01*
X117986154Y-86851233D01*
X117986151Y-86851238D01*
X117897339Y-87041699D01*
X117891716Y-87053757D01*
X117890294Y-87059065D01*
X117890293Y-87059067D01*
X117869019Y-87138461D01*
X117832457Y-87274913D01*
X117812502Y-87503000D01*
X98955639Y-87503000D01*
X98935677Y-87313072D01*
X98876662Y-87131444D01*
X98781175Y-86966056D01*
X98754050Y-86935930D01*
X98657810Y-86829045D01*
X98657809Y-86829044D01*
X98653388Y-86824134D01*
X98498887Y-86711882D01*
X98492859Y-86709198D01*
X98492857Y-86709197D01*
X98330454Y-86636891D01*
X98330453Y-86636891D01*
X98324423Y-86634206D01*
X98231022Y-86614353D01*
X98144079Y-86595872D01*
X98144074Y-86595872D01*
X98137622Y-86594500D01*
X97946648Y-86594500D01*
X97940196Y-86595872D01*
X97940191Y-86595872D01*
X97853248Y-86614353D01*
X97759847Y-86634206D01*
X97753817Y-86636891D01*
X97753816Y-86636891D01*
X97591413Y-86709197D01*
X97591411Y-86709198D01*
X97585383Y-86711882D01*
X97430882Y-86824134D01*
X97426461Y-86829044D01*
X97426460Y-86829045D01*
X97330221Y-86935930D01*
X97303095Y-86966056D01*
X97207608Y-87131444D01*
X97148593Y-87313072D01*
X97128631Y-87503000D01*
X87512081Y-87503000D01*
X87510374Y-87494976D01*
X87535490Y-87428571D01*
X87562842Y-87401964D01*
X87738327Y-87276792D01*
X87746200Y-87270139D01*
X87897052Y-87119812D01*
X87903730Y-87111965D01*
X88028003Y-86939020D01*
X88033313Y-86930183D01*
X88127670Y-86739267D01*
X88131469Y-86729672D01*
X88193377Y-86525910D01*
X88195555Y-86515837D01*
X88196986Y-86504962D01*
X88194775Y-86490778D01*
X88181617Y-86487000D01*
X87135115Y-86487000D01*
X87119876Y-86491475D01*
X87118671Y-86492865D01*
X87117000Y-86500548D01*
X87117000Y-88500885D01*
X86609000Y-88500885D01*
X86609000Y-85960885D01*
X87117000Y-85960885D01*
X87121475Y-85976124D01*
X87122865Y-85977329D01*
X87130548Y-85979000D01*
X88181344Y-85979000D01*
X88194875Y-85975027D01*
X88196180Y-85965947D01*
X88154214Y-85798875D01*
X88150894Y-85789124D01*
X88065972Y-85593814D01*
X88061105Y-85584739D01*
X87945426Y-85405926D01*
X87939136Y-85397757D01*
X87795806Y-85240240D01*
X87788273Y-85233215D01*
X87621139Y-85101222D01*
X87612552Y-85095517D01*
X87575116Y-85074851D01*
X87525146Y-85024419D01*
X87510374Y-84954976D01*
X87535490Y-84888571D01*
X87562842Y-84861964D01*
X87738327Y-84736792D01*
X87746200Y-84730139D01*
X87897052Y-84579812D01*
X87903730Y-84571965D01*
X88028003Y-84399020D01*
X88033313Y-84390183D01*
X88064046Y-84328000D01*
X98654496Y-84328000D01*
X98655186Y-84334565D01*
X98657057Y-84352362D01*
X98674458Y-84517928D01*
X98733473Y-84699556D01*
X98828960Y-84864944D01*
X98833378Y-84869851D01*
X98833379Y-84869852D01*
X98933572Y-84981128D01*
X98956747Y-85006866D01*
X99001931Y-85039694D01*
X99086036Y-85100800D01*
X99111248Y-85119118D01*
X99117276Y-85121802D01*
X99117278Y-85121803D01*
X99279681Y-85194109D01*
X99285712Y-85196794D01*
X99379113Y-85216647D01*
X99466056Y-85235128D01*
X99466061Y-85235128D01*
X99472513Y-85236500D01*
X99663487Y-85236500D01*
X99669939Y-85235128D01*
X99669944Y-85235128D01*
X99756887Y-85216647D01*
X99850288Y-85196794D01*
X99856319Y-85194109D01*
X100018722Y-85121803D01*
X100018724Y-85121802D01*
X100024752Y-85119118D01*
X100049965Y-85100800D01*
X100134069Y-85039694D01*
X100179253Y-85006866D01*
X100202428Y-84981128D01*
X100302621Y-84869852D01*
X100302622Y-84869851D01*
X100307040Y-84864944D01*
X100402527Y-84699556D01*
X100461542Y-84517928D01*
X100478944Y-84352362D01*
X100480814Y-84334565D01*
X100481504Y-84328000D01*
X100467974Y-84199267D01*
X100462232Y-84144635D01*
X100462232Y-84144633D01*
X100461542Y-84138072D01*
X100440724Y-84074000D01*
X105639496Y-84074000D01*
X105640186Y-84080565D01*
X105652194Y-84194811D01*
X105659458Y-84263928D01*
X105718473Y-84445556D01*
X105813960Y-84610944D01*
X105818378Y-84615851D01*
X105818379Y-84615852D01*
X105921635Y-84730529D01*
X105941747Y-84752866D01*
X106096248Y-84865118D01*
X106102276Y-84867802D01*
X106102278Y-84867803D01*
X106264681Y-84940109D01*
X106270712Y-84942794D01*
X106361746Y-84962144D01*
X106451056Y-84981128D01*
X106451061Y-84981128D01*
X106457513Y-84982500D01*
X106648487Y-84982500D01*
X106654939Y-84981128D01*
X106654944Y-84981128D01*
X106744254Y-84962144D01*
X106835288Y-84942794D01*
X106841319Y-84940109D01*
X107003722Y-84867803D01*
X107003724Y-84867802D01*
X107009752Y-84865118D01*
X107164253Y-84752866D01*
X107184365Y-84730529D01*
X107287621Y-84615852D01*
X107287622Y-84615851D01*
X107292040Y-84610944D01*
X107387527Y-84445556D01*
X107446542Y-84263928D01*
X107453807Y-84194811D01*
X107465814Y-84080565D01*
X107466504Y-84074000D01*
X107465814Y-84067435D01*
X107447232Y-83890635D01*
X107447232Y-83890633D01*
X107446542Y-83884072D01*
X107387527Y-83702444D01*
X107382075Y-83693000D01*
X107295341Y-83542774D01*
X107292040Y-83537056D01*
X107164253Y-83395134D01*
X107009752Y-83282882D01*
X107003724Y-83280198D01*
X107003722Y-83280197D01*
X106841319Y-83207891D01*
X106841318Y-83207891D01*
X106835288Y-83205206D01*
X106741888Y-83185353D01*
X106654944Y-83166872D01*
X106654939Y-83166872D01*
X106648487Y-83165500D01*
X106457513Y-83165500D01*
X106451061Y-83166872D01*
X106451056Y-83166872D01*
X106364112Y-83185353D01*
X106270712Y-83205206D01*
X106264682Y-83207891D01*
X106264681Y-83207891D01*
X106102278Y-83280197D01*
X106102276Y-83280198D01*
X106096248Y-83282882D01*
X105941747Y-83395134D01*
X105813960Y-83537056D01*
X105810659Y-83542774D01*
X105723926Y-83693000D01*
X105718473Y-83702444D01*
X105659458Y-83884072D01*
X105658768Y-83890633D01*
X105658768Y-83890635D01*
X105640186Y-84067435D01*
X105639496Y-84074000D01*
X100440724Y-84074000D01*
X100402527Y-83956444D01*
X100397075Y-83947000D01*
X100310341Y-83796774D01*
X100307040Y-83791056D01*
X100227254Y-83702444D01*
X100183675Y-83654045D01*
X100183674Y-83654044D01*
X100179253Y-83649134D01*
X100024752Y-83536882D01*
X100018724Y-83534198D01*
X100018722Y-83534197D01*
X99856319Y-83461891D01*
X99856318Y-83461891D01*
X99850288Y-83459206D01*
X99748499Y-83437570D01*
X99669944Y-83420872D01*
X99669939Y-83420872D01*
X99663487Y-83419500D01*
X99472513Y-83419500D01*
X99466061Y-83420872D01*
X99466056Y-83420872D01*
X99387501Y-83437570D01*
X99285712Y-83459206D01*
X99279682Y-83461891D01*
X99279681Y-83461891D01*
X99117278Y-83534197D01*
X99117276Y-83534198D01*
X99111248Y-83536882D01*
X98956747Y-83649134D01*
X98952326Y-83654044D01*
X98952325Y-83654045D01*
X98908747Y-83702444D01*
X98828960Y-83791056D01*
X98825659Y-83796774D01*
X98738926Y-83947000D01*
X98733473Y-83956444D01*
X98674458Y-84138072D01*
X98673768Y-84144633D01*
X98673768Y-84144635D01*
X98668026Y-84199267D01*
X98654496Y-84328000D01*
X88064046Y-84328000D01*
X88127670Y-84199267D01*
X88131469Y-84189672D01*
X88193377Y-83985910D01*
X88195555Y-83975837D01*
X88196986Y-83964962D01*
X88194775Y-83950778D01*
X88181617Y-83947000D01*
X87135115Y-83947000D01*
X87119876Y-83951475D01*
X87118671Y-83952865D01*
X87117000Y-83960548D01*
X87117000Y-85960885D01*
X86609000Y-85960885D01*
X86609000Y-83420885D01*
X87117000Y-83420885D01*
X87121475Y-83436124D01*
X87122865Y-83437329D01*
X87130548Y-83439000D01*
X88181344Y-83439000D01*
X88194875Y-83435027D01*
X88196180Y-83425947D01*
X88154214Y-83258875D01*
X88150894Y-83249124D01*
X88065972Y-83053814D01*
X88061105Y-83044739D01*
X87945426Y-82865926D01*
X87939136Y-82857757D01*
X87795806Y-82700240D01*
X87788273Y-82693215D01*
X87621139Y-82561222D01*
X87612552Y-82555517D01*
X87575116Y-82534851D01*
X87525146Y-82484419D01*
X87510374Y-82414976D01*
X87535490Y-82348571D01*
X87562842Y-82321964D01*
X87738327Y-82196792D01*
X87746200Y-82190139D01*
X87897052Y-82039812D01*
X87903730Y-82031965D01*
X88028003Y-81859020D01*
X88033313Y-81850183D01*
X88127670Y-81659267D01*
X88131469Y-81649672D01*
X88193377Y-81445910D01*
X88195555Y-81435837D01*
X88196986Y-81424962D01*
X88194775Y-81410778D01*
X88181617Y-81407000D01*
X87135115Y-81407000D01*
X87119876Y-81411475D01*
X87118671Y-81412865D01*
X87117000Y-81420548D01*
X87117000Y-83420885D01*
X86609000Y-83420885D01*
X86609000Y-80880885D01*
X87117000Y-80880885D01*
X87121475Y-80896124D01*
X87122865Y-80897329D01*
X87130548Y-80899000D01*
X88181344Y-80899000D01*
X88194875Y-80895027D01*
X88196180Y-80885947D01*
X88154214Y-80718875D01*
X88150894Y-80709124D01*
X88065972Y-80513814D01*
X88061105Y-80504739D01*
X87945426Y-80325926D01*
X87939136Y-80317757D01*
X87795806Y-80160240D01*
X87788273Y-80153215D01*
X87649352Y-80043503D01*
X108941496Y-80043503D01*
X108942186Y-80050068D01*
X108953727Y-80159870D01*
X108961458Y-80233431D01*
X109020473Y-80415059D01*
X109115960Y-80580447D01*
X109243747Y-80722369D01*
X109398248Y-80834621D01*
X109404276Y-80837305D01*
X109404278Y-80837306D01*
X109539093Y-80897329D01*
X109572712Y-80912297D01*
X109657696Y-80930361D01*
X109753056Y-80950631D01*
X109753061Y-80950631D01*
X109759513Y-80952003D01*
X109950487Y-80952003D01*
X109956939Y-80950631D01*
X109956944Y-80950631D01*
X110052304Y-80930361D01*
X110137288Y-80912297D01*
X110170907Y-80897329D01*
X110305722Y-80837306D01*
X110305724Y-80837305D01*
X110311752Y-80834621D01*
X110466253Y-80722369D01*
X110594040Y-80580447D01*
X110689527Y-80415059D01*
X110748542Y-80233431D01*
X110756274Y-80159870D01*
X110767814Y-80050068D01*
X110768504Y-80043503D01*
X110763199Y-79993027D01*
X110749232Y-79860138D01*
X110749232Y-79860136D01*
X110748542Y-79853575D01*
X110689527Y-79671947D01*
X110594040Y-79506559D01*
X110558029Y-79466564D01*
X110470674Y-79369547D01*
X110466253Y-79364637D01*
X110344112Y-79275896D01*
X110317094Y-79256266D01*
X110317093Y-79256265D01*
X110311752Y-79252385D01*
X110305724Y-79249701D01*
X110305722Y-79249700D01*
X110143319Y-79177394D01*
X110143318Y-79177394D01*
X110137288Y-79174709D01*
X110043888Y-79154856D01*
X109956944Y-79136375D01*
X109956939Y-79136375D01*
X109950487Y-79135003D01*
X109759513Y-79135003D01*
X109753061Y-79136375D01*
X109753056Y-79136375D01*
X109666112Y-79154856D01*
X109572712Y-79174709D01*
X109566682Y-79177394D01*
X109566681Y-79177394D01*
X109404278Y-79249700D01*
X109404276Y-79249701D01*
X109398248Y-79252385D01*
X109392907Y-79256265D01*
X109392906Y-79256266D01*
X109365888Y-79275896D01*
X109243747Y-79364637D01*
X109239326Y-79369547D01*
X109151972Y-79466564D01*
X109115960Y-79506559D01*
X109020473Y-79671947D01*
X108961458Y-79853575D01*
X108960768Y-79860136D01*
X108960768Y-79860138D01*
X108946801Y-79993027D01*
X108941496Y-80043503D01*
X87649352Y-80043503D01*
X87621139Y-80021222D01*
X87612552Y-80015517D01*
X87575116Y-79994851D01*
X87525146Y-79944419D01*
X87510374Y-79874976D01*
X87535490Y-79808571D01*
X87562842Y-79781964D01*
X87738327Y-79656792D01*
X87746200Y-79650139D01*
X87897052Y-79499812D01*
X87903730Y-79491965D01*
X88028003Y-79319020D01*
X88033313Y-79310183D01*
X88127670Y-79119267D01*
X88131469Y-79109672D01*
X88193377Y-78905910D01*
X88195555Y-78895837D01*
X88196986Y-78884962D01*
X88194775Y-78870778D01*
X88181617Y-78867000D01*
X87135115Y-78867000D01*
X87119876Y-78871475D01*
X87118671Y-78872865D01*
X87117000Y-78880548D01*
X87117000Y-80880885D01*
X86609000Y-80880885D01*
X86609000Y-78340885D01*
X87117000Y-78340885D01*
X87121475Y-78356124D01*
X87122865Y-78357329D01*
X87130548Y-78359000D01*
X88181344Y-78359000D01*
X88194875Y-78355027D01*
X88196180Y-78345947D01*
X88154214Y-78178875D01*
X88150894Y-78169124D01*
X88067792Y-77978000D01*
X96495496Y-77978000D01*
X96496186Y-77984565D01*
X96513290Y-78147297D01*
X96515458Y-78167928D01*
X96574473Y-78349556D01*
X96577776Y-78355278D01*
X96577777Y-78355279D01*
X96582066Y-78362707D01*
X96669960Y-78514944D01*
X96674378Y-78519851D01*
X96674379Y-78519852D01*
X96758250Y-78613000D01*
X96797747Y-78656866D01*
X96952248Y-78769118D01*
X96958276Y-78771802D01*
X96958278Y-78771803D01*
X97054544Y-78814663D01*
X97126712Y-78846794D01*
X97220113Y-78866647D01*
X97307056Y-78885128D01*
X97307061Y-78885128D01*
X97313513Y-78886500D01*
X97504487Y-78886500D01*
X97510939Y-78885128D01*
X97510944Y-78885128D01*
X97597887Y-78866647D01*
X97691288Y-78846794D01*
X97763456Y-78814663D01*
X97859722Y-78771803D01*
X97859724Y-78771802D01*
X97865752Y-78769118D01*
X98020253Y-78656866D01*
X98059750Y-78613000D01*
X98143621Y-78519852D01*
X98143622Y-78519851D01*
X98148040Y-78514944D01*
X98235934Y-78362707D01*
X98240223Y-78355279D01*
X98240224Y-78355278D01*
X98243527Y-78349556D01*
X98302542Y-78167928D01*
X98304711Y-78147297D01*
X98321814Y-77984565D01*
X98322504Y-77978000D01*
X98318983Y-77944497D01*
X108941496Y-77944497D01*
X108942186Y-77951062D01*
X108944055Y-77968840D01*
X108961458Y-78134425D01*
X109020473Y-78316053D01*
X109023776Y-78321775D01*
X109023777Y-78321776D01*
X109047409Y-78362707D01*
X109115960Y-78481441D01*
X109120378Y-78486348D01*
X109120379Y-78486349D01*
X109232856Y-78611267D01*
X109243747Y-78623363D01*
X109289860Y-78656866D01*
X109369639Y-78714829D01*
X109398248Y-78735615D01*
X109404276Y-78738299D01*
X109404278Y-78738300D01*
X109560671Y-78807930D01*
X109572712Y-78813291D01*
X109666113Y-78833144D01*
X109753056Y-78851625D01*
X109753061Y-78851625D01*
X109759513Y-78852997D01*
X109950487Y-78852997D01*
X109956939Y-78851625D01*
X109956944Y-78851625D01*
X110043887Y-78833144D01*
X110137288Y-78813291D01*
X110149329Y-78807930D01*
X110305722Y-78738300D01*
X110305724Y-78738299D01*
X110311752Y-78735615D01*
X110340362Y-78714829D01*
X110420140Y-78656866D01*
X110466253Y-78623363D01*
X110477144Y-78611267D01*
X110589621Y-78486349D01*
X110589622Y-78486348D01*
X110594040Y-78481441D01*
X110662591Y-78362707D01*
X110686223Y-78321776D01*
X110686224Y-78321775D01*
X110689527Y-78316053D01*
X110748542Y-78134425D01*
X110765946Y-77968840D01*
X110767814Y-77951062D01*
X110768504Y-77944497D01*
X110751805Y-77785617D01*
X110749232Y-77761132D01*
X110749232Y-77761130D01*
X110748542Y-77754569D01*
X110689527Y-77572941D01*
X110594040Y-77407553D01*
X110589499Y-77402509D01*
X110470675Y-77270542D01*
X110470674Y-77270541D01*
X110466253Y-77265631D01*
X110311752Y-77153379D01*
X110305724Y-77150695D01*
X110305722Y-77150694D01*
X110143319Y-77078388D01*
X110143318Y-77078388D01*
X110137288Y-77075703D01*
X110043888Y-77055850D01*
X109956944Y-77037369D01*
X109956939Y-77037369D01*
X109950487Y-77035997D01*
X109759513Y-77035997D01*
X109753061Y-77037369D01*
X109753056Y-77037369D01*
X109666112Y-77055850D01*
X109572712Y-77075703D01*
X109566682Y-77078388D01*
X109566681Y-77078388D01*
X109404278Y-77150694D01*
X109404276Y-77150695D01*
X109398248Y-77153379D01*
X109243747Y-77265631D01*
X109239326Y-77270541D01*
X109239325Y-77270542D01*
X109120502Y-77402509D01*
X109115960Y-77407553D01*
X109020473Y-77572941D01*
X108961458Y-77754569D01*
X108960768Y-77761130D01*
X108960768Y-77761132D01*
X108958195Y-77785617D01*
X108941496Y-77944497D01*
X98318983Y-77944497D01*
X98315680Y-77913074D01*
X98303232Y-77794635D01*
X98303232Y-77794633D01*
X98302542Y-77788072D01*
X98243527Y-77606444D01*
X98238507Y-77597748D01*
X98170986Y-77480800D01*
X98148040Y-77441056D01*
X98115003Y-77404364D01*
X98024675Y-77304045D01*
X98024674Y-77304044D01*
X98020253Y-77299134D01*
X97921157Y-77227136D01*
X97871094Y-77190763D01*
X97871093Y-77190762D01*
X97865752Y-77186882D01*
X97859724Y-77184198D01*
X97859722Y-77184197D01*
X97697319Y-77111891D01*
X97697318Y-77111891D01*
X97691288Y-77109206D01*
X97578570Y-77085247D01*
X97516097Y-77051518D01*
X97481775Y-76989369D01*
X97486503Y-76918530D01*
X97528779Y-76861492D01*
X97578570Y-76838753D01*
X97691288Y-76814794D01*
X97697319Y-76812109D01*
X97859722Y-76739803D01*
X97859724Y-76739802D01*
X97865752Y-76737118D01*
X98020253Y-76624866D01*
X98040365Y-76602529D01*
X98143621Y-76487852D01*
X98143622Y-76487851D01*
X98148040Y-76482944D01*
X98235893Y-76330778D01*
X98240223Y-76323279D01*
X98240224Y-76323278D01*
X98243527Y-76317556D01*
X98302542Y-76135928D01*
X98304138Y-76120749D01*
X98321814Y-75952565D01*
X98322504Y-75946000D01*
X98312452Y-75850361D01*
X98303232Y-75762635D01*
X98303232Y-75762633D01*
X98302542Y-75756072D01*
X98243527Y-75574444D01*
X98238075Y-75565000D01*
X98164751Y-75438000D01*
X118212496Y-75438000D01*
X118213186Y-75444565D01*
X118230290Y-75607297D01*
X118232458Y-75627928D01*
X118291473Y-75809556D01*
X118294776Y-75815278D01*
X118294777Y-75815279D01*
X118299066Y-75822707D01*
X118386960Y-75974944D01*
X118514747Y-76116866D01*
X118669248Y-76229118D01*
X118675276Y-76231802D01*
X118675278Y-76231803D01*
X118837681Y-76304109D01*
X118843712Y-76306794D01*
X118937112Y-76326647D01*
X119024056Y-76345128D01*
X119024061Y-76345128D01*
X119030513Y-76346500D01*
X119221487Y-76346500D01*
X119227939Y-76345128D01*
X119227944Y-76345128D01*
X119314888Y-76326647D01*
X119408288Y-76306794D01*
X119414319Y-76304109D01*
X119576722Y-76231803D01*
X119576724Y-76231802D01*
X119582752Y-76229118D01*
X119737253Y-76116866D01*
X119865040Y-75974944D01*
X119952934Y-75822707D01*
X119957223Y-75815279D01*
X119957224Y-75815278D01*
X119960527Y-75809556D01*
X120019542Y-75627928D01*
X120021711Y-75607297D01*
X120038814Y-75444565D01*
X120039504Y-75438000D01*
X120032680Y-75373074D01*
X120020232Y-75254635D01*
X120020232Y-75254633D01*
X120019542Y-75248072D01*
X119960527Y-75066444D01*
X119955507Y-75057748D01*
X119887986Y-74940800D01*
X119865040Y-74901056D01*
X119832003Y-74864364D01*
X119741675Y-74764045D01*
X119741674Y-74764044D01*
X119737253Y-74759134D01*
X119638157Y-74687136D01*
X119588094Y-74650763D01*
X119588093Y-74650762D01*
X119582752Y-74646882D01*
X119576724Y-74644198D01*
X119576722Y-74644197D01*
X119414319Y-74571891D01*
X119414318Y-74571891D01*
X119408288Y-74569206D01*
X119297396Y-74545635D01*
X119227944Y-74530872D01*
X119227939Y-74530872D01*
X119221487Y-74529500D01*
X119030513Y-74529500D01*
X119024061Y-74530872D01*
X119024056Y-74530872D01*
X118954604Y-74545635D01*
X118843712Y-74569206D01*
X118837682Y-74571891D01*
X118837681Y-74571891D01*
X118675278Y-74644197D01*
X118675276Y-74644198D01*
X118669248Y-74646882D01*
X118663907Y-74650762D01*
X118663906Y-74650763D01*
X118613843Y-74687136D01*
X118514747Y-74759134D01*
X118510326Y-74764044D01*
X118510325Y-74764045D01*
X118419998Y-74864364D01*
X118386960Y-74901056D01*
X118364014Y-74940800D01*
X118296494Y-75057748D01*
X118291473Y-75066444D01*
X118232458Y-75248072D01*
X118231768Y-75254633D01*
X118231768Y-75254635D01*
X118219320Y-75373074D01*
X118212496Y-75438000D01*
X98164751Y-75438000D01*
X98162334Y-75433814D01*
X98148040Y-75409056D01*
X98083469Y-75337342D01*
X98024675Y-75272045D01*
X98024674Y-75272044D01*
X98020253Y-75267134D01*
X97865752Y-75154882D01*
X97859724Y-75152198D01*
X97859722Y-75152197D01*
X97697319Y-75079891D01*
X97697318Y-75079891D01*
X97691288Y-75077206D01*
X97580396Y-75053635D01*
X97510944Y-75038872D01*
X97510939Y-75038872D01*
X97504487Y-75037500D01*
X97313513Y-75037500D01*
X97307061Y-75038872D01*
X97307056Y-75038872D01*
X97237604Y-75053635D01*
X97126712Y-75077206D01*
X97120682Y-75079891D01*
X97120681Y-75079891D01*
X96958278Y-75152197D01*
X96958276Y-75152198D01*
X96952248Y-75154882D01*
X96797747Y-75267134D01*
X96793326Y-75272044D01*
X96793325Y-75272045D01*
X96734532Y-75337342D01*
X96669960Y-75409056D01*
X96655666Y-75433814D01*
X96579926Y-75565000D01*
X96574473Y-75574444D01*
X96515458Y-75756072D01*
X96514768Y-75762633D01*
X96514768Y-75762635D01*
X96505548Y-75850361D01*
X96495496Y-75946000D01*
X96496186Y-75952565D01*
X96513863Y-76120749D01*
X96515458Y-76135928D01*
X96574473Y-76317556D01*
X96577776Y-76323278D01*
X96577777Y-76323279D01*
X96582107Y-76330778D01*
X96669960Y-76482944D01*
X96674378Y-76487851D01*
X96674379Y-76487852D01*
X96777635Y-76602529D01*
X96797747Y-76624866D01*
X96952248Y-76737118D01*
X96958276Y-76739802D01*
X96958278Y-76739803D01*
X97120681Y-76812109D01*
X97126712Y-76814794D01*
X97239430Y-76838753D01*
X97301903Y-76872482D01*
X97336225Y-76934631D01*
X97331497Y-77005470D01*
X97289221Y-77062508D01*
X97239430Y-77085247D01*
X97126712Y-77109206D01*
X97120682Y-77111891D01*
X97120681Y-77111891D01*
X96958278Y-77184197D01*
X96958276Y-77184198D01*
X96952248Y-77186882D01*
X96946907Y-77190762D01*
X96946906Y-77190763D01*
X96896843Y-77227136D01*
X96797747Y-77299134D01*
X96793326Y-77304044D01*
X96793325Y-77304045D01*
X96702998Y-77404364D01*
X96669960Y-77441056D01*
X96647014Y-77480800D01*
X96579494Y-77597748D01*
X96574473Y-77606444D01*
X96515458Y-77788072D01*
X96514768Y-77794633D01*
X96514768Y-77794635D01*
X96502320Y-77913074D01*
X96495496Y-77978000D01*
X88067792Y-77978000D01*
X88065972Y-77973814D01*
X88061105Y-77964739D01*
X87945426Y-77785926D01*
X87939136Y-77777757D01*
X87795806Y-77620240D01*
X87788273Y-77613215D01*
X87621139Y-77481222D01*
X87612552Y-77475517D01*
X87575116Y-77454851D01*
X87525146Y-77404419D01*
X87510374Y-77334976D01*
X87535490Y-77268571D01*
X87562842Y-77241964D01*
X87738327Y-77116792D01*
X87746200Y-77110139D01*
X87897052Y-76959812D01*
X87903730Y-76951965D01*
X88028003Y-76779020D01*
X88033313Y-76770183D01*
X88127670Y-76579267D01*
X88131469Y-76569672D01*
X88193377Y-76365910D01*
X88195555Y-76355837D01*
X88196986Y-76344962D01*
X88194775Y-76330778D01*
X88181617Y-76327000D01*
X87135115Y-76327000D01*
X87119876Y-76331475D01*
X87118671Y-76332865D01*
X87117000Y-76340548D01*
X87117000Y-78340885D01*
X86609000Y-78340885D01*
X86609000Y-75800885D01*
X87117000Y-75800885D01*
X87121475Y-75816124D01*
X87122865Y-75817329D01*
X87130548Y-75819000D01*
X88181344Y-75819000D01*
X88194875Y-75815027D01*
X88196180Y-75805947D01*
X88154214Y-75638875D01*
X88150894Y-75629124D01*
X88065972Y-75433814D01*
X88061105Y-75424739D01*
X87945426Y-75245926D01*
X87939136Y-75237757D01*
X87795806Y-75080240D01*
X87788273Y-75073215D01*
X87621139Y-74941222D01*
X87612552Y-74935517D01*
X87575116Y-74914851D01*
X87525146Y-74864419D01*
X87510374Y-74794976D01*
X87535490Y-74728571D01*
X87562842Y-74701964D01*
X87738327Y-74576792D01*
X87746200Y-74570139D01*
X87897052Y-74419812D01*
X87903730Y-74411965D01*
X88028003Y-74239020D01*
X88033313Y-74230183D01*
X88127670Y-74039267D01*
X88131469Y-74029672D01*
X88193377Y-73825910D01*
X88195555Y-73815837D01*
X88196986Y-73804962D01*
X88194775Y-73790778D01*
X88181617Y-73787000D01*
X87135115Y-73787000D01*
X87119876Y-73791475D01*
X87118671Y-73792865D01*
X87117000Y-73800548D01*
X87117000Y-75800885D01*
X86609000Y-75800885D01*
X86609000Y-73260885D01*
X87117000Y-73260885D01*
X87121475Y-73276124D01*
X87122865Y-73277329D01*
X87130548Y-73279000D01*
X88181344Y-73279000D01*
X88194875Y-73275027D01*
X88196180Y-73265947D01*
X88154214Y-73098875D01*
X88150894Y-73089124D01*
X88067792Y-72898000D01*
X118212496Y-72898000D01*
X118213186Y-72904565D01*
X118230290Y-73067297D01*
X118232458Y-73087928D01*
X118291473Y-73269556D01*
X118294776Y-73275278D01*
X118294777Y-73275279D01*
X118299066Y-73282707D01*
X118386960Y-73434944D01*
X118391378Y-73439851D01*
X118391379Y-73439852D01*
X118440640Y-73494562D01*
X118514747Y-73576866D01*
X118669248Y-73689118D01*
X118675276Y-73691802D01*
X118675278Y-73691803D01*
X118837681Y-73764109D01*
X118843712Y-73766794D01*
X118937113Y-73786647D01*
X119024056Y-73805128D01*
X119024061Y-73805128D01*
X119030513Y-73806500D01*
X119221487Y-73806500D01*
X119227939Y-73805128D01*
X119227944Y-73805128D01*
X119314887Y-73786647D01*
X119408288Y-73766794D01*
X119414319Y-73764109D01*
X119576722Y-73691803D01*
X119576724Y-73691802D01*
X119582752Y-73689118D01*
X119737253Y-73576866D01*
X119811360Y-73494562D01*
X119860621Y-73439852D01*
X119860622Y-73439851D01*
X119865040Y-73434944D01*
X119952934Y-73282707D01*
X119957223Y-73275279D01*
X119957224Y-73275278D01*
X119960527Y-73269556D01*
X120019542Y-73087928D01*
X120021711Y-73067297D01*
X120038814Y-72904565D01*
X120039504Y-72898000D01*
X120032680Y-72833074D01*
X120020232Y-72714635D01*
X120020232Y-72714633D01*
X120019542Y-72708072D01*
X119960527Y-72526444D01*
X119955507Y-72517748D01*
X119907077Y-72433866D01*
X119865040Y-72361056D01*
X119832003Y-72324364D01*
X119741675Y-72224045D01*
X119741674Y-72224044D01*
X119737253Y-72219134D01*
X119609831Y-72126556D01*
X119588094Y-72110763D01*
X119588093Y-72110762D01*
X119582752Y-72106882D01*
X119576724Y-72104198D01*
X119576722Y-72104197D01*
X119414319Y-72031891D01*
X119414318Y-72031891D01*
X119408288Y-72029206D01*
X119297396Y-72005635D01*
X119227944Y-71990872D01*
X119227939Y-71990872D01*
X119221487Y-71989500D01*
X119030513Y-71989500D01*
X119024061Y-71990872D01*
X119024056Y-71990872D01*
X118954604Y-72005635D01*
X118843712Y-72029206D01*
X118837682Y-72031891D01*
X118837681Y-72031891D01*
X118675278Y-72104197D01*
X118675276Y-72104198D01*
X118669248Y-72106882D01*
X118663907Y-72110762D01*
X118663906Y-72110763D01*
X118642169Y-72126556D01*
X118514747Y-72219134D01*
X118510326Y-72224044D01*
X118510325Y-72224045D01*
X118419998Y-72324364D01*
X118386960Y-72361056D01*
X118344923Y-72433866D01*
X118296494Y-72517748D01*
X118291473Y-72526444D01*
X118232458Y-72708072D01*
X118231768Y-72714633D01*
X118231768Y-72714635D01*
X118219320Y-72833074D01*
X118212496Y-72898000D01*
X88067792Y-72898000D01*
X88065972Y-72893814D01*
X88061105Y-72884739D01*
X87945426Y-72705926D01*
X87939136Y-72697757D01*
X87795806Y-72540240D01*
X87788273Y-72533215D01*
X87621139Y-72401222D01*
X87612552Y-72395517D01*
X87575116Y-72374851D01*
X87525146Y-72324419D01*
X87510374Y-72254976D01*
X87535490Y-72188571D01*
X87562842Y-72161964D01*
X87738327Y-72036792D01*
X87746200Y-72030139D01*
X87897052Y-71879812D01*
X87903730Y-71871965D01*
X87987777Y-71755000D01*
X99162496Y-71755000D01*
X99163186Y-71761565D01*
X99180663Y-71927846D01*
X99182458Y-71944928D01*
X99241473Y-72126556D01*
X99244776Y-72132278D01*
X99244777Y-72132279D01*
X99263031Y-72163896D01*
X99336960Y-72291944D01*
X99341378Y-72296851D01*
X99341379Y-72296852D01*
X99460325Y-72428955D01*
X99464747Y-72433866D01*
X99563843Y-72505864D01*
X99611158Y-72540240D01*
X99619248Y-72546118D01*
X99625276Y-72548802D01*
X99625278Y-72548803D01*
X99772300Y-72614261D01*
X99793712Y-72623794D01*
X99887113Y-72643647D01*
X99974056Y-72662128D01*
X99974061Y-72662128D01*
X99980513Y-72663500D01*
X100171487Y-72663500D01*
X100177939Y-72662128D01*
X100177944Y-72662128D01*
X100264887Y-72643647D01*
X100358288Y-72623794D01*
X100379700Y-72614261D01*
X100526722Y-72548803D01*
X100526724Y-72548802D01*
X100532752Y-72546118D01*
X100540843Y-72540240D01*
X100588157Y-72505864D01*
X100687253Y-72433866D01*
X100691675Y-72428955D01*
X100810621Y-72296852D01*
X100810622Y-72296851D01*
X100815040Y-72291944D01*
X100888969Y-72163896D01*
X100907223Y-72132279D01*
X100907224Y-72132278D01*
X100910527Y-72126556D01*
X100969542Y-71944928D01*
X100971338Y-71927846D01*
X100988814Y-71761565D01*
X100989504Y-71755000D01*
X100987709Y-71737918D01*
X106357631Y-71737918D01*
X106358321Y-71744483D01*
X106373910Y-71892800D01*
X106377593Y-71927846D01*
X106436608Y-72109474D01*
X106439911Y-72115196D01*
X106439912Y-72115197D01*
X106446470Y-72126556D01*
X106532095Y-72274862D01*
X106536513Y-72279769D01*
X106536514Y-72279770D01*
X106624548Y-72377542D01*
X106659882Y-72416784D01*
X106814383Y-72529036D01*
X106820411Y-72531720D01*
X106820413Y-72531721D01*
X106952928Y-72590720D01*
X106988847Y-72606712D01*
X107069211Y-72623794D01*
X107169191Y-72645046D01*
X107169196Y-72645046D01*
X107175648Y-72646418D01*
X107366622Y-72646418D01*
X107373074Y-72645046D01*
X107373079Y-72645046D01*
X107473059Y-72623794D01*
X107553423Y-72606712D01*
X107589342Y-72590720D01*
X107721857Y-72531721D01*
X107721859Y-72531720D01*
X107727887Y-72529036D01*
X107882388Y-72416784D01*
X107917722Y-72377542D01*
X108005756Y-72279770D01*
X108005757Y-72279769D01*
X108010175Y-72274862D01*
X108095800Y-72126556D01*
X108102358Y-72115197D01*
X108102359Y-72115196D01*
X108105662Y-72109474D01*
X108164677Y-71927846D01*
X108168361Y-71892800D01*
X108183949Y-71744483D01*
X108184639Y-71737918D01*
X108167162Y-71571635D01*
X108165367Y-71554553D01*
X108165367Y-71554551D01*
X108164677Y-71547990D01*
X108105662Y-71366362D01*
X108010175Y-71200974D01*
X108002090Y-71191994D01*
X107886810Y-71063963D01*
X107886809Y-71063962D01*
X107882388Y-71059052D01*
X107747703Y-70961197D01*
X107733229Y-70950681D01*
X107733228Y-70950680D01*
X107727887Y-70946800D01*
X107721859Y-70944116D01*
X107721857Y-70944115D01*
X107559454Y-70871809D01*
X107559453Y-70871809D01*
X107553423Y-70869124D01*
X107446986Y-70846500D01*
X107373079Y-70830790D01*
X107373074Y-70830790D01*
X107366622Y-70829418D01*
X107175648Y-70829418D01*
X107169196Y-70830790D01*
X107169191Y-70830790D01*
X107095284Y-70846500D01*
X106988847Y-70869124D01*
X106982817Y-70871809D01*
X106982816Y-70871809D01*
X106820413Y-70944115D01*
X106820411Y-70944116D01*
X106814383Y-70946800D01*
X106809042Y-70950680D01*
X106809041Y-70950681D01*
X106794567Y-70961197D01*
X106659882Y-71059052D01*
X106655461Y-71063962D01*
X106655460Y-71063963D01*
X106540181Y-71191994D01*
X106532095Y-71200974D01*
X106436608Y-71366362D01*
X106377593Y-71547990D01*
X106376903Y-71554551D01*
X106376903Y-71554553D01*
X106375108Y-71571635D01*
X106357631Y-71737918D01*
X100987709Y-71737918D01*
X100978879Y-71653909D01*
X100970232Y-71571635D01*
X100970232Y-71571633D01*
X100969542Y-71565072D01*
X100910527Y-71383444D01*
X100904294Y-71372647D01*
X100835137Y-71252865D01*
X100815040Y-71218056D01*
X100787147Y-71187077D01*
X100691675Y-71081045D01*
X100691674Y-71081044D01*
X100687253Y-71076134D01*
X100564311Y-70986811D01*
X100538094Y-70967763D01*
X100538093Y-70967762D01*
X100532752Y-70963882D01*
X100526724Y-70961198D01*
X100526722Y-70961197D01*
X100364319Y-70888891D01*
X100364318Y-70888891D01*
X100358288Y-70886206D01*
X100264888Y-70866353D01*
X100177944Y-70847872D01*
X100177939Y-70847872D01*
X100171487Y-70846500D01*
X99980513Y-70846500D01*
X99974061Y-70847872D01*
X99974056Y-70847872D01*
X99887112Y-70866353D01*
X99793712Y-70886206D01*
X99787682Y-70888891D01*
X99787681Y-70888891D01*
X99625278Y-70961197D01*
X99625276Y-70961198D01*
X99619248Y-70963882D01*
X99613907Y-70967762D01*
X99613906Y-70967763D01*
X99587689Y-70986811D01*
X99464747Y-71076134D01*
X99460326Y-71081044D01*
X99460325Y-71081045D01*
X99364854Y-71187077D01*
X99336960Y-71218056D01*
X99316863Y-71252865D01*
X99247707Y-71372647D01*
X99241473Y-71383444D01*
X99182458Y-71565072D01*
X99181768Y-71571633D01*
X99181768Y-71571635D01*
X99173121Y-71653909D01*
X99162496Y-71755000D01*
X87987777Y-71755000D01*
X88028003Y-71699020D01*
X88033313Y-71690183D01*
X88127670Y-71499267D01*
X88131469Y-71489672D01*
X88193377Y-71285910D01*
X88195555Y-71275837D01*
X88196986Y-71264962D01*
X88194775Y-71250778D01*
X88181617Y-71247000D01*
X87135115Y-71247000D01*
X87119876Y-71251475D01*
X87118671Y-71252865D01*
X87117000Y-71260548D01*
X87117000Y-73260885D01*
X86609000Y-73260885D01*
X86609000Y-70720885D01*
X87117000Y-70720885D01*
X87121475Y-70736124D01*
X87122865Y-70737329D01*
X87130548Y-70739000D01*
X88181344Y-70739000D01*
X88194875Y-70735027D01*
X88196180Y-70725947D01*
X88154214Y-70558875D01*
X88150894Y-70549124D01*
X88065972Y-70353814D01*
X88061105Y-70344739D01*
X87945426Y-70165926D01*
X87939136Y-70157757D01*
X87795806Y-70000240D01*
X87788273Y-69993215D01*
X87621139Y-69861222D01*
X87612552Y-69855517D01*
X87575116Y-69834851D01*
X87525146Y-69784419D01*
X87510374Y-69714976D01*
X87535490Y-69648571D01*
X87562842Y-69621964D01*
X87738327Y-69496792D01*
X87746200Y-69490139D01*
X87897052Y-69339812D01*
X87903730Y-69331965D01*
X88028003Y-69159020D01*
X88033313Y-69150183D01*
X88127670Y-68959267D01*
X88131469Y-68949672D01*
X88193377Y-68745910D01*
X88195555Y-68735837D01*
X88196986Y-68724962D01*
X88194775Y-68710778D01*
X88181617Y-68707000D01*
X87135115Y-68707000D01*
X87119876Y-68711475D01*
X87118671Y-68712865D01*
X87117000Y-68720548D01*
X87117000Y-70720885D01*
X86609000Y-70720885D01*
X86609000Y-68326000D01*
X93320496Y-68326000D01*
X93321186Y-68332565D01*
X93330886Y-68424851D01*
X93340458Y-68515928D01*
X93399473Y-68697556D01*
X93402776Y-68703278D01*
X93402777Y-68703279D01*
X93407107Y-68710778D01*
X93494960Y-68862944D01*
X93499378Y-68867851D01*
X93499379Y-68867852D01*
X93608274Y-68988792D01*
X93622747Y-69004866D01*
X93777248Y-69117118D01*
X93783276Y-69119802D01*
X93783278Y-69119803D01*
X93881743Y-69163642D01*
X93951712Y-69194794D01*
X94045113Y-69214647D01*
X94132056Y-69233128D01*
X94132061Y-69233128D01*
X94138513Y-69234500D01*
X94329487Y-69234500D01*
X94335939Y-69233128D01*
X94335944Y-69233128D01*
X94422887Y-69214647D01*
X94478886Y-69202744D01*
X107163131Y-69202744D01*
X107163821Y-69209309D01*
X107176713Y-69331965D01*
X107183093Y-69392672D01*
X107242108Y-69574300D01*
X107245411Y-69580022D01*
X107245412Y-69580023D01*
X107270742Y-69623896D01*
X107337595Y-69739688D01*
X107342013Y-69744595D01*
X107342014Y-69744596D01*
X107460960Y-69876699D01*
X107465382Y-69881610D01*
X107564478Y-69953608D01*
X107588286Y-69970905D01*
X107619883Y-69993862D01*
X107625911Y-69996546D01*
X107625913Y-69996547D01*
X107788316Y-70068853D01*
X107794347Y-70071538D01*
X107887748Y-70091391D01*
X107974691Y-70109872D01*
X107974696Y-70109872D01*
X107981148Y-70111244D01*
X108172122Y-70111244D01*
X108178574Y-70109872D01*
X108178579Y-70109872D01*
X108265522Y-70091391D01*
X108358923Y-70071538D01*
X108364954Y-70068853D01*
X108527357Y-69996547D01*
X108527359Y-69996546D01*
X108533387Y-69993862D01*
X108564985Y-69970905D01*
X108588792Y-69953608D01*
X108687888Y-69881610D01*
X108692310Y-69876699D01*
X108811256Y-69744596D01*
X108811257Y-69744595D01*
X108815675Y-69739688D01*
X108882528Y-69623896D01*
X108907858Y-69580023D01*
X108907859Y-69580022D01*
X108911162Y-69574300D01*
X108970177Y-69392672D01*
X108976558Y-69331965D01*
X108989449Y-69209309D01*
X108990139Y-69202744D01*
X108985595Y-69159511D01*
X108970867Y-69019379D01*
X108970867Y-69019377D01*
X108970177Y-69012816D01*
X108911162Y-68831188D01*
X108815675Y-68665800D01*
X108777918Y-68623866D01*
X108692310Y-68528789D01*
X108692309Y-68528788D01*
X108687888Y-68523878D01*
X108533387Y-68411626D01*
X108527359Y-68408942D01*
X108527357Y-68408941D01*
X108364954Y-68336635D01*
X108364953Y-68336635D01*
X108358923Y-68333950D01*
X108247523Y-68310271D01*
X108178579Y-68295616D01*
X108178574Y-68295616D01*
X108172122Y-68294244D01*
X107981148Y-68294244D01*
X107974696Y-68295616D01*
X107974691Y-68295616D01*
X107905747Y-68310271D01*
X107794347Y-68333950D01*
X107788317Y-68336635D01*
X107788316Y-68336635D01*
X107625913Y-68408941D01*
X107625911Y-68408942D01*
X107619883Y-68411626D01*
X107465382Y-68523878D01*
X107460961Y-68528788D01*
X107460960Y-68528789D01*
X107375353Y-68623866D01*
X107337595Y-68665800D01*
X107242108Y-68831188D01*
X107183093Y-69012816D01*
X107182403Y-69019377D01*
X107182403Y-69019379D01*
X107167675Y-69159511D01*
X107163131Y-69202744D01*
X94478886Y-69202744D01*
X94516288Y-69194794D01*
X94586257Y-69163642D01*
X94684722Y-69119803D01*
X94684724Y-69119802D01*
X94690752Y-69117118D01*
X94845253Y-69004866D01*
X94859726Y-68988792D01*
X94968621Y-68867852D01*
X94968622Y-68867851D01*
X94973040Y-68862944D01*
X95060893Y-68710778D01*
X95065223Y-68703279D01*
X95065224Y-68703278D01*
X95068527Y-68697556D01*
X95127542Y-68515928D01*
X95137115Y-68424851D01*
X95146814Y-68332565D01*
X95147504Y-68326000D01*
X95144166Y-68294244D01*
X95128232Y-68142635D01*
X95128232Y-68142633D01*
X95127542Y-68136072D01*
X95068527Y-67954444D01*
X95044118Y-67912166D01*
X95027380Y-67843170D01*
X95050601Y-67776078D01*
X95059592Y-67764866D01*
X95100040Y-67719944D01*
X95174072Y-67591717D01*
X95192226Y-67560274D01*
X95192227Y-67560272D01*
X95195527Y-67554556D01*
X95197567Y-67548277D01*
X95198394Y-67546420D01*
X95244374Y-67492325D01*
X95312301Y-67471676D01*
X95380609Y-67491029D01*
X95428606Y-67546420D01*
X95429433Y-67548277D01*
X95431473Y-67554556D01*
X95434773Y-67560272D01*
X95434774Y-67560274D01*
X95452928Y-67591717D01*
X95526960Y-67719944D01*
X95531375Y-67724847D01*
X95531379Y-67724852D01*
X95577503Y-67776078D01*
X95654747Y-67861866D01*
X95723979Y-67912166D01*
X95790820Y-67960729D01*
X95809248Y-67974118D01*
X95815276Y-67976802D01*
X95815278Y-67976803D01*
X95909774Y-68018875D01*
X95983712Y-68051794D01*
X96077112Y-68071647D01*
X96164056Y-68090128D01*
X96164061Y-68090128D01*
X96170513Y-68091500D01*
X96361487Y-68091500D01*
X96367939Y-68090128D01*
X96367944Y-68090128D01*
X96454888Y-68071647D01*
X96548288Y-68051794D01*
X96622226Y-68018875D01*
X96716722Y-67976803D01*
X96716724Y-67976802D01*
X96722752Y-67974118D01*
X96741181Y-67960729D01*
X96762830Y-67945000D01*
X115164496Y-67945000D01*
X115165186Y-67951565D01*
X115179894Y-68091500D01*
X115184458Y-68134928D01*
X115243473Y-68316556D01*
X115246776Y-68322278D01*
X115246777Y-68322279D01*
X115252716Y-68332565D01*
X115338960Y-68481944D01*
X115343378Y-68486851D01*
X115343379Y-68486852D01*
X115462325Y-68618955D01*
X115466747Y-68623866D01*
X115621248Y-68736118D01*
X115627276Y-68738802D01*
X115627278Y-68738803D01*
X115632368Y-68741069D01*
X115795712Y-68813794D01*
X115877544Y-68831188D01*
X115976056Y-68852128D01*
X115976061Y-68852128D01*
X115982513Y-68853500D01*
X116173487Y-68853500D01*
X116179939Y-68852128D01*
X116179944Y-68852128D01*
X116278456Y-68831188D01*
X116360288Y-68813794D01*
X116523632Y-68741069D01*
X116528722Y-68738803D01*
X116528724Y-68738802D01*
X116534752Y-68736118D01*
X116689253Y-68623866D01*
X116693675Y-68618955D01*
X116812621Y-68486852D01*
X116812622Y-68486851D01*
X116817040Y-68481944D01*
X116903284Y-68332565D01*
X116909223Y-68322279D01*
X116909224Y-68322278D01*
X116912527Y-68316556D01*
X116971542Y-68134928D01*
X116976107Y-68091500D01*
X116990814Y-67951565D01*
X116991504Y-67945000D01*
X121260496Y-67945000D01*
X121261186Y-67951565D01*
X121275894Y-68091500D01*
X121280458Y-68134928D01*
X121339473Y-68316556D01*
X121342776Y-68322278D01*
X121342777Y-68322279D01*
X121348716Y-68332565D01*
X121434960Y-68481944D01*
X121439378Y-68486851D01*
X121439379Y-68486852D01*
X121558325Y-68618955D01*
X121562747Y-68623866D01*
X121717248Y-68736118D01*
X121723276Y-68738802D01*
X121723278Y-68738803D01*
X121728368Y-68741069D01*
X121891712Y-68813794D01*
X121973544Y-68831188D01*
X122072056Y-68852128D01*
X122072061Y-68852128D01*
X122078513Y-68853500D01*
X122269487Y-68853500D01*
X122275939Y-68852128D01*
X122275944Y-68852128D01*
X122374456Y-68831188D01*
X122456288Y-68813794D01*
X122619632Y-68741069D01*
X122624722Y-68738803D01*
X122624724Y-68738802D01*
X122630752Y-68736118D01*
X122785253Y-68623866D01*
X122881865Y-68516567D01*
X122942310Y-68479328D01*
X123013293Y-68480680D01*
X123072278Y-68520193D01*
X123100536Y-68585324D01*
X123101500Y-68600878D01*
X123101500Y-68843134D01*
X123108255Y-68905316D01*
X123159385Y-69041705D01*
X123246739Y-69158261D01*
X123363295Y-69245615D01*
X123371704Y-69248767D01*
X123371705Y-69248768D01*
X123480451Y-69289535D01*
X123537216Y-69332176D01*
X123561916Y-69398738D01*
X123546709Y-69468087D01*
X123527316Y-69494568D01*
X123400629Y-69627138D01*
X123397720Y-69631403D01*
X123397714Y-69631411D01*
X123340710Y-69714976D01*
X123274743Y-69811680D01*
X123244562Y-69876699D01*
X123187217Y-70000240D01*
X123180688Y-70014305D01*
X123120989Y-70229570D01*
X123097251Y-70451695D01*
X123097548Y-70456848D01*
X123097548Y-70456851D01*
X123103202Y-70554908D01*
X123110110Y-70674715D01*
X123111247Y-70679761D01*
X123111248Y-70679767D01*
X123123152Y-70732588D01*
X123159222Y-70892639D01*
X123243266Y-71099616D01*
X123291022Y-71177547D01*
X123357291Y-71285688D01*
X123359987Y-71290088D01*
X123506250Y-71458938D01*
X123678126Y-71601632D01*
X123695903Y-71612020D01*
X123751445Y-71644476D01*
X123800169Y-71696114D01*
X123813240Y-71765897D01*
X123786509Y-71831669D01*
X123746055Y-71865027D01*
X123733607Y-71871507D01*
X123729474Y-71874610D01*
X123729471Y-71874612D01*
X123559100Y-72002530D01*
X123554965Y-72005635D01*
X123400629Y-72167138D01*
X123397720Y-72171403D01*
X123397714Y-72171411D01*
X123340710Y-72254976D01*
X123274743Y-72351680D01*
X123272566Y-72356370D01*
X123272558Y-72356384D01*
X123269853Y-72362212D01*
X123223027Y-72415577D01*
X123154783Y-72435155D01*
X123086788Y-72414729D01*
X123046450Y-72372158D01*
X123040040Y-72361056D01*
X123007003Y-72324364D01*
X122916675Y-72224045D01*
X122916674Y-72224044D01*
X122912253Y-72219134D01*
X122784831Y-72126556D01*
X122763094Y-72110763D01*
X122763093Y-72110762D01*
X122757752Y-72106882D01*
X122751724Y-72104198D01*
X122751722Y-72104197D01*
X122589319Y-72031891D01*
X122589318Y-72031891D01*
X122583288Y-72029206D01*
X122472396Y-72005635D01*
X122402944Y-71990872D01*
X122402939Y-71990872D01*
X122396487Y-71989500D01*
X122205513Y-71989500D01*
X122199061Y-71990872D01*
X122199056Y-71990872D01*
X122129604Y-72005635D01*
X122018712Y-72029206D01*
X122012682Y-72031891D01*
X122012681Y-72031891D01*
X121850278Y-72104197D01*
X121850276Y-72104198D01*
X121844248Y-72106882D01*
X121838907Y-72110762D01*
X121838906Y-72110763D01*
X121817169Y-72126556D01*
X121689747Y-72219134D01*
X121685326Y-72224044D01*
X121685325Y-72224045D01*
X121594998Y-72324364D01*
X121561960Y-72361056D01*
X121519923Y-72433866D01*
X121471494Y-72517748D01*
X121466473Y-72526444D01*
X121407458Y-72708072D01*
X121406768Y-72714633D01*
X121406768Y-72714635D01*
X121394320Y-72833074D01*
X121387496Y-72898000D01*
X121388186Y-72904565D01*
X121405290Y-73067297D01*
X121407458Y-73087928D01*
X121466473Y-73269556D01*
X121469776Y-73275278D01*
X121469777Y-73275279D01*
X121474066Y-73282707D01*
X121561960Y-73434944D01*
X121566378Y-73439851D01*
X121566379Y-73439852D01*
X121615640Y-73494562D01*
X121689747Y-73576866D01*
X121844248Y-73689118D01*
X121850276Y-73691802D01*
X121850278Y-73691803D01*
X122012681Y-73764109D01*
X122018712Y-73766794D01*
X122112113Y-73786647D01*
X122199056Y-73805128D01*
X122199061Y-73805128D01*
X122205513Y-73806500D01*
X122396487Y-73806500D01*
X122402939Y-73805128D01*
X122402944Y-73805128D01*
X122489887Y-73786647D01*
X122583288Y-73766794D01*
X122589319Y-73764109D01*
X122751722Y-73691803D01*
X122751724Y-73691802D01*
X122757752Y-73689118D01*
X122912253Y-73576866D01*
X122988162Y-73492560D01*
X123048607Y-73455322D01*
X123119591Y-73456674D01*
X123178575Y-73496188D01*
X123198540Y-73529467D01*
X123243266Y-73639616D01*
X123291022Y-73717547D01*
X123357291Y-73825688D01*
X123359987Y-73830088D01*
X123506250Y-73998938D01*
X123678126Y-74141632D01*
X123695903Y-74152020D01*
X123751445Y-74184476D01*
X123800169Y-74236114D01*
X123813240Y-74305897D01*
X123786509Y-74371669D01*
X123746055Y-74405027D01*
X123733607Y-74411507D01*
X123729474Y-74414610D01*
X123729471Y-74414612D01*
X123559100Y-74542530D01*
X123554965Y-74545635D01*
X123400629Y-74707138D01*
X123397720Y-74711403D01*
X123397714Y-74711411D01*
X123340710Y-74794976D01*
X123274743Y-74891680D01*
X123227715Y-74992993D01*
X123187217Y-75080240D01*
X123180688Y-75094305D01*
X123120989Y-75309570D01*
X123097251Y-75531695D01*
X123097548Y-75536848D01*
X123097548Y-75536851D01*
X123103202Y-75634908D01*
X123110110Y-75754715D01*
X123111247Y-75759761D01*
X123111248Y-75759767D01*
X123122469Y-75809556D01*
X123159222Y-75972639D01*
X123243266Y-76179616D01*
X123291022Y-76257547D01*
X123357291Y-76365688D01*
X123359987Y-76370088D01*
X123506250Y-76538938D01*
X123678126Y-76681632D01*
X123695903Y-76692020D01*
X123751445Y-76724476D01*
X123800169Y-76776114D01*
X123813240Y-76845897D01*
X123786509Y-76911669D01*
X123746055Y-76945027D01*
X123733607Y-76951507D01*
X123729474Y-76954610D01*
X123729471Y-76954612D01*
X123568193Y-77075703D01*
X123554965Y-77085635D01*
X123400629Y-77247138D01*
X123397715Y-77251410D01*
X123397714Y-77251411D01*
X123340710Y-77334976D01*
X123274743Y-77431680D01*
X123227716Y-77532992D01*
X123187217Y-77620240D01*
X123180688Y-77634305D01*
X123120989Y-77849570D01*
X123097251Y-78071695D01*
X123097548Y-78076848D01*
X123097548Y-78076851D01*
X123103431Y-78178875D01*
X123110110Y-78294715D01*
X123111247Y-78299761D01*
X123111248Y-78299767D01*
X123122469Y-78349556D01*
X123159222Y-78512639D01*
X123243266Y-78719616D01*
X123273601Y-78769118D01*
X123344692Y-78885128D01*
X123359987Y-78910088D01*
X123506250Y-79078938D01*
X123678126Y-79221632D01*
X123871000Y-79334338D01*
X124079692Y-79414030D01*
X124084760Y-79415061D01*
X124084763Y-79415062D01*
X124179862Y-79434410D01*
X124298597Y-79458567D01*
X124303772Y-79458757D01*
X124303774Y-79458757D01*
X124516673Y-79466564D01*
X124516677Y-79466564D01*
X124521837Y-79466753D01*
X124526957Y-79466097D01*
X124526959Y-79466097D01*
X124738288Y-79439025D01*
X124738289Y-79439025D01*
X124743416Y-79438368D01*
X124748366Y-79436883D01*
X124952429Y-79375661D01*
X124952434Y-79375659D01*
X124957384Y-79374174D01*
X125157994Y-79275896D01*
X125339860Y-79146173D01*
X125349693Y-79136375D01*
X125494435Y-78992137D01*
X125498096Y-78988489D01*
X125557594Y-78905689D01*
X125628453Y-78807077D01*
X125629640Y-78807930D01*
X125676960Y-78764362D01*
X125746897Y-78752145D01*
X125812338Y-78779678D01*
X125840166Y-78811511D01*
X125897694Y-78905388D01*
X125903777Y-78913699D01*
X126043213Y-79074667D01*
X126050580Y-79081883D01*
X126214434Y-79217916D01*
X126222881Y-79223831D01*
X126406756Y-79331279D01*
X126416042Y-79335729D01*
X126615001Y-79411703D01*
X126624899Y-79414579D01*
X126728250Y-79435606D01*
X126742299Y-79434410D01*
X126746000Y-79424065D01*
X126746000Y-79423517D01*
X127254000Y-79423517D01*
X127258064Y-79437359D01*
X127271478Y-79439393D01*
X127278184Y-79438534D01*
X127288262Y-79436392D01*
X127492255Y-79375191D01*
X127501842Y-79371433D01*
X127693095Y-79277739D01*
X127701945Y-79272464D01*
X127875328Y-79148792D01*
X127883200Y-79142139D01*
X128034052Y-78991812D01*
X128040730Y-78983965D01*
X128165003Y-78811020D01*
X128170313Y-78802183D01*
X128264670Y-78611267D01*
X128268469Y-78601672D01*
X128330377Y-78397910D01*
X128332555Y-78387837D01*
X128333986Y-78376962D01*
X128331775Y-78362778D01*
X128318617Y-78359000D01*
X127272115Y-78359000D01*
X127256876Y-78363475D01*
X127255671Y-78364865D01*
X127254000Y-78372548D01*
X127254000Y-79423517D01*
X126746000Y-79423517D01*
X126746000Y-77977000D01*
X126766002Y-77908879D01*
X126819658Y-77862386D01*
X126872000Y-77851000D01*
X128318344Y-77851000D01*
X128331875Y-77847027D01*
X128333180Y-77837947D01*
X128291214Y-77670875D01*
X128287894Y-77661124D01*
X128202972Y-77465814D01*
X128198105Y-77456739D01*
X128082426Y-77277926D01*
X128076136Y-77269757D01*
X127932806Y-77112240D01*
X127925273Y-77105215D01*
X127758139Y-76973222D01*
X127749556Y-76967520D01*
X127712602Y-76947120D01*
X127662631Y-76896687D01*
X127647859Y-76827245D01*
X127672975Y-76760839D01*
X127700327Y-76734232D01*
X127765680Y-76687616D01*
X127879860Y-76606173D01*
X128038096Y-76448489D01*
X128097594Y-76365689D01*
X128165435Y-76271277D01*
X128168453Y-76267077D01*
X128185887Y-76231803D01*
X128265136Y-76071453D01*
X128265137Y-76071451D01*
X128267430Y-76066811D01*
X128332370Y-75853069D01*
X128361529Y-75631590D01*
X128361611Y-75628240D01*
X128363074Y-75568365D01*
X128363074Y-75568361D01*
X128363156Y-75565000D01*
X128344852Y-75342361D01*
X128290431Y-75125702D01*
X128201354Y-74920840D01*
X128132186Y-74813923D01*
X128082822Y-74737617D01*
X128082820Y-74737614D01*
X128080014Y-74733277D01*
X127929670Y-74568051D01*
X127925619Y-74564852D01*
X127925615Y-74564848D01*
X127758414Y-74432800D01*
X127758410Y-74432798D01*
X127754359Y-74429598D01*
X127713053Y-74406796D01*
X127663084Y-74356364D01*
X127648312Y-74286921D01*
X127673428Y-74220516D01*
X127700780Y-74193909D01*
X127765680Y-74147616D01*
X127879860Y-74066173D01*
X128038096Y-73908489D01*
X128097594Y-73825689D01*
X128165435Y-73731277D01*
X128168453Y-73727077D01*
X128185887Y-73691803D01*
X128265136Y-73531453D01*
X128265137Y-73531451D01*
X128267430Y-73526811D01*
X128332370Y-73313069D01*
X128361529Y-73091590D01*
X128361611Y-73088240D01*
X128363074Y-73028365D01*
X128363074Y-73028361D01*
X128363156Y-73025000D01*
X128344852Y-72802361D01*
X128290431Y-72585702D01*
X128201354Y-72380840D01*
X128142353Y-72289638D01*
X128082822Y-72197617D01*
X128082820Y-72197614D01*
X128080014Y-72193277D01*
X127929670Y-72028051D01*
X127925619Y-72024852D01*
X127925615Y-72024848D01*
X127758414Y-71892800D01*
X127758410Y-71892798D01*
X127754359Y-71889598D01*
X127713053Y-71866796D01*
X127663084Y-71816364D01*
X127648312Y-71746921D01*
X127673428Y-71680516D01*
X127700780Y-71653909D01*
X127765680Y-71607616D01*
X127879860Y-71526173D01*
X128038096Y-71368489D01*
X128097594Y-71285689D01*
X128165435Y-71191277D01*
X128168453Y-71187077D01*
X128189320Y-71144857D01*
X128265136Y-70991453D01*
X128265137Y-70991451D01*
X128267430Y-70986811D01*
X128332370Y-70773069D01*
X128361529Y-70551590D01*
X128363156Y-70485000D01*
X128344852Y-70262361D01*
X128290431Y-70045702D01*
X128201354Y-69840840D01*
X128132186Y-69733923D01*
X128082822Y-69657617D01*
X128082820Y-69657614D01*
X128080014Y-69653277D01*
X127929670Y-69488051D01*
X127925619Y-69484852D01*
X127925615Y-69484848D01*
X127758414Y-69352800D01*
X127758410Y-69352798D01*
X127754359Y-69349598D01*
X127712569Y-69326529D01*
X127662598Y-69276097D01*
X127647826Y-69206654D01*
X127672942Y-69140248D01*
X127700294Y-69113641D01*
X127875328Y-68988792D01*
X127883200Y-68982139D01*
X128034052Y-68831812D01*
X128040730Y-68823965D01*
X128165003Y-68651020D01*
X128170313Y-68642183D01*
X128264670Y-68451267D01*
X128268469Y-68441672D01*
X128330377Y-68237910D01*
X128332555Y-68227837D01*
X128333986Y-68216962D01*
X128331775Y-68202778D01*
X128318617Y-68199000D01*
X126872000Y-68199000D01*
X126803879Y-68178998D01*
X126757386Y-68125342D01*
X126746000Y-68073000D01*
X126746000Y-67672885D01*
X127254000Y-67672885D01*
X127258475Y-67688124D01*
X127259865Y-67689329D01*
X127267548Y-67691000D01*
X128318344Y-67691000D01*
X128331875Y-67687027D01*
X128333180Y-67677947D01*
X128291214Y-67510875D01*
X128287894Y-67501124D01*
X128202972Y-67305814D01*
X128198105Y-67296739D01*
X128082426Y-67117926D01*
X128076136Y-67109757D01*
X127932806Y-66952240D01*
X127925273Y-66945215D01*
X127758139Y-66813222D01*
X127749552Y-66807517D01*
X127563117Y-66704599D01*
X127553705Y-66700369D01*
X127352959Y-66629280D01*
X127342988Y-66626646D01*
X127271837Y-66613972D01*
X127258540Y-66615432D01*
X127254000Y-66629989D01*
X127254000Y-67672885D01*
X126746000Y-67672885D01*
X126746000Y-66628102D01*
X126742082Y-66614758D01*
X126727806Y-66612771D01*
X126689324Y-66618660D01*
X126679288Y-66621051D01*
X126476868Y-66687212D01*
X126467359Y-66691209D01*
X126278463Y-66789542D01*
X126269738Y-66795036D01*
X126099433Y-66922905D01*
X126091726Y-66929748D01*
X126014478Y-67010584D01*
X125952954Y-67046014D01*
X125882042Y-67042557D01*
X125824255Y-67001311D01*
X125805402Y-66967763D01*
X125763767Y-66856703D01*
X125760615Y-66848295D01*
X125673261Y-66731739D01*
X125556705Y-66644385D01*
X125420316Y-66593255D01*
X125358134Y-66586500D01*
X123561866Y-66586500D01*
X123499684Y-66593255D01*
X123363295Y-66644385D01*
X123246739Y-66731739D01*
X123159385Y-66848295D01*
X123108255Y-66984684D01*
X123101500Y-67046866D01*
X123101500Y-67289122D01*
X123081498Y-67357243D01*
X123027842Y-67403736D01*
X122957568Y-67413840D01*
X122892988Y-67384346D01*
X122881864Y-67373432D01*
X122881411Y-67372928D01*
X122785253Y-67266134D01*
X122670829Y-67183000D01*
X122636094Y-67157763D01*
X122636093Y-67157762D01*
X122630752Y-67153882D01*
X122624724Y-67151198D01*
X122624722Y-67151197D01*
X122462319Y-67078891D01*
X122462318Y-67078891D01*
X122456288Y-67076206D01*
X122334331Y-67050283D01*
X122275944Y-67037872D01*
X122275939Y-67037872D01*
X122269487Y-67036500D01*
X122078513Y-67036500D01*
X122072061Y-67037872D01*
X122072056Y-67037872D01*
X122013669Y-67050283D01*
X121891712Y-67076206D01*
X121885682Y-67078891D01*
X121885681Y-67078891D01*
X121723278Y-67151197D01*
X121723276Y-67151198D01*
X121717248Y-67153882D01*
X121711907Y-67157762D01*
X121711906Y-67157763D01*
X121677171Y-67183000D01*
X121562747Y-67266134D01*
X121558326Y-67271044D01*
X121558325Y-67271045D01*
X121456309Y-67384346D01*
X121434960Y-67408056D01*
X121339473Y-67573444D01*
X121280458Y-67755072D01*
X121279768Y-67761633D01*
X121279768Y-67761635D01*
X121263947Y-67912166D01*
X121260496Y-67945000D01*
X116991504Y-67945000D01*
X116988053Y-67912166D01*
X116972232Y-67761635D01*
X116972232Y-67761633D01*
X116971542Y-67755072D01*
X116912527Y-67573444D01*
X116817040Y-67408056D01*
X116795692Y-67384346D01*
X116693675Y-67271045D01*
X116693674Y-67271044D01*
X116689253Y-67266134D01*
X116574829Y-67183000D01*
X116540094Y-67157763D01*
X116540093Y-67157762D01*
X116534752Y-67153882D01*
X116528724Y-67151198D01*
X116528722Y-67151197D01*
X116366319Y-67078891D01*
X116366318Y-67078891D01*
X116360288Y-67076206D01*
X116238331Y-67050283D01*
X116179944Y-67037872D01*
X116179939Y-67037872D01*
X116173487Y-67036500D01*
X115982513Y-67036500D01*
X115976061Y-67037872D01*
X115976056Y-67037872D01*
X115917669Y-67050283D01*
X115795712Y-67076206D01*
X115789682Y-67078891D01*
X115789681Y-67078891D01*
X115627278Y-67151197D01*
X115627276Y-67151198D01*
X115621248Y-67153882D01*
X115615907Y-67157762D01*
X115615906Y-67157763D01*
X115581171Y-67183000D01*
X115466747Y-67266134D01*
X115462326Y-67271044D01*
X115462325Y-67271045D01*
X115360309Y-67384346D01*
X115338960Y-67408056D01*
X115243473Y-67573444D01*
X115184458Y-67755072D01*
X115183768Y-67761633D01*
X115183768Y-67761635D01*
X115167947Y-67912166D01*
X115164496Y-67945000D01*
X96762830Y-67945000D01*
X96808021Y-67912166D01*
X96877253Y-67861866D01*
X96954497Y-67776078D01*
X97000621Y-67724852D01*
X97000625Y-67724847D01*
X97005040Y-67719944D01*
X97079072Y-67591717D01*
X97097223Y-67560279D01*
X97097224Y-67560278D01*
X97100527Y-67554556D01*
X97159542Y-67372928D01*
X97164977Y-67321222D01*
X97178814Y-67189565D01*
X97179504Y-67183000D01*
X97168280Y-67076206D01*
X97160232Y-66999635D01*
X97160232Y-66999633D01*
X97159542Y-66993072D01*
X97100527Y-66811444D01*
X97005040Y-66646056D01*
X96982526Y-66621051D01*
X96881675Y-66509045D01*
X96881674Y-66509044D01*
X96877253Y-66504134D01*
X96722752Y-66391882D01*
X96716724Y-66389198D01*
X96716722Y-66389197D01*
X96554319Y-66316891D01*
X96554318Y-66316891D01*
X96548288Y-66314206D01*
X96454888Y-66294353D01*
X96367944Y-66275872D01*
X96367939Y-66275872D01*
X96361487Y-66274500D01*
X96170513Y-66274500D01*
X96164061Y-66275872D01*
X96164056Y-66275872D01*
X96077112Y-66294353D01*
X95983712Y-66314206D01*
X95977682Y-66316891D01*
X95977681Y-66316891D01*
X95815278Y-66389197D01*
X95815276Y-66389198D01*
X95809248Y-66391882D01*
X95654747Y-66504134D01*
X95650326Y-66509044D01*
X95650325Y-66509045D01*
X95549475Y-66621051D01*
X95526960Y-66646056D01*
X95523659Y-66651774D01*
X95438189Y-66799812D01*
X95431473Y-66811444D01*
X95429433Y-66817723D01*
X95428606Y-66819580D01*
X95382626Y-66873675D01*
X95314699Y-66894324D01*
X95246391Y-66874971D01*
X95198394Y-66819580D01*
X95197567Y-66817723D01*
X95195527Y-66811444D01*
X95188812Y-66799812D01*
X95103341Y-66651774D01*
X95100040Y-66646056D01*
X95077526Y-66621051D01*
X94976675Y-66509045D01*
X94976674Y-66509044D01*
X94972253Y-66504134D01*
X94817752Y-66391882D01*
X94811724Y-66389198D01*
X94811722Y-66389197D01*
X94649319Y-66316891D01*
X94649318Y-66316891D01*
X94643288Y-66314206D01*
X94549888Y-66294353D01*
X94462944Y-66275872D01*
X94462939Y-66275872D01*
X94456487Y-66274500D01*
X94265513Y-66274500D01*
X94259061Y-66275872D01*
X94259056Y-66275872D01*
X94172112Y-66294353D01*
X94078712Y-66314206D01*
X94072682Y-66316891D01*
X94072681Y-66316891D01*
X93910278Y-66389197D01*
X93910276Y-66389198D01*
X93904248Y-66391882D01*
X93749747Y-66504134D01*
X93745326Y-66509044D01*
X93745325Y-66509045D01*
X93644475Y-66621051D01*
X93621960Y-66646056D01*
X93526473Y-66811444D01*
X93467458Y-66993072D01*
X93466768Y-66999633D01*
X93466768Y-66999635D01*
X93458720Y-67076206D01*
X93447496Y-67183000D01*
X93448186Y-67189565D01*
X93462024Y-67321222D01*
X93467458Y-67372928D01*
X93526473Y-67554556D01*
X93529776Y-67560278D01*
X93529777Y-67560279D01*
X93550882Y-67596834D01*
X93567620Y-67665830D01*
X93544399Y-67732922D01*
X93535408Y-67744134D01*
X93494960Y-67789056D01*
X93452923Y-67861866D01*
X93404926Y-67945000D01*
X93399473Y-67954444D01*
X93340458Y-68136072D01*
X93339768Y-68142633D01*
X93339768Y-68142635D01*
X93323834Y-68294244D01*
X93320496Y-68326000D01*
X86609000Y-68326000D01*
X86609000Y-68180885D01*
X87117000Y-68180885D01*
X87121475Y-68196124D01*
X87122865Y-68197329D01*
X87130548Y-68199000D01*
X88181344Y-68199000D01*
X88194875Y-68195027D01*
X88196180Y-68185947D01*
X88154214Y-68018875D01*
X88150894Y-68009124D01*
X88065972Y-67813814D01*
X88061105Y-67804739D01*
X87945426Y-67625926D01*
X87939136Y-67617757D01*
X87795806Y-67460240D01*
X87788273Y-67453215D01*
X87621139Y-67321222D01*
X87612552Y-67315517D01*
X87575116Y-67294851D01*
X87525146Y-67244419D01*
X87510374Y-67174976D01*
X87535490Y-67108571D01*
X87562842Y-67081964D01*
X87738327Y-66956792D01*
X87746200Y-66950139D01*
X87897052Y-66799812D01*
X87903730Y-66791965D01*
X88028003Y-66619020D01*
X88033313Y-66610183D01*
X88127670Y-66419267D01*
X88131469Y-66409672D01*
X88193377Y-66205910D01*
X88195555Y-66195837D01*
X88196986Y-66184962D01*
X88194775Y-66170778D01*
X88181617Y-66167000D01*
X87135115Y-66167000D01*
X87119876Y-66171475D01*
X87118671Y-66172865D01*
X87117000Y-66180548D01*
X87117000Y-68180885D01*
X86609000Y-68180885D01*
X86609000Y-65640885D01*
X87117000Y-65640885D01*
X87121475Y-65656124D01*
X87122865Y-65657329D01*
X87130548Y-65659000D01*
X88181344Y-65659000D01*
X88194875Y-65655027D01*
X88196180Y-65645947D01*
X88154214Y-65478875D01*
X88150894Y-65469124D01*
X88065972Y-65273814D01*
X88061105Y-65264739D01*
X87945426Y-65085926D01*
X87939136Y-65077757D01*
X87795806Y-64920240D01*
X87788273Y-64913215D01*
X87621139Y-64781222D01*
X87612552Y-64775517D01*
X87575116Y-64754851D01*
X87525146Y-64704419D01*
X87510374Y-64634976D01*
X87535490Y-64568571D01*
X87562842Y-64541964D01*
X87738327Y-64416792D01*
X87746200Y-64410139D01*
X87897052Y-64259812D01*
X87903730Y-64251965D01*
X88028003Y-64079020D01*
X88033313Y-64070183D01*
X88127670Y-63879267D01*
X88131469Y-63869672D01*
X88193377Y-63665910D01*
X88195555Y-63655837D01*
X88196986Y-63644962D01*
X88194775Y-63630778D01*
X88181617Y-63627000D01*
X87135115Y-63627000D01*
X87119876Y-63631475D01*
X87118671Y-63632865D01*
X87117000Y-63640548D01*
X87117000Y-65640885D01*
X86609000Y-65640885D01*
X86609000Y-63100885D01*
X87117000Y-63100885D01*
X87121475Y-63116124D01*
X87122865Y-63117329D01*
X87130548Y-63119000D01*
X88181344Y-63119000D01*
X88194875Y-63115027D01*
X88196180Y-63105947D01*
X88154214Y-62938875D01*
X88150894Y-62929124D01*
X88065972Y-62733814D01*
X88061105Y-62724739D01*
X87945426Y-62545926D01*
X87939136Y-62537757D01*
X87795806Y-62380240D01*
X87788273Y-62373215D01*
X87621139Y-62241222D01*
X87612552Y-62235517D01*
X87575116Y-62214851D01*
X87525146Y-62164419D01*
X87510374Y-62094976D01*
X87535490Y-62028571D01*
X87562842Y-62001964D01*
X87738327Y-61876792D01*
X87746200Y-61870139D01*
X87897052Y-61719812D01*
X87903730Y-61711965D01*
X88028003Y-61539020D01*
X88033313Y-61530183D01*
X88127670Y-61339267D01*
X88131469Y-61329672D01*
X88193377Y-61125910D01*
X88195555Y-61115837D01*
X88196986Y-61104962D01*
X88194775Y-61090778D01*
X88181617Y-61087000D01*
X87135115Y-61087000D01*
X87119876Y-61091475D01*
X87118671Y-61092865D01*
X87117000Y-61100548D01*
X87117000Y-63100885D01*
X86609000Y-63100885D01*
X86609000Y-60560885D01*
X87117000Y-60560885D01*
X87121475Y-60576124D01*
X87122865Y-60577329D01*
X87130548Y-60579000D01*
X88181344Y-60579000D01*
X88194875Y-60575027D01*
X88196180Y-60565947D01*
X88154214Y-60398875D01*
X88150894Y-60389124D01*
X88065972Y-60193814D01*
X88061105Y-60184739D01*
X87945426Y-60005926D01*
X87939136Y-59997757D01*
X87795806Y-59840240D01*
X87788273Y-59833215D01*
X87621139Y-59701222D01*
X87612552Y-59695517D01*
X87575116Y-59674851D01*
X87525146Y-59624419D01*
X87510374Y-59554976D01*
X87535490Y-59488571D01*
X87562842Y-59461964D01*
X87738327Y-59336792D01*
X87746200Y-59330139D01*
X87897052Y-59179812D01*
X87903730Y-59171965D01*
X88028003Y-58999020D01*
X88033313Y-58990183D01*
X88127670Y-58799267D01*
X88131469Y-58789672D01*
X88193377Y-58585910D01*
X88195555Y-58575837D01*
X88196986Y-58564962D01*
X88194775Y-58550778D01*
X88181617Y-58547000D01*
X87135115Y-58547000D01*
X87119876Y-58551475D01*
X87118671Y-58552865D01*
X87117000Y-58560548D01*
X87117000Y-60560885D01*
X86609000Y-60560885D01*
X86609000Y-58020885D01*
X87117000Y-58020885D01*
X87121475Y-58036124D01*
X87122865Y-58037329D01*
X87130548Y-58039000D01*
X88181344Y-58039000D01*
X88194875Y-58035027D01*
X88196180Y-58025947D01*
X88154214Y-57858875D01*
X88150894Y-57849124D01*
X88065972Y-57653814D01*
X88061105Y-57644739D01*
X88022712Y-57585393D01*
X97592493Y-57585393D01*
X97601789Y-57597408D01*
X97652994Y-57633262D01*
X97662489Y-57638745D01*
X97859947Y-57730821D01*
X97870239Y-57734567D01*
X98057111Y-57784639D01*
X98117734Y-57821591D01*
X98148755Y-57885451D01*
X98150500Y-57906346D01*
X98150500Y-59327465D01*
X98157255Y-59389647D01*
X98208385Y-59526036D01*
X98295739Y-59642592D01*
X98412295Y-59729946D01*
X98548684Y-59781076D01*
X98610866Y-59787831D01*
X100223595Y-59787831D01*
X100291716Y-59807833D01*
X100338209Y-59861489D01*
X100348313Y-59931763D01*
X100343429Y-59952763D01*
X100325458Y-60008072D01*
X100324768Y-60014633D01*
X100324768Y-60014635D01*
X100312320Y-60133074D01*
X100305496Y-60198000D01*
X100306186Y-60204565D01*
X100323290Y-60367297D01*
X100325458Y-60387928D01*
X100384473Y-60569556D01*
X100387776Y-60575278D01*
X100387777Y-60575279D01*
X100392066Y-60582707D01*
X100479960Y-60734944D01*
X100607747Y-60876866D01*
X100762248Y-60989118D01*
X100768276Y-60991802D01*
X100768278Y-60991803D01*
X100837708Y-61022715D01*
X100936712Y-61066794D01*
X101030113Y-61086647D01*
X101117056Y-61105128D01*
X101117061Y-61105128D01*
X101123513Y-61106500D01*
X101314487Y-61106500D01*
X101320939Y-61105128D01*
X101320944Y-61105128D01*
X101407887Y-61086647D01*
X101501288Y-61066794D01*
X101600292Y-61022715D01*
X101669722Y-60991803D01*
X101669724Y-60991802D01*
X101675752Y-60989118D01*
X101830253Y-60876866D01*
X101958040Y-60734944D01*
X102045934Y-60582707D01*
X102050223Y-60575279D01*
X102050224Y-60575278D01*
X102053527Y-60569556D01*
X102112542Y-60387928D01*
X102114711Y-60367297D01*
X102131814Y-60204565D01*
X102132504Y-60198000D01*
X102125680Y-60133074D01*
X102113232Y-60014635D01*
X102113232Y-60014633D01*
X102112542Y-60008072D01*
X102072423Y-59884599D01*
X102070395Y-59813633D01*
X102107058Y-59752835D01*
X102159646Y-59723957D01*
X102192931Y-59715039D01*
X102192938Y-59715037D01*
X102198243Y-59713615D01*
X102237055Y-59695517D01*
X102400762Y-59619180D01*
X102400767Y-59619177D01*
X102405749Y-59616854D01*
X102535450Y-59526036D01*
X102588789Y-59488688D01*
X102588792Y-59488686D01*
X102593300Y-59485529D01*
X102755198Y-59323631D01*
X102790787Y-59272805D01*
X102846244Y-59228477D01*
X102916864Y-59221168D01*
X102980224Y-59253199D01*
X102997213Y-59272805D01*
X103032802Y-59323631D01*
X103194700Y-59485529D01*
X103199208Y-59488686D01*
X103199211Y-59488688D01*
X103252550Y-59526036D01*
X103382251Y-59616854D01*
X103387233Y-59619177D01*
X103387238Y-59619180D01*
X103550945Y-59695517D01*
X103589757Y-59713615D01*
X103595065Y-59715037D01*
X103595067Y-59715038D01*
X103805598Y-59771450D01*
X103805600Y-59771450D01*
X103810913Y-59772874D01*
X104039000Y-59792829D01*
X104267087Y-59772874D01*
X104272400Y-59771450D01*
X104272402Y-59771450D01*
X104482933Y-59715038D01*
X104482935Y-59715037D01*
X104488243Y-59713615D01*
X104527055Y-59695517D01*
X104690762Y-59619180D01*
X104690767Y-59619177D01*
X104695749Y-59616854D01*
X104825450Y-59526036D01*
X104878789Y-59488688D01*
X104878792Y-59488686D01*
X104883300Y-59485529D01*
X105045198Y-59323631D01*
X105080787Y-59272805D01*
X105136244Y-59228477D01*
X105206864Y-59221168D01*
X105270224Y-59253199D01*
X105287213Y-59272805D01*
X105322802Y-59323631D01*
X105484700Y-59485529D01*
X105489208Y-59488686D01*
X105489211Y-59488688D01*
X105542550Y-59526036D01*
X105672251Y-59616854D01*
X105677233Y-59619177D01*
X105677238Y-59619180D01*
X105840945Y-59695517D01*
X105879757Y-59713615D01*
X105885065Y-59715037D01*
X105885067Y-59715038D01*
X106100913Y-59772874D01*
X106100472Y-59774521D01*
X106157161Y-59802625D01*
X106193622Y-59863543D01*
X106191490Y-59934109D01*
X106179373Y-59971401D01*
X106167458Y-60008072D01*
X106166768Y-60014633D01*
X106166768Y-60014635D01*
X106154320Y-60133074D01*
X106147496Y-60198000D01*
X106148186Y-60204565D01*
X106165290Y-60367297D01*
X106167458Y-60387928D01*
X106226473Y-60569556D01*
X106229776Y-60575278D01*
X106229777Y-60575279D01*
X106234066Y-60582707D01*
X106321960Y-60734944D01*
X106449747Y-60876866D01*
X106604248Y-60989118D01*
X106610276Y-60991802D01*
X106610278Y-60991803D01*
X106679708Y-61022715D01*
X106778712Y-61066794D01*
X106872113Y-61086647D01*
X106959056Y-61105128D01*
X106959061Y-61105128D01*
X106965513Y-61106500D01*
X107156487Y-61106500D01*
X107162939Y-61105128D01*
X107162944Y-61105128D01*
X107249887Y-61086647D01*
X107343288Y-61066794D01*
X107442292Y-61022715D01*
X107511722Y-60991803D01*
X107511724Y-60991802D01*
X107517752Y-60989118D01*
X107672253Y-60876866D01*
X107800040Y-60734944D01*
X107887934Y-60582707D01*
X107892223Y-60575279D01*
X107892224Y-60575278D01*
X107895527Y-60569556D01*
X107954542Y-60387928D01*
X107956711Y-60367297D01*
X107973814Y-60204565D01*
X107974504Y-60198000D01*
X107967680Y-60133074D01*
X107955232Y-60014635D01*
X107955232Y-60014633D01*
X107954542Y-60008072D01*
X107900010Y-59840240D01*
X107897568Y-59832725D01*
X107897567Y-59832724D01*
X107895527Y-59826444D01*
X107895683Y-59826393D01*
X107886654Y-59759027D01*
X107916763Y-59694731D01*
X107976853Y-59656920D01*
X108047846Y-59657599D01*
X108064444Y-59663955D01*
X108164947Y-59710821D01*
X108175239Y-59714567D01*
X108385688Y-59770956D01*
X108396481Y-59772859D01*
X108613525Y-59791848D01*
X108624475Y-59791848D01*
X108841519Y-59772859D01*
X108852312Y-59770956D01*
X109062761Y-59714567D01*
X109073053Y-59710821D01*
X109270511Y-59618745D01*
X109280006Y-59613262D01*
X109332048Y-59576822D01*
X109340424Y-59566343D01*
X109333356Y-59552897D01*
X108348885Y-58568426D01*
X108314859Y-58506114D01*
X108316694Y-58480463D01*
X108983408Y-58480463D01*
X108983539Y-58482296D01*
X108987790Y-58488911D01*
X109693287Y-59194408D01*
X109705062Y-59200838D01*
X109717077Y-59191542D01*
X109752931Y-59140337D01*
X109758414Y-59130842D01*
X109850490Y-58933384D01*
X109854236Y-58923092D01*
X109910625Y-58712643D01*
X109912528Y-58701850D01*
X109931517Y-58484806D01*
X109931517Y-58473856D01*
X109912528Y-58256812D01*
X109910625Y-58246019D01*
X109854236Y-58035570D01*
X109850490Y-58025278D01*
X109758414Y-57827820D01*
X109752931Y-57818325D01*
X109716491Y-57766283D01*
X109706012Y-57757907D01*
X109692566Y-57764975D01*
X108991022Y-58466519D01*
X108983408Y-58480463D01*
X108316694Y-58480463D01*
X108319924Y-58435299D01*
X108348885Y-58390236D01*
X109334077Y-57405044D01*
X109340507Y-57393269D01*
X109331211Y-57381254D01*
X109280006Y-57345400D01*
X109270511Y-57339917D01*
X109073053Y-57247841D01*
X109062761Y-57244095D01*
X108852312Y-57187706D01*
X108841509Y-57185801D01*
X108785953Y-57180940D01*
X108719835Y-57155077D01*
X108678195Y-57097573D01*
X108674255Y-57026686D01*
X108682741Y-57002169D01*
X108705488Y-56953389D01*
X108709236Y-56943092D01*
X108765625Y-56732643D01*
X108767528Y-56721850D01*
X108786517Y-56504806D01*
X108786517Y-56493856D01*
X108767528Y-56276812D01*
X108765625Y-56266019D01*
X108709236Y-56055570D01*
X108705490Y-56045278D01*
X108682965Y-55996974D01*
X108672304Y-55926783D01*
X108701284Y-55861970D01*
X108760703Y-55823113D01*
X108786178Y-55818203D01*
X108801038Y-55816903D01*
X108847087Y-55812874D01*
X108852400Y-55811450D01*
X108852402Y-55811450D01*
X109062933Y-55755038D01*
X109062935Y-55755037D01*
X109068243Y-55753615D01*
X109073225Y-55751292D01*
X109270762Y-55659180D01*
X109270767Y-55659177D01*
X109275749Y-55656854D01*
X109380611Y-55583429D01*
X109458789Y-55528688D01*
X109458792Y-55528686D01*
X109463300Y-55525529D01*
X109625198Y-55363631D01*
X109756523Y-55176080D01*
X109758846Y-55171098D01*
X109758849Y-55171093D01*
X109850961Y-54973556D01*
X109850961Y-54973555D01*
X109853284Y-54968574D01*
X109864795Y-54925617D01*
X109911119Y-54752733D01*
X109911119Y-54752731D01*
X109912543Y-54747418D01*
X109932498Y-54519331D01*
X109912543Y-54291244D01*
X109870700Y-54135084D01*
X109854707Y-54075398D01*
X109854706Y-54075396D01*
X109853284Y-54070088D01*
X109850961Y-54065106D01*
X109758849Y-53867569D01*
X109758846Y-53867564D01*
X109756523Y-53862582D01*
X109660787Y-53725857D01*
X109628357Y-53679542D01*
X109628355Y-53679539D01*
X109625198Y-53675031D01*
X109463300Y-53513133D01*
X109458792Y-53509976D01*
X109458789Y-53509974D01*
X109380611Y-53455233D01*
X109275749Y-53381808D01*
X109270767Y-53379485D01*
X109270762Y-53379482D01*
X109073225Y-53287370D01*
X109073224Y-53287370D01*
X109068243Y-53285047D01*
X109062935Y-53283625D01*
X109062933Y-53283624D01*
X108852402Y-53227212D01*
X108852400Y-53227212D01*
X108847087Y-53225788D01*
X108619000Y-53205833D01*
X108390913Y-53225788D01*
X108385600Y-53227212D01*
X108385598Y-53227212D01*
X108175067Y-53283624D01*
X108175065Y-53283625D01*
X108169757Y-53285047D01*
X108164776Y-53287370D01*
X108164775Y-53287370D01*
X107967238Y-53379482D01*
X107967233Y-53379485D01*
X107962251Y-53381808D01*
X107857389Y-53455233D01*
X107779211Y-53509974D01*
X107779208Y-53509976D01*
X107774700Y-53513133D01*
X107612802Y-53675031D01*
X107609645Y-53679539D01*
X107609643Y-53679542D01*
X107577213Y-53725857D01*
X107521756Y-53770185D01*
X107451136Y-53777494D01*
X107387776Y-53745463D01*
X107370787Y-53725857D01*
X107338357Y-53679542D01*
X107338355Y-53679539D01*
X107335198Y-53675031D01*
X107173300Y-53513133D01*
X107168792Y-53509976D01*
X107168789Y-53509974D01*
X107090611Y-53455233D01*
X106985749Y-53381808D01*
X106980767Y-53379485D01*
X106980762Y-53379482D01*
X106783225Y-53287370D01*
X106783224Y-53287370D01*
X106778243Y-53285047D01*
X106772935Y-53283625D01*
X106772933Y-53283624D01*
X106562402Y-53227212D01*
X106562400Y-53227212D01*
X106557087Y-53225788D01*
X106329000Y-53205833D01*
X106100913Y-53225788D01*
X106095600Y-53227212D01*
X106095598Y-53227212D01*
X105885067Y-53283624D01*
X105885065Y-53283625D01*
X105879757Y-53285047D01*
X105874776Y-53287370D01*
X105874775Y-53287370D01*
X105677238Y-53379482D01*
X105677233Y-53379485D01*
X105672251Y-53381808D01*
X105567389Y-53455233D01*
X105489211Y-53509974D01*
X105489208Y-53509976D01*
X105484700Y-53513133D01*
X105322802Y-53675031D01*
X105319645Y-53679539D01*
X105319643Y-53679542D01*
X105287213Y-53725857D01*
X105231756Y-53770185D01*
X105161136Y-53777494D01*
X105097776Y-53745463D01*
X105080787Y-53725857D01*
X105048357Y-53679542D01*
X105048355Y-53679539D01*
X105045198Y-53675031D01*
X104883300Y-53513133D01*
X104878792Y-53509976D01*
X104878789Y-53509974D01*
X104800611Y-53455233D01*
X104695749Y-53381808D01*
X104690767Y-53379485D01*
X104690762Y-53379482D01*
X104493225Y-53287370D01*
X104493224Y-53287370D01*
X104488243Y-53285047D01*
X104482935Y-53283625D01*
X104482933Y-53283624D01*
X104272402Y-53227212D01*
X104272400Y-53227212D01*
X104267087Y-53225788D01*
X104039000Y-53205833D01*
X103810913Y-53225788D01*
X103805600Y-53227212D01*
X103805598Y-53227212D01*
X103595067Y-53283624D01*
X103595065Y-53283625D01*
X103589757Y-53285047D01*
X103584776Y-53287370D01*
X103584775Y-53287370D01*
X103387238Y-53379482D01*
X103387233Y-53379485D01*
X103382251Y-53381808D01*
X103277389Y-53455233D01*
X103199211Y-53509974D01*
X103199208Y-53509976D01*
X103194700Y-53513133D01*
X103032802Y-53675031D01*
X103029645Y-53679539D01*
X103029643Y-53679542D01*
X102997213Y-53725857D01*
X102941756Y-53770185D01*
X102871136Y-53777494D01*
X102807776Y-53745463D01*
X102790787Y-53725857D01*
X102758357Y-53679542D01*
X102758355Y-53679539D01*
X102755198Y-53675031D01*
X102593300Y-53513133D01*
X102588792Y-53509976D01*
X102588789Y-53509974D01*
X102510611Y-53455233D01*
X102405749Y-53381808D01*
X102400767Y-53379485D01*
X102400762Y-53379482D01*
X102203225Y-53287370D01*
X102203224Y-53287370D01*
X102198243Y-53285047D01*
X102192935Y-53283625D01*
X102192933Y-53283624D01*
X101982402Y-53227212D01*
X101982400Y-53227212D01*
X101977087Y-53225788D01*
X101749000Y-53205833D01*
X101520913Y-53225788D01*
X101515600Y-53227212D01*
X101515598Y-53227212D01*
X101305067Y-53283624D01*
X101305065Y-53283625D01*
X101299757Y-53285047D01*
X101294776Y-53287370D01*
X101294775Y-53287370D01*
X101097238Y-53379482D01*
X101097233Y-53379485D01*
X101092251Y-53381808D01*
X100987389Y-53455233D01*
X100909211Y-53509974D01*
X100909208Y-53509976D01*
X100904700Y-53513133D01*
X100742802Y-53675031D01*
X100739645Y-53679539D01*
X100739643Y-53679542D01*
X100707213Y-53725857D01*
X100651756Y-53770185D01*
X100581136Y-53777494D01*
X100517776Y-53745463D01*
X100500787Y-53725857D01*
X100468357Y-53679542D01*
X100468355Y-53679539D01*
X100465198Y-53675031D01*
X100303300Y-53513133D01*
X100298792Y-53509976D01*
X100298789Y-53509974D01*
X100220611Y-53455233D01*
X100115749Y-53381808D01*
X100110767Y-53379485D01*
X100110762Y-53379482D01*
X99913225Y-53287370D01*
X99913224Y-53287370D01*
X99908243Y-53285047D01*
X99902935Y-53283625D01*
X99902933Y-53283624D01*
X99692402Y-53227212D01*
X99692400Y-53227212D01*
X99687087Y-53225788D01*
X99459000Y-53205833D01*
X99230913Y-53225788D01*
X99225600Y-53227212D01*
X99225598Y-53227212D01*
X99015067Y-53283624D01*
X99015065Y-53283625D01*
X99009757Y-53285047D01*
X99004776Y-53287370D01*
X99004775Y-53287370D01*
X98807238Y-53379482D01*
X98807233Y-53379485D01*
X98802251Y-53381808D01*
X98697389Y-53455233D01*
X98619211Y-53509974D01*
X98619208Y-53509976D01*
X98614700Y-53513133D01*
X98452802Y-53675031D01*
X98449645Y-53679539D01*
X98449643Y-53679542D01*
X98417213Y-53725857D01*
X98321477Y-53862582D01*
X98319154Y-53867564D01*
X98319151Y-53867569D01*
X98227039Y-54065106D01*
X98224716Y-54070088D01*
X98223294Y-54075396D01*
X98223293Y-54075398D01*
X98207300Y-54135084D01*
X98165457Y-54291244D01*
X98145502Y-54519331D01*
X98165457Y-54747418D01*
X98166881Y-54752731D01*
X98166881Y-54752733D01*
X98213206Y-54925617D01*
X98224716Y-54968574D01*
X98227039Y-54973555D01*
X98227039Y-54973556D01*
X98249730Y-55022217D01*
X98260391Y-55092409D01*
X98231411Y-55157222D01*
X98171991Y-55196078D01*
X98146516Y-55200988D01*
X98091480Y-55205803D01*
X98080688Y-55207706D01*
X97870239Y-55264095D01*
X97859947Y-55267841D01*
X97662489Y-55359917D01*
X97652994Y-55365400D01*
X97600952Y-55401840D01*
X97592576Y-55412319D01*
X97599644Y-55425765D01*
X98584115Y-56410236D01*
X98618141Y-56472548D01*
X98613076Y-56543363D01*
X98584115Y-56588426D01*
X97598923Y-57573618D01*
X97592493Y-57585393D01*
X88022712Y-57585393D01*
X87945426Y-57465926D01*
X87939136Y-57457757D01*
X87795806Y-57300240D01*
X87788273Y-57293215D01*
X87621139Y-57161222D01*
X87612552Y-57155517D01*
X87575116Y-57134851D01*
X87525146Y-57084419D01*
X87510374Y-57014976D01*
X87535490Y-56948571D01*
X87562842Y-56921964D01*
X87738327Y-56796792D01*
X87746200Y-56790139D01*
X87897052Y-56639812D01*
X87903730Y-56631965D01*
X87995103Y-56504806D01*
X97001483Y-56504806D01*
X97020472Y-56721850D01*
X97022375Y-56732643D01*
X97078764Y-56943092D01*
X97082510Y-56953384D01*
X97174586Y-57150842D01*
X97180069Y-57160337D01*
X97216509Y-57212379D01*
X97226988Y-57220755D01*
X97240434Y-57213687D01*
X97941978Y-56512143D01*
X97949592Y-56498199D01*
X97949461Y-56496366D01*
X97945210Y-56489751D01*
X97239713Y-55784254D01*
X97227938Y-55777824D01*
X97215923Y-55787120D01*
X97180069Y-55838325D01*
X97174586Y-55847820D01*
X97082510Y-56045278D01*
X97078764Y-56055570D01*
X97022375Y-56266019D01*
X97020472Y-56276812D01*
X97001483Y-56493856D01*
X97001483Y-56504806D01*
X87995103Y-56504806D01*
X88028003Y-56459020D01*
X88033313Y-56450183D01*
X88127670Y-56259267D01*
X88131469Y-56249672D01*
X88193377Y-56045910D01*
X88195555Y-56035837D01*
X88196986Y-56024962D01*
X88194775Y-56010778D01*
X88181617Y-56007000D01*
X87135115Y-56007000D01*
X87119876Y-56011475D01*
X87118671Y-56012865D01*
X87117000Y-56020548D01*
X87117000Y-58020885D01*
X86609000Y-58020885D01*
X86609000Y-55480885D01*
X87117000Y-55480885D01*
X87121475Y-55496124D01*
X87122865Y-55497329D01*
X87130548Y-55499000D01*
X88181344Y-55499000D01*
X88194875Y-55495027D01*
X88196180Y-55485947D01*
X88154214Y-55318875D01*
X88150894Y-55309124D01*
X88065972Y-55113814D01*
X88061105Y-55104739D01*
X87945426Y-54925926D01*
X87939136Y-54917757D01*
X87795806Y-54760240D01*
X87788273Y-54753215D01*
X87621139Y-54621222D01*
X87612552Y-54615517D01*
X87575116Y-54594851D01*
X87525146Y-54544419D01*
X87510374Y-54474976D01*
X87535490Y-54408571D01*
X87562842Y-54381964D01*
X87738327Y-54256792D01*
X87746200Y-54250139D01*
X87897052Y-54099812D01*
X87903730Y-54091965D01*
X88028003Y-53919020D01*
X88033313Y-53910183D01*
X88127670Y-53719267D01*
X88131469Y-53709672D01*
X88193377Y-53505910D01*
X88195555Y-53495837D01*
X88196986Y-53484962D01*
X88194775Y-53470778D01*
X88181617Y-53467000D01*
X87135115Y-53467000D01*
X87119876Y-53471475D01*
X87118671Y-53472865D01*
X87117000Y-53480548D01*
X87117000Y-55480885D01*
X86609000Y-55480885D01*
X86609000Y-52940885D01*
X87117000Y-52940885D01*
X87121475Y-52956124D01*
X87122865Y-52957329D01*
X87130548Y-52959000D01*
X88181344Y-52959000D01*
X88194875Y-52955027D01*
X88196180Y-52945947D01*
X88154214Y-52778875D01*
X88150894Y-52769124D01*
X88065972Y-52573814D01*
X88061105Y-52564739D01*
X87945426Y-52385926D01*
X87939136Y-52377757D01*
X87795806Y-52220240D01*
X87788273Y-52213215D01*
X87621139Y-52081222D01*
X87612552Y-52075517D01*
X87426117Y-51972599D01*
X87416705Y-51968369D01*
X87215959Y-51897280D01*
X87205988Y-51894646D01*
X87134837Y-51881972D01*
X87121540Y-51883432D01*
X87117000Y-51897989D01*
X87117000Y-52940885D01*
X86609000Y-52940885D01*
X86609000Y-51896102D01*
X86605082Y-51882758D01*
X86590806Y-51880771D01*
X86552324Y-51886660D01*
X86542288Y-51889051D01*
X86339868Y-51955212D01*
X86330359Y-51959209D01*
X86141463Y-52057542D01*
X86132738Y-52063036D01*
X85962433Y-52190905D01*
X85954726Y-52197748D01*
X85877478Y-52278584D01*
X85815954Y-52314014D01*
X85745042Y-52310557D01*
X85687255Y-52269311D01*
X85668402Y-52235763D01*
X85626767Y-52124703D01*
X85623615Y-52116295D01*
X85536261Y-51999739D01*
X85419705Y-51912385D01*
X85283316Y-51861255D01*
X85221134Y-51854500D01*
X83424866Y-51854500D01*
X83362684Y-51861255D01*
X83226295Y-51912385D01*
X83109739Y-51999739D01*
X83022385Y-52116295D01*
X82971255Y-52252684D01*
X82964500Y-52314866D01*
X82964500Y-54111134D01*
X82971255Y-54173316D01*
X83022385Y-54309705D01*
X83109739Y-54426261D01*
X83226295Y-54513615D01*
X83234704Y-54516767D01*
X83234705Y-54516768D01*
X83343451Y-54557535D01*
X83400216Y-54600176D01*
X83424916Y-54666738D01*
X83409709Y-54736087D01*
X83390316Y-54762568D01*
X83263629Y-54895138D01*
X83137743Y-55079680D01*
X83121899Y-55113814D01*
X83052141Y-55264095D01*
X83043688Y-55282305D01*
X82983989Y-55497570D01*
X82960251Y-55719695D01*
X82960548Y-55724848D01*
X82960548Y-55724851D01*
X82965651Y-55813353D01*
X82973110Y-55942715D01*
X82974247Y-55947761D01*
X82974248Y-55947767D01*
X82985338Y-55996974D01*
X83022222Y-56160639D01*
X83106266Y-56367616D01*
X83133686Y-56412362D01*
X83213964Y-56543363D01*
X83222987Y-56558088D01*
X83369250Y-56726938D01*
X83541126Y-56869632D01*
X83611595Y-56910811D01*
X83614445Y-56912476D01*
X83663169Y-56964114D01*
X83676240Y-57033897D01*
X83649509Y-57099669D01*
X83609055Y-57133027D01*
X83596607Y-57139507D01*
X83592474Y-57142610D01*
X83592471Y-57142612D01*
X83452319Y-57247841D01*
X83417965Y-57273635D01*
X83414393Y-57277373D01*
X83292388Y-57405044D01*
X83263629Y-57435138D01*
X83260715Y-57439410D01*
X83260714Y-57439411D01*
X83175556Y-57564249D01*
X83137743Y-57619680D01*
X83121899Y-57653814D01*
X83048087Y-57812829D01*
X83043688Y-57822305D01*
X82983989Y-58037570D01*
X82960251Y-58259695D01*
X82973110Y-58482715D01*
X82974247Y-58487761D01*
X82974248Y-58487767D01*
X82974506Y-58488911D01*
X83022222Y-58700639D01*
X83106266Y-58907616D01*
X83222987Y-59098088D01*
X83369250Y-59266938D01*
X83541126Y-59409632D01*
X83611595Y-59450811D01*
X83614445Y-59452476D01*
X83663169Y-59504114D01*
X83676240Y-59573897D01*
X83649509Y-59639669D01*
X83609055Y-59673027D01*
X83596607Y-59679507D01*
X83592474Y-59682610D01*
X83592471Y-59682612D01*
X83422100Y-59810530D01*
X83417965Y-59813635D01*
X83263629Y-59975138D01*
X83260715Y-59979410D01*
X83260714Y-59979411D01*
X83245443Y-60001797D01*
X83137743Y-60159680D01*
X83043688Y-60362305D01*
X82983989Y-60577570D01*
X82960251Y-60799695D01*
X82960548Y-60804848D01*
X82960548Y-60804851D01*
X82964924Y-60880749D01*
X82973110Y-61022715D01*
X82974247Y-61027761D01*
X82974248Y-61027767D01*
X82983353Y-61068166D01*
X83022222Y-61240639D01*
X83106266Y-61447616D01*
X83222987Y-61638088D01*
X83369250Y-61806938D01*
X83541126Y-61949632D01*
X83611595Y-61990811D01*
X83614445Y-61992476D01*
X83663169Y-62044114D01*
X83676240Y-62113897D01*
X83649509Y-62179669D01*
X83609055Y-62213027D01*
X83596607Y-62219507D01*
X83592474Y-62222610D01*
X83592471Y-62222612D01*
X83568247Y-62240800D01*
X83417965Y-62353635D01*
X83263629Y-62515138D01*
X83137743Y-62699680D01*
X83043688Y-62902305D01*
X82983989Y-63117570D01*
X82960251Y-63339695D01*
X82973110Y-63562715D01*
X82974247Y-63567761D01*
X82974248Y-63567767D01*
X82987597Y-63627000D01*
X83022222Y-63780639D01*
X83106266Y-63987616D01*
X83222987Y-64178088D01*
X83369250Y-64346938D01*
X83541126Y-64489632D01*
X83611595Y-64530811D01*
X83614445Y-64532476D01*
X83663169Y-64584114D01*
X83676240Y-64653897D01*
X83649509Y-64719669D01*
X83609055Y-64753027D01*
X83596607Y-64759507D01*
X83592474Y-64762610D01*
X83592471Y-64762612D01*
X83568247Y-64780800D01*
X83417965Y-64893635D01*
X83263629Y-65055138D01*
X83137743Y-65239680D01*
X83043688Y-65442305D01*
X82983989Y-65657570D01*
X82960251Y-65879695D01*
X82973110Y-66102715D01*
X82974247Y-66107761D01*
X82974248Y-66107767D01*
X82987597Y-66167000D01*
X83022222Y-66320639D01*
X83106266Y-66527616D01*
X83148189Y-66596029D01*
X83206516Y-66691209D01*
X83222987Y-66718088D01*
X83369250Y-66886938D01*
X83541126Y-67029632D01*
X83569161Y-67046014D01*
X83614445Y-67072476D01*
X83663169Y-67124114D01*
X83676240Y-67193897D01*
X83649509Y-67259669D01*
X83609055Y-67293027D01*
X83596607Y-67299507D01*
X83592474Y-67302610D01*
X83592471Y-67302612D01*
X83422100Y-67430530D01*
X83417965Y-67433635D01*
X83263629Y-67595138D01*
X83260715Y-67599410D01*
X83260714Y-67599411D01*
X83200947Y-67687027D01*
X83137743Y-67779680D01*
X83121899Y-67813814D01*
X83049290Y-67970237D01*
X83043688Y-67982305D01*
X82983989Y-68197570D01*
X82960251Y-68419695D01*
X82960548Y-68424848D01*
X82960548Y-68424851D01*
X82966258Y-68523878D01*
X82973110Y-68642715D01*
X82974247Y-68647761D01*
X82974248Y-68647767D01*
X82994765Y-68738803D01*
X83022222Y-68860639D01*
X83071558Y-68982139D01*
X83098663Y-69048891D01*
X83106266Y-69067616D01*
X83134470Y-69113641D01*
X83217276Y-69248768D01*
X83222987Y-69258088D01*
X83369250Y-69426938D01*
X83541126Y-69569632D01*
X83611595Y-69610811D01*
X83614445Y-69612476D01*
X83663169Y-69664114D01*
X83676240Y-69733897D01*
X83649509Y-69799669D01*
X83609055Y-69833027D01*
X83596607Y-69839507D01*
X83592474Y-69842610D01*
X83592471Y-69842612D01*
X83535359Y-69885493D01*
X83417965Y-69973635D01*
X83379100Y-70014305D01*
X83323096Y-70072910D01*
X83263629Y-70135138D01*
X83137743Y-70319680D01*
X83121899Y-70353814D01*
X83074071Y-70456851D01*
X83043688Y-70522305D01*
X82983989Y-70737570D01*
X82960251Y-70959695D01*
X82960548Y-70964848D01*
X82960548Y-70964851D01*
X82970222Y-71132625D01*
X82973110Y-71182715D01*
X82974247Y-71187761D01*
X82974248Y-71187767D01*
X82996366Y-71285910D01*
X83022222Y-71400639D01*
X83106266Y-71607616D01*
X83108965Y-71612020D01*
X83196077Y-71754174D01*
X83222987Y-71798088D01*
X83369250Y-71966938D01*
X83450235Y-72034173D01*
X83534580Y-72104197D01*
X83541126Y-72109632D01*
X83559333Y-72120271D01*
X83614445Y-72152476D01*
X83663169Y-72204114D01*
X83676240Y-72273897D01*
X83649509Y-72339669D01*
X83609055Y-72373027D01*
X83596607Y-72379507D01*
X83592474Y-72382610D01*
X83592471Y-72382612D01*
X83422100Y-72510530D01*
X83417965Y-72513635D01*
X83384358Y-72548803D01*
X83274751Y-72663500D01*
X83263629Y-72675138D01*
X83260715Y-72679410D01*
X83260714Y-72679411D01*
X83242838Y-72705617D01*
X83137743Y-72859680D01*
X83043688Y-73062305D01*
X82983989Y-73277570D01*
X82960251Y-73499695D01*
X82960548Y-73504848D01*
X82960548Y-73504851D01*
X82970222Y-73672625D01*
X82973110Y-73722715D01*
X82974247Y-73727761D01*
X82974248Y-73727767D01*
X82996366Y-73825910D01*
X83022222Y-73940639D01*
X83106266Y-74147616D01*
X83108965Y-74152020D01*
X83196077Y-74294174D01*
X83222987Y-74338088D01*
X83369250Y-74506938D01*
X83450235Y-74574173D01*
X83534580Y-74644197D01*
X83541126Y-74649632D01*
X83611595Y-74690811D01*
X83614445Y-74692476D01*
X83663169Y-74744114D01*
X83676240Y-74813897D01*
X83649509Y-74879669D01*
X83609055Y-74913027D01*
X83596607Y-74919507D01*
X83592474Y-74922610D01*
X83592471Y-74922612D01*
X83422100Y-75050530D01*
X83417965Y-75053635D01*
X83263629Y-75215138D01*
X83260715Y-75219410D01*
X83260714Y-75219411D01*
X83228160Y-75267134D01*
X83137743Y-75399680D01*
X83123003Y-75431435D01*
X83056621Y-75574444D01*
X83043688Y-75602305D01*
X82983989Y-75817570D01*
X82960251Y-76039695D01*
X82960548Y-76044848D01*
X82960548Y-76044851D01*
X82970222Y-76212625D01*
X82973110Y-76262715D01*
X82974247Y-76267761D01*
X82974248Y-76267767D01*
X82996366Y-76365910D01*
X83022222Y-76480639D01*
X83106266Y-76687616D01*
X83134634Y-76733909D01*
X83219552Y-76872482D01*
X83222987Y-76878088D01*
X83369250Y-77046938D01*
X83447907Y-77112240D01*
X83534580Y-77184197D01*
X83541126Y-77189632D01*
X83611595Y-77230811D01*
X83614445Y-77232476D01*
X83663169Y-77284114D01*
X83676240Y-77353897D01*
X83649509Y-77419669D01*
X83609055Y-77453027D01*
X83596607Y-77459507D01*
X83592474Y-77462610D01*
X83592471Y-77462612D01*
X83437156Y-77579226D01*
X83417965Y-77593635D01*
X83263629Y-77755138D01*
X83260715Y-77759410D01*
X83260714Y-77759411D01*
X83202610Y-77844588D01*
X83137743Y-77939680D01*
X83123003Y-77971435D01*
X83047346Y-78134425D01*
X83043688Y-78142305D01*
X82983989Y-78357570D01*
X82960251Y-78579695D01*
X82960548Y-78584848D01*
X82960548Y-78584851D01*
X82969017Y-78731734D01*
X82973110Y-78802715D01*
X82974247Y-78807761D01*
X82974248Y-78807767D01*
X82996366Y-78905910D01*
X83022222Y-79020639D01*
X83106266Y-79227616D01*
X83123823Y-79256266D01*
X83219370Y-79412185D01*
X83222987Y-79418088D01*
X83369250Y-79586938D01*
X83541126Y-79729632D01*
X83611595Y-79770811D01*
X83614445Y-79772476D01*
X83663169Y-79824114D01*
X83676240Y-79893897D01*
X83649509Y-79959669D01*
X83609055Y-79993027D01*
X83596607Y-79999507D01*
X83592474Y-80002610D01*
X83592471Y-80002612D01*
X83422100Y-80130530D01*
X83417965Y-80133635D01*
X83263629Y-80295138D01*
X83137743Y-80479680D01*
X83121899Y-80513814D01*
X83088691Y-80585355D01*
X83043688Y-80682305D01*
X82983989Y-80897570D01*
X82960251Y-81119695D01*
X82973110Y-81342715D01*
X82974247Y-81347761D01*
X82974248Y-81347767D01*
X82987597Y-81407000D01*
X83022222Y-81560639D01*
X83106266Y-81767616D01*
X83222987Y-81958088D01*
X83369250Y-82126938D01*
X83541126Y-82269632D01*
X83611595Y-82310811D01*
X83614445Y-82312476D01*
X83663169Y-82364114D01*
X83676240Y-82433897D01*
X83649509Y-82499669D01*
X83609055Y-82533027D01*
X83596607Y-82539507D01*
X83592474Y-82542610D01*
X83592471Y-82542612D01*
X83568247Y-82560800D01*
X83417965Y-82673635D01*
X83263629Y-82835138D01*
X83137743Y-83019680D01*
X83121899Y-83053814D01*
X83050379Y-83207891D01*
X83043688Y-83222305D01*
X82983989Y-83437570D01*
X82960251Y-83659695D01*
X82973110Y-83882715D01*
X82974247Y-83887761D01*
X82974248Y-83887767D01*
X82987597Y-83947000D01*
X83022222Y-84100639D01*
X83106266Y-84307616D01*
X83108965Y-84312020D01*
X83194303Y-84451279D01*
X83222987Y-84498088D01*
X83369250Y-84666938D01*
X83541126Y-84809632D01*
X83611595Y-84850811D01*
X83614445Y-84852476D01*
X83663169Y-84904114D01*
X83676240Y-84973897D01*
X83649509Y-85039669D01*
X83609055Y-85073027D01*
X83596607Y-85079507D01*
X83592474Y-85082610D01*
X83592471Y-85082612D01*
X83422100Y-85210530D01*
X83417965Y-85213635D01*
X83263629Y-85375138D01*
X83137743Y-85559680D01*
X83043688Y-85762305D01*
X82983989Y-85977570D01*
X82960251Y-86199695D01*
X82960548Y-86204848D01*
X82960548Y-86204851D01*
X82964392Y-86271510D01*
X82973110Y-86422715D01*
X82974247Y-86427761D01*
X82974248Y-86427767D01*
X82989806Y-86496802D01*
X83022222Y-86640639D01*
X83106266Y-86847616D01*
X83222987Y-87038088D01*
X83369250Y-87206938D01*
X83541126Y-87349632D01*
X83611595Y-87390811D01*
X83614445Y-87392476D01*
X83663169Y-87444114D01*
X83676240Y-87513897D01*
X83649509Y-87579669D01*
X83609055Y-87613027D01*
X83596607Y-87619507D01*
X83592474Y-87622610D01*
X83592471Y-87622612D01*
X83447996Y-87731087D01*
X83417965Y-87753635D01*
X83263629Y-87915138D01*
X83260715Y-87919410D01*
X83260714Y-87919411D01*
X83234919Y-87957225D01*
X83137743Y-88099680D01*
X83101873Y-88176955D01*
X83049290Y-88290237D01*
X83043688Y-88302305D01*
X82983989Y-88517570D01*
X82960251Y-88739695D01*
X82960548Y-88744848D01*
X82960548Y-88744851D01*
X82963528Y-88796528D01*
X82973110Y-88962715D01*
X82974247Y-88967761D01*
X82974248Y-88967767D01*
X82987597Y-89027000D01*
X83022222Y-89180639D01*
X83106266Y-89387616D01*
X83222987Y-89578088D01*
X83369250Y-89746938D01*
X83541126Y-89889632D01*
X83611595Y-89930811D01*
X83614445Y-89932476D01*
X83663169Y-89984114D01*
X83676240Y-90053897D01*
X83649509Y-90119669D01*
X83609055Y-90153027D01*
X83596607Y-90159507D01*
X83592474Y-90162610D01*
X83592471Y-90162612D01*
X83568247Y-90180800D01*
X83417965Y-90293635D01*
X83263629Y-90455138D01*
X83137743Y-90639680D01*
X83043688Y-90842305D01*
X82983989Y-91057570D01*
X82960251Y-91279695D01*
X82550000Y-91279695D01*
X82550000Y-46481000D01*
X82570002Y-46412879D01*
X82623658Y-46366386D01*
X82676000Y-46355000D01*
X130684000Y-46355000D01*
X130752121Y-46375002D01*
G37*
G04 #@! TD.AperFunction*
M02*
