M48
; DRILL file {KiCad (6.0.1-0)} date Tuesday, March 29, 2022 at 09:42:40 pm
; FORMAT={-:-/ absolute / metric / decimal}
; #@! TF.CreationDate,2022-03-29T21:42:40-04:00
; #@! TF.GenerationSoftware,Kicad,Pcbnew,(6.0.1-0)
; #@! TF.FileFunction,Plated,1,4,PTH
FMAT,2
METRIC
; #@! TA.AperFunction,Plated,PTH,ViaDrill
T1C0.400
; #@! TA.AperFunction,Plated,PTH,ComponentDrill
T2C0.800
; #@! TA.AperFunction,Plated,PTH,ComponentDrill
T3C1.000
%
G90
G05
T1
X88.873Y-102.108
X89.382Y-103.381
X89.916Y-107.061
X90.678Y-108.458
X91.694Y-108.458
X92.329Y-106.68
X92.964Y-102.743
X93.726Y-101.473
X94.234Y-68.326
X94.234Y-76.2
X94.234Y-78.232
X94.361Y-67.183
X96.266Y-67.183
X97.059Y-108.237
X97.409Y-75.946
X97.409Y-77.978
X97.663Y-81.407
X97.917Y-83.82
X97.919Y-108.006
X98.042Y-87.503
X98.171Y-71.755
X98.552Y-102.108
X98.552Y-103.378
X99.06Y-91.313
X99.568Y-84.328
X100.076Y-71.755
X101.219Y-60.198
X101.219Y-84.201
X101.262Y-104.208
X105.41Y-84.074
X105.537Y-73.152
X106.172Y-100.838
X106.172Y-102.108
X106.172Y-103.378
X106.172Y-107.061
X106.172Y-108.331
X106.553Y-84.074
X107.061Y-60.198
X107.271Y-71.738
X108.077Y-69.203
X109.22Y-75.311
X109.728Y-105.918
X109.855Y-77.944
X109.855Y-78.994
X109.855Y-80.044
X113.03Y-81.407
X113.538Y-77.597
X115.316Y-70.866
X116.078Y-67.945
X116.713Y-65.024
X119.126Y-72.898
X119.126Y-75.438
X122.174Y-67.945
X122.301Y-72.898
X124.079Y-65.278
T2
X119.126Y-87.503
X119.126Y-102.743
X126.746Y-87.503
X126.746Y-102.743
T3
X84.323Y-53.213
X84.323Y-55.753
X84.323Y-58.293
X84.323Y-60.833
X84.323Y-63.373
X84.323Y-65.913
X84.323Y-68.453
X84.323Y-70.993
X84.323Y-73.533
X84.323Y-76.073
X84.323Y-78.613
X84.323Y-81.153
X84.323Y-83.693
X84.323Y-86.233
X84.323Y-88.773
X84.323Y-91.313
X86.863Y-53.213
X86.863Y-55.753
X86.863Y-58.293
X86.863Y-60.833
X86.863Y-63.373
X86.863Y-65.913
X86.863Y-68.453
X86.863Y-70.993
X86.863Y-73.533
X86.863Y-76.073
X86.863Y-78.613
X86.863Y-81.153
X86.863Y-83.693
X86.863Y-86.233
X86.863Y-88.773
X86.863Y-91.313
X98.314Y-56.499
X99.459Y-54.519
X99.459Y-58.479
X100.604Y-56.499
X101.749Y-54.519
X101.749Y-58.479
X102.894Y-56.499
X104.039Y-54.519
X104.039Y-58.479
X105.184Y-56.499
X106.329Y-54.519
X106.329Y-58.479
X107.474Y-56.499
X108.619Y-54.519
X108.619Y-58.479
X124.46Y-67.945
X124.46Y-70.485
X124.46Y-73.025
X124.46Y-75.565
X124.46Y-78.105
X127.0Y-67.945
X127.0Y-70.485
X127.0Y-73.025
X127.0Y-75.565
X127.0Y-78.105
T0
M30
