G04 #@! TF.GenerationSoftware,KiCad,Pcbnew,(6.0.1-0)*
G04 #@! TF.CreationDate,2022-03-29T21:42:36-04:00*
G04 #@! TF.ProjectId,G76 Mini,47373620-4d69-46e6-992e-6b696361645f,rev?*
G04 #@! TF.SameCoordinates,Original*
G04 #@! TF.FileFunction,Legend,Bot*
G04 #@! TF.FilePolarity,Positive*
%FSLAX46Y46*%
G04 Gerber Fmt 4.6, Leading zero omitted, Abs format (unit mm)*
G04 Created by KiCad (PCBNEW (6.0.1-0)) date 2022-03-29 21:42:36*
%MOMM*%
%LPD*%
G01*
G04 APERTURE LIST*
G04 Aperture macros list*
%AMRoundRect*
0 Rectangle with rounded corners*
0 $1 Rounding radius*
0 $2 $3 $4 $5 $6 $7 $8 $9 X,Y pos of 4 corners*
0 Add a 4 corners polygon primitive as box body*
4,1,4,$2,$3,$4,$5,$6,$7,$8,$9,$2,$3,0*
0 Add four circle primitives for the rounded corners*
1,1,$1+$1,$2,$3*
1,1,$1+$1,$4,$5*
1,1,$1+$1,$6,$7*
1,1,$1+$1,$8,$9*
0 Add four rect primitives between the rounded corners*
20,1,$1+$1,$2,$3,$4,$5,0*
20,1,$1+$1,$4,$5,$6,$7,0*
20,1,$1+$1,$6,$7,$8,$9,0*
20,1,$1+$1,$8,$9,$2,$3,0*%
G04 Aperture macros list end*
%ADD10C,0.150000*%
%ADD11C,0.120000*%
%ADD12R,1.600000X1.600000*%
%ADD13C,1.600000*%
%ADD14R,1.700000X1.700000*%
%ADD15O,1.700000X1.700000*%
%ADD16RoundRect,0.250000X0.412500X0.650000X-0.412500X0.650000X-0.412500X-0.650000X0.412500X-0.650000X0*%
%ADD17RoundRect,0.250000X-0.412500X-0.650000X0.412500X-0.650000X0.412500X0.650000X-0.412500X0.650000X0*%
%ADD18RoundRect,0.250000X-0.650000X0.412500X-0.650000X-0.412500X0.650000X-0.412500X0.650000X0.412500X0*%
%ADD19RoundRect,0.250000X0.650000X-0.412500X0.650000X0.412500X-0.650000X0.412500X-0.650000X-0.412500X0*%
G04 APERTURE END LIST*
D10*
X103997417Y-71623288D02*
X104045036Y-71670907D01*
X104187893Y-71718526D01*
X104283131Y-71718526D01*
X104425989Y-71670907D01*
X104521227Y-71575669D01*
X104568846Y-71480431D01*
X104616465Y-71289955D01*
X104616465Y-71147098D01*
X104568846Y-70956622D01*
X104521227Y-70861384D01*
X104425989Y-70766146D01*
X104283131Y-70718526D01*
X104187893Y-70718526D01*
X104045036Y-70766146D01*
X103997417Y-70813765D01*
X103140274Y-71051860D02*
X103140274Y-71718526D01*
X103378370Y-70670907D02*
X103616465Y-71385193D01*
X102997417Y-71385193D01*
X96675501Y-72895530D02*
X96723120Y-72847911D01*
X96770739Y-72705054D01*
X96770739Y-72609816D01*
X96723120Y-72466958D01*
X96627882Y-72371720D01*
X96532644Y-72324101D01*
X96342168Y-72276482D01*
X96199311Y-72276482D01*
X96008835Y-72324101D01*
X95913597Y-72371720D01*
X95818359Y-72466958D01*
X95770739Y-72609816D01*
X95770739Y-72705054D01*
X95818359Y-72847911D01*
X95865978Y-72895530D01*
X96199311Y-73466958D02*
X96151692Y-73371720D01*
X96104073Y-73324101D01*
X96008835Y-73276482D01*
X95961216Y-73276482D01*
X95865978Y-73324101D01*
X95818359Y-73371720D01*
X95770739Y-73466958D01*
X95770739Y-73657435D01*
X95818359Y-73752673D01*
X95865978Y-73800292D01*
X95961216Y-73847911D01*
X96008835Y-73847911D01*
X96104073Y-73800292D01*
X96151692Y-73752673D01*
X96199311Y-73657435D01*
X96199311Y-73466958D01*
X96246930Y-73371720D01*
X96294549Y-73324101D01*
X96389787Y-73276482D01*
X96580263Y-73276482D01*
X96675501Y-73324101D01*
X96723120Y-73371720D01*
X96770739Y-73466958D01*
X96770739Y-73657435D01*
X96723120Y-73752673D01*
X96675501Y-73800292D01*
X96580263Y-73847911D01*
X96389787Y-73847911D01*
X96294549Y-73800292D01*
X96246930Y-73752673D01*
X96199311Y-73657435D01*
X105285468Y-79821945D02*
X105333087Y-79869564D01*
X105475944Y-79917183D01*
X105571182Y-79917183D01*
X105714040Y-79869564D01*
X105809278Y-79774326D01*
X105856897Y-79679088D01*
X105904516Y-79488612D01*
X105904516Y-79345755D01*
X105856897Y-79155279D01*
X105809278Y-79060041D01*
X105714040Y-78964803D01*
X105571182Y-78917183D01*
X105475944Y-78917183D01*
X105333087Y-78964803D01*
X105285468Y-79012422D01*
X104904516Y-79012422D02*
X104856897Y-78964803D01*
X104761659Y-78917183D01*
X104523563Y-78917183D01*
X104428325Y-78964803D01*
X104380706Y-79012422D01*
X104333087Y-79107660D01*
X104333087Y-79202898D01*
X104380706Y-79345755D01*
X104952135Y-79917183D01*
X104333087Y-79917183D01*
X102964915Y-85226601D02*
X103012534Y-85274220D01*
X103155391Y-85321839D01*
X103250629Y-85321839D01*
X103393487Y-85274220D01*
X103488725Y-85178982D01*
X103536344Y-85083744D01*
X103583963Y-84893268D01*
X103583963Y-84750411D01*
X103536344Y-84559935D01*
X103488725Y-84464697D01*
X103393487Y-84369459D01*
X103250629Y-84321839D01*
X103155391Y-84321839D01*
X103012534Y-84369459D01*
X102964915Y-84417078D01*
X102107772Y-84321839D02*
X102298249Y-84321839D01*
X102393487Y-84369459D01*
X102441106Y-84417078D01*
X102536344Y-84559935D01*
X102583963Y-84750411D01*
X102583963Y-85131363D01*
X102536344Y-85226601D01*
X102488725Y-85274220D01*
X102393487Y-85321839D01*
X102203010Y-85321839D01*
X102107772Y-85274220D01*
X102060153Y-85226601D01*
X102012534Y-85131363D01*
X102012534Y-84893268D01*
X102060153Y-84798030D01*
X102107772Y-84750411D01*
X102203010Y-84702792D01*
X102393487Y-84702792D01*
X102488725Y-84750411D01*
X102536344Y-84798030D01*
X102583963Y-84893268D01*
X103417666Y-82907142D02*
X103465285Y-82954761D01*
X103608142Y-83002380D01*
X103703380Y-83002380D01*
X103846238Y-82954761D01*
X103941476Y-82859523D01*
X103989095Y-82764285D01*
X104036714Y-82573809D01*
X104036714Y-82430952D01*
X103989095Y-82240476D01*
X103941476Y-82145238D01*
X103846238Y-82050000D01*
X103703380Y-82002380D01*
X103608142Y-82002380D01*
X103465285Y-82050000D01*
X103417666Y-82097619D01*
X102512904Y-82002380D02*
X102989095Y-82002380D01*
X103036714Y-82478571D01*
X102989095Y-82430952D01*
X102893857Y-82383333D01*
X102655761Y-82383333D01*
X102560523Y-82430952D01*
X102512904Y-82478571D01*
X102465285Y-82573809D01*
X102465285Y-82811904D01*
X102512904Y-82907142D01*
X102560523Y-82954761D01*
X102655761Y-83002380D01*
X102893857Y-83002380D01*
X102989095Y-82954761D01*
X103036714Y-82907142D01*
X102419717Y-76994486D02*
X102467336Y-77042105D01*
X102610193Y-77089724D01*
X102705431Y-77089724D01*
X102848289Y-77042105D01*
X102943527Y-76946867D01*
X102991146Y-76851629D01*
X103038765Y-76661153D01*
X103038765Y-76518296D01*
X102991146Y-76327820D01*
X102943527Y-76232582D01*
X102848289Y-76137344D01*
X102705431Y-76089724D01*
X102610193Y-76089724D01*
X102467336Y-76137344D01*
X102419717Y-76184963D01*
X101943527Y-77089724D02*
X101753051Y-77089724D01*
X101657812Y-77042105D01*
X101610193Y-76994486D01*
X101514955Y-76851629D01*
X101467336Y-76661153D01*
X101467336Y-76280201D01*
X101514955Y-76184963D01*
X101562574Y-76137344D01*
X101657812Y-76089724D01*
X101848289Y-76089724D01*
X101943527Y-76137344D01*
X101991146Y-76184963D01*
X102038765Y-76280201D01*
X102038765Y-76518296D01*
X101991146Y-76613534D01*
X101943527Y-76661153D01*
X101848289Y-76708772D01*
X101657812Y-76708772D01*
X101562574Y-76661153D01*
X101514955Y-76613534D01*
X101467336Y-76518296D01*
X104406244Y-76033333D02*
X104453863Y-75985714D01*
X104501482Y-75842857D01*
X104501482Y-75747619D01*
X104453863Y-75604761D01*
X104358625Y-75509523D01*
X104263387Y-75461904D01*
X104072911Y-75414285D01*
X103930054Y-75414285D01*
X103739578Y-75461904D01*
X103644340Y-75509523D01*
X103549102Y-75604761D01*
X103501482Y-75747619D01*
X103501482Y-75842857D01*
X103549102Y-75985714D01*
X103596721Y-76033333D01*
X103501482Y-76366666D02*
X103501482Y-76985714D01*
X103882435Y-76652380D01*
X103882435Y-76795238D01*
X103930054Y-76890476D01*
X103977673Y-76938095D01*
X104072911Y-76985714D01*
X104311006Y-76985714D01*
X104406244Y-76938095D01*
X104453863Y-76890476D01*
X104501482Y-76795238D01*
X104501482Y-76509523D01*
X104453863Y-76414285D01*
X104406244Y-76366666D01*
X101504142Y-107910333D02*
X101551761Y-107862714D01*
X101599380Y-107719857D01*
X101599380Y-107624619D01*
X101551761Y-107481761D01*
X101456523Y-107386523D01*
X101361285Y-107338904D01*
X101170809Y-107291285D01*
X101027952Y-107291285D01*
X100837476Y-107338904D01*
X100742238Y-107386523D01*
X100647000Y-107481761D01*
X100599380Y-107624619D01*
X100599380Y-107719857D01*
X100647000Y-107862714D01*
X100694619Y-107910333D01*
X100599380Y-108243666D02*
X100599380Y-108910333D01*
X101599380Y-108481761D01*
X104878142Y-105878333D02*
X104925761Y-105830714D01*
X104973380Y-105687857D01*
X104973380Y-105592619D01*
X104925761Y-105449761D01*
X104830523Y-105354523D01*
X104735285Y-105306904D01*
X104544809Y-105259285D01*
X104401952Y-105259285D01*
X104211476Y-105306904D01*
X104116238Y-105354523D01*
X104021000Y-105449761D01*
X103973380Y-105592619D01*
X103973380Y-105687857D01*
X104021000Y-105830714D01*
X104068619Y-105878333D01*
X104973380Y-106830714D02*
X104973380Y-106259285D01*
X104973380Y-106545000D02*
X103973380Y-106545000D01*
X104116238Y-106449761D01*
X104211476Y-106354523D01*
X104259095Y-106259285D01*
X103385856Y-80367142D02*
X103433475Y-80414761D01*
X103576332Y-80462380D01*
X103671570Y-80462380D01*
X103814427Y-80414761D01*
X103909665Y-80319523D01*
X103957284Y-80224285D01*
X104004903Y-80033809D01*
X104004903Y-79890952D01*
X103957284Y-79700476D01*
X103909665Y-79605238D01*
X103814427Y-79510000D01*
X103671570Y-79462380D01*
X103576332Y-79462380D01*
X103433475Y-79510000D01*
X103385856Y-79557619D01*
X102433475Y-80462380D02*
X103004903Y-80462380D01*
X102719189Y-80462380D02*
X102719189Y-79462380D01*
X102814427Y-79605238D01*
X102909665Y-79700476D01*
X103004903Y-79748095D01*
X101814427Y-79462380D02*
X101719189Y-79462380D01*
X101623951Y-79510000D01*
X101576332Y-79557619D01*
X101528713Y-79652857D01*
X101481094Y-79843333D01*
X101481094Y-80081428D01*
X101528713Y-80271904D01*
X101576332Y-80367142D01*
X101623951Y-80414761D01*
X101719189Y-80462380D01*
X101814427Y-80462380D01*
X101909665Y-80414761D01*
X101957284Y-80367142D01*
X102004903Y-80271904D01*
X102052522Y-80081428D01*
X102052522Y-79843333D01*
X102004903Y-79652857D01*
X101957284Y-79557619D01*
X101909665Y-79510000D01*
X101814427Y-79462380D01*
D11*
X106248252Y-74062000D02*
X104825748Y-74062000D01*
X106248252Y-72242000D02*
X104825748Y-72242000D01*
X100406252Y-72242000D02*
X98983748Y-72242000D01*
X100406252Y-74062000D02*
X98983748Y-74062000D01*
X107645252Y-78380000D02*
X106222748Y-78380000D01*
X107645252Y-76560000D02*
X106222748Y-76560000D01*
X100380748Y-83714000D02*
X101803252Y-83714000D01*
X100380748Y-81894000D02*
X101803252Y-81894000D01*
X107645252Y-81640000D02*
X106222748Y-81640000D01*
X107645252Y-83460000D02*
X106222748Y-83460000D01*
X99745748Y-79523000D02*
X101168252Y-79523000D01*
X99745748Y-77703000D02*
X101168252Y-77703000D01*
X99745748Y-75290000D02*
X101168252Y-75290000D01*
X99745748Y-77110000D02*
X101168252Y-77110000D01*
X103907000Y-107365748D02*
X103907000Y-108788252D01*
X102087000Y-107365748D02*
X102087000Y-108788252D01*
X105431000Y-103073252D02*
X105431000Y-101650748D01*
X103611000Y-103073252D02*
X103611000Y-101650748D01*
X107645252Y-80920000D02*
X106222748Y-80920000D01*
X107645252Y-79100000D02*
X106222748Y-79100000D01*
%LPC*%
D12*
X126746000Y-102743000D03*
D13*
X126746000Y-87503000D03*
X119126000Y-87503000D03*
X119126000Y-102743000D03*
D12*
X99459000Y-58479331D03*
D13*
X101749000Y-58479331D03*
X104039000Y-58479331D03*
X106329000Y-58479331D03*
X108619000Y-58479331D03*
X98314000Y-56499331D03*
X100604000Y-56499331D03*
X102894000Y-56499331D03*
X105184000Y-56499331D03*
X107474000Y-56499331D03*
X99459000Y-54519331D03*
X101749000Y-54519331D03*
X104039000Y-54519331D03*
X106329000Y-54519331D03*
X108619000Y-54519331D03*
D14*
X124460000Y-67945000D03*
D15*
X127000000Y-67945000D03*
X124460000Y-70485000D03*
X127000000Y-70485000D03*
X124460000Y-73025000D03*
X127000000Y-73025000D03*
X124460000Y-75565000D03*
X127000000Y-75565000D03*
X124460000Y-78105000D03*
X127000000Y-78105000D03*
D14*
X84323000Y-53213000D03*
D15*
X86863000Y-53213000D03*
X84323000Y-55753000D03*
X86863000Y-55753000D03*
X84323000Y-58293000D03*
X86863000Y-58293000D03*
X84323000Y-60833000D03*
X86863000Y-60833000D03*
X84323000Y-63373000D03*
X86863000Y-63373000D03*
X84323000Y-65913000D03*
X86863000Y-65913000D03*
X84323000Y-68453000D03*
X86863000Y-68453000D03*
X84323000Y-70993000D03*
X86863000Y-70993000D03*
X84323000Y-73533000D03*
X86863000Y-73533000D03*
X84323000Y-76073000D03*
X86863000Y-76073000D03*
X84323000Y-78613000D03*
X86863000Y-78613000D03*
X84323000Y-81153000D03*
X86863000Y-81153000D03*
X84323000Y-83693000D03*
X86863000Y-83693000D03*
X84323000Y-86233000D03*
X86863000Y-86233000D03*
X84323000Y-88773000D03*
X86863000Y-88773000D03*
X84323000Y-91313000D03*
X86863000Y-91313000D03*
D16*
X107099500Y-73152000D03*
X103974500Y-73152000D03*
X101257500Y-73152000D03*
X98132500Y-73152000D03*
X108496500Y-77470000D03*
X105371500Y-77470000D03*
D17*
X99529500Y-82804000D03*
X102654500Y-82804000D03*
D16*
X108496500Y-82550000D03*
X105371500Y-82550000D03*
D17*
X98894500Y-78613000D03*
X102019500Y-78613000D03*
X98894500Y-76200000D03*
X102019500Y-76200000D03*
D18*
X102997000Y-106514500D03*
X102997000Y-109639500D03*
D19*
X104521000Y-103924500D03*
X104521000Y-100799500D03*
D16*
X108496500Y-80010000D03*
X105371500Y-80010000D03*
M02*
