G04 #@! TF.GenerationSoftware,KiCad,Pcbnew,(6.0.1-0)*
G04 #@! TF.CreationDate,2022-03-29T21:42:36-04:00*
G04 #@! TF.ProjectId,G76 Mini,47373620-4d69-46e6-992e-6b696361645f,rev?*
G04 #@! TF.SameCoordinates,Original*
G04 #@! TF.FileFunction,Soldermask,Bot*
G04 #@! TF.FilePolarity,Negative*
%FSLAX46Y46*%
G04 Gerber Fmt 4.6, Leading zero omitted, Abs format (unit mm)*
G04 Created by KiCad (PCBNEW (6.0.1-0)) date 2022-03-29 21:42:36*
%MOMM*%
%LPD*%
G01*
G04 APERTURE LIST*
G04 Aperture macros list*
%AMRoundRect*
0 Rectangle with rounded corners*
0 $1 Rounding radius*
0 $2 $3 $4 $5 $6 $7 $8 $9 X,Y pos of 4 corners*
0 Add a 4 corners polygon primitive as box body*
4,1,4,$2,$3,$4,$5,$6,$7,$8,$9,$2,$3,0*
0 Add four circle primitives for the rounded corners*
1,1,$1+$1,$2,$3*
1,1,$1+$1,$4,$5*
1,1,$1+$1,$6,$7*
1,1,$1+$1,$8,$9*
0 Add four rect primitives between the rounded corners*
20,1,$1+$1,$2,$3,$4,$5,0*
20,1,$1+$1,$4,$5,$6,$7,0*
20,1,$1+$1,$6,$7,$8,$9,0*
20,1,$1+$1,$8,$9,$2,$3,0*%
G04 Aperture macros list end*
%ADD10R,1.600000X1.600000*%
%ADD11C,1.600000*%
%ADD12R,1.700000X1.700000*%
%ADD13O,1.700000X1.700000*%
%ADD14RoundRect,0.250000X0.412500X0.650000X-0.412500X0.650000X-0.412500X-0.650000X0.412500X-0.650000X0*%
%ADD15RoundRect,0.250000X-0.412500X-0.650000X0.412500X-0.650000X0.412500X0.650000X-0.412500X0.650000X0*%
%ADD16RoundRect,0.250000X-0.650000X0.412500X-0.650000X-0.412500X0.650000X-0.412500X0.650000X0.412500X0*%
%ADD17RoundRect,0.250000X0.650000X-0.412500X0.650000X0.412500X-0.650000X0.412500X-0.650000X-0.412500X0*%
G04 APERTURE END LIST*
D10*
X126746000Y-102743000D03*
D11*
X126746000Y-87503000D03*
X119126000Y-87503000D03*
X119126000Y-102743000D03*
D10*
X99459000Y-58479331D03*
D11*
X101749000Y-58479331D03*
X104039000Y-58479331D03*
X106329000Y-58479331D03*
X108619000Y-58479331D03*
X98314000Y-56499331D03*
X100604000Y-56499331D03*
X102894000Y-56499331D03*
X105184000Y-56499331D03*
X107474000Y-56499331D03*
X99459000Y-54519331D03*
X101749000Y-54519331D03*
X104039000Y-54519331D03*
X106329000Y-54519331D03*
X108619000Y-54519331D03*
D12*
X124460000Y-67945000D03*
D13*
X127000000Y-67945000D03*
X124460000Y-70485000D03*
X127000000Y-70485000D03*
X124460000Y-73025000D03*
X127000000Y-73025000D03*
X124460000Y-75565000D03*
X127000000Y-75565000D03*
X124460000Y-78105000D03*
X127000000Y-78105000D03*
D12*
X84323000Y-53213000D03*
D13*
X86863000Y-53213000D03*
X84323000Y-55753000D03*
X86863000Y-55753000D03*
X84323000Y-58293000D03*
X86863000Y-58293000D03*
X84323000Y-60833000D03*
X86863000Y-60833000D03*
X84323000Y-63373000D03*
X86863000Y-63373000D03*
X84323000Y-65913000D03*
X86863000Y-65913000D03*
X84323000Y-68453000D03*
X86863000Y-68453000D03*
X84323000Y-70993000D03*
X86863000Y-70993000D03*
X84323000Y-73533000D03*
X86863000Y-73533000D03*
X84323000Y-76073000D03*
X86863000Y-76073000D03*
X84323000Y-78613000D03*
X86863000Y-78613000D03*
X84323000Y-81153000D03*
X86863000Y-81153000D03*
X84323000Y-83693000D03*
X86863000Y-83693000D03*
X84323000Y-86233000D03*
X86863000Y-86233000D03*
X84323000Y-88773000D03*
X86863000Y-88773000D03*
X84323000Y-91313000D03*
X86863000Y-91313000D03*
D14*
X107099500Y-73152000D03*
X103974500Y-73152000D03*
X101257500Y-73152000D03*
X98132500Y-73152000D03*
X108496500Y-77470000D03*
X105371500Y-77470000D03*
D15*
X99529500Y-82804000D03*
X102654500Y-82804000D03*
D14*
X108496500Y-82550000D03*
X105371500Y-82550000D03*
D15*
X98894500Y-78613000D03*
X102019500Y-78613000D03*
X98894500Y-76200000D03*
X102019500Y-76200000D03*
D16*
X102997000Y-106514500D03*
X102997000Y-109639500D03*
D17*
X104521000Y-103924500D03*
X104521000Y-100799500D03*
D14*
X108496500Y-80010000D03*
X105371500Y-80010000D03*
M02*
